<svg width="1200" height="675" viewBox="0 0 1200 675" fill="none" xmlns="http://www.w3.org/2000/svg">
<g clip-path="url(#clip0_1361_21222)">
<g opacity="0.2" filter="url(#filter0_f_1361_21222)">
<circle cx="929" cy="138" r="210" fill="#8477C4"/>
</g>
<circle cx="929" cy="138" r="210" fill="url(#paint0_radial_1361_21222)"/>
<path d="M1347.3 601.267C1272.11 602.466 1227.01 603.279 1212.03 603.701C1197.05 604.055 1174.56 602.43 1144.57 598.828C1114.53 595.225 1069.29 588.233 1008.85 577.852C948.462 567.257 905.115 562.666 878.792 564.079C852.408 565.348 825.006 568.739 796.584 574.25C768.101 579.687 733.264 585.268 692.069 590.988C655.133 598.545 617.026 605.784 577.751 612.707C538.418 619.632 509.576 621.006 491.228 616.839C465.384 614.72 430.936 608.117 387.884 597.029C334.337 583.183 294.343 576.263 267.898 576.263C227.125 576.263 187.611 581.17 149.355 590.988C126.628 596.778 113.018 600.135 108.521 601.053C93.5311 604.091 78.7804 605.608 64.269 605.608C58.5721 605.608 52.8157 605.22 47 604.445C49.218 605.714 51.4666 606.987 53.7457 608.257C57.1635 610.236 60.8206 612.425 64.7188 614.826C77.6687 622.384 93.1101 631.777 111.039 643.009C130.285 654.31 148.245 662.362 164.913 667.164C185.782 673.097 210.606 676.063 239.388 676.063C246.103 676.063 278.963 672.815 337.965 666.318C396.966 659.892 432.105 656.675 443.378 656.675C464.186 656.675 487.33 659.287 512.814 664.515C527.984 667.694 550.83 673.45 581.349 681.787C611.629 690.19 634.536 695.983 650.067 699.162C675.789 704.389 699.235 707 720.401 707C741.447 707 760.906 704.989 778.774 700.961C790.229 698.348 804.407 693.898 821.319 687.614C839.307 680.903 852.588 676.49 861.161 674.371C877.053 670.272 893.841 668.223 911.531 668.223C924.249 668.223 949.307 672.109 986.724 679.877C1024.19 687.647 1047.7 691.532 1057.24 691.532C1086.38 691.532 1113.78 686.304 1139.45 675.853C1157.02 668.789 1184.78 658.654 1222.73 645.445L1347.3 601.267Z" fill="#1C192B"/>
<path d="M1368.29 535.153C1352.54 541.457 1338.26 546.652 1325.48 550.739C1302.41 558.12 1276.83 567.153 1248.76 577.835C1220.76 588.58 1205.91 594.281 1204.2 594.94C1178.05 605.231 1155.99 612.53 1138.02 616.842C1112.94 622.861 1086.17 625.872 1057.69 625.872C1048.38 625.872 1025.4 623.636 988.791 619.159C952.23 614.682 927.744 612.446 915.317 612.446C898.032 612.446 881.627 613.617 866.099 615.962C857.722 617.186 844.744 619.744 827.167 623.636C810.642 627.257 796.788 629.815 785.595 631.307C768.135 633.651 749.122 634.825 728.556 634.825C707.875 634.825 684.964 633.305 659.83 630.268C644.654 628.456 622.271 625.127 592.683 620.277C562.861 615.428 540.538 612.098 525.715 610.286C500.813 607.25 478.198 605.73 457.867 605.73C446.851 605.73 412.515 607.595 354.863 611.325C297.209 615.054 265.101 616.92 258.539 616.92C230.415 616.92 206.159 615.216 185.767 611.804C169.48 609.034 151.931 604.398 133.125 597.897C115.597 591.423 100.51 585.96 87.8631 581.512C84.0699 580.205 80.4964 578.98 77.1409 577.835C74.942 577.085 72.7149 576.34 70.4615 575.598C46.2417 567.553 20.8705 560.333 -5.64845 553.936V599.657L-6 599.735V716.03H1409.33V517.809C1394.69 524.314 1380.99 530.094 1368.29 535.153Z" fill="#2A2440"/>
<g filter="url(#filter1_f_1361_21222)">
<path d="M855.299 287.708C754.602 259.807 690.732 222.958 610.014 157.337C537.662 98.5179 485.094 15.6903 455.5 -71.3529C446.51 -97.7966 444.893 -124.359 443.35 -152.73" stroke="#5B48AD" stroke-width="83" stroke-linecap="round"/>
</g>
<path d="M853.536 282.283L798.345 286.431C793.83 286.77 792.012 283.229 794.275 278.52L841.694 179.999C843.962 175.292 849.459 171.198 853.97 170.858L909.161 166.71C913.676 166.372 915.494 169.912 913.231 174.621L865.811 273.145C863.545 277.853 858.05 281.945 853.536 282.283Z" fill="#DCE4ED"/>
<path d="M820.607 268.79L793.901 284.594L814.051 314.008L845.728 292.924L820.607 268.79Z" fill="#DCE4ED"/>
<path d="M932.671 196.35L913.15 167.951L883.908 181.068L885.937 212.192L932.671 196.35Z" fill="#DCE4ED"/>
<path d="M873.179 310.808L817.985 314.958C813.474 315.295 811.653 311.753 813.919 307.046L861.338 208.524C863.604 203.816 869.099 199.725 873.611 199.385L928.802 195.235C933.316 194.899 935.138 198.438 932.871 203.148L885.452 301.67C883.187 306.378 877.691 310.469 873.179 310.808Z" fill="#C1CED6"/>
<path d="M872.542 308.175L821.3 312.028C817.111 312.343 815.42 309.053 817.525 304.683L863.218 209.744C865.32 205.373 870.426 201.572 874.614 201.26L925.856 197.408C930.047 197.093 931.736 200.382 929.634 204.753L883.938 299.692C881.833 304.061 876.734 307.861 872.542 308.175Z" fill="#B0C3CB"/>
<path d="M808.708 296.315L804.83 290.631C803.391 288.523 803.266 284.662 804.541 282.01L845.612 196.672C846.89 194.018 849.089 193.576 850.528 195.684L854.404 201.365C855.843 203.473 855.969 207.334 854.694 209.986L813.623 295.323C812.344 297.977 810.145 298.419 808.708 296.315Z" fill="#B0C3CB"/>
<path d="M843.349 197.919L843.958 194.971L848.039 194.39L849.541 196.885L843.349 197.919Z" fill="#B0C3CB"/>
<path d="M807.186 295.501L807.42 298.106L811.434 297.543L812.005 293.213L807.186 295.501Z" fill="#B0C3CB"/>
<path d="M804.72 296.872L800.846 291.193C799.407 289.084 799.278 285.225 800.554 282.57L841.628 197.234C842.906 194.58 845.106 194.135 846.541 196.245L850.418 201.925C851.856 204.034 851.986 207.893 850.71 210.548L809.636 295.884C808.357 298.538 806.158 298.98 804.72 296.872Z" fill="#C1CED6"/>
<path d="M846.807 214.118C845.204 217.441 842.448 217.999 840.647 215.357C838.846 212.718 838.684 207.882 840.284 204.555C841.885 201.228 844.643 200.674 846.444 203.316C848.243 205.954 848.407 210.791 846.807 214.118Z" fill="#F84638"/>
<path d="M845.328 212.471C844.275 214.668 842.455 215.033 841.267 213.291C840.079 211.549 839.971 208.359 841.026 206.165C842.084 203.971 843.904 203.607 845.091 205.349C846.28 207.088 846.385 210.28 845.328 212.471Z" fill="#F2C94C"/>
<path d="M916.927 225.495C916.927 225.495 926.978 219.307 937.05 225.993C942.943 229.903 945.66 235.156 950.013 242.096C953.109 247.02 956.62 255.139 960.829 261.45C973.428 269.263 976.441 281.863 977.87 288.902C978.228 290.664 979.109 301.02 971.524 299.583C958.757 297.166 946.902 282.798 945.704 276.823C937.546 274.343 916.193 246.465 915.351 244.7C914.508 242.938 916.927 225.495 916.927 225.495Z" fill="#DCE4ED"/>
<path d="M821.032 391.143C821.032 391.143 815.488 395.36 811.066 398.647C806.644 401.932 808.011 404.895 809.377 407.259C810.742 409.626 813.539 411.4 813.539 411.4C813.539 411.4 812.114 419.438 819.057 428.448C826.002 437.46 830.626 436.949 833.182 435.944C835.742 434.94 842.992 433.146 841.729 427.351C840.46 421.556 834.281 406.735 834.281 406.735L821.032 391.143Z" fill="#2A2440"/>
<path d="M826.466 384.975C826.466 384.975 818.748 385.003 820.87 394.462C823.213 404.891 835.056 412.899 841.141 406.814C847.225 400.726 826.466 384.975 826.466 384.975Z" fill="#C1CED6"/>
<path d="M862.18 356.856C856.479 359.611 848.287 366.058 842.571 370.557C840.148 372.463 838.171 374.019 837.016 374.796C835.003 376.15 833.114 377.253 831.393 378.259C826.76 380.964 823.339 382.962 821.981 387.237C820.846 390.807 829.087 404.082 835.369 406.744C841.877 409.498 845.036 406.86 849.663 402.995C850.594 402.217 851.584 401.391 852.672 400.548C860.096 394.798 875.538 384.356 881.865 380.084C888.434 375.648 890.329 372.524 892.268 368.504C897.208 359.759 900.88 341.449 902.879 331.481C903.227 329.745 903.525 328.262 903.769 327.127C905.84 317.518 910.883 301.467 910.883 301.467L873.464 293.595C873.464 293.595 862.803 302.215 860.977 309.918C859.151 317.622 859.401 324.353 860.155 329.814C860.48 332.167 861.837 351.849 862.18 356.856Z" fill="#CDD9E2"/>
<path d="M776.336 346.719C776.336 346.719 766.712 348.213 760.865 350.185C755.015 352.156 755.276 355.896 755.641 357.229C756.001 358.562 754.871 359.951 754.871 359.951C754.871 359.951 748.768 363.016 746.171 369.939C743.576 376.864 745.536 386.16 750.15 388.161C754.766 390.164 761.382 389.445 766.092 381.601C770.805 373.755 777.061 366.964 777.061 366.964L776.336 346.719Z" fill="#2A2440"/>
<path d="M777.164 345.941C777.164 345.941 770.195 342.945 768.405 352.304C766.434 362.623 773.978 374.48 781.849 371.375C789.717 368.268 777.164 345.941 777.164 345.941Z" fill="#C1CED6"/>
<path d="M851.938 277.64L888.607 304.757C888.607 304.757 884.508 315.82 878.083 325.099C874.627 330.082 870.923 332.712 868.146 334.684C866.959 335.526 865.941 336.248 865.185 336.983C864.65 337.501 863.791 338.473 862.67 339.741C857.096 346.048 845.059 359.668 834.377 361.033L834.375 361.033C834.382 361.044 834.39 361.055 834.397 361.066C826.684 362.562 819.518 364.123 815.95 364.955C812.987 365.648 808.853 366.722 804.56 367.837C796.612 369.902 788.116 372.109 785.471 372.311C781.398 372.619 773.203 366.833 771.355 359.749C770.013 354.599 772.354 345.032 777 341.86C782.58 338.053 808.742 331.305 823.011 327.787C824.354 325.026 825.657 322.109 826.994 319.117C829.838 312.754 832.832 306.053 836.672 299.81C843.402 288.88 851.938 277.64 851.938 277.64Z" fill="#DCE4ED"/>
<path d="M849.521 279.97C854.08 287.737 860.459 296.234 877.141 303.102C897.451 311.464 905.975 306.387 910.97 303.702C912.463 302.902 913.416 297.388 913.416 297.388C913.416 297.388 899.98 306.261 878.767 297.171C863.405 290.588 857.288 281.228 852.328 275.724C851.537 274.844 848.304 277.893 849.521 279.97Z" fill="#1D1A2B"/>
<path d="M855.72 269.946C854.725 271.828 853.414 274.04 852.083 276.249C856.911 286.8 870.835 297.252 884.595 300.706C905.999 306.079 913.361 297.675 913.419 297.389C918.784 288.158 925.941 274.716 929.725 266.368C934.772 255.229 939.757 242.001 937.872 235.081C937.032 231.993 932.447 223.842 924.889 218.936C911.199 210.05 884.515 209.513 878.312 218.513C874.221 224.451 869.358 237.637 865.78 247.983C863.199 255.446 859.288 263.196 855.72 269.946Z" fill="#ECF1F6"/>
<path d="M920.363 246.328C919.216 248.706 916.527 249.786 914.351 248.739C912.177 247.693 911.339 244.915 912.487 242.538C913.631 240.16 916.323 239.08 918.496 240.126C920.672 241.176 921.508 243.95 920.363 246.328Z" fill="#F84638"/>
<path d="M919.434 245.181C918.755 246.587 917.167 247.225 915.877 246.606C914.591 245.987 914.098 244.345 914.774 242.938C915.453 241.532 917.041 240.895 918.331 241.513C919.617 242.133 920.11 243.774 919.434 245.181Z" fill="#F2C94C"/>
<path d="M893.262 206.145C893.744 209.937 895.059 211.476 897.485 214.683C901.666 220.211 906.052 224.859 912.458 227.811C918.967 230.811 927.586 232.388 934.523 229.833C936.011 229.288 937.359 228.472 938.63 227.516C938.966 225.38 939.376 223.55 939.973 221.79C943.691 219.086 946.815 215.456 948.949 211.025C955.832 196.725 949.818 179.554 935.518 172.672C929.168 169.617 921.922 169.682 915.646 171.503C906.47 174.17 901.619 178.484 897.168 186.104C891.731 195.41 893.948 203.529 893.262 206.145Z" fill="#DCE4ED"/>
<path d="M896.327 213.081C896.69 213.603 897.067 214.132 897.486 214.683C901.667 220.211 906.053 224.859 912.46 227.811C918.969 230.811 927.588 232.388 934.525 229.833C936.012 229.288 937.361 228.472 938.631 227.515C938.967 225.38 939.377 223.55 939.974 221.79C943.692 219.086 946.816 215.456 948.951 211.025C951.095 206.57 951.006 201.776 951.766 197.222C953.364 187.648 947.363 177.559 937.518 172.819C931.168 169.764 920.658 170.187 914.329 171.811C913.745 172.007 902.34 177.254 899.37 190.564C896.319 204.239 898.767 204.279 896.327 213.081Z" fill="#ECF1F6"/>
<path d="M938.885 225.94C938.885 225.94 924.477 229.604 913.28 221.793C903.925 215.269 902.708 208.599 908.071 198.781C912.48 190.708 915.387 187.925 928.437 189.106C940.869 190.236 951.759 197.22 951.759 197.22C951.759 197.22 952.993 201.315 949.417 211.25C946.952 218.102 938.885 225.94 938.885 225.94Z" fill="#DCE4ED"/>
<path d="M946.892 198.114C941.963 195.57 932.244 191.766 922.455 191.716C917.087 191.691 912.499 195.183 909.291 201.982C907.384 206.027 906.503 211.031 911.311 215.783C918.218 222.605 927.3 224.856 933.643 224.743C937.855 224.668 940.75 224.006 940.75 224.006C940.75 224.006 949.753 217.823 951.765 205.173C952.371 200.062 949.716 199.569 946.892 198.114Z" fill="#1D1A2B"/>
<path d="M951.765 205.17C952.371 200.062 949.715 199.569 946.891 198.114C941.962 195.569 932.243 191.766 922.454 191.716C919.295 191.701 916.414 192.938 913.919 195.32C922.77 195.616 931.571 199.025 937.111 206.457C941.479 212.314 942.234 218.768 939.7 224.203C940.365 224.09 940.749 224.005 940.749 224.005C940.749 224.005 949.752 217.823 951.765 205.17Z" fill="#4F4965"/>
<path d="M893.264 206.145C892.414 206.934 891.182 213.668 901.491 223.643C911.8 233.619 924.958 236.096 932.838 232.725C938.479 230.313 938.89 225.941 938.89 225.941C938.89 225.941 936.726 230.147 928.101 230.249C919.161 230.353 907.81 227.683 898.348 215.454C894.098 209.961 893.264 206.145 893.264 206.145Z" fill="#1D1A2B"/>
<path d="M875.651 244.93C882.236 239.163 894.362 229.65 886.934 214.872C882.655 206.347 867.614 213.221 857.594 221.991C849.71 228.891 838.957 236.942 835.786 242.496C829.217 253.999 825.933 270.19 822.793 281.209C829.855 278.382 837.156 281.105 841.362 283.348C843.573 279.141 850.479 268.85 852.06 264.986C853.176 262.251 855.254 256.942 855.254 256.942C855.254 256.942 865.808 253.549 875.651 244.93Z" fill="#DCE4ED"/>
<path d="M842.46 292.514C841.593 290.742 840.246 285.459 840.246 285.459C840.246 285.459 844.18 283.526 842.437 281.293C840.693 279.059 833.093 276.993 826.189 278.152C819.284 279.315 822.085 282.988 822.085 282.988L822.263 283.012C819.141 293.318 815.543 299.942 820.158 306.79C824.959 313.907 830.163 316.974 833.092 311.051C836.023 305.129 834.076 297.411 834.419 294.445C834.571 293.111 838.54 296.274 840.711 296.937C843.361 297.744 844.165 296.001 842.46 292.514Z" fill="#2A2440"/>
<path d="M979.1 288.851C979.1 288.851 979.326 285.418 974.392 286.585C971.047 287.375 965.697 291.36 964.833 295.557C964.334 297.983 966.96 299.247 966.96 299.247C966.96 299.247 967.781 305.262 970.838 309.406C974.783 314.756 975.683 318.388 978.012 318.455C980.833 318.538 979.164 312.655 978.207 310.28C977.569 308.692 978.075 307.378 979.789 308.271C981.206 309.008 981.952 310.795 984.048 313.091C988.682 318.163 999.712 320.576 994.605 307.374C993.115 303.522 989.868 298.322 986.293 295.457C982.619 292.509 979.1 288.851 979.1 288.851Z" fill="#2A2440"/>
</g>
<defs>
<filter id="filter0_f_1361_21222" x="599" y="-192" width="660" height="660" filterUnits="userSpaceOnUse" color-interpolation-filters="sRGB">
<feFlood flood-opacity="0" result="BackgroundImageFix"/>
<feBlend mode="normal" in="SourceGraphic" in2="BackgroundImageFix" result="shape"/>
<feGaussianBlur stdDeviation="60" result="effect1_foregroundBlur_1361_21222"/>
</filter>
<filter id="filter1_f_1361_21222" x="137.85" y="-458.231" width="1022.96" height="1051.45" filterUnits="userSpaceOnUse" color-interpolation-filters="sRGB">
<feFlood flood-opacity="0" result="BackgroundImageFix"/>
<feBlend mode="normal" in="SourceGraphic" in2="BackgroundImageFix" result="shape"/>
<feGaussianBlur stdDeviation="132" result="effect1_foregroundBlur_1361_21222"/>
</filter>
<radialGradient id="paint0_radial_1361_21222" cx="0" cy="0" r="1" gradientUnits="userSpaceOnUse" gradientTransform="translate(1059 -18) rotate(112.264) scale(322.006 332.517)">
<stop stop-color="#8477C4"/>
<stop offset="1"/>
</radialGradient>
<clipPath id="clip0_1361_21222">
<rect width="1200" height="675" fill="white"/>
</clipPath>
</defs>
</svg>
