<svg width="1200" height="675" viewBox="0 0 1200 675" fill="none" xmlns="http://www.w3.org/2000/svg">
<g clip-path="url(#clip0_1361_21375)">
<g filter="url(#filter0_f_1361_21375)">
<path d="M269 -55.9336C314.038 -68.3527 404.072 -53.4581 449.761 -33.5146C555.232 12.5243 623.384 65.8063 710.761 157.099C789.081 238.929 848.61 348.793 884.768 461.458C895.753 495.685 899.156 529.26 902.601 565.099" stroke="#5B48AD" stroke-width="83" stroke-linecap="round"/>
</g>
<path fill-rule="evenodd" clip-rule="evenodd" d="M1077.17 515.07C1077.81 514.805 1078.45 514.858 1079.09 515.23C1079.73 515.551 1080.17 516.057 1080.44 516.75C1081.61 520 1083.69 522.424 1086.68 524.022C1085.88 522.424 1085.21 520.533 1084.68 518.349C1084.57 517.813 1084.65 517.363 1084.92 516.989C1085.19 516.509 1085.59 516.189 1086.12 516.029C1086.65 515.977 1087.16 516.084 1087.64 516.351C1088.07 516.616 1088.33 517.016 1088.44 517.548C1089.19 520.638 1090.2 523.036 1091.47 524.742L1091.55 524.822C1091.87 525.196 1092.23 525.542 1092.59 525.861C1092.83 525.895 1093.06 525.929 1093.3 525.962C1093.44 525.982 1093.58 526.001 1093.71 526.02C1094.35 526.128 1094.99 526.18 1095.63 526.18C1094.35 524.102 1093.19 521.704 1092.11 518.987C1090.84 515.79 1090.08 512.992 1089.88 510.594C1089.83 509.848 1090.04 509.21 1090.52 508.676C1091 508.197 1091.59 507.904 1092.27 507.797C1092.96 507.744 1093.6 507.958 1094.19 508.436C1094.72 508.969 1095.04 509.582 1095.15 510.275C1095.36 512.246 1095.98 514.591 1096.99 517.308V515.71C1096.99 513.844 1096.62 511.955 1095.87 510.035C1095.66 509.557 1095.68 509.076 1095.95 508.596C1096.16 508.117 1096.51 507.77 1096.99 507.559C1097.52 507.344 1098.03 507.37 1098.51 507.637C1098.99 507.904 1099.34 508.276 1099.55 508.758C1100.46 511.208 1100.91 513.552 1100.91 515.79C1100.91 517.388 1100.86 518.482 1100.75 519.067C1100.54 520.293 1100.06 521.332 1099.31 522.184C1099.9 523.25 1100.55 524.262 1101.31 525.221C1101.74 525.753 1102.15 526.342 1102.58 526.98L1102.74 527.219C1103.59 528.551 1104.34 530.044 1104.98 531.695C1105.03 531.801 1105.11 531.935 1105.22 532.095C1106.02 531.828 1106.77 531.296 1107.46 530.496C1108.58 529.005 1108.98 527.619 1108.66 526.342C1108.5 525.808 1108.55 525.301 1108.82 524.822C1109.09 524.342 1109.46 524.049 1109.94 523.942C1110.42 523.835 1110.9 523.89 1111.38 524.102C1111.86 524.369 1112.18 524.796 1112.34 525.381C1113.14 527.779 1112.54 530.283 1110.58 532.894V532.974C1109.25 534.52 1107.83 535.506 1106.34 535.933C1106.39 536.518 1106.42 536.997 1106.42 537.37C1106.15 540.515 1106.63 543.072 1107.86 545.043H1107.94C1109.27 547.068 1110.23 548.613 1110.82 549.679C1111.73 550.106 1112.74 550.611 1113.85 551.198C1114.01 551.252 1114.17 551.33 1114.33 551.438L1114.57 551.597H1114.81L1114.97 551.677C1117.53 552.798 1119.5 554.821 1120.89 557.752C1123.13 557.379 1125.49 556.687 1128 555.674C1128.37 555.516 1128.75 555.326 1129.12 555.116H1129.28C1129.53 555.003 1129.78 554.889 1130.03 554.776C1130.36 554.623 1130.7 554.469 1131.04 554.317C1132.27 553.196 1133.52 551.464 1134.8 549.12C1136.28 546.456 1137.31 544.111 1137.83 542.086C1137.67 542.086 1137.51 542.113 1137.35 542.166C1135.28 542.965 1133.52 543.417 1132.08 543.527C1131.49 544.111 1130.75 544.698 1129.84 545.283C1127.49 546.829 1125.28 547.523 1123.21 547.361C1121.4 547.361 1119.42 547.014 1117.29 546.324H1117.21C1114.86 545.63 1113.17 544.778 1112.1 543.764C1111.66 543.392 1111.42 542.938 1111.38 542.408C1111.33 541.873 1111.5 541.419 1111.94 541.047C1112.21 540.62 1112.62 540.382 1113.22 540.329C1113.74 540.329 1114.22 540.515 1114.65 540.887C1115.41 541.473 1116.6 542.058 1118.25 542.645C1120.01 543.179 1121.66 543.472 1123.21 543.527C1124.21 543.527 1125.24 543.285 1126.24 542.805C1125.92 542.7 1125.56 542.591 1125.12 542.486H1125.04C1123.17 542.006 1121.77 541.581 1120.81 541.207C1119.05 540.62 1117.16 539.53 1115.13 537.932L1115.05 537.85C1114.69 537.584 1114.37 537.343 1114.09 537.132C1113.46 536.705 1113.1 536.119 1113.06 535.372C1112.9 534.68 1113.02 534.04 1113.46 533.454C1113.89 532.869 1114.46 532.547 1115.21 532.495C1115.9 532.389 1116.54 532.547 1117.13 532.974C1117.45 533.188 1117.8 533.481 1118.17 533.853C1119.34 534.653 1120.46 535.32 1121.53 535.852C1119.77 532.974 1118.94 531.028 1119.05 530.017C1119.05 529.484 1119.24 529.03 1119.61 528.658C1119.98 528.285 1120.44 528.099 1120.97 528.099C1121.5 528.099 1121.96 528.313 1122.33 528.74C1122.76 529.164 1122.97 529.617 1122.97 530.097C1123.01 530.791 1123.73 532.227 1125.12 534.413C1126.4 536.491 1127.33 537.61 1127.92 537.77C1128.29 537.822 1128.64 537.904 1128.96 538.01C1129.6 538.117 1130.21 538.196 1130.8 538.249H1130.88C1131.2 538.09 1131.6 538.09 1132.08 538.249H1132.24C1133.09 538.036 1134.08 537.742 1135.2 537.37C1136.2 536.891 1136.92 536.333 1137.35 535.692C1137.3 535.587 1137.25 535.481 1137.2 535.376C1137.14 535.268 1137.09 535.16 1137.03 535.052C1136.55 534.36 1135.36 533.054 1133.44 531.136H1133.36C1132.51 530.338 1131.79 529.512 1131.2 528.658C1128.05 528.285 1124.52 526.874 1120.57 524.423L1120.49 524.342C1119.8 523.862 1119.1 523.41 1118.41 522.983L1118.33 522.823C1117.42 522.131 1116.65 521.437 1116.01 520.745C1114.53 520.533 1112.66 519.973 1110.42 519.067C1106.1 517.308 1103.82 515.337 1103.54 513.154C1103.38 512.565 1103.46 512.06 1103.78 511.633C1104.1 511.155 1104.5 510.888 1104.98 510.834C1105.51 510.729 1105.99 510.834 1106.42 511.155C1106.9 511.474 1107.22 511.9 1107.38 512.433C1107.75 513.392 1109.22 514.378 1111.78 515.39C1111.94 515.443 1112.1 515.524 1112.26 515.63C1111.25 513.659 1110.63 511.555 1110.42 509.316C1110.31 508.569 1110.5 507.958 1110.98 507.477C1111.46 506.89 1112.05 506.572 1112.74 506.518C1113.49 506.465 1114.14 506.707 1114.73 507.237C1115.26 507.717 1115.57 508.304 1115.61 508.996C1115.93 512.033 1117.24 514.725 1119.53 517.069C1119.8 517.335 1120.09 517.602 1120.41 517.868C1121.05 517.123 1121.37 516.216 1121.37 515.152C1121.37 514.778 1121.26 514.138 1121.05 513.232C1120.89 512.754 1120.97 512.273 1121.29 511.793C1121.56 511.314 1121.96 511.047 1122.49 510.994C1123.01 510.834 1123.53 510.914 1124.01 511.234C1124.44 511.555 1124.69 511.98 1124.8 512.513C1125.12 513.791 1125.28 514.725 1125.28 515.31C1125.28 517.176 1124.72 518.801 1123.61 520.186C1125.04 521.094 1126.45 521.811 1127.84 522.345C1127.15 520.48 1126.8 518.587 1126.8 516.669V516.351C1126.8 513.951 1127.04 512.007 1127.52 510.514C1128.05 508.758 1129.04 507.05 1130.48 505.399C1130.91 504.814 1131.49 504.52 1132.24 504.52C1132.93 504.467 1133.56 504.707 1134.16 505.239C1134.68 505.666 1134.99 506.251 1135.04 506.998C1135.08 507.691 1134.91 508.331 1134.48 508.916C1133.52 509.929 1132.88 511.021 1132.56 512.193C1132.4 512.78 1132.27 513.472 1132.16 514.271C1132.59 514.058 1133.07 513.871 1133.6 513.712C1136.27 512.86 1137.91 511.766 1138.55 510.436C1138.76 509.955 1139.11 509.61 1139.59 509.395C1140.07 509.183 1140.58 509.183 1141.11 509.395C1141.64 509.662 1142.02 510.035 1142.23 510.514C1142.44 510.994 1142.44 511.501 1142.23 512.033C1141.38 514.378 1138.95 516.189 1134.96 517.468C1133.95 517.735 1133.01 518.002 1132.16 518.267C1132.43 520.505 1133.25 522.636 1134.64 524.662L1134.88 524.901C1135.4 525.808 1136.12 526.66 1137.03 527.459V527.539C1139.22 529.777 1140.6 531.27 1141.19 532.015L1141.27 532.175C1141.75 532.922 1142.15 533.668 1142.47 534.413C1142.63 534.573 1142.71 534.759 1142.71 534.972L1142.79 535.132C1143.22 536.411 1143.43 537.742 1143.43 539.129C1143.48 542.38 1142.2 546.429 1139.59 551.278H1139.83C1142.18 550.585 1144.63 549.174 1147.18 547.041L1147.26 546.962L1147.58 546.724C1149.02 545.39 1149.85 544.484 1150.06 544.004V543.605C1149.95 541.419 1150.01 539.608 1150.22 538.169C1149.1 537.532 1148.03 536.733 1147.02 535.772C1144.36 533.054 1143.35 529.884 1143.99 526.26C1144.04 525.728 1144.31 525.301 1144.79 524.981C1145.22 524.662 1145.7 524.582 1146.23 524.742C1146.71 524.796 1147.14 525.061 1147.5 525.542C1147.82 526.02 1147.94 526.5 1147.82 526.98C1147.39 529.272 1148.03 531.296 1149.74 533.054C1150.22 533.481 1150.73 533.88 1151.26 534.253C1152.54 531.59 1154.73 529.457 1157.82 527.859C1160.01 526.687 1161.86 525.515 1163.41 524.342C1163.27 524.229 1163.12 524.115 1162.98 524.002C1162.86 523.902 1162.74 523.803 1162.61 523.703C1159.78 521.465 1158.61 518.135 1159.09 513.712C1159.14 513.179 1159.38 512.78 1159.81 512.513C1160.24 512.14 1160.72 511.98 1161.25 512.033C1161.78 512.087 1162.24 512.354 1162.61 512.832C1162.93 513.259 1163.06 513.739 1163.01 514.271C1162.69 517.096 1163.36 519.227 1165.01 520.665V520.585C1165.44 521.011 1165.86 521.357 1166.29 521.624C1167.2 520.453 1167.84 519.254 1168.21 518.028C1168.37 517.335 1168.77 516.829 1169.4 516.509C1170.04 516.137 1170.72 516.084 1171.4 516.351C1172.09 516.456 1172.63 516.829 1173 517.468C1173.37 518.16 1173.48 518.854 1173.32 519.548C1172.73 521.732 1171.43 523.917 1169.4 526.1L1169.32 526.18C1168.05 527.459 1166.45 528.765 1164.53 530.097H1165.81C1168.69 530.204 1171.59 529.911 1174.52 529.218H1174.44C1175.83 528.845 1177.24 528.365 1178.68 527.779H1178.76C1182.16 526.5 1184.32 525.221 1185.23 523.942C1185.55 523.303 1186.06 522.903 1186.75 522.745C1187.44 522.531 1188.11 522.611 1188.75 522.983C1189.39 523.356 1189.82 523.89 1190.03 524.582C1190.19 525.221 1190.11 525.888 1189.79 526.58C1188.83 528.604 1186.16 530.524 1181.79 532.337C1183.34 532.709 1184.96 532.947 1186.67 533.054C1188.91 533.214 1190.55 532.709 1191.62 531.535C1191.99 531.11 1192.46 530.896 1192.98 530.896C1193.51 530.843 1193.99 531.003 1194.42 531.376C1194.85 531.75 1195.09 532.202 1195.14 532.736C1195.14 533.268 1194.98 533.721 1194.66 534.093C1192.95 536.224 1190.23 537.185 1186.51 536.971C1183.26 536.758 1180.23 536.091 1177.4 534.972V535.052C1177.19 534.96 1176.99 534.87 1176.8 534.783C1176.44 534.622 1176.11 534.472 1175.8 534.335C1172.49 535.081 1169.16 535.424 1165.81 535.372C1164 535.265 1162.24 534.998 1160.53 534.573H1160.29C1159.22 534.2 1158.57 533.988 1158.29 533.935C1157.02 534.945 1156.14 536.251 1155.66 537.85L1155.58 537.932C1155.31 539.103 1155.21 540.887 1155.26 543.285C1155.58 544.511 1155.18 545.949 1154.06 547.601C1154.59 547.601 1155.15 547.628 1155.74 547.681C1158.02 547.733 1160.21 547.281 1162.29 546.324H1162.37C1162.58 546.109 1162.82 545.949 1163.09 545.843C1164.74 544.883 1165.7 543.951 1165.97 543.045C1166.08 542.458 1166.34 542.033 1166.77 541.766C1167.2 541.501 1167.69 541.419 1168.29 541.528C1168.81 541.633 1169.21 541.926 1169.48 542.408C1169.8 542.832 1169.92 543.312 1169.8 543.844C1169.64 545.23 1168.81 546.534 1167.33 547.761C1168.49 548.081 1169.68 548.267 1170.84 548.322C1172.71 548.375 1174.41 547.975 1175.96 547.123V547.201C1176.6 546.776 1177.19 546.349 1177.72 545.922C1178.08 545.55 1178.55 545.39 1179.08 545.443C1179.6 545.443 1180.07 545.655 1180.43 546.082C1180.8 546.456 1180.99 546.908 1180.99 547.441C1180.99 547.975 1180.79 548.427 1180.35 548.8C1179.67 549.494 1178.87 550.079 1177.96 550.558H1177.88C1175.75 551.73 1173.4 552.291 1170.84 552.237C1168.56 552.184 1166.29 551.652 1164.05 550.638H1163.97C1163.65 550.531 1163.38 550.373 1163.17 550.159C1160.77 551.172 1158.29 551.652 1155.74 551.597C1153.82 551.492 1152.17 551.305 1150.78 551.038L1150.54 551.198C1147.39 553.862 1144.31 555.568 1141.27 556.313C1139.14 556.845 1136.67 557.699 1133.84 558.871C1133.68 558.923 1133.55 558.978 1133.44 559.031C1133.17 559.085 1132.93 559.191 1132.72 559.35C1133.3 559.562 1133.96 559.745 1134.71 559.898C1180.26 552.772 1223.02 544.806 1263 536V657.761H-138V561.577C-122.326 564.291 -87.8218 568.01 -34.4902 572.731C-12.4368 574.697 6.84302 576.308 23.3494 577.564C23.1825 577.408 23.0124 577.252 22.8389 577.096C19.4804 574.164 17.8019 570.914 17.8019 567.343C17.8019 565.692 18.4701 564.574 19.8017 563.986C19.9072 563.881 20.1214 563.828 20.4411 563.828C19.8544 562.92 18.9753 561.615 17.8019 559.91C15.2986 556.288 14.0469 553.942 14.0469 552.876C14.0469 550.478 15.7254 549.279 19.0808 549.279C21.0534 549.279 22.7318 549.999 24.1178 551.438C24.8627 552.237 25.9018 553.49 27.235 555.194C27.8728 554.182 28.7808 553.542 29.9525 553.276C29.7927 552.317 29.4714 551.12 28.9934 549.679C28.4595 548.027 28.1926 546.215 28.1926 544.244C28.1926 542.006 28.6465 540.22 29.5529 538.889C30.4049 537.877 31.3369 537.37 32.3504 537.37C33.6292 537.37 34.6139 537.77 35.3077 538.569C35.7857 539.049 36.9063 540.594 38.6631 543.205C38.6104 542.513 38.5832 541.926 38.5832 541.447C38.5832 539.421 39.1443 537.85 40.2617 536.733C41.2751 535.772 42.3941 535.292 43.6202 535.292C43.4587 535.132 43.3804 534.945 43.3804 534.733V532.175C43.3804 530.044 43.7801 528.578 44.5793 527.779C45.2715 526.927 46.5504 526.5 48.4159 526.5C49.8546 526.5 51.1335 527.726 52.2509 530.177C52.9446 531.668 53.4514 533.161 53.7695 534.653C55.1027 533.481 56.1945 532.894 57.0481 532.894C57.1552 532.894 57.2879 532.947 57.4462 533.054C57.1808 530.711 57.6603 528.898 58.8864 527.619C60.1109 526.553 61.6839 526.02 63.6022 526.02C64.0274 526.02 64.4814 526.1 64.961 526.26C64.4814 522.636 64.24 520.346 64.24 519.386C64.24 518.267 64.8011 517.388 65.9201 516.75C66.7194 516.376 67.4899 516.189 68.2364 516.189C70.687 516.189 72.3671 517.575 73.2735 520.346C73.4861 521.094 73.7786 521.946 74.1511 522.903C74.4181 522.318 74.8177 521.837 75.3516 521.465C76.6288 520.186 77.9636 519.548 79.348 519.548C80.8922 519.548 82.0383 520.8 82.7849 523.303C83.1046 524.262 83.3971 525.381 83.6641 526.66C84.7303 525.116 86.2202 524.342 88.14 524.342C90.5906 524.342 92.0821 525.942 92.616 529.14C92.6672 529.777 92.7231 531.216 92.7758 533.454C92.9357 533.346 93.1484 533.294 93.4137 533.294C94.4799 533.294 95.3863 534.068 96.1313 535.612C96.8778 533.054 97.4916 531.428 97.9712 530.738C99.0902 528.551 100.874 527.459 103.325 527.459C105.085 527.459 106.202 528.02 106.683 529.14C106.789 529.564 106.843 530.629 106.843 532.337C106.843 533.346 106.816 534.253 106.763 535.052H106.843C108.654 535.052 109.96 536.465 110.76 539.288C111.025 538.01 111.612 536.705 112.518 535.372C114.222 532.814 116.035 531.535 117.953 531.535C120.351 531.535 121.95 532.227 122.749 533.614C123.014 532.442 123.575 531.348 124.427 530.338C125.812 528.74 127.677 527.939 130.022 527.939C131.141 527.939 132.233 528.551 133.299 529.777C134.099 530.896 134.497 531.75 134.497 532.337C134.497 532.869 134.391 533.536 134.177 534.335C133.966 535.187 133.804 536.038 133.699 536.891L133.619 538.569C133.991 538.356 134.444 538.249 134.978 538.249C138.814 538.249 140.733 539.768 140.733 542.805C140.733 543.499 139.772 545.788 137.855 549.679C137.801 550.211 137.721 550.665 137.615 551.038H138.173C140.68 551.038 141.932 552.291 141.932 554.794C141.932 556.233 141.08 558.124 139.372 560.469C138.041 562.335 137.216 563.853 136.896 565.027C136.683 565.507 136.683 565.931 136.896 566.306C136.683 568.704 135.617 571.312 133.699 574.137C133.06 575.151 132.1 576.775 130.822 579.014C130.947 579.237 131.063 579.467 131.17 579.705C153.31 578.614 176.718 576.773 201.393 574.183C204.427 573.86 207.385 573.549 210.266 573.25C210.269 573.2 210.27 573.15 210.27 573.1C210.27 571.234 209.124 568.462 206.833 564.785C205.66 562.814 204.888 561.51 204.513 560.869C203.823 559.485 203.476 558.366 203.476 557.514C203.476 556.233 203.903 554.874 204.755 553.436C205.927 551.837 207.42 549.732 209.229 547.123C211.042 544.404 212.081 540.967 212.348 536.811C212.72 532.601 212.588 528.313 211.948 523.942C212.588 525.061 213.12 526.82 213.547 529.218C214.026 531.989 214.266 534.813 214.266 537.69C214.266 541.739 213.333 545.55 211.469 549.12C210.243 551.41 209.603 552.636 209.551 552.798C208.964 554.075 208.671 555.354 208.671 556.633C208.671 557.379 208.991 558.418 209.629 559.75C209.79 560.175 210.483 561.51 211.707 563.746C213.625 567.53 214.586 570.487 214.586 572.62C214.586 572.681 214.585 572.743 214.584 572.804C215.523 572.707 216.453 572.612 217.375 572.518C218.554 570.873 219.197 569.868 219.3 569.503C219.941 568.542 220.261 567.772 220.261 567.185C220.261 566.225 219.994 565.212 219.462 564.146C219.354 564.093 218.689 563.161 217.463 561.349C215.545 558.578 214.586 555.648 214.586 552.557C214.586 550.425 214.851 548.24 215.385 546.004C215.812 544.244 216.344 542.938 216.984 542.086C216.397 545.443 216.29 548.722 216.664 551.919C216.929 555.169 217.996 557.779 219.861 559.75C221.62 561.829 223.111 563.507 224.337 564.785C225.189 565.799 225.616 566.811 225.616 567.824C225.616 568.462 225.269 569.314 224.577 570.38C224.347 570.71 223.945 571.221 223.37 571.914C225.584 571.693 227.744 571.481 229.85 571.276C229.428 570.483 228.923 569.626 228.334 568.704C227.267 566.944 226.575 565.799 226.255 565.265C225.616 564.039 225.295 563.054 225.295 562.31C225.295 561.189 225.669 560.017 226.415 558.791C227.48 557.299 228.786 555.381 230.332 553.036C231.93 550.638 232.862 547.628 233.129 544.004C233.449 540.274 233.342 536.491 232.81 532.654C233.396 533.614 233.876 535.132 234.248 537.21C234.673 539.716 234.886 542.218 234.886 544.725C234.886 548.295 234.061 551.652 232.41 554.794C231.342 556.873 230.784 557.992 230.731 558.151C230.199 559.323 229.932 560.442 229.932 561.51C229.932 562.202 230.225 563.134 230.81 564.308C230.971 564.732 231.583 565.906 232.65 567.824C233.206 568.919 233.672 569.936 234.047 570.872C234.551 570.825 235.051 570.777 235.549 570.73C235.3 570.308 235.106 569.979 234.968 569.741C234.221 568.357 233.849 567.236 233.849 566.384C233.849 565.107 234.301 563.746 235.207 562.31C236.379 560.711 237.871 558.604 239.682 555.993C241.442 553.276 242.479 549.839 242.801 545.683C243.173 541.473 243.013 537.185 242.321 532.814C243.013 533.935 243.573 535.692 243.999 538.09C244.477 540.861 244.719 543.685 244.719 546.562C244.719 550.611 243.787 554.422 241.921 557.992C240.695 560.284 240.056 561.51 240.003 561.668C239.416 562.947 239.124 564.227 239.124 565.507C239.124 566.251 239.444 567.29 240.081 568.623C240.173 568.866 240.438 569.403 240.875 570.234C243.17 570.024 245.387 569.825 247.527 569.638C245.868 567.039 245.039 564.302 245.039 561.429C245.039 559.297 245.278 557.114 245.758 554.874C246.185 553.116 246.743 551.81 247.436 550.958C246.85 554.317 246.743 557.592 247.117 560.789C247.384 564.039 248.448 566.651 250.314 568.623C250.522 568.869 250.726 569.11 250.927 569.345C252.756 569.19 254.523 569.044 256.23 568.907C256.398 568.499 256.61 568.084 256.866 567.663C257.932 566.173 259.238 564.253 260.784 561.91C262.381 559.51 263.313 556.5 263.582 552.876C263.901 549.146 263.794 545.363 263.26 541.528C263.849 542.486 264.327 544.004 264.701 546.082C265.126 548.587 265.34 551.092 265.34 553.596C265.34 557.167 264.514 560.522 262.862 563.666C261.796 565.745 261.21 566.864 261.104 567.025C260.889 567.549 260.723 568.063 260.604 568.566C270.143 567.847 277.502 567.454 282.682 567.39C282.684 567.348 282.685 567.306 282.685 567.263C282.685 565.399 281.538 562.629 279.246 558.951C278.074 556.978 277.301 555.674 276.93 555.034C276.183 553.65 275.811 552.529 275.811 551.677C275.811 550.398 276.263 549.04 277.168 547.601C278.341 546.004 279.834 543.899 281.644 541.287C283.404 538.569 284.443 535.132 284.763 530.976C285.135 526.767 284.975 522.478 284.283 518.108C284.975 519.227 285.535 520.985 285.962 523.383C286.44 526.153 286.681 528.978 286.681 531.855C286.681 535.906 285.749 539.716 283.883 543.285C282.657 545.577 282.018 546.802 281.965 546.962C281.379 548.24 281.086 549.519 281.086 550.798C281.086 551.544 281.406 552.583 282.044 553.917C282.205 554.342 282.897 555.674 284.123 557.914C286.04 561.695 287.001 564.652 287.001 566.784C287.001 566.99 286.994 567.194 286.981 567.394C287.75 567.402 288.517 567.413 289.283 567.426C289.422 567.216 289.567 567.002 289.718 566.784C290.888 565.08 291.555 564.039 291.716 563.666C292.356 562.709 292.676 561.935 292.676 561.349C292.676 560.389 292.381 559.377 291.796 558.313C291.744 558.258 291.103 557.325 289.878 555.516C287.958 552.743 287.001 549.811 287.001 546.724C287.001 544.591 287.239 542.408 287.72 540.168C288.147 538.409 288.705 537.105 289.398 536.251C288.812 539.608 288.705 542.885 289.079 546.082C289.346 549.334 290.41 551.944 292.276 553.917C294.033 555.993 295.526 557.672 296.752 558.951C297.604 559.964 298.029 560.976 298.029 561.988C298.029 562.629 297.684 563.481 296.992 564.546C296.62 565.078 295.798 566.085 294.526 567.569C297.513 567.679 300.482 567.836 303.432 568.041C302.946 566.63 302.051 564.905 300.748 562.867C299.682 561.111 298.99 559.964 298.67 559.43C298.029 558.204 297.711 557.219 297.711 556.473C297.711 555.354 298.082 554.182 298.828 552.956C299.895 551.464 301.201 549.546 302.746 547.201C304.345 544.803 305.275 541.793 305.542 538.169C305.864 534.44 305.757 530.656 305.223 526.82C305.809 527.779 306.289 529.297 306.663 531.376C307.088 533.88 307.302 536.385 307.302 538.889C307.302 542.458 306.476 545.815 304.823 548.96C303.758 551.038 303.172 552.157 303.066 552.317C302.587 553.49 302.345 554.607 302.345 555.674C302.345 556.367 302.639 557.299 303.224 558.471C303.333 558.898 303.945 560.07 305.064 561.988C306.36 564.54 307.163 566.662 307.474 568.352C309.902 568.558 312.318 568.796 314.722 569.067C313.758 566.988 313.922 565.534 315.214 564.707C316.6 563.853 317.506 563.347 317.933 563.187C318.838 562.814 319.637 563.107 320.331 564.066C320.819 565.401 321.695 567.423 322.96 570.131C323.307 570.182 323.653 570.233 323.999 570.285C324.914 570.423 325.949 570.591 327.105 570.787C326.516 569.317 326.096 568.142 325.846 567.263C325.152 564.652 324.672 562.388 324.405 560.469C324.033 558.551 324.087 556.767 324.567 555.116C324.994 553.463 325.313 552.477 325.526 552.157C325.686 551.837 326.085 551.597 326.723 551.438C327.63 551.278 328.616 551.305 329.682 551.519C330.694 551.677 331.708 552.184 332.719 553.036C333.197 553.463 333.279 554.022 332.959 554.716C332.692 555.354 332.24 556.34 331.599 557.672C330.961 558.951 331.226 561.588 332.398 565.585C333.037 567.747 333.782 569.935 334.63 572.149C335.281 572.272 335.952 572.399 336.642 572.532C336.653 571.649 336.678 570.746 336.716 569.822C336.928 563.319 337.168 558.871 337.435 556.473C337.755 554.075 338.714 552.903 340.313 552.956C341.964 552.956 342.977 553.036 343.35 553.196C344.362 553.356 344.896 554.022 344.948 555.194C344.362 557.486 343.642 561.882 342.789 568.382C342.559 570.138 342.379 571.886 342.25 573.627C343.782 573.93 345.389 574.251 347.07 574.59C348.54 568.352 349.644 564.096 350.382 561.829C351.181 559.485 352.354 558.498 353.9 558.871C355.497 559.245 356.485 559.537 356.858 559.75C357.817 560.124 358.189 560.896 357.975 562.068C356.965 564.146 355.419 568.304 353.341 574.537C353.203 574.952 353.064 575.367 352.926 575.782C353.197 575.837 353.47 575.894 353.745 575.95C355.742 573.339 357.553 570.71 359.174 568.063C361.361 564.493 362.318 562.015 362.053 560.629C361.786 559.137 361.572 558.046 361.414 557.352C361.361 556.662 361.599 556.153 362.133 555.834C363.359 555.248 364.478 555.007 365.488 555.116C366.556 555.221 367.514 555.461 368.366 555.834C368.952 556.153 369.274 556.5 369.326 556.873C369.434 557.247 369.485 558.286 369.485 559.991C369.539 561.695 369.165 563.455 368.366 565.265C367.566 566.97 366.476 569.023 365.09 571.421C364.307 572.715 362.842 574.699 360.697 577.374C369.678 579.166 378.67 580.68 387.673 581.917C387.248 581.142 386.674 580.148 385.95 578.933C383.554 574.883 382.353 571.926 382.353 570.061C382.353 567.343 383.713 564.974 386.431 562.947C388.082 561.829 389.014 561.163 389.228 560.949C389.973 560.15 390.346 559.297 390.346 558.391C390.346 556.527 389.201 553.755 386.911 550.079C385.739 548.107 384.965 546.802 384.593 546.162C383.899 544.778 383.554 543.659 383.554 542.805C383.554 541.528 383.979 540.168 384.832 538.729C386.004 537.132 387.496 535.025 389.308 532.415C391.12 529.697 392.159 526.26 392.426 522.104C392.798 517.895 392.665 513.606 392.026 509.236C392.665 510.355 393.198 512.113 393.624 514.511C394.104 517.281 394.344 520.106 394.344 522.983C394.344 527.032 393.41 530.843 391.545 534.413C390.32 536.705 389.681 537.932 389.628 538.09C389.041 539.368 388.747 540.647 388.747 541.926C388.747 542.672 389.069 543.711 389.708 545.043C389.868 545.47 390.56 546.802 391.786 549.04C393.704 552.823 394.662 555.78 394.662 557.914C394.662 559.297 394.369 560.549 393.784 561.668C393.357 562.414 392.691 563.347 391.786 564.466C390.827 565.639 390.188 566.544 389.868 567.185C389.281 568.249 388.989 569.423 388.989 570.7C388.989 571.286 389.441 573.657 390.346 577.815C390.797 579.664 391.148 581.197 391.398 582.414C393.53 582.689 395.663 582.948 397.797 583.192C398.036 582.326 398.35 581.279 398.738 580.052C399.752 576.802 400.258 574.965 400.258 574.537C400.258 573.632 399.937 572.753 399.299 571.901C398.927 571.368 398.233 570.675 397.221 569.822C396.315 568.97 395.65 568.277 395.223 567.743C394.636 566.784 394.344 565.773 394.344 564.707C394.344 563.107 395.356 560.843 397.381 557.914C398.606 556.206 399.272 555.169 399.379 554.794C400.019 553.835 400.337 553.065 400.337 552.477C400.337 551.519 400.071 550.505 399.538 549.439C399.432 549.385 398.765 548.455 397.539 546.642C395.623 543.871 394.662 540.939 394.662 537.85C394.662 535.719 394.93 533.536 395.463 531.296C395.888 529.539 396.422 528.231 397.061 527.379C396.475 530.738 396.368 534.013 396.74 537.21C397.007 540.462 398.075 543.072 399.937 545.043C401.697 547.123 403.189 548.8 404.415 550.079C405.267 551.092 405.694 552.104 405.694 553.116C405.694 553.755 405.347 554.607 404.653 555.674C404.281 556.206 403.456 557.219 402.177 558.713C399.884 561.535 398.738 563.639 398.738 565.027C398.738 565.717 399.165 566.384 400.019 567.025C400.231 567.185 401.163 567.743 402.816 568.704C403.456 569.128 404.068 569.556 404.653 569.981C405.08 568.224 406.146 566.704 407.852 565.426C409.343 564.466 410.17 563.853 410.328 563.588C411.127 562.894 411.527 562.148 411.527 561.349C411.527 559.697 410.489 557.247 408.411 553.995C407.345 552.237 406.653 551.092 406.331 550.558C405.694 549.334 405.374 548.347 405.374 547.601C405.374 546.482 405.746 545.31 406.493 544.084C407.557 542.591 408.864 540.674 410.409 538.329C412.008 535.933 412.94 532.922 413.207 529.297C413.525 525.568 413.419 521.784 412.887 517.949C413.472 518.907 413.952 520.425 414.324 522.504C414.751 525.007 414.965 527.513 414.965 530.017C414.965 533.588 414.139 536.943 412.487 540.088C411.421 542.166 410.862 543.285 410.809 543.445C410.275 544.616 410.01 545.737 410.01 546.802C410.01 547.495 410.302 548.427 410.889 549.6C411.049 550.026 411.661 551.198 412.726 553.116C414.433 556.473 415.285 559.085 415.285 560.949C415.285 562.177 415.018 563.319 414.486 564.386C414.166 565.027 413.579 565.851 412.726 566.864C411.874 567.877 411.289 568.649 410.969 569.182C410.382 570.141 410.09 571.18 410.09 572.301C410.09 572.833 410.569 574.909 411.527 578.533C412.193 581.451 412.6 583.488 412.746 584.646C413.412 584.699 414.077 584.751 414.742 584.802C413.452 582.258 412.807 580.301 412.807 578.933C412.807 576.216 414.166 573.844 416.883 571.82C418.535 570.7 419.467 570.035 419.681 569.822C420.427 569.023 420.8 568.171 420.8 567.263C420.8 565.399 419.654 562.629 417.363 558.951C416.19 556.978 415.418 555.674 415.045 555.034C414.299 553.65 413.925 552.529 413.925 551.677C413.925 550.398 414.379 549.04 415.285 547.601C416.457 546.004 417.948 543.899 419.761 541.287C421.518 538.569 422.558 535.132 422.878 530.976C423.251 526.767 423.091 522.478 422.398 518.108C423.091 519.227 423.65 520.985 424.077 523.383C424.557 526.153 424.796 528.978 424.796 531.855C424.796 535.906 423.863 539.716 421.999 543.285C420.773 545.577 420.133 546.802 420.081 546.962C419.494 548.24 419.201 549.519 419.201 550.798C419.201 551.544 419.52 552.583 420.161 553.917C420.319 554.342 421.013 555.674 422.237 557.914C424.157 561.695 425.115 564.652 425.115 566.784C425.115 568.171 424.824 569.423 424.237 570.54C423.81 571.286 423.143 572.22 422.237 573.338C421.28 574.509 420.64 575.417 420.319 576.055C419.734 577.121 419.44 578.295 419.44 579.572C419.44 580.086 419.786 581.96 420.478 585.198C423.706 585.401 426.934 585.567 430.164 585.699C430.528 584.428 430.709 583.665 430.709 583.41C430.709 582.502 430.391 581.623 429.752 580.771C429.378 580.238 428.686 579.547 427.674 578.695C426.766 577.842 426.101 577.149 425.676 576.616C425.089 575.656 424.796 574.643 424.796 573.578C424.796 571.979 425.808 569.714 427.834 566.784C429.005 565.08 429.672 564.039 429.83 563.666C430.471 562.709 430.791 561.935 430.791 561.349C430.791 560.389 430.498 559.377 429.912 558.313C429.857 558.258 429.22 557.325 427.993 555.516C426.075 552.743 425.115 549.811 425.115 546.724C425.115 544.591 425.356 542.408 425.834 540.168C426.261 538.409 426.822 537.105 427.512 536.251C426.927 539.608 426.822 542.885 427.194 546.082C427.46 549.334 428.526 551.944 430.391 553.917C432.15 555.993 433.643 557.672 434.867 558.951C435.719 559.964 436.146 560.976 436.146 561.988C436.146 562.629 435.799 563.481 435.105 564.546C434.733 565.08 433.907 566.091 432.629 567.583C430.337 570.407 429.192 572.511 429.192 573.897C429.192 574.591 429.619 575.256 430.471 575.897C430.684 576.055 431.617 576.616 433.269 577.574C433.907 578 434.52 578.428 435.105 578.853C435.532 577.096 436.599 575.576 438.303 574.297C439.796 573.338 440.62 572.725 440.782 572.459C441.581 571.768 441.981 571.021 441.981 570.222C441.981 568.571 440.942 566.117 438.864 562.867C437.797 561.111 437.105 559.964 436.786 559.43C436.146 558.204 435.826 557.219 435.826 556.473C435.826 555.354 436.199 554.182 436.945 552.956C438.012 551.464 439.316 549.546 440.862 547.201C442.46 544.803 443.392 541.793 443.659 538.169C443.979 534.44 443.872 530.656 443.34 526.82C443.925 527.779 444.406 529.297 444.778 531.376C445.205 533.88 445.418 536.385 445.418 538.889C445.418 542.458 444.591 545.815 442.94 548.96C441.874 551.038 441.289 552.157 441.182 552.317C440.702 553.49 440.462 554.607 440.462 555.674C440.462 556.367 440.753 557.299 441.341 558.471C441.447 558.898 442.061 560.07 443.18 561.988C444.885 565.345 445.737 567.957 445.737 569.822C445.737 571.047 445.471 572.193 444.938 573.258C444.617 573.897 444.033 574.723 443.18 575.736C442.273 576.749 441.688 577.521 441.421 578.054C440.835 579.014 440.542 580.052 440.542 581.172C440.542 581.631 440.899 583.247 441.616 586.017C443.803 586.049 445.99 586.065 448.177 586.065C450.428 586.065 452.787 586.039 455.254 585.986C455.575 585.257 456.133 584.718 456.927 584.368C457.033 584.262 457.247 584.209 457.567 584.209C456.98 583.301 456.101 581.997 454.929 580.293C452.424 576.669 451.173 574.324 451.173 573.258C451.173 570.86 452.851 569.661 456.208 569.661C458.179 569.661 459.858 570.38 461.243 571.82C461.99 572.62 463.027 573.897 464.361 575.656C464.998 574.591 465.905 573.924 467.077 573.657C466.918 572.7 466.599 571.501 466.119 570.061C465.587 568.409 465.32 566.598 465.32 564.627C465.32 562.388 465.772 560.602 466.677 559.27C467.585 558.258 468.517 557.752 469.474 557.752C470.755 557.752 471.74 558.151 472.433 558.951C472.913 559.43 474.032 561.001 475.789 563.666C475.736 562.92 475.71 562.31 475.71 561.829C475.71 559.802 476.27 558.231 477.389 557.114C478.401 556.153 479.518 555.674 480.746 555.674C480.586 555.516 480.506 555.326 480.506 555.116V552.557C480.506 550.425 480.906 548.96 481.705 548.16C482.397 547.308 483.676 546.882 485.542 546.882C486.979 546.882 488.258 548.107 489.378 550.558C490.07 552.051 490.575 553.542 490.897 555.034C492.228 553.917 493.32 553.356 494.172 553.356C494.279 553.356 494.414 553.381 494.573 553.436C494.305 551.092 494.784 549.279 496.012 548.001C497.237 546.934 498.81 546.402 500.726 546.402C501.153 546.402 501.607 546.509 502.087 546.724C501.607 543.045 501.366 540.729 501.366 539.768C501.366 538.649 501.925 537.797 503.044 537.21C503.844 536.785 504.617 536.571 505.364 536.571C507.814 536.571 509.493 537.957 510.399 540.729C510.612 541.473 510.904 542.326 511.278 543.285C511.544 542.7 511.943 542.218 512.477 541.846C513.756 540.567 515.086 539.93 516.474 539.93C518.019 539.93 519.162 541.181 519.909 543.685C520.229 544.644 520.523 545.763 520.79 547.041C521.854 545.497 523.347 544.725 525.266 544.725C527.716 544.725 529.208 546.324 529.74 549.519C529.794 550.159 529.847 551.597 529.9 553.835C530.061 553.782 530.274 553.755 530.541 553.755C531.607 553.755 532.538 554.502 533.337 555.993C534.031 553.436 534.616 551.81 535.095 551.12C536.214 548.932 538.001 547.841 540.452 547.841C542.209 547.841 543.328 548.4 543.809 549.519C543.914 549.946 543.969 551.01 543.969 552.716C543.969 553.728 543.94 554.635 543.887 555.434H543.969C545.78 555.434 547.084 556.845 547.884 559.67C548.151 558.391 548.736 557.114 549.644 555.834C551.348 553.223 553.161 551.919 555.077 551.919C557.475 551.919 559.074 552.609 559.873 553.995C560.14 552.823 560.699 551.73 561.553 550.72C562.937 549.174 564.83 548.4 567.228 548.4C568.347 548.4 569.411 548.987 570.425 550.159C571.224 551.278 571.624 552.129 571.624 552.716C571.624 553.248 571.544 553.917 571.383 554.716C571.116 555.568 570.93 556.42 570.825 557.272L570.745 558.951C571.172 558.791 571.624 558.713 572.102 558.713C575.94 558.713 577.857 560.23 577.857 563.267C577.857 563.906 576.899 566.173 574.979 570.061C574.927 570.595 574.847 571.047 574.741 571.421H575.299C577.463 571.421 578.691 572.376 578.986 574.283C582.441 573.828 585.951 573.361 589.514 572.88C589.576 572.665 589.608 572.445 589.608 572.22C589.608 570.832 588.756 568.782 587.048 566.064C586.144 564.574 585.559 563.588 585.292 563.107C584.759 562.095 584.492 561.269 584.492 560.629C584.492 559.67 584.812 558.658 585.45 557.592C586.356 556.42 587.475 554.849 588.808 552.876C590.14 550.852 590.912 548.295 591.126 545.203C591.392 542.058 591.286 538.861 590.807 535.612C591.286 536.465 591.686 537.77 592.005 539.53C592.378 541.606 592.563 543.711 592.563 545.843C592.563 548.88 591.871 551.73 590.487 554.395L590.37 554.615C589.539 556.178 589.097 557.01 589.047 557.114C588.621 558.072 588.409 559.031 588.409 559.991C588.409 560.522 588.647 561.296 589.128 562.31C589.234 562.629 589.74 563.613 590.645 565.265C592.085 568.089 592.805 570.3 592.805 571.901C592.805 572.082 592.798 572.261 592.784 572.437C593.391 572.355 593.999 572.272 594.609 572.189C594.672 572.094 594.737 571.998 594.803 571.901C595.708 570.621 596.215 569.848 596.322 569.581C596.801 568.836 597.039 568.249 597.039 567.824C597.039 567.13 596.828 566.384 596.402 565.585C596.347 565.532 595.868 564.84 594.961 563.507C593.524 561.429 592.805 559.245 592.805 556.953C592.805 555.354 592.99 553.728 593.364 552.077C593.682 550.745 594.084 549.759 594.562 549.12C594.136 551.624 594.056 554.075 594.323 556.473C594.536 558.871 595.335 560.816 596.721 562.31C598.053 563.853 599.172 565.107 600.077 566.064C600.718 566.811 601.036 567.557 601.036 568.304C601.036 568.782 600.77 569.423 600.237 570.222C600.05 570.485 599.69 570.932 599.158 571.565C600.814 571.337 602.481 571.106 604.158 570.872C603.845 570.278 603.471 569.634 603.034 568.942C602.235 567.663 601.73 566.811 601.517 566.384C601.036 565.479 600.798 564.76 600.798 564.227C600.798 563.374 601.063 562.494 601.597 561.588C602.396 560.469 603.381 559.031 604.553 557.272C605.726 555.516 606.418 553.276 606.631 550.558C606.845 547.788 606.765 544.963 606.393 542.086C606.818 542.832 607.165 543.979 607.43 545.523C607.751 547.388 607.911 549.252 607.911 551.12C607.911 553.782 607.297 556.288 606.073 558.631C605.274 560.175 604.847 561.001 604.794 561.111C604.42 561.962 604.233 562.787 604.233 563.588C604.233 564.119 604.447 564.812 604.874 565.665C604.979 565.984 605.432 566.864 606.231 568.304C606.623 569.07 606.954 569.783 607.226 570.444C610.558 569.977 613.933 569.5 617.351 569.013C619.402 568.718 621.424 568.428 623.418 568.143C621.701 565.968 620.501 564.316 619.819 563.187C618.435 560.789 617.341 558.738 616.542 557.032C615.743 555.221 615.37 553.463 615.423 551.757C615.423 550.053 615.476 549.012 615.584 548.64C615.637 548.267 615.957 547.923 616.542 547.601C617.395 547.228 618.355 546.988 619.419 546.882C620.433 546.776 621.552 547.014 622.778 547.601C623.31 547.923 623.55 548.427 623.497 549.12C623.336 549.811 623.125 550.905 622.858 552.397C622.591 553.782 623.55 556.262 625.734 559.83C627.229 562.27 628.884 564.695 630.7 567.106C631.062 567.054 631.424 567.003 631.785 566.951C631.713 566.736 631.641 566.521 631.57 566.306C629.492 560.07 627.946 555.913 626.932 553.835C626.721 552.663 627.094 551.892 628.053 551.519C628.425 551.305 629.41 551.01 631.009 550.638C632.555 550.265 633.726 551.252 634.526 553.596C635.255 555.834 636.339 560.002 637.78 566.103C639.43 565.87 641.056 565.641 642.66 565.416C642.53 563.669 642.35 561.913 642.119 560.15C641.267 553.65 640.547 549.252 639.962 546.962C640.015 545.788 640.547 545.125 641.561 544.963C641.933 544.803 642.945 544.725 644.596 544.725C646.195 544.67 647.156 545.843 647.475 548.24C647.741 550.638 647.981 555.089 648.193 561.588C648.237 562.628 648.263 563.642 648.271 564.631C648.885 564.546 649.495 564.461 650.101 564.376C651.023 562.005 651.826 559.664 652.509 557.352C653.683 553.356 653.95 550.72 653.309 549.439C652.671 548.107 652.217 547.123 651.951 546.482C651.632 545.788 651.71 545.23 652.19 544.803C653.203 543.951 654.215 543.445 655.228 543.285C656.295 543.072 657.279 543.045 658.184 543.205C658.825 543.365 659.225 543.605 659.383 543.926C659.597 544.244 659.917 545.23 660.344 546.882C660.822 548.533 660.876 550.32 660.502 552.237C660.235 554.155 659.757 556.42 659.065 559.031C658.77 560.064 658.241 561.506 657.479 563.356C658.849 563.167 660.198 562.982 661.527 562.8C663.021 559.635 664.037 557.313 664.578 555.834C665.272 554.874 666.072 554.582 666.976 554.954C667.403 555.116 668.31 555.621 669.694 556.473C671.025 557.325 671.16 558.845 670.094 561.029C669.992 561.231 669.88 561.45 669.757 561.684C675.553 560.903 680.905 560.197 685.813 559.566C683.874 558.465 682.285 557.116 681.045 555.516C680.725 555.034 680.591 554.555 680.646 554.075C680.698 553.49 680.938 553.065 681.363 552.798C681.79 552.477 682.27 552.317 682.804 552.317C683.336 552.477 683.788 552.771 684.161 553.196C685.069 554.422 686.268 555.406 687.758 556.153H687.678C689.009 556.899 690.237 557.272 691.354 557.272C690.608 556.578 690.076 555.86 689.756 555.116C689.49 554.635 689.438 554.128 689.596 553.596C689.703 553.065 689.997 552.691 690.475 552.477C690.955 552.264 691.463 552.237 691.995 552.397C692.526 552.557 692.926 552.876 693.193 553.356C693.779 554.422 694.978 555.354 696.789 556.153C697.111 556.313 697.483 556.473 697.91 556.633C698.762 556.953 699.561 557.219 700.308 557.432C700.094 557.114 699.881 556.82 699.667 556.553C699.189 555.968 699.029 555.326 699.189 554.635C699.242 553.942 699.587 553.381 700.228 552.956C700.76 552.529 701.372 552.397 702.065 552.557C702.811 552.663 703.398 553.009 703.825 553.596C704.942 555.089 706.461 556.1 708.381 556.633H708.459C708.613 556.681 708.77 556.726 708.929 556.767C710.119 556.634 711.302 556.504 712.476 556.376C711.99 556.005 711.504 555.611 711.018 555.194C710.909 555.141 710.804 555.034 710.698 554.874L710.641 554.817C710.545 554.722 710.431 554.607 710.299 554.475L710.219 554.395C707.393 551.784 705.876 549.893 705.661 548.722C705.556 548.187 705.636 547.681 705.903 547.201C706.168 546.724 706.541 546.429 707.022 546.324C707.554 546.215 708.059 546.324 708.539 546.642C709.02 546.908 709.338 547.281 709.5 547.761C709.712 548.455 710.726 549.652 712.535 551.358C712.644 551.198 712.802 551.01 713.016 550.798V550.72C713.496 550.131 713.574 549.412 713.255 548.56C713.044 548.027 713.069 547.523 713.334 547.041C713.496 546.562 713.841 546.215 714.374 546.004C714.853 545.843 715.333 545.897 715.814 546.162C716.293 546.376 716.666 546.749 716.931 547.281C717.838 549.574 717.571 551.572 716.132 553.276V553.196C715.919 553.463 715.732 553.702 715.574 553.917C716.851 554.769 718.025 555.301 719.091 555.516H719.171C721.514 554.769 724.206 553.728 727.242 552.397C726.337 551.757 725.538 551.145 724.846 550.558V550.638C724.524 550.373 723.3 549.067 721.167 546.724V546.642C720.21 545.897 718.077 545.335 714.775 544.963C714.134 544.91 713.522 544.858 712.935 544.803C711.498 544.644 709.872 544.536 708.059 544.484C705.076 544.378 702.359 543.791 699.908 542.725C699.481 542.992 699 543.312 698.468 543.685L698.148 543.844C695.857 545.07 692.9 545.655 689.278 545.603C687.732 545.55 686.32 545.335 685.042 544.963C683.336 545.71 681.283 546.055 678.886 546.004C675.103 545.897 672.838 545.178 672.092 543.844C671.719 543.472 671.561 543.018 671.612 542.486C671.667 541.953 671.906 541.501 672.333 541.129C672.706 540.807 673.185 540.674 673.77 540.729C674.304 540.782 674.731 541.019 675.051 541.447C675.583 541.819 676.862 542.033 678.886 542.086H679.765C678.433 540.915 677.261 539.503 676.25 537.85C675.877 537.157 675.768 536.491 675.93 535.852C676.088 535.159 676.488 534.653 677.129 534.335C677.767 533.908 678.433 533.8 679.127 534.013C679.765 534.226 680.273 534.653 680.646 535.292C682.03 537.532 683.895 539.076 686.24 539.93H686.079C687.04 540.195 688.104 540.329 689.278 540.329C691.463 540.382 693.353 540.14 694.951 539.608C691.968 536.678 689.303 534.52 686.958 533.136C686.32 532.761 685.921 532.227 685.759 531.535C685.548 530.843 685.599 530.177 685.921 529.539C686.293 528.898 686.826 528.498 687.519 528.338C688.21 528.126 688.877 528.231 689.518 528.658C692.181 530.204 695.192 532.627 698.548 535.933C699.189 536.518 699.908 537.023 700.707 537.45C702.253 538.196 703.877 538.729 705.583 539.049C702.706 536.171 701.133 534.093 700.866 532.814C700.76 532.227 700.813 531.75 701.027 531.376C701.293 530.896 701.692 530.576 702.226 530.416C702.758 530.311 703.264 530.391 703.743 530.656C704.17 530.924 704.462 531.323 704.624 531.855C704.995 532.761 706.275 534.253 708.459 536.333C709.846 537.77 711.044 538.811 712.056 539.448C712.482 539.503 712.882 539.555 713.255 539.608C713.896 539.608 714.506 539.663 715.094 539.768C718.664 540.195 721.327 540.861 723.087 541.766C722.873 540.274 722.82 538.649 722.926 536.891V536.811C722.926 536.333 722.793 535.692 722.526 534.892V534.972C722.368 534.493 722.179 534.013 721.968 533.536V533.454C721.647 532.654 721.3 531.91 720.928 531.216C719.011 531.428 717.065 531.428 715.094 531.216H715.015C714.055 531.11 713.122 530.976 712.217 530.816C710.404 530.443 708.753 529.911 707.262 529.218H707.18C706.382 529.325 705.394 529.377 704.224 529.377H704.063C700.866 529.325 697.857 528.313 695.033 526.342C692.58 524.529 691.302 523.01 691.196 521.784C691.089 521.252 691.196 520.772 691.516 520.346C691.781 519.866 692.181 519.601 692.715 519.548C693.247 519.439 693.752 519.548 694.233 519.866C694.66 520.186 694.925 520.613 695.033 521.145C695.298 521.572 696.044 522.264 697.269 523.223V523.145C698.601 524.049 699.987 524.716 701.427 525.143C699.614 523.277 698.257 521.011 697.349 518.349C697.084 517.655 697.111 516.989 697.43 516.351C697.749 515.657 698.257 515.23 698.948 515.07C699.587 514.805 700.228 514.858 700.866 515.23C701.507 515.551 701.959 516.057 702.226 516.75C703.398 520 705.476 522.424 708.459 524.022C707.66 522.424 706.995 520.533 706.461 518.349C706.355 517.813 706.435 517.363 706.702 516.989C706.967 516.509 707.367 516.189 707.901 516.029C708.433 515.977 708.938 516.084 709.42 516.351C709.846 516.616 710.11 517.016 710.219 517.548C710.964 520.638 711.977 523.036 713.255 524.742L713.334 524.822C713.654 525.196 714.001 525.542 714.374 525.861C714.748 525.915 715.12 525.968 715.494 526.02C716.132 526.128 716.773 526.18 717.412 526.18C716.132 524.102 714.96 521.704 713.896 518.987C712.617 515.79 711.87 512.992 711.656 510.594C711.603 509.848 711.817 509.21 712.297 508.676C712.777 508.197 713.362 507.904 714.055 507.797C714.748 507.744 715.385 507.958 715.974 508.436C716.506 508.969 716.826 509.582 716.931 510.275C717.145 512.246 717.758 514.591 718.771 517.308V515.71C718.771 513.844 718.397 511.955 717.652 510.035C717.438 509.557 717.465 509.076 717.731 508.596C717.945 508.117 718.292 507.77 718.771 507.559C719.303 507.344 719.81 507.37 720.29 507.637C720.768 507.904 721.116 508.276 721.327 508.758C722.235 511.208 722.688 513.552 722.688 515.79C722.688 517.388 722.635 518.482 722.526 519.067C722.314 520.293 721.836 521.332 721.089 522.184C721.674 523.25 722.341 524.262 723.087 525.221C723.513 525.753 723.939 526.342 724.365 526.98L724.524 527.219C725.376 528.551 726.123 530.044 726.764 531.695C726.817 531.801 726.897 531.935 727.004 532.095C727.803 531.828 728.548 531.296 729.24 530.496C730.361 529.005 730.76 527.619 730.439 526.342C730.281 525.808 730.334 525.301 730.6 524.822C730.866 524.342 731.238 524.049 731.718 523.942C732.199 523.835 732.679 523.89 733.158 524.102C733.636 524.369 733.958 524.796 734.116 525.381C734.915 527.779 734.33 530.283 732.357 532.894V532.974C731.027 534.52 729.614 535.506 728.121 535.933C728.174 536.518 728.203 536.997 728.203 537.37C727.936 540.515 728.415 543.072 729.64 545.043H729.72C731.053 547.068 732.012 548.613 732.599 549.679C733.503 550.106 734.515 550.611 735.636 551.198C735.796 551.252 735.956 551.33 736.114 551.438L736.355 551.597H736.595L736.755 551.677C737.92 552.188 738.964 552.886 739.886 553.772C744.856 553.376 749.637 553.042 754.231 552.77C755.003 551.788 755.784 550.571 756.577 549.12C758.068 546.456 759.08 544.111 759.613 542.086C759.454 542.086 759.293 542.113 759.135 542.166C757.057 542.965 755.297 543.417 753.859 543.527C753.271 544.111 752.526 544.698 751.62 545.283C749.275 546.829 747.066 547.523 744.987 547.361C743.175 547.361 741.204 547.014 739.073 546.324H738.993C736.648 545.63 734.942 544.778 733.878 543.764C733.451 543.392 733.211 542.938 733.158 542.408C733.104 541.873 733.291 541.419 733.716 541.047C733.983 540.62 734.41 540.382 734.997 540.329C735.529 540.329 736.008 540.515 736.434 540.887C737.18 541.473 738.379 542.058 740.03 542.645C741.79 543.179 743.442 543.472 744.987 543.527C745.999 543.527 747.013 543.285 748.023 542.805C747.703 542.7 747.331 542.591 746.904 542.486H746.824C744.959 542.006 743.549 541.581 742.59 541.207C740.83 540.62 738.939 539.53 736.913 537.932L736.833 537.85C736.461 537.584 736.141 537.343 735.876 537.132C735.235 536.705 734.888 536.119 734.835 535.372C734.677 534.68 734.81 534.04 735.235 533.454C735.662 532.869 736.248 532.547 736.995 532.495C737.687 532.389 738.326 532.547 738.911 532.974C739.233 533.188 739.578 533.481 739.952 533.853C741.124 534.653 742.243 535.32 743.307 535.852C741.551 532.974 740.724 531.028 740.83 530.017C740.83 529.484 741.018 529.03 741.391 528.658C741.762 528.285 742.216 528.099 742.748 528.099C743.282 528.099 743.734 528.313 744.107 528.74C744.534 529.164 744.748 529.617 744.748 530.097C744.8 530.791 745.52 532.227 746.904 534.413C748.185 536.491 749.117 537.61 749.702 537.77C750.074 537.822 750.421 537.904 750.742 538.01C751.382 538.117 751.994 538.196 752.581 538.249H752.661C752.98 538.09 753.38 538.09 753.859 538.249H754.018C754.871 538.036 755.858 537.742 756.977 537.37C757.989 536.891 758.708 536.333 759.135 535.692L759.004 535.431C758.94 535.305 758.877 535.178 758.813 535.052C758.336 534.36 757.135 533.054 755.217 531.136H755.138C754.285 530.338 753.565 529.512 752.98 528.658C749.836 528.285 746.294 526.874 742.348 524.423L742.27 524.342C741.576 523.862 740.884 523.41 740.192 522.983L740.11 522.823C739.206 522.131 738.432 521.437 737.794 520.745C736.301 520.533 734.435 519.973 732.199 519.067C727.883 517.308 725.591 515.337 725.324 513.154C725.164 512.565 725.244 512.06 725.565 511.633C725.885 511.155 726.284 510.888 726.764 510.834C727.296 510.729 727.774 510.834 728.203 511.155C728.682 511.474 729.002 511.9 729.162 512.433C729.534 513.392 731 514.378 733.558 515.39C733.716 515.443 733.878 515.524 734.036 515.63C733.026 513.659 732.412 511.555 732.199 509.316C732.09 508.569 732.279 507.958 732.759 507.477C733.237 506.89 733.825 506.572 734.515 506.518C735.262 506.465 735.929 506.707 736.514 507.237C737.047 507.717 737.34 508.304 737.394 508.996C737.712 512.033 739.019 514.725 741.309 517.069C741.576 517.335 741.87 517.602 742.19 517.868C742.828 517.123 743.149 516.216 743.149 515.152C743.149 514.778 743.042 514.138 742.828 513.232C742.67 512.754 742.748 512.273 743.069 511.793C743.335 511.314 743.734 511.047 744.268 510.994C744.8 510.834 745.306 510.914 745.787 511.234C746.212 511.555 746.477 511.98 746.586 512.513C746.904 513.791 747.066 514.725 747.066 515.31C747.066 517.176 746.505 518.801 745.387 520.186C746.824 521.094 748.237 521.811 749.623 522.345C748.93 520.48 748.584 518.587 748.584 516.669V516.351C748.584 513.951 748.823 512.007 749.302 510.514C749.836 508.758 750.821 507.05 752.261 505.399C752.686 504.814 753.271 504.52 754.018 504.52C754.712 504.467 755.349 504.707 755.938 505.239C756.468 505.666 756.763 506.251 756.817 506.998C756.868 507.691 756.684 508.331 756.257 508.916C755.297 509.929 754.659 511.021 754.339 512.193C754.179 512.78 754.045 513.472 753.939 514.271C754.365 514.058 754.844 513.871 755.378 513.712C758.041 512.86 759.693 511.766 760.332 510.436C760.546 509.955 760.892 509.61 761.373 509.395C761.852 509.183 762.357 509.183 762.89 509.395C763.424 509.662 763.796 510.035 764.01 510.514C764.223 510.994 764.223 511.501 764.01 512.033C763.157 514.378 760.732 516.189 756.735 517.468C755.723 517.735 754.791 518.002 753.939 518.267C754.206 520.505 755.031 522.636 756.416 524.662L756.657 524.901C757.189 525.808 757.909 526.66 758.813 527.459V527.539C761 529.777 762.385 531.27 762.971 532.015L763.051 532.175C763.529 532.922 763.929 533.668 764.25 534.413C764.408 534.573 764.488 534.759 764.488 534.972L764.57 535.132C764.997 536.411 765.208 537.742 765.208 539.129C765.262 542.38 763.983 546.429 761.373 551.278H761.611C763.956 550.585 766.407 549.174 768.966 547.041L769.046 546.962L769.366 546.724C770.804 545.39 771.629 544.484 771.843 544.004V543.605C771.735 541.419 771.791 539.608 772.002 538.169C770.883 537.532 769.818 536.733 768.804 535.772C766.14 533.054 765.129 529.884 765.769 526.26C765.822 525.728 766.087 525.301 766.568 524.981C766.993 524.662 767.474 524.582 768.005 524.742C768.485 524.796 768.912 525.061 769.284 525.542C769.604 526.02 769.711 526.5 769.604 526.98C769.179 529.272 769.818 531.296 771.524 533.054C772.002 533.481 772.508 533.88 773.042 534.253C774.319 531.59 776.505 529.457 779.595 527.859C781.78 526.687 783.645 525.515 785.191 524.342C784.923 524.129 784.657 523.917 784.39 523.703C781.567 521.465 780.394 518.135 780.874 513.712C780.926 513.179 781.168 512.78 781.594 512.513C782.02 512.14 782.499 511.98 783.033 512.033C783.565 512.087 784.018 512.354 784.39 512.832C784.71 513.259 784.843 513.739 784.79 514.271C784.47 517.096 785.137 519.227 786.788 520.665V520.585C787.215 521.011 787.642 521.357 788.067 521.624C788.973 520.453 789.613 519.254 789.985 518.028C790.147 517.335 790.546 516.829 791.184 516.509C791.825 516.137 792.49 516.084 793.182 516.351C793.876 516.456 794.409 516.829 794.781 517.468C795.155 518.16 795.261 518.854 795.102 519.548C794.514 521.732 793.21 523.917 791.184 526.1L791.106 526.18C789.827 527.459 788.229 528.765 786.31 530.097H787.588C790.465 530.204 793.371 529.911 796.3 529.218H796.221C797.606 528.845 799.019 528.365 800.457 527.779H800.537C803.942 526.5 806.1 525.221 807.012 523.942C807.331 523.303 807.843 522.903 808.53 522.745C809.218 522.531 809.889 522.611 810.528 522.983C811.168 523.356 811.599 523.89 811.807 524.582C811.967 525.221 811.887 525.888 811.567 526.58C810.608 528.604 807.939 530.524 803.575 532.337C805.125 532.709 806.74 532.947 808.45 533.054C810.688 533.214 812.335 532.709 813.406 531.535C813.773 531.11 814.237 530.896 814.765 530.896C815.292 530.843 815.772 531.003 816.203 531.376C816.635 531.75 816.875 532.202 816.923 532.736C816.923 533.268 816.763 533.721 816.443 534.093C814.733 536.224 812.015 537.185 808.29 536.971C805.045 536.758 802.008 536.091 799.177 534.972V535.052C798.592 534.787 798.058 534.545 797.578 534.335C794.276 535.081 790.946 535.424 787.588 535.372C785.778 535.265 784.018 534.998 782.314 534.573H782.073C781.008 534.2 780.341 533.988 780.074 533.935C778.795 534.945 777.916 536.251 777.438 537.85L777.358 537.932C777.091 539.103 776.986 540.887 777.039 543.285C777.358 544.511 776.959 545.949 775.84 547.601C776.372 547.601 776.93 547.628 777.517 547.681C779.809 547.733 781.993 547.281 784.071 546.324H784.152C784.365 546.109 784.605 545.949 784.87 545.843C786.521 544.883 787.482 543.951 787.749 543.045C787.854 542.458 788.12 542.033 788.548 541.766C788.973 541.501 789.48 541.419 790.065 541.528C790.599 541.633 790.999 541.926 791.264 542.408C791.584 542.832 791.691 543.312 791.584 543.844C791.426 545.23 790.599 546.534 789.106 547.761C790.279 548.081 791.451 548.267 792.625 548.322C794.488 548.375 796.194 547.975 797.74 547.123V547.201C798.378 546.776 798.964 546.349 799.498 545.922C799.866 545.55 800.33 545.39 800.857 545.443C801.385 545.443 801.848 545.655 802.216 546.082C802.584 546.456 802.775 546.908 802.775 547.441C802.775 547.975 802.568 548.427 802.136 548.8C801.449 549.494 800.649 550.079 799.738 550.558H799.658C798.142 551.391 796.518 551.916 794.788 552.13C800.574 552.359 806.404 552.74 812.28 553.274C812.1 552.409 812.023 551.558 812.047 550.72C812.047 549.012 812.095 547.975 812.207 547.601C812.255 547.228 812.575 546.882 813.166 546.562C814.013 546.188 814.972 545.949 816.043 545.843C817.05 545.737 818.169 545.977 819.4 546.562C819.928 546.882 820.168 547.388 820.12 548.081C819.96 548.774 819.752 549.866 819.48 551.358C819.352 552.012 819.498 552.909 819.918 554.05C821.391 554.216 822.866 554.391 824.344 554.575C824.052 553.871 823.79 553.279 823.557 552.798C823.349 551.624 823.716 550.852 824.676 550.478C825.043 550.265 826.034 549.973 827.633 549.6C829.184 549.226 830.351 550.211 831.15 552.557C831.407 553.341 831.707 554.361 832.05 555.619C832.193 555.64 832.337 555.661 832.48 555.682C834.248 555.935 836.224 556.24 838.407 556.595C837.704 551.461 837.097 547.904 836.585 545.922C836.633 544.75 837.176 544.084 838.183 543.926C838.551 543.764 839.574 543.685 841.221 543.685C842.819 543.631 843.778 544.803 844.098 547.201C844.328 549.227 844.534 552.715 844.718 557.666C845.934 557.879 847.196 558.103 848.506 558.34C848.725 557.662 848.935 556.986 849.134 556.313C850.301 552.317 850.572 549.679 849.933 548.4C849.293 547.068 848.846 546.082 848.574 545.443C848.254 544.75 848.334 544.191 848.814 543.764C849.821 542.913 850.844 542.408 851.851 542.246C852.922 542.033 853.897 542.006 854.808 542.166C855.448 542.326 855.848 542.566 856.007 542.885C856.215 543.205 856.535 544.191 856.966 545.843C857.446 547.495 857.494 549.279 857.126 551.198C856.855 553.116 856.375 555.381 855.688 557.992C855.559 558.44 855.386 558.965 855.169 559.567C856.365 559.791 857.592 560.023 858.85 560.263C859.967 557.852 860.751 556.029 861.203 554.794C861.89 553.835 862.689 553.542 863.601 553.917C864.032 554.075 864.927 554.582 866.318 555.434C867.645 556.288 867.789 557.804 866.718 559.991C866.486 560.451 866.199 560.992 865.857 561.615C869.533 562.332 873.435 563.106 877.564 563.936C879.386 564.302 881.199 564.659 883.001 565.008C881.89 563.167 880.594 561.361 879.107 559.59C873.464 552.982 869.947 548.533 868.556 546.242C867.165 543.844 866.078 541.793 865.279 540.088C864.48 538.276 864.112 536.518 864.16 534.813C864.16 533.108 864.208 532.067 864.32 531.695C864.368 531.323 864.688 530.976 865.279 530.656C866.126 530.283 867.085 530.044 868.156 529.939C869.164 529.829 870.282 530.071 871.513 530.656C872.041 530.976 872.281 531.484 872.233 532.175C872.073 532.869 871.865 533.96 871.593 535.452C871.322 536.838 872.281 539.316 874.471 542.885C876.501 546.188 878.819 549.468 881.424 552.716C881.241 552.157 881.053 551.597 880.865 551.038C880.677 550.478 880.489 549.919 880.305 549.359C878.227 543.127 876.677 538.969 875.67 536.891C875.462 535.719 875.829 534.945 876.789 534.573C877.156 534.36 878.147 534.068 879.746 533.694C881.297 533.321 882.464 534.307 883.263 536.651C884.014 538.943 885.133 543.259 886.62 549.6C887.899 555.194 888.73 560.202 889.098 564.627C889.305 565.13 889.497 565.678 889.674 566.271C890.068 566.344 890.461 566.416 890.854 566.488C891.053 565.131 891.214 563.763 891.335 562.388C891.863 556.1 891.703 549.706 890.856 543.205C890.009 536.705 889.289 532.309 888.698 530.017C888.746 528.845 889.289 528.178 890.296 528.02C890.664 527.859 891.687 527.779 893.334 527.779C894.932 527.726 895.891 528.898 896.211 531.296C896.483 533.694 896.723 538.142 896.93 544.644C897.042 547.256 897.042 549.706 896.93 551.997C898.689 548.055 900.128 544.191 901.247 540.407C902.413 536.411 902.685 533.773 902.046 532.495C901.406 531.163 900.959 530.177 900.687 529.539C900.367 528.845 900.447 528.285 900.927 527.859C901.934 527.007 902.957 526.5 903.964 526.342C905.035 526.128 906.01 526.1 906.921 526.26C907.561 526.42 907.96 526.66 908.12 526.98C908.328 527.299 908.648 528.285 909.079 529.939C909.559 531.59 909.607 533.374 909.239 535.292C908.968 537.21 908.488 539.475 907.801 542.086C907.049 544.698 904.811 549.921 901.087 557.752L901.007 557.832C901.534 557.779 902.126 557.752 902.765 557.752C903.213 557.752 903.628 557.779 904.044 557.832C905.371 555.634 906.634 553.341 907.801 550.958C910.678 545.098 912.516 541.074 913.316 538.889C914.003 537.932 914.802 537.637 915.714 538.01C916.145 538.169 917.04 538.678 918.431 539.53C919.758 540.382 919.902 541.901 918.831 544.084C918.543 544.65 918.175 545.342 917.712 546.162C918.223 546.348 918.639 546.642 918.991 547.041C919.47 547.523 920.589 549.067 922.348 551.677C922.3 550.985 922.268 550.398 922.268 549.921C922.268 547.895 922.827 546.324 923.946 545.203C924.953 544.244 926.072 543.764 927.303 543.764C927.143 543.605 927.063 543.417 927.063 543.205V540.647C927.063 538.517 927.463 537.05 928.262 536.251C928.95 535.398 930.228 534.972 932.099 534.972C933.537 534.972 934.816 536.198 935.935 538.649C936.623 540.14 937.134 541.633 937.454 543.127C938.781 541.953 939.884 541.367 940.731 541.367C940.843 541.367 940.971 541.419 941.131 541.528C940.859 539.183 941.338 537.37 942.569 536.091C943.8 535.025 945.367 534.493 947.285 534.493C947.717 534.493 948.164 534.573 948.644 534.733C948.164 531.11 947.924 528.818 947.924 527.859C947.924 526.741 948.484 525.861 949.603 525.221C950.402 524.849 951.17 524.662 951.921 524.662C954.367 524.662 956.045 526.048 956.956 528.818C957.164 529.564 957.468 530.416 957.835 531.376C958.107 530.791 958.507 530.311 959.034 529.939C960.313 528.658 961.64 528.02 963.031 528.02C964.581 528.02 965.716 529.272 966.468 531.775C966.787 532.736 967.075 533.853 967.347 535.132C968.418 533.588 969.905 532.814 971.823 532.814C974.269 532.814 975.771 534.413 976.299 537.61C976.347 538.249 976.411 539.688 976.459 541.926C976.619 541.819 976.826 541.766 977.098 541.766C978.169 541.766 979.064 542.538 979.816 544.084C980.567 541.528 981.174 539.902 981.654 539.209C982.773 537.023 984.563 535.933 987.009 535.933C988.768 535.933 989.887 536.491 990.366 537.61C990.478 538.036 990.526 539.103 990.526 540.807C990.526 541.819 990.494 542.725 990.446 543.527H990.526C992.332 543.527 993.643 544.936 994.443 547.761C994.714 546.482 995.29 545.178 996.201 543.844C997.911 541.287 999.718 540.008 1001.64 540.008C1004.03 540.008 1005.63 540.702 1006.43 542.086C1006.7 540.915 1007.26 539.82 1008.11 538.811C1009.5 537.21 1011.36 536.411 1013.71 536.411C1014.82 536.411 1015.91 537.023 1016.98 538.249C1017.78 539.368 1018.18 540.22 1018.18 540.807C1018.18 541.339 1018.07 542.006 1017.86 542.805C1017.65 543.659 1017.49 544.511 1017.38 545.363L1017.3 547.041C1017.67 546.829 1018.13 546.724 1018.66 546.724C1022.5 546.724 1024.42 548.24 1024.42 551.278C1024.42 551.971 1023.46 554.262 1021.54 558.151C1021.49 558.685 1021.41 559.137 1021.3 559.51H1021.86C1024.37 559.51 1025.61 560.764 1025.61 563.267C1025.61 564.707 1024.77 566.598 1023.06 568.942C1021.73 570.807 1020.9 572.326 1020.58 573.5C1020.46 573.779 1020.41 574.04 1020.43 574.284C1044.49 572.364 1074.23 568.828 1109.65 563.676C1109.32 562.979 1109.12 562.258 1109.06 561.51C1109.01 560.976 1109.17 560.496 1109.54 560.07C1109.81 559.645 1110.23 559.43 1110.82 559.43C1111.34 559.377 1111.82 559.51 1112.26 559.83C1112.62 560.202 1112.86 560.656 1112.98 561.189C1113.09 561.838 1113.39 562.46 1113.89 563.055C1114.97 562.896 1116.06 562.736 1117.15 562.574C1117.12 562.429 1117.08 562.287 1117.05 562.148H1116.97C1116.97 561.829 1116.92 561.563 1116.81 561.349C1116.01 558.951 1114.73 557.325 1112.98 556.473C1112.82 556.42 1112.7 556.367 1112.66 556.313C1112.22 556.262 1111.66 556.262 1110.98 556.313C1110.13 556.313 1109.35 556.5 1108.66 556.873H1108.58C1099.63 560.711 1093.27 562.52 1089.48 562.31C1088.04 562.255 1086.68 562.068 1085.4 561.748C1085.13 561.695 1084.89 561.588 1084.68 561.429C1083.4 561.695 1082.28 561.829 1081.32 561.829C1079.45 561.721 1077.28 561.216 1074.77 560.31V560.23L1074.61 560.15H1074.53C1072.77 560.896 1071.13 561.243 1069.57 561.189C1067.93 561.136 1066.14 560.629 1064.22 559.67C1062.19 558.551 1060.54 557.167 1059.26 555.516C1058.94 555.034 1058.82 554.555 1058.86 554.075C1058.91 553.49 1059.15 553.065 1059.58 552.798C1060.02 552.477 1060.49 552.317 1061.02 552.317C1061.55 552.477 1062.01 552.771 1062.38 553.196C1063.29 554.422 1064.49 555.406 1065.98 556.153H1065.9C1067.22 556.899 1068.46 557.272 1069.57 557.272C1068.82 556.578 1068.3 555.86 1067.98 555.116C1067.7 554.635 1067.66 554.128 1067.82 553.596C1067.93 553.065 1068.22 552.691 1068.7 552.477C1069.18 552.264 1069.69 552.237 1070.21 552.397C1070.74 552.557 1071.14 552.876 1071.41 553.356C1072 554.422 1073.2 555.354 1075.01 556.153C1075.33 556.313 1075.7 556.473 1076.13 556.633C1076.98 556.953 1077.78 557.219 1078.53 557.432C1078.32 557.114 1078.09 556.82 1077.89 556.553C1077.41 555.968 1077.25 555.326 1077.41 554.635C1077.46 553.942 1077.81 553.381 1078.45 552.956C1078.97 552.529 1079.6 552.397 1080.29 552.557C1081.04 552.663 1081.61 553.009 1082.04 553.596C1083.16 555.089 1084.68 556.1 1086.6 556.633H1086.68C1087.53 556.899 1088.47 557.059 1089.48 557.114C1090.07 557.114 1090.72 557.059 1091.47 556.953C1090.72 556.42 1089.99 555.834 1089.24 555.194C1089.13 555.141 1089.03 555.034 1088.92 554.874C1088.85 554.807 1088.77 554.727 1088.68 554.636C1088.63 554.586 1088.57 554.532 1088.52 554.475L1088.44 554.395C1085.61 551.784 1084.09 549.893 1083.88 548.722C1083.77 548.187 1083.85 547.681 1084.12 547.201C1084.39 546.724 1084.76 546.429 1085.24 546.324C1085.77 546.215 1086.28 546.324 1086.76 546.642C1087.24 546.908 1087.56 547.281 1087.72 547.761C1087.93 548.455 1088.95 549.652 1090.76 551.358C1090.87 551.198 1091.03 551.01 1091.24 550.798V550.72C1091.71 550.131 1091.79 549.412 1091.47 548.56C1091.27 548.027 1091.28 547.523 1091.55 547.041C1091.71 546.562 1092.07 546.215 1092.59 546.004C1093.07 545.843 1093.55 545.897 1094.03 546.162C1094.51 546.376 1094.88 546.749 1095.15 547.281C1096.06 549.574 1095.79 551.572 1094.35 553.276V553.196C1094.29 553.273 1094.23 553.347 1094.18 553.42C1094.04 553.599 1093.91 553.764 1093.79 553.917C1095.07 554.769 1096.24 555.301 1097.31 555.516H1097.39C1099.74 554.769 1102.43 553.728 1105.46 552.397C1104.55 551.757 1103.75 551.145 1103.06 550.558V550.638C1102.74 550.373 1101.51 549.067 1099.39 546.724V546.642C1098.43 545.897 1096.3 545.335 1092.99 544.963C1092.35 544.91 1091.75 544.858 1091.16 544.803C1089.72 544.644 1088.09 544.536 1086.28 544.484C1083.29 544.378 1080.57 543.791 1078.13 542.725C1077.7 542.992 1077.22 543.312 1076.69 543.685L1076.37 543.844C1074.08 545.07 1071.13 545.655 1067.5 545.603C1065.95 545.55 1064.54 545.335 1063.26 544.963C1061.55 545.71 1059.5 546.055 1057.11 546.004C1053.32 545.897 1051.06 545.178 1050.31 543.844C1049.94 543.472 1049.78 543.018 1049.83 542.486C1049.88 541.953 1050.12 541.501 1050.55 541.129C1050.92 540.807 1051.4 540.674 1051.99 540.729C1052.52 540.782 1052.95 541.019 1053.27 541.447C1053.8 541.819 1055.08 542.033 1057.11 542.086H1057.99C1056.66 540.915 1055.48 539.503 1054.47 537.85C1054.1 537.157 1053.99 536.491 1054.15 535.852C1054.31 535.159 1054.71 534.653 1055.35 534.335C1055.99 533.908 1056.66 533.8 1057.35 534.013C1057.99 534.226 1058.5 534.653 1058.86 535.292C1060.26 537.532 1062.11 539.076 1064.46 539.93H1064.3C1065.26 540.195 1066.33 540.329 1067.5 540.329C1069.69 540.382 1071.57 540.14 1073.17 539.608C1070.18 536.678 1067.53 534.52 1065.18 533.136C1064.54 532.761 1064.14 532.227 1063.98 531.535C1063.77 530.843 1063.82 530.177 1064.14 529.539C1064.51 528.898 1065.05 528.498 1065.74 528.338C1066.43 528.126 1067.1 528.231 1067.74 528.658C1070.41 530.204 1073.41 532.627 1076.77 535.933C1077.41 536.518 1078.13 537.023 1078.93 537.45C1080.48 538.196 1082.09 538.729 1083.8 539.049C1080.92 536.171 1079.36 534.093 1079.09 532.814C1078.97 532.227 1079.04 531.75 1079.25 531.376C1079.52 530.896 1079.92 530.576 1080.44 530.416C1080.97 530.311 1081.48 530.391 1081.96 530.656C1082.4 530.924 1082.68 531.323 1082.84 531.855C1083.21 532.761 1084.49 534.253 1086.68 536.333C1088.07 537.77 1089.27 538.811 1090.28 539.448C1090.71 539.503 1091.11 539.555 1091.47 539.608C1092.11 539.608 1092.72 539.663 1093.31 539.768C1096.88 540.195 1099.55 540.861 1101.31 541.766C1101.1 540.274 1101.03 538.649 1101.15 536.891V536.811C1101.15 536.333 1101.02 535.692 1100.75 534.892V534.972C1100.59 534.493 1100.39 534.013 1100.19 533.536V533.454C1099.87 532.654 1099.52 531.91 1099.15 531.216C1097.23 531.428 1095.28 531.428 1093.31 531.216H1093.23C1092.27 531.11 1091.35 530.976 1090.44 530.816C1088.63 530.443 1086.97 529.911 1085.48 529.218H1085.4C1084.6 529.325 1083.61 529.377 1082.44 529.377H1082.28C1079.09 529.325 1076.08 528.313 1073.25 526.342C1070.81 524.529 1069.53 523.01 1069.41 521.784C1069.3 521.252 1069.41 520.772 1069.73 520.346C1070.01 519.866 1070.41 519.601 1070.93 519.548C1071.46 519.439 1071.97 519.548 1072.45 519.866C1072.88 520.186 1073.14 520.613 1073.25 521.145C1073.52 521.572 1074.26 522.264 1075.49 523.223V523.145C1076.82 524.049 1078.21 524.716 1079.65 525.143C1077.84 523.277 1076.48 521.011 1075.57 518.349C1075.3 517.655 1075.33 516.989 1075.65 516.351C1075.97 515.657 1076.48 515.23 1077.17 515.07ZM790.066 551.976C788.643 551.719 787.231 551.273 785.831 550.638H785.751C785.431 550.531 785.164 550.373 784.951 550.159C782.554 551.172 780.074 551.652 777.517 551.597C775.598 551.492 773.947 551.305 772.563 551.038L772.323 551.198C771.987 551.482 771.652 551.756 771.317 552.019C774.965 551.921 778.464 551.872 781.815 551.872C784.555 551.872 787.306 551.907 790.066 551.976ZM436.559 585.913C436.528 585.85 436.497 585.788 436.466 585.727C436.432 585.786 436.397 585.847 436.361 585.908C436.427 585.909 436.493 585.911 436.559 585.913ZM410.228 584.437C410.099 584.133 409.946 583.818 409.77 583.491C409.45 582.849 408.704 581.572 407.53 579.652C406.945 578.64 406.44 577.708 406.013 576.855C405.374 577.975 404.467 579.332 403.296 580.931C402.384 582.052 401.692 582.932 401.219 583.57C404.221 583.889 407.223 584.178 410.228 584.437ZM898.776 564.087L898.689 563.906C898.401 564.878 898.161 565.839 897.969 566.784C898.417 566.205 898.849 565.618 899.248 565.027C899.075 564.706 898.924 564.393 898.776 564.087ZM912.037 555.594V555.674C910.886 557.499 909.735 559.203 908.6 560.789C909.239 561.56 910.023 562.517 910.918 563.666C911.557 562.654 912.468 562.015 913.635 561.748C913.475 560.789 913.156 559.59 912.676 558.151C912.421 557.339 912.197 556.487 912.037 555.594Z" fill="#2A2440"/>
<path d="M1291.3 602.267C1216.11 603.466 1171.01 604.279 1156.03 604.701C1141.05 605.055 1118.56 603.43 1088.57 599.828C1058.53 596.225 1013.29 589.233 952.849 578.852C892.462 568.257 849.115 563.666 822.792 565.079C796.408 566.348 769.006 569.739 740.584 575.25C712.101 580.687 677.264 586.268 636.069 591.988C599.133 599.545 561.026 606.784 521.751 613.707C482.418 620.632 453.576 622.006 435.228 617.839C409.384 615.72 374.936 609.117 331.884 598.029C278.337 584.183 238.343 577.263 211.898 577.263C171.125 577.263 131.611 582.17 93.355 591.988C70.6283 597.778 57.0181 601.135 52.521 602.053C37.5311 605.091 22.7804 606.608 8.26904 606.608C2.57205 606.608 -3.18429 606.22 -9 605.445C-6.78201 606.714 -4.53344 607.987 -2.25428 609.257C1.16355 611.236 4.82063 613.425 8.71875 615.826C21.6687 623.384 37.1101 632.777 55.0394 644.009C74.2853 655.31 92.2452 663.362 108.913 668.164C129.782 674.097 154.606 677.063 183.388 677.063C190.103 677.063 222.963 673.815 281.965 667.318C340.966 660.892 376.105 657.675 387.378 657.675C408.186 657.675 431.33 660.287 456.814 665.515C471.984 668.694 494.83 674.45 525.349 682.787C555.629 691.19 578.536 696.983 594.067 700.162C619.789 705.389 643.235 708 664.401 708C685.447 708 704.906 705.989 722.774 701.961C734.229 699.348 748.407 694.898 765.319 688.614C783.307 681.903 796.588 677.49 805.161 675.371C821.053 671.272 837.841 669.223 855.531 669.223C868.249 669.223 893.307 673.109 930.724 680.877C968.194 688.647 991.705 692.532 1001.24 692.532C1030.38 692.532 1057.78 687.304 1083.45 676.853C1101.02 669.789 1128.78 659.654 1166.73 646.445L1291.3 602.267Z" fill="#37324D"/>
<path fill-rule="evenodd" clip-rule="evenodd" d="M833.439 306.09L848.392 300.101L848.917 397.309L833.432 388.515L833.439 306.09Z" fill="#484A4C"/>
<path fill-rule="evenodd" clip-rule="evenodd" d="M859.822 293.482L848.395 300.101L833.441 306.09L845.116 299.449L859.822 293.482Z" fill="#9B9D9D"/>
<path fill-rule="evenodd" clip-rule="evenodd" d="M859.822 293.486L848.395 300.101L848.919 397.309L860.346 390.689C860.117 355.011 859.96 315.215 859.822 293.486Z" fill="#2F3031"/>
<path fill-rule="evenodd" clip-rule="evenodd" d="M851.058 300.993L892.014 324.256L892.538 421.62L851.051 398.061L851.058 300.993Z" fill="#706C81"/>
<path fill-rule="evenodd" clip-rule="evenodd" d="M903.443 317.638L892.016 324.257L851.061 300.994L862.736 294.357L903.443 317.638Z" fill="#B0C3CB"/>
<path fill-rule="evenodd" clip-rule="evenodd" d="M903.443 317.637L892.016 324.256L892.54 421.62L903.967 415.004C903.738 379.327 903.581 339.37 903.443 317.637Z" fill="#37324D"/>
<path fill-rule="evenodd" clip-rule="evenodd" d="M894.542 325.59L909.496 349.778L910.021 431.449L894.535 422.655L894.542 325.59Z" fill="#706C81"/>
<path fill-rule="evenodd" clip-rule="evenodd" d="M920.926 343.159L909.498 349.778L894.545 325.59L906.22 318.949L920.926 343.159Z" fill="#B0C3CB"/>
<path fill-rule="evenodd" clip-rule="evenodd" d="M920.921 343.159L909.49 349.778L910.018 414.593L921.446 407.978C921.216 372.301 921.06 364.892 920.921 343.159Z" fill="#96A2A8"/>
<path d="M784.706 414.827C785.004 414.914 785.307 414.958 785.605 414.958C785.822 414.958 786.036 414.935 786.244 414.891L784.281 421.424C784.106 422.013 784.437 422.636 785.027 422.811C785.133 422.844 785.242 422.858 785.348 422.858C785.829 422.858 786.269 422.549 786.415 422.064L788.539 415.002C788.683 414.517 788.483 414.009 788.076 413.745C788.303 413.452 788.48 413.114 788.592 412.74L793.783 395.465C794.282 393.816 793.346 392.074 791.696 391.579C790.057 391.091 788.308 392.018 787.809 393.666L782.615 410.94C782.496 411.336 782.459 411.737 782.495 412.125C782.12 412.213 781.801 412.492 781.681 412.889L779.558 419.948C779.379 420.535 779.714 421.158 780.304 421.336C780.41 421.368 780.516 421.384 780.625 421.384C781.102 421.384 781.547 421.074 781.692 420.59L783.604 414.235C783.918 414.497 784.289 414.701 784.706 414.827Z" fill="#37324D"/>
<path d="M781.377 369.391C769.167 383.069 770.246 405.414 794.222 408.096C810.169 409.882 815.583 397.179 814.134 382.164C830.97 351.595 830.995 305.666 822.997 303.825C813.235 301.574 800.511 303.515 799.163 315.802C798.137 317.704 798.51 318.089 798.443 318.369C798.376 318.646 797.875 318.818 795.145 320.265C790.089 319.929 781.313 329.765 782.902 335.947C782.464 340.496 782.268 340.762 778.953 343.735C774.654 349.403 776.152 359.789 779.488 364.091C780.121 366.079 780.744 367.836 781.377 369.391Z" fill="#ECF1F6"/>
<path d="M782.225 339.828C782.815 348.596 795.845 359.564 808.664 358.045C835.22 354.905 827.41 358.643 810.762 360.5C797.342 361.997 779.741 351.556 780.28 342.614L782.225 339.828Z" fill="#B0C3CB"/>
<path d="M814.078 379.51C802.964 389.798 781.13 381.095 781.385 368.327C778.332 386.847 806.235 394.013 814.188 382.389C814.33 381.488 813.823 380.934 814.078 379.51Z" fill="#B0C3CB"/>
<path d="M798.599 318.252C796.482 325.519 801.983 339.442 811.356 345.948C837.478 364.07 828.455 357.444 812.474 348.174C799.287 340.528 793.39 327.84 796.799 319.512L798.599 318.252Z" fill="#B0C3CB"/>
<path fill-rule="evenodd" clip-rule="evenodd" d="M886.983 564.559C887.114 565.164 894.625 578.595 891.89 590.343C890.451 596.506 867.429 612.833 844.756 616.695C837.74 617.885 829.216 614.311 827.905 610.574C826.083 605.386 825.894 596.109 830.881 591.56C837.929 585.129 850.726 583.315 853.174 573.04C853.812 570.348 853.612 568.431 853.535 565.199L886.983 564.559Z" fill="#2A2440"/>
<path fill-rule="evenodd" clip-rule="evenodd" d="M833.902 592.727C839.522 586.691 851.999 583.708 854.09 577.836C857.915 580.484 861.623 583.828 872.642 581.442C870.322 592.979 851.755 600.01 843.132 600.01C834.488 600.01 829.64 597.306 833.902 592.727Z" fill="#706C81"/>
<path fill-rule="evenodd" clip-rule="evenodd" d="M885.277 410.921C884.982 415.514 884.877 418.884 885.128 419.916C868.747 440.249 812.058 427.925 806.124 400.376C805.822 396.616 805.468 392.897 805.111 389.214C817.526 419.285 865.22 431.853 885.277 410.921Z" fill="#2F3031"/>
<path fill-rule="evenodd" clip-rule="evenodd" d="M894.493 343.349C897.222 353.73 893.987 401.978 883.602 409.268C867.621 431.9 825.365 428.28 809.249 394.872C794.518 372.903 805.104 336.023 821.074 316.848C828.13 308.375 836.574 305.723 848.686 305.559C881.981 307.449 892.541 335.921 894.493 343.349Z" fill="#37324D"/>
<path fill-rule="evenodd" clip-rule="evenodd" d="M879.623 277.847C885.524 287.668 889.386 299.642 882.982 322.806C870.192 335.356 847.687 343.442 828.078 332.186C808.356 320.872 805.584 288.087 821.499 270.438C836.354 253.958 867.915 258.359 879.623 277.847Z" fill="#B0C3CB"/>
<path fill-rule="evenodd" clip-rule="evenodd" d="M885.081 313.744C874.266 322.53 852.865 325.39 839.558 317.544C826.251 309.697 817.395 295.02 813.545 284.351C815.253 279.218 817.894 274.439 821.504 270.439C836.36 253.959 867.731 258.265 879.628 277.848C885.027 286.729 887.904 296.386 885.081 313.744Z" fill="#ECF1F6"/>
<path fill-rule="evenodd" clip-rule="evenodd" d="M836.698 279.268C849.706 283.152 860.248 298.426 860.248 313.375C860.248 328.336 849.706 337.312 836.698 333.429C823.7 329.549 813.158 314.272 813.158 299.311C813.158 284.365 823.7 275.385 836.698 279.268Z" fill="#37324D"/>
<path fill-rule="evenodd" clip-rule="evenodd" d="M836.699 286.747C846.112 289.556 853.743 300.615 853.743 311.434C853.743 322.261 846.112 328.759 836.699 325.951C827.29 323.138 819.658 312.083 819.658 301.256C819.658 290.437 827.29 283.939 836.699 286.747Z" fill="#F84638"/>
<path fill-rule="evenodd" clip-rule="evenodd" d="M836.7 286.748C846.113 289.56 853.744 300.616 853.744 311.435C853.744 316.301 852.2 320.29 849.65 322.957C846.87 324.388 843.475 324.709 839.811 323.612C830.405 320.804 822.773 309.748 822.773 298.918C822.773 294.059 824.314 290.07 826.864 287.403C829.644 285.972 833.035 285.655 836.7 286.748Z" fill="#F2C94C"/>
<path fill-rule="evenodd" clip-rule="evenodd" d="M838.963 537.091C839.094 537.696 846.602 551.127 843.866 562.875C842.431 569.039 819.409 585.365 796.736 589.224C789.721 590.418 781.197 586.845 779.885 583.106C778.064 577.92 777.874 568.642 782.861 564.092C789.906 557.663 802.707 555.848 805.151 545.572C805.792 542.88 805.592 540.965 805.512 537.733L838.963 537.091Z" fill="#2A2440"/>
<path d="M806.005 398.861C805.915 398.917 805.807 398.976 805.683 399.045C803.961 399.996 799.233 402.608 798.672 418.219C798.623 419.564 798.715 420.799 798.802 421.962C799.025 424.956 799.211 427.462 796.858 430.084C792.989 434.855 791.222 441.467 792.84 454.173C792.931 456.77 793.084 459.163 793.251 461.433C791.592 465.49 792.886 470.869 793.751 474.463C793.881 475.003 794.001 475.503 794.1 475.953C794.405 477.336 793.983 478.046 793.534 478.801C793.136 479.47 792.717 480.175 792.763 481.414C789.111 496.913 795.013 514.139 801.643 527.155C800.882 526.613 800.196 526.009 799.598 525.342C797.248 529.214 800.253 537.786 805.525 543.334C814.759 553.063 835.628 549.836 840.178 539.61C842.12 535.239 842.757 527.393 840.393 522.038C839.943 522.61 839.432 523.158 838.867 523.681C837.341 509.802 836.224 494.615 839.347 471.987C839.081 476.751 838.906 481.825 840.56 485.034C840.636 485.828 840.713 486.626 840.792 487.429L840.873 488.262C838.298 501.988 840.363 511.612 844.184 518.941C842.989 530.642 843.441 543.817 846.213 547.904C846.186 552.369 852.172 556.369 859.661 558.117C854.668 557.482 850.272 555.77 847.616 552.808C845.27 556.681 848.272 565.251 853.543 570.804C862.777 580.53 883.647 577.302 888.197 567.077C890.138 562.706 890.776 554.86 888.411 549.508C887.196 551.051 885.536 552.421 883.571 553.594C885.808 551.448 887.476 548.596 888.262 544.915C892.218 542.353 895.463 511.794 890.597 504.046C890.593 502.587 890.494 501.841 890.392 501.07C890.287 500.274 890.178 499.452 890.167 497.792C891.653 494.28 890.655 489.531 890.247 489.454C890.193 488.798 889.982 488.203 889.771 487.605C889.299 486.271 888.823 484.925 890.068 482.871C895.299 470.988 892.36 455.345 890.629 452.184C888.706 427.763 889.675 420.974 890.292 416.65C890.479 415.34 890.634 414.256 890.666 412.977C886.389 430.834 816.725 428.356 819.832 408.879L806.005 398.861Z" fill="#DCE4ED"/>
<path fill-rule="evenodd" clip-rule="evenodd" d="M863.598 424.543C847.118 435.979 842.527 447.641 839.86 465.155C836.487 448.974 841.255 432.154 850.953 425.372C853.855 425.06 860.692 424.853 863.598 424.543Z" fill="#B0C3CB"/>
<path fill-rule="evenodd" clip-rule="evenodd" d="M818.531 414.998C820.532 428.051 825.296 452.673 839.856 465.155C817.66 450.169 811.609 423.913 810.527 405.987C811.307 403.169 815.979 412.827 818.531 414.998Z" fill="#B0C3CB"/>
<path fill-rule="evenodd" clip-rule="evenodd" d="M804.781 385.823C816.977 414.993 865.273 428.738 885.352 407.705C885.73 415.052 885.705 419.496 885.129 419.915C868.263 437.338 811.528 424.731 806.125 400.376C805.444 398.281 805.029 392.875 804.781 385.823Z" fill="#706C81"/>
<path d="M889.742 448.565C877.466 470.404 847.234 477.896 838.998 468.236C847.602 484.77 887.232 470.804 890.627 452.182C890.474 451.014 889.938 450.445 889.742 448.565Z" fill="#B0C3CB"/>
<path d="M889.787 486.395C877.511 503.458 848.165 498.136 840.73 486.818C841.962 502.977 886.851 506.755 890.246 489.452C890.09 488.219 889.988 488.352 889.787 486.395Z" fill="#B0C3CB"/>
<path d="M890.171 500.975C879.05 520.762 851.347 527.869 843.883 519.116C851.678 534.095 887.516 520.919 890.59 504.045C890.452 502.985 890.353 502.677 890.171 500.975Z" fill="#B0C3CB"/>
<path d="M888.069 547.216C878.372 560.694 852.206 558.088 846.334 549.145C847.303 561.91 885.749 563.298 888.43 549.63C888.309 548.657 888.226 548.759 888.069 547.216Z" fill="#B0C3CB"/>
<path fill-rule="evenodd" clip-rule="evenodd" d="M785.886 565.261C791.506 559.225 803.979 556.241 806.074 550.37C809.899 553.018 813.607 556.362 824.626 553.976C822.306 565.513 803.739 572.542 795.116 572.542C786.472 572.542 781.62 569.84 785.886 565.261Z" fill="#706C81"/>
<path d="M840.049 519.746C830.352 533.227 804.187 530.619 798.314 521.68C799.283 534.443 837.729 535.832 840.41 522.16C840.29 521.191 840.206 521.289 840.049 519.746Z" fill="#B0C3CB"/>
<path d="M797.983 426.006C807.651 451.356 830.859 472.448 838.031 467.547C827.941 475.209 799.531 449.677 796.857 430.083C796.978 428.957 797.826 427.827 797.983 426.006Z" fill="#B0C3CB"/>
<path d="M793.004 457.906C796.239 477.136 829.584 489.147 838.174 482.097C834.127 493.234 792.88 480.393 793.237 461.819C793.263 460.565 793 459.031 793.004 457.906Z" fill="#B0C3CB"/>
<path d="M793.336 477.714C797.635 503.505 826.828 518.174 837.574 508.271C825.808 523.85 791.03 501.334 792.823 479.18C793.183 478.174 792.797 479.339 793.336 477.714Z" fill="#B0C3CB"/>
<path d="M893.282 331.958C873.647 334.002 865.411 355.862 875.327 371.734L877.56 376.014C855.812 367.792 867.976 328.705 889.191 329.121L893.282 331.958Z" fill="#B0C3CB"/>
<path d="M887.471 470.401C887.172 470.401 886.87 470.357 886.571 470.27C886.153 470.145 885.78 469.939 885.465 469.676L883.554 476.033C883.408 476.517 882.967 476.823 882.49 476.823C882.381 476.823 882.275 476.813 882.17 476.78C881.58 476.601 881.244 475.978 881.423 475.391L883.547 468.328C883.666 467.933 883.987 467.655 884.361 467.567C884.325 467.178 884.361 466.776 884.48 466.38L889.671 449.11C890.166 447.463 891.919 446.537 893.558 447.022C895.208 447.517 896.144 449.259 895.649 450.908L890.454 468.178C890.342 468.555 890.164 468.895 889.937 469.188C890.343 469.45 890.544 469.959 890.397 470.445L888.273 477.509C888.128 477.993 887.687 478.303 887.206 478.303C887.104 478.303 886.995 478.287 886.889 478.255C886.295 478.077 885.964 477.453 886.139 476.867L888.102 470.336C887.896 470.379 887.685 470.401 887.471 470.401Z" fill="#37324D"/>
<path d="M925.221 394.104C925.785 390.61 926.033 387.481 925.844 384.927C927.541 379.048 926.23 364.451 916.416 358.961C912.698 356.881 912.637 354.578 912.579 352.4C912.56 351.681 912.541 350.975 912.391 350.296C912.129 342.161 901.339 331.317 893.201 331.965C891.759 331.128 890.261 330.366 888.71 329.689C881.705 324.166 869.101 346.274 870.685 355.323C870.682 355.731 870.725 356.163 870.802 356.612C870.703 363.005 871.545 368.469 877.042 375.347C879.461 378.374 883.213 386.352 884.105 390.62C884.187 391.013 884.268 391.377 884.343 391.718C884.828 393.91 885.106 395.164 884.207 397.174C881.992 402.013 881.923 411.44 885.209 415.176C885.03 417.471 884.973 419.009 884.988 420.042L884.985 420.045C870.458 433.348 870.185 458.21 895.56 461.05C912.994 463.004 917.835 447.642 914.892 430.871C914.784 430.252 914.624 429.657 914.417 429.085C915.242 427.909 915.943 426.463 916.537 424.736C920.529 420.029 928.106 407.916 925.221 394.104Z" fill="#ECF1F6"/>
<path d="M916.416 358.96C903.4 350.153 880.513 363.759 883.198 387.506L884.105 390.62C868.015 373.828 894.647 344.55 913.615 354.066L916.416 358.96Z" fill="#B0C3CB"/>
<path d="M925.389 394.962C916.042 381.335 890.881 388.209 884.215 397.312C884.138 379.284 922.278 375.411 925.968 390.271C925.863 391.976 925.797 393.716 925.389 394.962Z" fill="#B0C3CB"/>
<path d="M914.467 429.045C903.356 439.333 882.415 427.382 885.435 415.036C877.906 433.32 907.081 443.487 915.03 431.868C914.917 430.965 914.728 430.4 914.467 429.045Z" fill="#B0C3CB"/>
<path fill-rule="evenodd" clip-rule="evenodd" d="M789.833 249.996C791.374 249.996 792.627 248.739 792.627 247.198C792.627 245.661 791.374 244.404 789.833 244.404C788.296 244.404 787.039 245.661 787.039 247.198C787.039 248.739 788.296 249.996 789.833 249.996Z" fill="url(#paint0_linear_1361_21375)"/>
<path fill-rule="evenodd" clip-rule="evenodd" d="M792.995 258.906C795.024 258.906 796.682 257.252 796.682 255.223C796.682 253.194 795.024 251.54 792.995 251.54C790.966 251.54 789.312 253.194 789.312 255.223C789.312 257.252 790.966 258.906 792.995 258.906Z" fill="url(#paint1_linear_1361_21375)"/>
<path fill-rule="evenodd" clip-rule="evenodd" d="M802.886 249.118C804.427 249.118 805.68 247.861 805.68 246.321C805.68 244.783 804.427 243.527 802.886 243.527C801.349 243.527 800.092 244.783 800.092 246.321C800.092 247.861 801.349 249.118 802.886 249.118Z" fill="url(#paint2_linear_1361_21375)"/>
<path fill-rule="evenodd" clip-rule="evenodd" d="M808.892 244.572C810.921 244.572 812.575 242.914 812.575 240.885C812.575 238.856 810.921 237.202 808.892 237.202C806.863 237.202 805.209 238.856 805.209 240.885C805.209 242.914 806.863 244.572 808.892 244.572Z" fill="url(#paint3_linear_1361_21375)"/>
<path fill-rule="evenodd" clip-rule="evenodd" d="M801.599 227.229C803.136 227.229 804.393 225.972 804.393 224.435C804.393 222.894 803.136 221.641 801.599 221.641C800.061 221.641 798.805 222.894 798.805 224.435C798.805 225.972 800.061 227.229 801.599 227.229Z" fill="url(#paint4_linear_1361_21375)"/>
<path fill-rule="evenodd" clip-rule="evenodd" d="M799.729 263.583C800.498 263.583 801.128 262.956 801.128 262.188C801.128 261.416 800.498 260.789 799.729 260.789C798.96 260.789 798.33 261.416 798.33 262.188C798.33 262.956 798.96 263.583 799.729 263.583Z" fill="url(#paint5_linear_1361_21375)"/>
<path fill-rule="evenodd" clip-rule="evenodd" d="M800.733 240.55C801.501 240.55 802.128 239.924 802.128 239.155C802.128 238.383 801.501 237.756 800.733 237.756C799.961 237.756 799.334 238.383 799.334 239.155C799.334 239.924 799.961 240.55 800.733 240.55Z" fill="url(#paint6_linear_1361_21375)"/>
<path fill-rule="evenodd" clip-rule="evenodd" d="M816.45 244.987C817.222 244.987 817.849 244.357 817.849 243.588C817.849 242.819 817.222 242.189 816.45 242.189C815.681 242.189 815.055 242.819 815.055 243.588C815.055 244.357 815.681 244.987 816.45 244.987Z" fill="url(#paint7_linear_1361_21375)"/>
<path fill-rule="evenodd" clip-rule="evenodd" d="M809.307 222.667C810.076 222.667 810.702 222.041 810.702 221.272C810.702 220.5 810.076 219.873 809.307 219.873C808.535 219.873 807.908 220.5 807.908 221.272C807.908 222.041 808.535 222.667 809.307 222.667Z" fill="url(#paint8_linear_1361_21375)"/>
<path fill-rule="evenodd" clip-rule="evenodd" d="M793.01 265.157C793.779 265.157 794.409 264.531 794.409 263.758C794.409 262.99 793.779 262.363 793.01 262.363C792.242 262.363 791.611 262.99 791.611 263.758C791.611 264.531 792.242 265.157 793.01 265.157Z" fill="url(#paint9_linear_1361_21375)"/>
<path fill-rule="evenodd" clip-rule="evenodd" d="M804.142 275.644C806.171 275.644 807.828 273.99 807.828 271.961C807.828 269.932 806.171 268.278 804.142 268.278C802.116 268.278 800.459 269.932 800.459 271.961C800.459 273.99 802.116 275.644 804.142 275.644Z" fill="url(#paint10_linear_1361_21375)"/>
<path fill-rule="evenodd" clip-rule="evenodd" d="M787.851 270.493C789.88 270.493 791.534 268.839 791.534 266.81C791.534 264.781 789.88 263.127 787.851 263.127C785.822 263.127 784.168 264.781 784.168 266.81C784.168 268.839 785.822 270.493 787.851 270.493Z" fill="url(#paint11_linear_1361_21375)"/>
<path fill-rule="evenodd" clip-rule="evenodd" d="M796.95 278.729C798.488 278.729 799.744 277.473 799.744 275.936C799.744 274.395 798.488 273.142 796.95 273.142C795.409 273.142 794.156 274.395 794.156 275.936C794.156 277.473 795.409 278.729 796.95 278.729Z" fill="url(#paint12_linear_1361_21375)"/>
<path fill-rule="evenodd" clip-rule="evenodd" d="M817.894 232.409C819.923 232.409 821.577 230.755 821.577 228.726C821.577 226.697 819.923 225.043 817.894 225.043C815.865 225.043 814.211 226.697 814.211 228.726C814.211 230.755 815.865 232.409 817.894 232.409Z" fill="url(#paint13_linear_1361_21375)"/>
<path fill-rule="evenodd" clip-rule="evenodd" d="M788.169 286.773C790.198 286.773 791.852 285.12 791.852 283.091C791.852 281.062 790.198 279.404 788.169 279.404C786.14 279.404 784.482 281.062 784.482 283.091C784.482 285.12 786.14 286.773 788.169 286.773Z" fill="url(#paint14_linear_1361_21375)"/>
<path fill-rule="evenodd" clip-rule="evenodd" d="M808.589 282.755C809.361 282.755 809.987 282.129 809.987 281.357C809.987 280.588 809.361 279.961 808.589 279.961C807.82 279.961 807.193 280.588 807.193 281.357C807.193 282.129 807.82 282.755 808.589 282.755Z" fill="url(#paint15_linear_1361_21375)"/>
<path fill-rule="evenodd" clip-rule="evenodd" d="M793.885 290.459C794.654 290.459 795.284 289.833 795.284 289.064C795.284 288.292 794.654 287.665 793.885 287.665C793.116 287.665 792.486 288.292 792.486 289.064C792.486 289.833 793.116 290.459 793.885 290.459Z" fill="url(#paint16_linear_1361_21375)"/>
<path fill-rule="evenodd" clip-rule="evenodd" d="M780.944 290.463C782.482 290.463 783.738 289.207 783.738 287.666C783.738 286.128 782.482 284.872 780.944 284.872C779.403 284.872 778.15 286.128 778.15 287.666C778.15 289.207 779.403 290.463 780.944 290.463Z" fill="url(#paint17_linear_1361_21375)"/>
<path fill-rule="evenodd" clip-rule="evenodd" d="M805.588 291.049C806.357 291.049 806.983 290.423 806.983 289.654C806.983 288.882 806.357 288.255 805.588 288.255C804.816 288.255 804.189 288.882 804.189 289.654C804.189 290.423 804.816 291.049 805.588 291.049Z" fill="url(#paint18_linear_1361_21375)"/>
<path fill-rule="evenodd" clip-rule="evenodd" d="M798.46 296.499C800.493 296.499 802.147 294.845 802.147 292.816C802.147 290.787 800.493 289.133 798.46 289.133C796.431 289.133 794.777 290.787 794.777 292.816C794.777 294.845 796.431 296.499 798.46 296.499Z" fill="url(#paint19_linear_1361_21375)"/>
<path fill-rule="evenodd" clip-rule="evenodd" d="M805.323 300.19C806.86 300.19 808.117 298.933 808.117 297.396C808.117 295.855 806.86 294.602 805.323 294.602C803.782 294.602 802.525 295.855 802.525 297.396C802.525 298.933 803.782 300.19 805.323 300.19Z" fill="url(#paint20_linear_1361_21375)"/>
<path fill-rule="evenodd" clip-rule="evenodd" d="M775.798 263.565C777.335 263.565 778.592 262.312 778.592 260.771C778.592 259.231 777.335 257.977 775.798 257.977C774.257 257.977 773 259.231 773 260.771C773 262.312 774.257 263.565 775.798 263.565Z" fill="url(#paint21_linear_1361_21375)"/>
<path fill-rule="evenodd" clip-rule="evenodd" d="M777.434 274.457C778.203 274.457 778.829 273.83 778.829 273.058C778.829 272.289 778.203 271.663 777.434 271.663C776.662 271.663 776.035 272.289 776.035 273.058C776.035 273.83 776.662 274.457 777.434 274.457Z" fill="url(#paint22_linear_1361_21375)"/>
<path fill-rule="evenodd" clip-rule="evenodd" d="M788.012 275.888C788.781 275.888 789.411 275.257 789.411 274.489C789.411 273.72 788.781 273.094 788.012 273.094C787.244 273.094 786.613 273.72 786.613 274.489C786.613 275.257 787.244 275.888 788.012 275.888Z" fill="url(#paint23_linear_1361_21375)"/>
<path d="M1312.29 526.153C1296.54 532.457 1282.26 537.652 1269.48 541.739C1246.41 549.12 1220.83 558.153 1192.76 568.835C1164.76 579.58 1149.91 585.281 1148.2 585.94C1122.05 596.231 1099.99 603.53 1082.02 607.842C1056.94 613.861 1030.17 616.872 1001.69 616.872C992.378 616.872 969.404 614.636 932.791 610.159C896.23 605.682 871.744 603.446 859.317 603.446C842.032 603.446 825.627 604.617 810.099 606.962C801.722 608.186 788.744 610.744 771.167 614.636C754.642 618.257 740.788 620.815 729.595 622.307C712.135 624.651 693.122 625.825 672.556 625.825C651.875 625.825 628.964 624.305 603.83 621.268C588.654 619.456 566.271 616.127 536.683 611.277C506.861 606.428 484.538 603.098 469.715 601.286C444.813 598.25 422.198 596.73 401.867 596.73C390.851 596.73 356.515 598.595 298.863 602.325C241.209 606.054 209.101 607.92 202.539 607.92C174.415 607.92 150.159 606.216 129.767 602.804C113.48 600.034 95.9308 595.398 77.1248 588.897C59.5967 582.423 44.51 576.96 31.8631 572.512C28.0699 571.205 24.4964 569.98 21.1409 568.835C18.942 568.085 16.7149 567.34 14.4615 566.598C-9.75833 558.553 -35.1295 551.333 -61.6485 544.936V590.657L-62 590.735V707.03H1353.33V508.809C1338.69 515.314 1324.99 521.094 1312.29 526.153Z" fill="#413B59"/>
</g>
<defs>
<filter id="filter0_f_1361_21375" x="-116.51" y="-445.976" width="1404.61" height="1396.58" filterUnits="userSpaceOnUse" color-interpolation-filters="sRGB">
<feFlood flood-opacity="0" result="BackgroundImageFix"/>
<feBlend mode="normal" in="SourceGraphic" in2="BackgroundImageFix" result="shape"/>
<feGaussianBlur stdDeviation="172" result="effect1_foregroundBlur_1361_21375"/>
</filter>
<linearGradient id="paint0_linear_1361_21375" x1="787.039" y1="247.198" x2="792.629" y2="247.198" gradientUnits="userSpaceOnUse">
<stop stop-color="#99DDF8"/>
<stop offset="1" stop-color="white"/>
</linearGradient>
<linearGradient id="paint1_linear_1361_21375" x1="789.312" y1="255.223" x2="796.682" y2="255.223" gradientUnits="userSpaceOnUse">
<stop stop-color="#99DDF8"/>
<stop offset="1" stop-color="white"/>
</linearGradient>
<linearGradient id="paint2_linear_1361_21375" x1="800.092" y1="246.324" x2="805.682" y2="246.324" gradientUnits="userSpaceOnUse">
<stop stop-color="#99DDF8"/>
<stop offset="1" stop-color="white"/>
</linearGradient>
<linearGradient id="paint3_linear_1361_21375" x1="805.205" y1="240.885" x2="812.575" y2="240.885" gradientUnits="userSpaceOnUse">
<stop stop-color="#99DDF8"/>
<stop offset="1" stop-color="white"/>
</linearGradient>
<linearGradient id="paint4_linear_1361_21375" x1="798.805" y1="224.435" x2="804.394" y2="224.435" gradientUnits="userSpaceOnUse">
<stop stop-color="#99DDF8"/>
<stop offset="1" stop-color="white"/>
</linearGradient>
<linearGradient id="paint5_linear_1361_21375" x1="798.33" y1="262.188" x2="801.127" y2="262.188" gradientUnits="userSpaceOnUse">
<stop stop-color="#99DDF8"/>
<stop offset="1" stop-color="white"/>
</linearGradient>
<linearGradient id="paint6_linear_1361_21375" x1="799.334" y1="239.155" x2="802.131" y2="239.155" gradientUnits="userSpaceOnUse">
<stop stop-color="#99DDF8"/>
<stop offset="1" stop-color="white"/>
</linearGradient>
<linearGradient id="paint7_linear_1361_21375" x1="815.051" y1="243.588" x2="817.847" y2="243.588" gradientUnits="userSpaceOnUse">
<stop stop-color="#99DDF8"/>
<stop offset="1" stop-color="white"/>
</linearGradient>
<linearGradient id="paint8_linear_1361_21375" x1="807.908" y1="221.272" x2="810.705" y2="221.272" gradientUnits="userSpaceOnUse">
<stop stop-color="#99DDF8"/>
<stop offset="1" stop-color="white"/>
</linearGradient>
<linearGradient id="paint9_linear_1361_21375" x1="791.611" y1="263.758" x2="794.408" y2="263.758" gradientUnits="userSpaceOnUse">
<stop stop-color="#99DDF8"/>
<stop offset="1" stop-color="white"/>
</linearGradient>
<linearGradient id="paint10_linear_1361_21375" x1="800.459" y1="271.961" x2="807.828" y2="271.961" gradientUnits="userSpaceOnUse">
<stop stop-color="#99DDF8"/>
<stop offset="1" stop-color="white"/>
</linearGradient>
<linearGradient id="paint11_linear_1361_21375" x1="784.164" y1="266.81" x2="791.534" y2="266.81" gradientUnits="userSpaceOnUse">
<stop stop-color="#99DDF8"/>
<stop offset="1" stop-color="white"/>
</linearGradient>
<linearGradient id="paint12_linear_1361_21375" x1="794.156" y1="275.936" x2="799.746" y2="275.936" gradientUnits="userSpaceOnUse">
<stop stop-color="#99DDF8"/>
<stop offset="1" stop-color="white"/>
</linearGradient>
<linearGradient id="paint13_linear_1361_21375" x1="814.211" y1="228.726" x2="821.58" y2="228.726" gradientUnits="userSpaceOnUse">
<stop stop-color="#99DDF8"/>
<stop offset="1" stop-color="white"/>
</linearGradient>
<linearGradient id="paint14_linear_1361_21375" x1="784.482" y1="283.091" x2="791.852" y2="283.091" gradientUnits="userSpaceOnUse">
<stop stop-color="#99DDF8"/>
<stop offset="1" stop-color="white"/>
</linearGradient>
<linearGradient id="paint15_linear_1361_21375" x1="807.193" y1="281.357" x2="809.99" y2="281.357" gradientUnits="userSpaceOnUse">
<stop stop-color="#99DDF8"/>
<stop offset="1" stop-color="white"/>
</linearGradient>
<linearGradient id="paint16_linear_1361_21375" x1="792.486" y1="289.064" x2="795.283" y2="289.064" gradientUnits="userSpaceOnUse">
<stop stop-color="#99DDF8"/>
<stop offset="1" stop-color="white"/>
</linearGradient>
<linearGradient id="paint17_linear_1361_21375" x1="778.15" y1="287.666" x2="783.74" y2="287.666" gradientUnits="userSpaceOnUse">
<stop stop-color="#99DDF8"/>
<stop offset="1" stop-color="white"/>
</linearGradient>
<linearGradient id="paint18_linear_1361_21375" x1="804.189" y1="289.654" x2="806.986" y2="289.654" gradientUnits="userSpaceOnUse">
<stop stop-color="#99DDF8"/>
<stop offset="1" stop-color="white"/>
</linearGradient>
<linearGradient id="paint19_linear_1361_21375" x1="794.777" y1="292.816" x2="802.147" y2="292.816" gradientUnits="userSpaceOnUse">
<stop stop-color="#99DDF8"/>
<stop offset="1" stop-color="white"/>
</linearGradient>
<linearGradient id="paint20_linear_1361_21375" x1="802.525" y1="297.396" x2="808.115" y2="297.396" gradientUnits="userSpaceOnUse">
<stop stop-color="#99DDF8"/>
<stop offset="1" stop-color="white"/>
</linearGradient>
<linearGradient id="paint21_linear_1361_21375" x1="773" y1="260.771" x2="778.59" y2="260.771" gradientUnits="userSpaceOnUse">
<stop stop-color="#99DDF8"/>
<stop offset="1" stop-color="white"/>
</linearGradient>
<linearGradient id="paint22_linear_1361_21375" x1="776.035" y1="273.058" x2="778.832" y2="273.058" gradientUnits="userSpaceOnUse">
<stop stop-color="#99DDF8"/>
<stop offset="1" stop-color="white"/>
</linearGradient>
<linearGradient id="paint23_linear_1361_21375" x1="786.613" y1="274.489" x2="789.41" y2="274.489" gradientUnits="userSpaceOnUse">
<stop stop-color="#99DDF8"/>
<stop offset="1" stop-color="white"/>
</linearGradient>
<clipPath id="clip0_1361_21375">
<rect width="1200" height="675" fill="white"/>
</clipPath>
</defs>
</svg>
