<svg width="1200" height="675" viewBox="0 0 1200 675" fill="none" xmlns="http://www.w3.org/2000/svg">
<g clip-path="url(#clip0_1361_21375)">
<g filter="url(#filter0_f_1361_21375)">
<path d="M269 -55.9336C314.038 -68.3527 404.072 -53.4581 449.761 -33.5146C555.232 12.5243 623.384 65.8063 710.761 157.099C789.081 238.929 848.61 348.793 884.768 461.458C895.753 495.685 899.156 529.26 902.601 565.099" stroke="#5B48AD" stroke-width="83" stroke-linecap="round"/>
</g>
<g filter="url(#filter1_f_1361_21375)">
<path d="M269 -55.9336C314.038 -68.3527 404.072 -53.4581 449.761 -33.5146C555.232 12.5243 623.384 65.8063 710.761 157.099C789.081 238.929 848.61 348.793 884.768 461.458C895.753 495.685 899.156 529.26 902.601 565.099" stroke="#5B48AD" stroke-width="83" stroke-linecap="round"/>
</g>
<path fill-rule="evenodd" clip-rule="evenodd" d="M1057.17 536.07C1057.81 535.805 1058.45 535.858 1059.09 536.23C1059.73 536.551 1060.17 537.057 1060.44 537.75C1061.61 541 1063.69 543.424 1066.68 545.022C1065.88 543.424 1065.21 541.533 1064.68 539.349C1064.57 538.813 1064.65 538.363 1064.92 537.989C1065.19 537.509 1065.59 537.189 1066.12 537.029C1066.65 536.977 1067.16 537.084 1067.64 537.351C1068.07 537.616 1068.33 538.016 1068.44 538.548C1069.19 541.638 1070.2 544.036 1071.47 545.742L1071.55 545.822C1071.87 546.196 1072.23 546.542 1072.59 546.861C1072.83 546.895 1073.06 546.929 1073.3 546.962C1073.44 546.982 1073.58 547.001 1073.71 547.02C1074.35 547.128 1074.99 547.18 1075.63 547.18C1074.35 545.102 1073.19 542.704 1072.11 539.987C1070.84 536.79 1070.08 533.992 1069.88 531.594C1069.83 530.848 1070.04 530.21 1070.52 529.676C1071 529.197 1071.59 528.904 1072.27 528.797C1072.96 528.744 1073.6 528.958 1074.19 529.436C1074.72 529.969 1075.04 530.582 1075.15 531.275C1075.36 533.246 1075.98 535.591 1076.99 538.308V536.71C1076.99 534.844 1076.62 532.955 1075.87 531.035C1075.66 530.557 1075.68 530.076 1075.95 529.596C1076.16 529.117 1076.51 528.77 1076.99 528.559C1077.52 528.344 1078.03 528.37 1078.51 528.637C1078.99 528.904 1079.34 529.276 1079.55 529.758C1080.46 532.208 1080.91 534.552 1080.91 536.79C1080.91 538.388 1080.86 539.482 1080.75 540.067C1080.54 541.293 1080.06 542.332 1079.31 543.184C1079.9 544.25 1080.55 545.262 1081.31 546.221C1081.74 546.753 1082.15 547.342 1082.58 547.98L1082.74 548.219C1083.59 549.551 1084.34 551.044 1084.98 552.695C1085.03 552.801 1085.11 552.935 1085.22 553.095C1086.02 552.828 1086.77 552.296 1087.46 551.496C1088.58 550.005 1088.98 548.619 1088.66 547.342C1088.5 546.808 1088.55 546.301 1088.82 545.822C1089.09 545.342 1089.46 545.049 1089.94 544.942C1090.42 544.835 1090.9 544.89 1091.38 545.102C1091.86 545.369 1092.18 545.796 1092.34 546.381C1093.14 548.779 1092.54 551.283 1090.58 553.894V553.974C1089.25 555.52 1087.83 556.506 1086.34 556.933C1086.39 557.518 1086.42 557.997 1086.42 558.37C1086.15 561.515 1086.63 564.072 1087.86 566.043H1087.94C1089.27 568.068 1090.23 569.613 1090.82 570.679C1091.73 571.106 1092.74 571.611 1093.85 572.198C1094.01 572.252 1094.17 572.33 1094.33 572.438L1094.57 572.597H1094.81L1094.97 572.677C1097.53 573.798 1099.5 575.821 1100.89 578.752C1103.13 578.379 1105.49 577.687 1108 576.674C1108.37 576.516 1108.75 576.326 1109.12 576.116H1109.28C1109.53 576.003 1109.78 575.889 1110.03 575.776C1110.36 575.623 1110.7 575.469 1111.04 575.317C1112.27 574.196 1113.52 572.464 1114.8 570.12C1116.28 567.456 1117.31 565.111 1117.83 563.086C1117.67 563.086 1117.51 563.113 1117.35 563.166C1115.28 563.965 1113.52 564.417 1112.08 564.527C1111.49 565.111 1110.75 565.698 1109.84 566.283C1107.49 567.829 1105.28 568.523 1103.21 568.361C1101.4 568.361 1099.42 568.014 1097.29 567.324H1097.21C1094.86 566.63 1093.17 565.778 1092.1 564.764C1091.66 564.392 1091.42 563.938 1091.38 563.408C1091.33 562.873 1091.5 562.419 1091.94 562.047C1092.21 561.62 1092.62 561.382 1093.22 561.329C1093.74 561.329 1094.22 561.515 1094.65 561.887C1095.41 562.473 1096.6 563.058 1098.25 563.645C1100.01 564.179 1101.66 564.472 1103.21 564.527C1104.21 564.527 1105.24 564.285 1106.24 563.805C1105.92 563.7 1105.56 563.591 1105.12 563.486H1105.04C1103.17 563.006 1101.77 562.581 1100.81 562.207C1099.05 561.62 1097.16 560.53 1095.13 558.932L1095.05 558.85C1094.69 558.584 1094.37 558.343 1094.09 558.132C1093.46 557.705 1093.1 557.119 1093.06 556.372C1092.9 555.68 1093.02 555.04 1093.46 554.454C1093.89 553.869 1094.46 553.547 1095.21 553.495C1095.9 553.389 1096.54 553.547 1097.13 553.974C1097.45 554.188 1097.8 554.481 1098.17 554.853C1099.34 555.653 1100.46 556.32 1101.53 556.852C1099.77 553.974 1098.94 552.028 1099.05 551.017C1099.05 550.484 1099.24 550.03 1099.61 549.658C1099.98 549.285 1100.44 549.099 1100.97 549.099C1101.5 549.099 1101.96 549.313 1102.33 549.74C1102.76 550.164 1102.97 550.617 1102.97 551.097C1103.01 551.791 1103.73 553.227 1105.12 555.413C1106.4 557.491 1107.33 558.61 1107.92 558.77C1108.29 558.822 1108.64 558.904 1108.96 559.01C1109.6 559.117 1110.21 559.196 1110.8 559.249H1110.88C1111.2 559.09 1111.6 559.09 1112.08 559.249H1112.24C1113.09 559.036 1114.08 558.742 1115.2 558.37C1116.2 557.891 1116.92 557.333 1117.35 556.692C1117.3 556.587 1117.25 556.481 1117.2 556.376C1117.14 556.268 1117.09 556.16 1117.03 556.052C1116.55 555.36 1115.36 554.054 1113.44 552.136H1113.36C1112.51 551.338 1111.79 550.512 1111.2 549.658C1108.05 549.285 1104.52 547.874 1100.57 545.423L1100.49 545.342C1099.8 544.862 1099.1 544.41 1098.41 543.983L1098.33 543.823C1097.42 543.131 1096.65 542.437 1096.01 541.745C1094.53 541.533 1092.66 540.973 1090.42 540.067C1086.1 538.308 1083.82 536.337 1083.54 534.154C1083.38 533.565 1083.46 533.06 1083.78 532.633C1084.1 532.155 1084.5 531.888 1084.98 531.834C1085.51 531.729 1085.99 531.834 1086.42 532.155C1086.9 532.474 1087.22 532.9 1087.38 533.433C1087.75 534.392 1089.22 535.378 1091.78 536.39C1091.94 536.443 1092.1 536.524 1092.26 536.63C1091.25 534.659 1090.63 532.555 1090.42 530.316C1090.31 529.569 1090.5 528.958 1090.98 528.477C1091.46 527.89 1092.05 527.572 1092.74 527.518C1093.49 527.465 1094.14 527.707 1094.73 528.237C1095.26 528.717 1095.57 529.304 1095.61 529.996C1095.93 533.033 1097.24 535.725 1099.53 538.069C1099.8 538.335 1100.09 538.602 1100.41 538.868C1101.05 538.123 1101.37 537.216 1101.37 536.152C1101.37 535.778 1101.26 535.138 1101.05 534.232C1100.89 533.754 1100.97 533.273 1101.29 532.793C1101.56 532.314 1101.96 532.047 1102.49 531.994C1103.01 531.834 1103.53 531.914 1104.01 532.234C1104.44 532.555 1104.69 532.98 1104.8 533.513C1105.12 534.791 1105.28 535.725 1105.28 536.31C1105.28 538.176 1104.72 539.801 1103.61 541.186C1105.04 542.094 1106.45 542.811 1107.84 543.345C1107.15 541.48 1106.8 539.587 1106.8 537.669V537.351C1106.8 534.951 1107.04 533.007 1107.52 531.514C1108.05 529.758 1109.04 528.05 1110.48 526.399C1110.91 525.814 1111.49 525.52 1112.24 525.52C1112.93 525.467 1113.56 525.707 1114.16 526.239C1114.68 526.666 1114.99 527.251 1115.04 527.998C1115.08 528.691 1114.91 529.331 1114.48 529.916C1113.52 530.929 1112.88 532.021 1112.56 533.193C1112.4 533.78 1112.27 534.472 1112.16 535.271C1112.59 535.058 1113.07 534.871 1113.6 534.712C1116.27 533.86 1117.91 532.766 1118.55 531.436C1118.76 530.955 1119.11 530.61 1119.59 530.395C1120.07 530.183 1120.58 530.183 1121.11 530.395C1121.64 530.662 1122.02 531.035 1122.23 531.514C1122.44 531.994 1122.44 532.501 1122.23 533.033C1121.38 535.378 1118.95 537.189 1114.96 538.468C1113.95 538.735 1113.01 539.002 1112.16 539.267C1112.43 541.505 1113.25 543.636 1114.64 545.662L1114.88 545.901C1115.4 546.808 1116.12 547.66 1117.03 548.459V548.539C1119.22 550.777 1120.6 552.27 1121.19 553.015L1121.27 553.175C1121.75 553.922 1122.15 554.668 1122.47 555.413C1122.63 555.573 1122.71 555.759 1122.71 555.972L1122.79 556.132C1123.22 557.411 1123.43 558.742 1123.43 560.129C1123.48 563.38 1122.2 567.429 1119.59 572.278H1119.83C1122.18 571.585 1124.63 570.174 1127.18 568.041L1127.26 567.962L1127.58 567.724C1129.02 566.39 1129.85 565.484 1130.06 565.004V564.605C1129.95 562.419 1130.01 560.608 1130.22 559.169C1129.1 558.532 1128.03 557.733 1127.02 556.772C1124.36 554.054 1123.35 550.884 1123.99 547.26C1124.04 546.728 1124.31 546.301 1124.79 545.981C1125.22 545.662 1125.7 545.582 1126.23 545.742C1126.71 545.796 1127.14 546.061 1127.5 546.542C1127.82 547.02 1127.94 547.5 1127.82 547.98C1127.39 550.272 1128.03 552.296 1129.74 554.054C1130.22 554.481 1130.73 554.88 1131.26 555.253C1132.54 552.59 1134.73 550.457 1137.82 548.859C1140.01 547.687 1141.86 546.515 1143.41 545.342C1143.27 545.229 1143.12 545.115 1142.98 545.002C1142.86 544.902 1142.74 544.803 1142.61 544.703C1139.78 542.465 1138.61 539.135 1139.09 534.712C1139.14 534.179 1139.38 533.78 1139.81 533.513C1140.24 533.14 1140.72 532.98 1141.25 533.033C1141.78 533.087 1142.24 533.354 1142.61 533.832C1142.93 534.259 1143.06 534.739 1143.01 535.271C1142.69 538.096 1143.36 540.227 1145.01 541.665V541.585C1145.44 542.011 1145.86 542.357 1146.29 542.624C1147.2 541.453 1147.84 540.254 1148.21 539.028C1148.37 538.335 1148.77 537.829 1149.4 537.509C1150.04 537.137 1150.72 537.084 1151.4 537.351C1152.09 537.456 1152.63 537.829 1153 538.468C1153.37 539.16 1153.48 539.854 1153.32 540.548C1152.73 542.732 1151.43 544.917 1149.4 547.1L1149.32 547.18C1148.05 548.459 1146.45 549.765 1144.53 551.097H1145.81C1148.69 551.204 1151.59 550.911 1154.52 550.218H1154.44C1155.83 549.845 1157.24 549.365 1158.68 548.779H1158.76C1162.16 547.5 1164.32 546.221 1165.23 544.942C1165.55 544.303 1166.06 543.903 1166.75 543.745C1167.44 543.531 1168.11 543.611 1168.75 543.983C1169.39 544.356 1169.82 544.89 1170.03 545.582C1170.19 546.221 1170.11 546.888 1169.79 547.58C1168.83 549.604 1166.16 551.524 1161.79 553.337C1163.34 553.709 1164.96 553.947 1166.67 554.054C1168.91 554.214 1170.55 553.709 1171.62 552.535C1171.99 552.11 1172.46 551.896 1172.98 551.896C1173.51 551.843 1173.99 552.003 1174.42 552.376C1174.85 552.75 1175.09 553.202 1175.14 553.736C1175.14 554.268 1174.98 554.721 1174.66 555.093C1172.95 557.224 1170.23 558.185 1166.51 557.971C1163.26 557.758 1160.23 557.091 1157.4 555.972V556.052C1157.19 555.96 1156.99 555.87 1156.8 555.783C1156.44 555.622 1156.11 555.472 1155.8 555.335C1152.49 556.081 1149.16 556.424 1145.81 556.372C1144 556.265 1142.24 555.998 1140.53 555.573H1140.29C1139.22 555.2 1138.57 554.988 1138.29 554.935C1137.02 555.945 1136.14 557.251 1135.66 558.85L1135.58 558.932C1135.31 560.103 1135.21 561.887 1135.26 564.285C1135.58 565.511 1135.18 566.949 1134.06 568.601C1134.59 568.601 1135.15 568.628 1135.74 568.681C1138.02 568.733 1140.21 568.281 1142.29 567.324H1142.37C1142.58 567.109 1142.82 566.949 1143.09 566.843C1144.74 565.883 1145.7 564.951 1145.97 564.045C1146.08 563.458 1146.34 563.033 1146.77 562.766C1147.2 562.501 1147.69 562.419 1148.29 562.528C1148.81 562.633 1149.21 562.926 1149.48 563.408C1149.8 563.832 1149.92 564.312 1149.8 564.844C1149.64 566.23 1148.81 567.534 1147.33 568.761C1148.49 569.081 1149.68 569.267 1150.84 569.322C1152.71 569.375 1154.41 568.975 1155.96 568.123V568.201C1156.6 567.776 1157.19 567.349 1157.72 566.922C1158.08 566.55 1158.55 566.39 1159.08 566.443C1159.6 566.443 1160.07 566.655 1160.43 567.082C1160.8 567.456 1160.99 567.908 1160.99 568.441C1160.99 568.975 1160.79 569.427 1160.35 569.8C1159.67 570.494 1158.87 571.079 1157.96 571.558H1157.88C1155.75 572.73 1153.4 573.291 1150.84 573.237C1148.56 573.184 1146.29 572.652 1144.05 571.638H1143.97C1143.65 571.531 1143.38 571.373 1143.17 571.159C1140.77 572.172 1138.29 572.652 1135.74 572.597C1133.82 572.492 1132.17 572.305 1130.78 572.038L1130.54 572.198C1127.39 574.862 1124.31 576.568 1121.27 577.313C1119.14 577.845 1116.67 578.699 1113.84 579.871C1113.68 579.923 1113.55 579.978 1113.44 580.031C1113.17 580.085 1112.93 580.191 1112.72 580.35C1113.3 580.562 1113.96 580.745 1114.71 580.898C1160.26 573.772 1203.02 565.806 1243 557V678.761H-158V582.577C-142.326 585.291 -107.822 589.01 -54.4902 593.731C-32.4368 595.697 -13.157 597.308 3.3494 598.564C3.18254 598.408 3.01239 598.252 2.83894 598.096C-0.519623 595.164 -2.19807 591.914 -2.19807 588.343C-2.19807 586.692 -1.52992 585.574 -0.198318 584.986C-0.092804 584.881 0.121399 584.828 0.441101 584.828C-0.145569 583.92 -1.02473 582.615 -2.19807 580.91C-4.70142 577.288 -5.95312 574.942 -5.95312 573.876C-5.95312 571.478 -4.2746 570.279 -0.919235 570.279C1.05339 570.279 2.73184 570.999 4.1178 572.438C4.86272 573.237 5.90178 574.49 7.23499 576.194C7.8728 575.182 8.78078 574.542 9.95253 574.276C9.79266 573.317 9.47136 572.12 8.99339 570.679C8.45947 569.027 8.19255 567.215 8.19255 565.244C8.19255 563.006 8.6465 561.22 9.55289 559.889C10.4049 558.877 11.3369 558.37 12.3504 558.37C13.6292 558.37 14.6139 558.77 15.3077 559.569C15.7857 560.049 16.9063 561.594 18.6631 564.205C18.6104 563.513 18.5832 562.926 18.5832 562.447C18.5832 560.421 19.1443 558.85 20.2617 557.733C21.2751 556.772 22.3941 556.292 23.6202 556.292C23.4587 556.132 23.3804 555.945 23.3804 555.733V553.175C23.3804 551.044 23.7801 549.578 24.5793 548.779C25.2715 547.927 26.5504 547.5 28.4159 547.5C29.8546 547.5 31.1335 548.726 32.2509 551.177C32.9446 552.668 33.4514 554.161 33.7695 555.653C35.1027 554.481 36.1945 553.894 37.0481 553.894C37.1552 553.894 37.2879 553.947 37.4462 554.054C37.1808 551.711 37.6603 549.898 38.8864 548.619C40.1109 547.553 41.6839 547.02 43.6022 547.02C44.0274 547.02 44.4814 547.1 44.961 547.26C44.4814 543.636 44.24 541.346 44.24 540.386C44.24 539.267 44.8011 538.388 45.9201 537.75C46.7194 537.376 47.4899 537.189 48.2364 537.189C50.687 537.189 52.3671 538.575 53.2735 541.346C53.4861 542.094 53.7786 542.946 54.1511 543.903C54.4181 543.318 54.8177 542.837 55.3516 542.465C56.6288 541.186 57.9636 540.548 59.348 540.548C60.8922 540.548 62.0383 541.8 62.7849 544.303C63.1046 545.262 63.3971 546.381 63.6641 547.66C64.7303 546.116 66.2202 545.342 68.14 545.342C70.5906 545.342 72.0821 546.942 72.616 550.14C72.6672 550.777 72.7231 552.216 72.7758 554.454C72.9357 554.346 73.1484 554.294 73.4137 554.294C74.4799 554.294 75.3863 555.068 76.1313 556.612C76.8778 554.054 77.4916 552.428 77.9712 551.738C79.0902 549.551 80.8742 548.459 83.3248 548.459C85.0848 548.459 86.2021 549.02 86.6833 550.14C86.7888 550.564 86.8432 551.629 86.8432 553.337C86.8432 554.346 86.816 555.253 86.7632 556.052H86.8432C88.6543 556.052 89.9604 557.465 90.7596 560.288C91.025 559.01 91.6117 557.705 92.5181 556.372C94.2221 553.814 96.0349 552.535 97.9531 552.535C100.351 552.535 101.95 553.227 102.749 554.614C103.014 553.442 103.575 552.348 104.427 551.338C105.812 549.74 107.677 548.939 110.022 548.939C111.141 548.939 112.233 549.551 113.299 550.777C114.099 551.896 114.497 552.75 114.497 553.337C114.497 553.869 114.391 554.536 114.177 555.335C113.966 556.187 113.804 557.038 113.699 557.891L113.619 559.569C113.991 559.356 114.444 559.249 114.978 559.249C118.814 559.249 120.733 560.768 120.733 563.805C120.733 564.499 119.772 566.788 117.855 570.679C117.801 571.211 117.721 571.665 117.615 572.038H118.173C120.68 572.038 121.932 573.291 121.932 575.794C121.932 577.233 121.08 579.124 119.372 581.469C118.041 583.335 117.216 584.853 116.896 586.027C116.683 586.507 116.683 586.931 116.896 587.306C116.683 589.704 115.617 592.312 113.699 595.137C113.06 596.151 112.1 597.775 110.822 600.014C110.947 600.237 111.063 600.467 111.17 600.705C133.31 599.614 156.718 597.773 181.393 595.183C184.427 594.86 187.385 594.549 190.266 594.25C190.269 594.2 190.27 594.15 190.27 594.1C190.27 592.234 189.124 589.462 186.833 585.785C185.66 583.814 184.888 582.51 184.513 581.869C183.823 580.485 183.476 579.366 183.476 578.514C183.476 577.233 183.903 575.874 184.755 574.436C185.927 572.837 187.42 570.732 189.229 568.123C191.042 565.404 192.081 561.967 192.348 557.811C192.72 553.601 192.588 549.313 191.948 544.942C192.588 546.061 193.12 547.82 193.547 550.218C194.026 552.989 194.266 555.813 194.266 558.69C194.266 562.739 193.333 566.55 191.469 570.12C190.243 572.41 189.603 573.636 189.551 573.798C188.964 575.075 188.671 576.354 188.671 577.633C188.671 578.379 188.991 579.418 189.629 580.75C189.79 581.175 190.483 582.51 191.707 584.746C193.625 588.53 194.586 591.487 194.586 593.62C194.586 593.681 194.585 593.743 194.584 593.804C195.523 593.707 196.453 593.612 197.375 593.518C198.554 591.873 199.197 590.868 199.3 590.503C199.941 589.542 200.261 588.772 200.261 588.185C200.261 587.225 199.994 586.212 199.462 585.146C199.354 585.093 198.689 584.161 197.463 582.349C195.545 579.578 194.586 576.648 194.586 573.557C194.586 571.425 194.851 569.24 195.385 567.004C195.812 565.244 196.344 563.938 196.984 563.086C196.397 566.443 196.29 569.722 196.664 572.919C196.929 576.169 197.996 578.779 199.861 580.75C201.62 582.829 203.111 584.507 204.337 585.785C205.189 586.799 205.616 587.811 205.616 588.824C205.616 589.462 205.269 590.314 204.577 591.38C204.347 591.71 203.945 592.221 203.37 592.914C205.584 592.693 207.744 592.481 209.85 592.276C209.428 591.483 208.923 590.626 208.334 589.704C207.267 587.944 206.575 586.799 206.255 586.265C205.616 585.039 205.295 584.054 205.295 583.31C205.295 582.189 205.669 581.017 206.415 579.791C207.48 578.299 208.786 576.381 210.332 574.036C211.93 571.638 212.862 568.628 213.129 565.004C213.449 561.274 213.342 557.491 212.81 553.654C213.396 554.614 213.876 556.132 214.248 558.21C214.673 560.716 214.886 563.218 214.886 565.725C214.886 569.295 214.061 572.652 212.41 575.794C211.342 577.873 210.784 578.992 210.731 579.151C210.199 580.323 209.932 581.442 209.932 582.51C209.932 583.202 210.225 584.134 210.81 585.308C210.971 585.732 211.583 586.906 212.65 588.824C213.206 589.919 213.672 590.936 214.047 591.872C214.551 591.825 215.051 591.777 215.549 591.73C215.3 591.308 215.106 590.979 214.968 590.741C214.221 589.357 213.849 588.236 213.849 587.384C213.849 586.107 214.301 584.746 215.207 583.31C216.379 581.711 217.871 579.604 219.682 576.993C221.442 574.276 222.479 570.839 222.801 566.683C223.173 562.473 223.013 558.185 222.321 553.814C223.013 554.935 223.573 556.692 223.999 559.09C224.477 561.861 224.719 564.685 224.719 567.562C224.719 571.611 223.787 575.422 221.921 578.992C220.695 581.284 220.056 582.51 220.003 582.668C219.416 583.947 219.124 585.227 219.124 586.507C219.124 587.251 219.444 588.29 220.081 589.623C220.173 589.866 220.438 590.403 220.875 591.234C223.17 591.024 225.387 590.825 227.527 590.638C225.868 588.039 225.039 585.302 225.039 582.429C225.039 580.297 225.278 578.114 225.758 575.874C226.185 574.116 226.743 572.81 227.436 571.958C226.85 575.317 226.743 578.592 227.117 581.789C227.384 585.039 228.448 587.651 230.314 589.623C230.522 589.869 230.726 590.11 230.927 590.345C232.756 590.19 234.523 590.044 236.23 589.907C236.398 589.499 236.61 589.084 236.866 588.663C237.932 587.173 239.238 585.253 240.784 582.91C242.381 580.51 243.313 577.5 243.582 573.876C243.901 570.146 243.794 566.363 243.26 562.528C243.849 563.486 244.327 565.004 244.701 567.082C245.126 569.587 245.34 572.092 245.34 574.596C245.34 578.167 244.514 581.522 242.862 584.666C241.796 586.745 241.21 587.864 241.104 588.025C240.889 588.549 240.723 589.063 240.604 589.566C250.143 588.847 257.502 588.454 262.682 588.39C262.684 588.348 262.685 588.306 262.685 588.263C262.685 586.399 261.538 583.629 259.246 579.951C258.074 577.978 257.301 576.674 256.93 576.034C256.183 574.65 255.811 573.529 255.811 572.677C255.811 571.398 256.263 570.04 257.168 568.601C258.341 567.004 259.834 564.899 261.644 562.287C263.404 559.569 264.443 556.132 264.763 551.976C265.135 547.767 264.975 543.478 264.283 539.108C264.975 540.227 265.535 541.985 265.962 544.383C266.44 547.153 266.681 549.978 266.681 552.855C266.681 556.906 265.749 560.716 263.883 564.285C262.657 566.577 262.018 567.802 261.965 567.962C261.379 569.24 261.086 570.519 261.086 571.798C261.086 572.544 261.406 573.583 262.044 574.917C262.205 575.342 262.897 576.674 264.123 578.914C266.04 582.695 267.001 585.652 267.001 587.784C267.001 587.99 266.994 588.194 266.981 588.394C267.75 588.402 268.517 588.413 269.283 588.426C269.422 588.216 269.567 588.002 269.718 587.784C270.888 586.08 271.555 585.039 271.716 584.666C272.356 583.709 272.676 582.935 272.676 582.349C272.676 581.389 272.381 580.377 271.796 579.313C271.744 579.258 271.103 578.325 269.878 576.516C267.958 573.743 267.001 570.811 267.001 567.724C267.001 565.591 267.239 563.408 267.72 561.168C268.147 559.409 268.705 558.105 269.398 557.251C268.812 560.608 268.705 563.885 269.079 567.082C269.346 570.334 270.41 572.944 272.276 574.917C274.033 576.993 275.526 578.672 276.752 579.951C277.604 580.964 278.029 581.976 278.029 582.988C278.029 583.629 277.684 584.481 276.992 585.546C276.62 586.078 275.798 587.085 274.526 588.569C277.513 588.679 280.482 588.836 283.432 589.041C282.946 587.63 282.051 585.905 280.748 583.867C279.682 582.111 278.99 580.964 278.67 580.43C278.029 579.204 277.711 578.219 277.711 577.473C277.711 576.354 278.082 575.182 278.828 573.956C279.895 572.464 281.201 570.546 282.746 568.201C284.345 565.803 285.275 562.793 285.542 559.169C285.864 555.44 285.757 551.656 285.223 547.82C285.809 548.779 286.289 550.297 286.663 552.376C287.088 554.88 287.302 557.385 287.302 559.889C287.302 563.458 286.476 566.815 284.823 569.96C283.758 572.038 283.172 573.157 283.066 573.317C282.587 574.49 282.345 575.607 282.345 576.674C282.345 577.367 282.639 578.299 283.224 579.471C283.333 579.898 283.945 581.07 285.064 582.988C286.36 585.54 287.163 587.662 287.474 589.352C289.902 589.558 292.318 589.796 294.722 590.067C293.758 587.988 293.922 586.534 295.214 585.707C296.6 584.853 297.506 584.347 297.933 584.187C298.838 583.814 299.637 584.107 300.331 585.066C300.819 586.401 301.695 588.423 302.96 591.131C303.307 591.182 303.653 591.233 303.999 591.285C304.914 591.423 305.949 591.591 307.105 591.787C306.516 590.317 306.096 589.142 305.846 588.263C305.152 585.652 304.672 583.388 304.405 581.469C304.033 579.551 304.087 577.767 304.567 576.116C304.994 574.463 305.313 573.477 305.526 573.157C305.686 572.837 306.085 572.597 306.723 572.438C307.63 572.278 308.616 572.305 309.682 572.519C310.694 572.677 311.708 573.184 312.719 574.036C313.197 574.463 313.279 575.022 312.959 575.716C312.692 576.354 312.24 577.34 311.599 578.672C310.961 579.951 311.226 582.588 312.398 586.585C313.037 588.747 313.782 590.935 314.63 593.149C315.281 593.272 315.952 593.399 316.642 593.532C316.653 592.649 316.678 591.746 316.716 590.822C316.928 584.319 317.168 579.871 317.435 577.473C317.755 575.075 318.714 573.903 320.313 573.956C321.964 573.956 322.977 574.036 323.35 574.196C324.362 574.356 324.896 575.022 324.948 576.194C324.362 578.486 323.642 582.882 322.789 589.382C322.559 591.138 322.379 592.886 322.25 594.627C323.782 594.93 325.389 595.251 327.07 595.59C328.54 589.352 329.644 585.096 330.382 582.829C331.181 580.485 332.354 579.498 333.9 579.871C335.497 580.245 336.485 580.537 336.858 580.75C337.817 581.124 338.189 581.896 337.975 583.068C336.965 585.146 335.419 589.304 333.341 595.537C333.203 595.952 333.064 596.367 332.926 596.782C333.197 596.837 333.47 596.894 333.745 596.95C335.742 594.339 337.553 591.71 339.174 589.063C341.361 585.493 342.318 583.015 342.053 581.629C341.786 580.137 341.572 579.046 341.414 578.352C341.361 577.662 341.599 577.153 342.133 576.834C343.359 576.248 344.478 576.007 345.488 576.116C346.556 576.221 347.514 576.461 348.366 576.834C348.952 577.153 349.274 577.5 349.326 577.873C349.434 578.247 349.485 579.286 349.485 580.991C349.539 582.695 349.165 584.455 348.366 586.265C347.566 587.97 346.476 590.023 345.09 592.421C344.307 593.715 342.842 595.699 340.697 598.374C349.678 600.166 358.67 601.68 367.673 602.917C367.248 602.142 366.674 601.148 365.95 599.933C363.554 595.883 362.353 592.926 362.353 591.061C362.353 588.343 363.713 585.974 366.431 583.947C368.082 582.829 369.014 582.163 369.228 581.949C369.973 581.15 370.346 580.297 370.346 579.391C370.346 577.527 369.201 574.755 366.911 571.079C365.739 569.107 364.965 567.802 364.593 567.162C363.899 565.778 363.554 564.659 363.554 563.805C363.554 562.528 363.979 561.168 364.832 559.729C366.004 558.132 367.496 556.025 369.308 553.415C371.12 550.697 372.159 547.26 372.426 543.104C372.798 538.895 372.665 534.606 372.026 530.236C372.665 531.355 373.198 533.113 373.624 535.511C374.104 538.281 374.344 541.106 374.344 543.983C374.344 548.032 373.41 551.843 371.545 555.413C370.32 557.705 369.681 558.932 369.628 559.09C369.041 560.368 368.747 561.647 368.747 562.926C368.747 563.672 369.069 564.711 369.708 566.043C369.868 566.47 370.56 567.802 371.786 570.04C373.704 573.823 374.662 576.78 374.662 578.914C374.662 580.297 374.369 581.549 373.784 582.668C373.357 583.414 372.691 584.347 371.786 585.466C370.827 586.639 370.188 587.544 369.868 588.185C369.281 589.249 368.989 590.423 368.989 591.7C368.989 592.286 369.441 594.657 370.346 598.815C370.797 600.664 371.148 602.197 371.398 603.414C373.53 603.689 375.663 603.948 377.797 604.192C378.036 603.326 378.35 602.279 378.738 601.052C379.752 597.802 380.258 595.965 380.258 595.537C380.258 594.632 379.937 593.753 379.299 592.901C378.927 592.368 378.233 591.675 377.221 590.822C376.315 589.97 375.65 589.277 375.223 588.743C374.636 587.784 374.344 586.773 374.344 585.707C374.344 584.107 375.356 581.843 377.381 578.914C378.606 577.206 379.272 576.169 379.379 575.794C380.019 574.835 380.337 574.065 380.337 573.477C380.337 572.519 380.071 571.505 379.538 570.439C379.432 570.385 378.765 569.455 377.539 567.642C375.623 564.871 374.662 561.939 374.662 558.85C374.662 556.719 374.93 554.536 375.463 552.296C375.888 550.539 376.422 549.231 377.061 548.379C376.475 551.738 376.368 555.013 376.74 558.21C377.007 561.462 378.075 564.072 379.937 566.043C381.697 568.123 383.189 569.8 384.415 571.079C385.267 572.092 385.694 573.104 385.694 574.116C385.694 574.755 385.347 575.607 384.653 576.674C384.281 577.206 383.456 578.219 382.177 579.713C379.884 582.535 378.738 584.639 378.738 586.027C378.738 586.717 379.165 587.384 380.019 588.025C380.231 588.185 381.163 588.743 382.816 589.704C383.456 590.128 384.068 590.556 384.653 590.981C385.08 589.224 386.146 587.704 387.852 586.426C389.343 585.466 390.17 584.853 390.328 584.588C391.127 583.894 391.527 583.148 391.527 582.349C391.527 580.697 390.489 578.247 388.411 574.995C387.345 573.237 386.653 572.092 386.331 571.558C385.694 570.334 385.374 569.347 385.374 568.601C385.374 567.482 385.746 566.31 386.493 565.084C387.557 563.591 388.864 561.674 390.409 559.329C392.008 556.933 392.94 553.922 393.207 550.297C393.525 546.568 393.419 542.784 392.887 538.949C393.472 539.907 393.952 541.425 394.324 543.504C394.751 546.007 394.965 548.513 394.965 551.017C394.965 554.588 394.139 557.943 392.487 561.088C391.421 563.166 390.862 564.285 390.809 564.445C390.275 565.616 390.01 566.737 390.01 567.802C390.01 568.495 390.302 569.427 390.889 570.6C391.049 571.026 391.661 572.198 392.726 574.116C394.433 577.473 395.285 580.085 395.285 581.949C395.285 583.177 395.018 584.319 394.486 585.386C394.166 586.027 393.579 586.851 392.726 587.864C391.874 588.877 391.289 589.649 390.969 590.182C390.382 591.141 390.09 592.18 390.09 593.301C390.09 593.833 390.569 595.909 391.527 599.533C392.193 602.451 392.6 604.488 392.746 605.646C393.412 605.699 394.077 605.751 394.742 605.802C393.452 603.258 392.807 601.301 392.807 599.933C392.807 597.216 394.166 594.844 396.883 592.82C398.535 591.7 399.467 591.035 399.681 590.822C400.427 590.023 400.8 589.171 400.8 588.263C400.8 586.399 399.654 583.629 397.363 579.951C396.19 577.978 395.418 576.674 395.045 576.034C394.299 574.65 393.925 573.529 393.925 572.677C393.925 571.398 394.379 570.04 395.285 568.601C396.457 567.004 397.948 564.899 399.761 562.287C401.518 559.569 402.558 556.132 402.878 551.976C403.251 547.767 403.091 543.478 402.398 539.108C403.091 540.227 403.65 541.985 404.077 544.383C404.557 547.153 404.796 549.978 404.796 552.855C404.796 556.906 403.863 560.716 401.999 564.285C400.773 566.577 400.133 567.802 400.081 567.962C399.494 569.24 399.201 570.519 399.201 571.798C399.201 572.544 399.52 573.583 400.161 574.917C400.319 575.342 401.013 576.674 402.237 578.914C404.157 582.695 405.115 585.652 405.115 587.784C405.115 589.171 404.824 590.423 404.237 591.54C403.81 592.286 403.143 593.22 402.237 594.338C401.28 595.509 400.64 596.417 400.319 597.055C399.734 598.121 399.44 599.295 399.44 600.572C399.44 601.086 399.786 602.96 400.478 606.198C403.706 606.401 406.934 606.567 410.164 606.699C410.528 605.428 410.709 604.665 410.709 604.41C410.709 603.502 410.391 602.623 409.752 601.771C409.378 601.238 408.686 600.547 407.674 599.695C406.766 598.842 406.101 598.149 405.676 597.616C405.089 596.656 404.796 595.643 404.796 594.578C404.796 592.979 405.808 590.714 407.834 587.784C409.005 586.08 409.672 585.039 409.83 584.666C410.471 583.709 410.791 582.935 410.791 582.349C410.791 581.389 410.498 580.377 409.912 579.313C409.857 579.258 409.22 578.325 407.993 576.516C406.075 573.743 405.115 570.811 405.115 567.724C405.115 565.591 405.356 563.408 405.834 561.168C406.261 559.409 406.822 558.105 407.512 557.251C406.927 560.608 406.822 563.885 407.194 567.082C407.46 570.334 408.526 572.944 410.391 574.917C412.15 576.993 413.643 578.672 414.867 579.951C415.719 580.964 416.146 581.976 416.146 582.988C416.146 583.629 415.799 584.481 415.105 585.546C414.733 586.08 413.907 587.091 412.629 588.583C410.337 591.407 409.192 593.511 409.192 594.897C409.192 595.591 409.619 596.256 410.471 596.897C410.684 597.055 411.617 597.616 413.269 598.574C413.907 599 414.52 599.428 415.105 599.853C415.532 598.096 416.599 596.576 418.303 595.297C419.796 594.338 420.62 593.725 420.782 593.459C421.581 592.768 421.981 592.021 421.981 591.222C421.981 589.571 420.942 587.117 418.864 583.867C417.797 582.111 417.105 580.964 416.786 580.43C416.146 579.204 415.826 578.219 415.826 577.473C415.826 576.354 416.199 575.182 416.945 573.956C418.012 572.464 419.316 570.546 420.862 568.201C422.46 565.803 423.392 562.793 423.659 559.169C423.979 555.44 423.872 551.656 423.34 547.82C423.925 548.779 424.406 550.297 424.778 552.376C425.205 554.88 425.418 557.385 425.418 559.889C425.418 563.458 424.591 566.815 422.94 569.96C421.874 572.038 421.289 573.157 421.182 573.317C420.702 574.49 420.462 575.607 420.462 576.674C420.462 577.367 420.753 578.299 421.341 579.471C421.447 579.898 422.061 581.07 423.18 582.988C424.885 586.345 425.737 588.957 425.737 590.822C425.737 592.047 425.471 593.193 424.938 594.258C424.617 594.897 424.033 595.723 423.18 596.736C422.273 597.749 421.688 598.521 421.421 599.054C420.835 600.014 420.542 601.052 420.542 602.172C420.542 602.631 420.899 604.247 421.616 607.017C423.803 607.049 425.99 607.065 428.177 607.065C430.428 607.065 432.787 607.039 435.254 606.986C435.575 606.257 436.133 605.718 436.927 605.368C437.033 605.262 437.247 605.209 437.567 605.209C436.98 604.301 436.101 602.997 434.929 601.293C432.424 597.669 431.173 595.324 431.173 594.258C431.173 591.86 432.851 590.661 436.208 590.661C438.179 590.661 439.858 591.38 441.243 592.82C441.99 593.62 443.027 594.897 444.361 596.656C444.998 595.591 445.905 594.924 447.077 594.657C446.918 593.7 446.599 592.501 446.119 591.061C445.587 589.409 445.32 587.598 445.32 585.627C445.32 583.388 445.772 581.602 446.677 580.27C447.585 579.258 448.517 578.752 449.474 578.752C450.755 578.752 451.74 579.151 452.433 579.951C452.913 580.43 454.032 582.001 455.789 584.666C455.736 583.92 455.71 583.31 455.71 582.829C455.71 580.802 456.27 579.231 457.389 578.114C458.401 577.153 459.518 576.674 460.746 576.674C460.586 576.516 460.506 576.326 460.506 576.116V573.557C460.506 571.425 460.906 569.96 461.705 569.16C462.397 568.308 463.676 567.882 465.542 567.882C466.979 567.882 468.258 569.107 469.378 571.558C470.07 573.051 470.575 574.542 470.897 576.034C472.228 574.917 473.32 574.356 474.172 574.356C474.279 574.356 474.414 574.381 474.573 574.436C474.305 572.092 474.784 570.279 476.012 569.001C477.237 567.934 478.81 567.402 480.726 567.402C481.153 567.402 481.607 567.509 482.087 567.724C481.607 564.045 481.366 561.729 481.366 560.768C481.366 559.649 481.925 558.797 483.044 558.21C483.844 557.785 484.617 557.571 485.364 557.571C487.814 557.571 489.493 558.957 490.399 561.729C490.612 562.473 490.904 563.326 491.278 564.285C491.544 563.7 491.943 563.218 492.477 562.846C493.756 561.567 495.086 560.93 496.474 560.93C498.019 560.93 499.162 562.181 499.909 564.685C500.229 565.644 500.523 566.763 500.79 568.041C501.854 566.497 503.347 565.725 505.266 565.725C507.716 565.725 509.208 567.324 509.74 570.519C509.794 571.159 509.847 572.597 509.9 574.835C510.061 574.782 510.274 574.755 510.541 574.755C511.607 574.755 512.538 575.502 513.337 576.993C514.031 574.436 514.616 572.81 515.095 572.12C516.214 569.932 518.001 568.841 520.452 568.841C522.209 568.841 523.328 569.4 523.809 570.519C523.914 570.946 523.969 572.01 523.969 573.716C523.969 574.728 523.94 575.635 523.887 576.434H523.969C525.78 576.434 527.084 577.845 527.884 580.67C528.151 579.391 528.736 578.114 529.644 576.834C531.348 574.223 533.161 572.919 535.077 572.919C537.475 572.919 539.074 573.609 539.873 574.995C540.14 573.823 540.699 572.73 541.553 571.72C542.937 570.174 544.83 569.4 547.228 569.4C548.347 569.4 549.411 569.987 550.425 571.159C551.224 572.278 551.624 573.129 551.624 573.716C551.624 574.248 551.544 574.917 551.383 575.716C551.116 576.568 550.93 577.42 550.825 578.272L550.745 579.951C551.172 579.791 551.624 579.713 552.102 579.713C555.94 579.713 557.857 581.23 557.857 584.267C557.857 584.906 556.899 587.173 554.979 591.061C554.927 591.595 554.847 592.047 554.741 592.421H555.299C557.463 592.421 558.691 593.376 558.986 595.283C562.441 594.828 565.951 594.361 569.514 593.88C569.576 593.665 569.608 593.445 569.608 593.22C569.608 591.832 568.756 589.782 567.048 587.064C566.144 585.574 565.559 584.588 565.292 584.107C564.759 583.095 564.492 582.269 564.492 581.629C564.492 580.67 564.812 579.658 565.45 578.592C566.356 577.42 567.475 575.849 568.808 573.876C570.14 571.852 570.912 569.295 571.126 566.203C571.392 563.058 571.286 559.861 570.807 556.612C571.286 557.465 571.686 558.77 572.005 560.53C572.378 562.606 572.563 564.711 572.563 566.843C572.563 569.88 571.871 572.73 570.487 575.395L570.37 575.615C569.539 577.178 569.097 578.01 569.047 578.114C568.621 579.072 568.409 580.031 568.409 580.991C568.409 581.522 568.647 582.296 569.128 583.31C569.234 583.629 569.74 584.613 570.645 586.265C572.085 589.089 572.805 591.3 572.805 592.901C572.805 593.082 572.798 593.261 572.784 593.437C573.391 593.355 573.999 593.272 574.609 593.189C574.672 593.094 574.737 592.998 574.803 592.901C575.708 591.621 576.215 590.848 576.322 590.581C576.801 589.836 577.039 589.249 577.039 588.824C577.039 588.13 576.828 587.384 576.402 586.585C576.347 586.532 575.868 585.84 574.961 584.507C573.524 582.429 572.805 580.245 572.805 577.953C572.805 576.354 572.99 574.728 573.364 573.077C573.682 571.745 574.084 570.759 574.562 570.12C574.136 572.624 574.056 575.075 574.323 577.473C574.536 579.871 575.335 581.816 576.721 583.31C578.053 584.853 579.172 586.107 580.077 587.064C580.718 587.811 581.036 588.557 581.036 589.304C581.036 589.782 580.77 590.423 580.237 591.222C580.05 591.485 579.69 591.932 579.158 592.565C580.814 592.337 582.481 592.106 584.158 591.872C583.845 591.278 583.471 590.634 583.034 589.942C582.235 588.663 581.73 587.811 581.517 587.384C581.036 586.479 580.798 585.76 580.798 585.227C580.798 584.374 581.063 583.494 581.597 582.588C582.396 581.469 583.381 580.031 584.553 578.272C585.726 576.516 586.418 574.276 586.631 571.558C586.845 568.788 586.765 565.963 586.393 563.086C586.818 563.832 587.165 564.979 587.43 566.523C587.751 568.388 587.911 570.252 587.911 572.12C587.911 574.782 587.297 577.288 586.073 579.631C585.274 581.175 584.847 582.001 584.794 582.111C584.42 582.962 584.233 583.787 584.233 584.588C584.233 585.119 584.447 585.812 584.874 586.665C584.979 586.984 585.432 587.864 586.231 589.304C586.623 590.07 586.954 590.783 587.226 591.444C590.558 590.977 593.933 590.5 597.351 590.013C599.402 589.718 601.424 589.428 603.418 589.143C601.701 586.968 600.501 585.316 599.819 584.187C598.435 581.789 597.341 579.738 596.542 578.032C595.743 576.221 595.37 574.463 595.423 572.757C595.423 571.053 595.476 570.012 595.584 569.64C595.637 569.267 595.957 568.923 596.542 568.601C597.395 568.228 598.355 567.988 599.419 567.882C600.433 567.776 601.552 568.014 602.778 568.601C603.31 568.923 603.55 569.427 603.497 570.12C603.336 570.811 603.125 571.905 602.858 573.397C602.591 574.782 603.55 577.262 605.734 580.83C607.229 583.27 608.884 585.695 610.7 588.106C611.062 588.054 611.424 588.003 611.785 587.951C611.713 587.736 611.641 587.521 611.57 587.306C609.492 581.07 607.946 576.913 606.932 574.835C606.721 573.663 607.094 572.892 608.053 572.519C608.425 572.305 609.41 572.01 611.009 571.638C612.555 571.265 613.726 572.252 614.526 574.596C615.255 576.834 616.339 581.002 617.78 587.103C619.43 586.87 621.056 586.641 622.66 586.416C622.53 584.669 622.35 582.913 622.119 581.15C621.267 574.65 620.547 570.252 619.962 567.962C620.015 566.788 620.547 566.125 621.561 565.963C621.933 565.803 622.945 565.725 624.596 565.725C626.195 565.67 627.156 566.843 627.475 569.24C627.741 571.638 627.981 576.089 628.193 582.588C628.237 583.628 628.263 584.642 628.271 585.631C628.885 585.546 629.495 585.461 630.101 585.376C631.023 583.005 631.826 580.664 632.509 578.352C633.683 574.356 633.95 571.72 633.309 570.439C632.671 569.107 632.217 568.123 631.951 567.482C631.632 566.788 631.71 566.23 632.19 565.803C633.203 564.951 634.215 564.445 635.228 564.285C636.295 564.072 637.279 564.045 638.184 564.205C638.825 564.365 639.225 564.605 639.383 564.926C639.597 565.244 639.917 566.23 640.344 567.882C640.822 569.533 640.876 571.32 640.502 573.237C640.235 575.155 639.757 577.42 639.065 580.031C638.77 581.064 638.241 582.506 637.479 584.356C638.849 584.167 640.198 583.982 641.527 583.8C643.021 580.635 644.037 578.313 644.578 576.834C645.272 575.874 646.072 575.582 646.976 575.954C647.403 576.116 648.31 576.621 649.694 577.473C651.025 578.325 651.16 579.845 650.094 582.029C649.992 582.231 649.88 582.45 649.757 582.684C655.553 581.903 660.905 581.197 665.813 580.566C663.874 579.465 662.285 578.116 661.045 576.516C660.725 576.034 660.591 575.555 660.646 575.075C660.698 574.49 660.938 574.065 661.363 573.798C661.79 573.477 662.27 573.317 662.804 573.317C663.336 573.477 663.788 573.771 664.161 574.196C665.069 575.422 666.268 576.406 667.758 577.153H667.678C669.009 577.899 670.237 578.272 671.354 578.272C670.608 577.578 670.076 576.86 669.756 576.116C669.49 575.635 669.438 575.128 669.596 574.596C669.703 574.065 669.997 573.691 670.475 573.477C670.955 573.264 671.463 573.237 671.995 573.397C672.526 573.557 672.926 573.876 673.193 574.356C673.779 575.422 674.978 576.354 676.789 577.153C677.111 577.313 677.483 577.473 677.91 577.633C678.762 577.953 679.561 578.219 680.308 578.432C680.094 578.114 679.881 577.82 679.667 577.553C679.189 576.968 679.029 576.326 679.189 575.635C679.242 574.942 679.587 574.381 680.228 573.956C680.76 573.529 681.372 573.397 682.065 573.557C682.811 573.663 683.398 574.009 683.825 574.596C684.942 576.089 686.461 577.1 688.381 577.633H688.459C688.613 577.681 688.77 577.726 688.929 577.767C690.119 577.634 691.302 577.504 692.476 577.376C691.99 577.005 691.504 576.611 691.018 576.194C690.909 576.141 690.804 576.034 690.698 575.874L690.641 575.817C690.545 575.722 690.431 575.607 690.299 575.475L690.219 575.395C687.393 572.784 685.876 570.893 685.661 569.722C685.556 569.187 685.636 568.681 685.903 568.201C686.168 567.724 686.541 567.429 687.022 567.324C687.554 567.215 688.059 567.324 688.539 567.642C689.02 567.908 689.338 568.281 689.5 568.761C689.712 569.455 690.726 570.652 692.535 572.358C692.644 572.198 692.802 572.01 693.016 571.798V571.72C693.496 571.131 693.574 570.412 693.255 569.56C693.044 569.027 693.069 568.523 693.334 568.041C693.496 567.562 693.841 567.215 694.374 567.004C694.853 566.843 695.333 566.897 695.814 567.162C696.293 567.376 696.666 567.749 696.931 568.281C697.838 570.574 697.571 572.572 696.132 574.276V574.196C695.919 574.463 695.732 574.702 695.574 574.917C696.851 575.769 698.025 576.301 699.091 576.516H699.171C701.514 575.769 704.206 574.728 707.242 573.397C706.337 572.757 705.538 572.145 704.846 571.558V571.638C704.524 571.373 703.3 570.067 701.167 567.724V567.642C700.21 566.897 698.077 566.335 694.775 565.963C694.134 565.91 693.522 565.858 692.935 565.803C691.498 565.644 689.872 565.536 688.059 565.484C685.076 565.378 682.359 564.791 679.908 563.725C679.481 563.992 679 564.312 678.468 564.685L678.148 564.844C675.857 566.07 672.9 566.655 669.278 566.603C667.732 566.55 666.32 566.335 665.042 565.963C663.336 566.71 661.283 567.055 658.886 567.004C655.103 566.897 652.838 566.178 652.092 564.844C651.719 564.472 651.561 564.018 651.612 563.486C651.667 562.953 651.906 562.501 652.333 562.129C652.706 561.807 653.185 561.674 653.77 561.729C654.304 561.782 654.731 562.019 655.051 562.447C655.583 562.819 656.862 563.033 658.886 563.086H659.765C658.433 561.915 657.261 560.503 656.25 558.85C655.877 558.157 655.768 557.491 655.93 556.852C656.088 556.159 656.488 555.653 657.129 555.335C657.767 554.908 658.433 554.8 659.127 555.013C659.765 555.226 660.273 555.653 660.646 556.292C662.03 558.532 663.895 560.076 666.24 560.93H666.079C667.04 561.195 668.104 561.329 669.278 561.329C671.463 561.382 673.353 561.14 674.951 560.608C671.968 557.678 669.303 555.52 666.958 554.136C666.32 553.761 665.921 553.227 665.759 552.535C665.548 551.843 665.599 551.177 665.921 550.539C666.293 549.898 666.826 549.498 667.519 549.338C668.21 549.126 668.877 549.231 669.518 549.658C672.181 551.204 675.192 553.627 678.548 556.933C679.189 557.518 679.908 558.023 680.707 558.45C682.253 559.196 683.877 559.729 685.583 560.049C682.706 557.171 681.133 555.093 680.866 553.814C680.76 553.227 680.813 552.75 681.027 552.376C681.293 551.896 681.692 551.576 682.226 551.416C682.758 551.311 683.264 551.391 683.743 551.656C684.17 551.924 684.462 552.323 684.624 552.855C684.995 553.761 686.275 555.253 688.459 557.333C689.846 558.77 691.044 559.811 692.056 560.448C692.482 560.503 692.882 560.555 693.255 560.608C693.896 560.608 694.506 560.663 695.094 560.768C698.664 561.195 701.327 561.861 703.087 562.766C702.873 561.274 702.82 559.649 702.926 557.891V557.811C702.926 557.333 702.793 556.692 702.526 555.892V555.972C702.368 555.493 702.179 555.013 701.968 554.536V554.454C701.647 553.654 701.3 552.91 700.928 552.216C699.011 552.428 697.065 552.428 695.094 552.216H695.015C694.055 552.11 693.122 551.976 692.217 551.816C690.404 551.443 688.753 550.911 687.262 550.218H687.18C686.382 550.325 685.394 550.377 684.224 550.377H684.063C680.866 550.325 677.857 549.313 675.033 547.342C672.58 545.529 671.302 544.01 671.196 542.784C671.089 542.252 671.196 541.772 671.516 541.346C671.781 540.866 672.181 540.601 672.715 540.548C673.247 540.439 673.752 540.548 674.233 540.866C674.66 541.186 674.925 541.613 675.033 542.145C675.298 542.572 676.044 543.264 677.269 544.223V544.145C678.601 545.049 679.987 545.716 681.427 546.143C679.614 544.277 678.257 542.011 677.349 539.349C677.084 538.655 677.111 537.989 677.43 537.351C677.749 536.657 678.257 536.23 678.948 536.07C679.587 535.805 680.228 535.858 680.866 536.23C681.507 536.551 681.959 537.057 682.226 537.75C683.398 541 685.476 543.424 688.459 545.022C687.66 543.424 686.995 541.533 686.461 539.349C686.355 538.813 686.435 538.363 686.702 537.989C686.967 537.509 687.367 537.189 687.901 537.029C688.433 536.977 688.938 537.084 689.42 537.351C689.846 537.616 690.11 538.016 690.219 538.548C690.964 541.638 691.977 544.036 693.255 545.742L693.334 545.822C693.654 546.196 694.001 546.542 694.374 546.861C694.748 546.915 695.12 546.968 695.494 547.02C696.132 547.128 696.773 547.18 697.412 547.18C696.132 545.102 694.96 542.704 693.896 539.987C692.617 536.79 691.87 533.992 691.656 531.594C691.603 530.848 691.817 530.21 692.297 529.676C692.777 529.197 693.362 528.904 694.055 528.797C694.748 528.744 695.385 528.958 695.974 529.436C696.506 529.969 696.826 530.582 696.931 531.275C697.145 533.246 697.758 535.591 698.771 538.308V536.71C698.771 534.844 698.397 532.955 697.652 531.035C697.438 530.557 697.465 530.076 697.731 529.596C697.945 529.117 698.292 528.77 698.771 528.559C699.303 528.344 699.81 528.37 700.29 528.637C700.768 528.904 701.116 529.276 701.327 529.758C702.235 532.208 702.688 534.552 702.688 536.79C702.688 538.388 702.635 539.482 702.526 540.067C702.314 541.293 701.836 542.332 701.089 543.184C701.674 544.25 702.341 545.262 703.087 546.221C703.513 546.753 703.939 547.342 704.365 547.98L704.524 548.219C705.376 549.551 706.123 551.044 706.764 552.695C706.817 552.801 706.897 552.935 707.004 553.095C707.803 552.828 708.548 552.296 709.24 551.496C710.361 550.005 710.76 548.619 710.439 547.342C710.281 546.808 710.334 546.301 710.6 545.822C710.866 545.342 711.238 545.049 711.718 544.942C712.199 544.835 712.679 544.89 713.158 545.102C713.636 545.369 713.958 545.796 714.116 546.381C714.915 548.779 714.33 551.283 712.357 553.894V553.974C711.027 555.52 709.614 556.506 708.121 556.933C708.174 557.518 708.203 557.997 708.203 558.37C707.936 561.515 708.415 564.072 709.64 566.043H709.72C711.053 568.068 712.012 569.613 712.599 570.679C713.503 571.106 714.515 571.611 715.636 572.198C715.796 572.252 715.956 572.33 716.114 572.438L716.355 572.597H716.595L716.755 572.677C717.92 573.188 718.964 573.886 719.886 574.772C724.856 574.376 729.637 574.042 734.231 573.77C735.003 572.788 735.784 571.571 736.577 570.12C738.068 567.456 739.08 565.111 739.613 563.086C739.454 563.086 739.293 563.113 739.135 563.166C737.057 563.965 735.297 564.417 733.859 564.527C733.271 565.111 732.526 565.698 731.62 566.283C729.275 567.829 727.066 568.523 724.987 568.361C723.175 568.361 721.204 568.014 719.073 567.324H718.993C716.648 566.63 714.942 565.778 713.878 564.764C713.451 564.392 713.211 563.938 713.158 563.408C713.104 562.873 713.291 562.419 713.716 562.047C713.983 561.62 714.41 561.382 714.997 561.329C715.529 561.329 716.008 561.515 716.434 561.887C717.18 562.473 718.379 563.058 720.03 563.645C721.79 564.179 723.442 564.472 724.987 564.527C725.999 564.527 727.013 564.285 728.023 563.805C727.703 563.7 727.331 563.591 726.904 563.486H726.824C724.959 563.006 723.549 562.581 722.59 562.207C720.83 561.62 718.939 560.53 716.913 558.932L716.833 558.85C716.461 558.584 716.141 558.343 715.876 558.132C715.235 557.705 714.888 557.119 714.835 556.372C714.677 555.68 714.81 555.04 715.235 554.454C715.662 553.869 716.248 553.547 716.995 553.495C717.687 553.389 718.326 553.547 718.911 553.974C719.233 554.188 719.578 554.481 719.952 554.853C721.124 555.653 722.243 556.32 723.307 556.852C721.551 553.974 720.724 552.028 720.83 551.017C720.83 550.484 721.018 550.03 721.391 549.658C721.762 549.285 722.216 549.099 722.748 549.099C723.282 549.099 723.734 549.313 724.107 549.74C724.534 550.164 724.748 550.617 724.748 551.097C724.8 551.791 725.52 553.227 726.904 555.413C728.185 557.491 729.117 558.61 729.702 558.77C730.074 558.822 730.421 558.904 730.742 559.01C731.382 559.117 731.994 559.196 732.581 559.249H732.661C732.98 559.09 733.38 559.09 733.859 559.249H734.018C734.871 559.036 735.858 558.742 736.977 558.37C737.989 557.891 738.708 557.333 739.135 556.692L739.004 556.431C738.94 556.305 738.877 556.178 738.813 556.052C738.336 555.36 737.135 554.054 735.217 552.136H735.138C734.285 551.338 733.565 550.512 732.98 549.658C729.836 549.285 726.294 547.874 722.348 545.423L722.27 545.342C721.576 544.862 720.884 544.41 720.192 543.983L720.11 543.823C719.206 543.131 718.432 542.437 717.794 541.745C716.301 541.533 714.435 540.973 712.199 540.067C707.883 538.308 705.591 536.337 705.324 534.154C705.164 533.565 705.244 533.06 705.565 532.633C705.885 532.155 706.284 531.888 706.764 531.834C707.296 531.729 707.774 531.834 708.203 532.155C708.682 532.474 709.002 532.9 709.162 533.433C709.534 534.392 711 535.378 713.558 536.39C713.716 536.443 713.878 536.524 714.036 536.63C713.026 534.659 712.412 532.555 712.199 530.316C712.09 529.569 712.279 528.958 712.759 528.477C713.237 527.89 713.825 527.572 714.515 527.518C715.262 527.465 715.929 527.707 716.514 528.237C717.047 528.717 717.34 529.304 717.394 529.996C717.712 533.033 719.019 535.725 721.309 538.069C721.576 538.335 721.87 538.602 722.19 538.868C722.828 538.123 723.149 537.216 723.149 536.152C723.149 535.778 723.042 535.138 722.828 534.232C722.67 533.754 722.748 533.273 723.069 532.793C723.335 532.314 723.734 532.047 724.268 531.994C724.8 531.834 725.306 531.914 725.787 532.234C726.212 532.555 726.477 532.98 726.586 533.513C726.904 534.791 727.066 535.725 727.066 536.31C727.066 538.176 726.505 539.801 725.387 541.186C726.824 542.094 728.237 542.811 729.623 543.345C728.93 541.48 728.584 539.587 728.584 537.669V537.351C728.584 534.951 728.823 533.007 729.302 531.514C729.836 529.758 730.821 528.05 732.261 526.399C732.686 525.814 733.271 525.52 734.018 525.52C734.712 525.467 735.349 525.707 735.938 526.239C736.468 526.666 736.763 527.251 736.817 527.998C736.868 528.691 736.684 529.331 736.257 529.916C735.297 530.929 734.659 532.021 734.339 533.193C734.179 533.78 734.045 534.472 733.939 535.271C734.365 535.058 734.844 534.871 735.378 534.712C738.041 533.86 739.693 532.766 740.332 531.436C740.546 530.955 740.892 530.61 741.373 530.395C741.852 530.183 742.357 530.183 742.89 530.395C743.424 530.662 743.796 531.035 744.01 531.514C744.223 531.994 744.223 532.501 744.01 533.033C743.157 535.378 740.732 537.189 736.735 538.468C735.723 538.735 734.791 539.002 733.939 539.267C734.206 541.505 735.031 543.636 736.416 545.662L736.657 545.901C737.189 546.808 737.909 547.66 738.813 548.459V548.539C741 550.777 742.385 552.27 742.971 553.015L743.051 553.175C743.529 553.922 743.929 554.668 744.25 555.413C744.408 555.573 744.488 555.759 744.488 555.972L744.57 556.132C744.997 557.411 745.208 558.742 745.208 560.129C745.262 563.38 743.983 567.429 741.373 572.278H741.611C743.956 571.585 746.407 570.174 748.966 568.041L749.046 567.962L749.366 567.724C750.804 566.39 751.629 565.484 751.843 565.004V564.605C751.735 562.419 751.791 560.608 752.002 559.169C750.883 558.532 749.818 557.733 748.804 556.772C746.14 554.054 745.129 550.884 745.769 547.26C745.822 546.728 746.087 546.301 746.568 545.981C746.993 545.662 747.474 545.582 748.005 545.742C748.485 545.796 748.912 546.061 749.284 546.542C749.604 547.02 749.711 547.5 749.604 547.98C749.179 550.272 749.818 552.296 751.524 554.054C752.002 554.481 752.508 554.88 753.042 555.253C754.319 552.59 756.505 550.457 759.595 548.859C761.78 547.687 763.645 546.515 765.191 545.342C764.923 545.129 764.657 544.917 764.39 544.703C761.567 542.465 760.394 539.135 760.874 534.712C760.926 534.179 761.168 533.78 761.594 533.513C762.02 533.14 762.499 532.98 763.033 533.033C763.565 533.087 764.018 533.354 764.39 533.832C764.71 534.259 764.843 534.739 764.79 535.271C764.47 538.096 765.137 540.227 766.788 541.665V541.585C767.215 542.011 767.642 542.357 768.067 542.624C768.973 541.453 769.613 540.254 769.985 539.028C770.147 538.335 770.546 537.829 771.184 537.509C771.825 537.137 772.49 537.084 773.182 537.351C773.876 537.456 774.409 537.829 774.781 538.468C775.155 539.16 775.261 539.854 775.102 540.548C774.514 542.732 773.21 544.917 771.184 547.1L771.106 547.18C769.827 548.459 768.229 549.765 766.31 551.097H767.588C770.465 551.204 773.371 550.911 776.3 550.218H776.221C777.606 549.845 779.019 549.365 780.457 548.779H780.537C783.942 547.5 786.1 546.221 787.012 544.942C787.331 544.303 787.843 543.903 788.53 543.745C789.218 543.531 789.889 543.611 790.528 543.983C791.168 544.356 791.599 544.89 791.807 545.582C791.967 546.221 791.887 546.888 791.567 547.58C790.608 549.604 787.939 551.524 783.575 553.337C785.125 553.709 786.74 553.947 788.45 554.054C790.688 554.214 792.335 553.709 793.406 552.535C793.773 552.11 794.237 551.896 794.765 551.896C795.292 551.843 795.772 552.003 796.203 552.376C796.635 552.75 796.875 553.202 796.923 553.736C796.923 554.268 796.763 554.721 796.443 555.093C794.733 557.224 792.015 558.185 788.29 557.971C785.045 557.758 782.008 557.091 779.177 555.972V556.052C778.592 555.787 778.058 555.545 777.578 555.335C774.276 556.081 770.946 556.424 767.588 556.372C765.778 556.265 764.018 555.998 762.314 555.573H762.073C761.008 555.2 760.341 554.988 760.074 554.935C758.795 555.945 757.916 557.251 757.438 558.85L757.358 558.932C757.091 560.103 756.986 561.887 757.039 564.285C757.358 565.511 756.959 566.949 755.84 568.601C756.372 568.601 756.93 568.628 757.517 568.681C759.809 568.733 761.993 568.281 764.071 567.324H764.152C764.365 567.109 764.605 566.949 764.87 566.843C766.521 565.883 767.482 564.951 767.749 564.045C767.854 563.458 768.12 563.033 768.548 562.766C768.973 562.501 769.48 562.419 770.065 562.528C770.599 562.633 770.999 562.926 771.264 563.408C771.584 563.832 771.691 564.312 771.584 564.844C771.426 566.23 770.599 567.534 769.106 568.761C770.279 569.081 771.451 569.267 772.625 569.322C774.488 569.375 776.194 568.975 777.74 568.123V568.201C778.378 567.776 778.964 567.349 779.498 566.922C779.866 566.55 780.33 566.39 780.857 566.443C781.385 566.443 781.848 566.655 782.216 567.082C782.584 567.456 782.775 567.908 782.775 568.441C782.775 568.975 782.568 569.427 782.136 569.8C781.449 570.494 780.649 571.079 779.738 571.558H779.658C778.142 572.391 776.518 572.916 774.788 573.13C780.574 573.359 786.404 573.74 792.28 574.274C792.1 573.409 792.023 572.558 792.047 571.72C792.047 570.012 792.095 568.975 792.207 568.601C792.255 568.228 792.575 567.882 793.166 567.562C794.013 567.188 794.972 566.949 796.043 566.843C797.05 566.737 798.169 566.977 799.4 567.562C799.928 567.882 800.168 568.388 800.12 569.081C799.96 569.774 799.752 570.866 799.48 572.358C799.352 573.012 799.498 573.909 799.918 575.05C801.391 575.216 802.866 575.391 804.344 575.575C804.052 574.871 803.79 574.279 803.557 573.798C803.349 572.624 803.716 571.852 804.676 571.478C805.043 571.265 806.034 570.973 807.633 570.6C809.184 570.226 810.351 571.211 811.15 573.557C811.407 574.341 811.707 575.361 812.05 576.619C812.193 576.64 812.337 576.661 812.48 576.682C814.248 576.935 816.224 577.24 818.407 577.595C817.704 572.461 817.097 568.904 816.585 566.922C816.633 565.75 817.176 565.084 818.183 564.926C818.551 564.764 819.574 564.685 821.221 564.685C822.819 564.631 823.778 565.803 824.098 568.201C824.328 570.227 824.534 573.715 824.718 578.666C825.934 578.879 827.196 579.103 828.506 579.34C828.725 578.662 828.935 577.986 829.134 577.313C830.301 573.317 830.572 570.679 829.933 569.4C829.293 568.068 828.846 567.082 828.574 566.443C828.254 565.75 828.334 565.191 828.814 564.764C829.821 563.913 830.844 563.408 831.851 563.246C832.922 563.033 833.897 563.006 834.808 563.166C835.448 563.326 835.848 563.566 836.007 563.885C836.215 564.205 836.535 565.191 836.966 566.843C837.446 568.495 837.494 570.279 837.126 572.198C836.855 574.116 836.375 576.381 835.688 578.992C835.559 579.44 835.386 579.965 835.169 580.567C836.365 580.791 837.592 581.023 838.85 581.263C839.967 578.852 840.751 577.029 841.203 575.794C841.89 574.835 842.689 574.542 843.601 574.917C844.032 575.075 844.927 575.582 846.318 576.434C847.645 577.288 847.789 578.804 846.718 580.991C846.486 581.451 846.199 581.992 845.857 582.615C849.533 583.332 853.435 584.106 857.564 584.936C859.386 585.302 861.199 585.659 863.001 586.008C861.89 584.167 860.594 582.361 859.107 580.59C853.464 573.982 849.947 569.533 848.556 567.242C847.165 564.844 846.078 562.793 845.279 561.088C844.48 559.276 844.112 557.518 844.16 555.813C844.16 554.108 844.208 553.067 844.32 552.695C844.368 552.323 844.688 551.976 845.279 551.656C846.126 551.283 847.085 551.044 848.156 550.939C849.164 550.829 850.282 551.071 851.513 551.656C852.041 551.976 852.281 552.484 852.233 553.175C852.073 553.869 851.865 554.96 851.593 556.452C851.322 557.838 852.281 560.316 854.471 563.885C856.501 567.188 858.819 570.468 861.424 573.716C861.241 573.157 861.053 572.597 860.865 572.038C860.677 571.478 860.489 570.919 860.305 570.359C858.227 564.127 856.677 559.969 855.67 557.891C855.462 556.719 855.829 555.945 856.789 555.573C857.156 555.36 858.147 555.068 859.746 554.694C861.297 554.321 862.464 555.307 863.263 557.651C864.014 559.943 865.133 564.259 866.62 570.6C867.899 576.194 868.73 581.202 869.098 585.627C869.305 586.13 869.497 586.678 869.674 587.271C870.068 587.344 870.461 587.416 870.854 587.488C871.053 586.131 871.214 584.763 871.335 583.388C871.863 577.1 871.703 570.706 870.856 564.205C870.009 557.705 869.289 553.309 868.698 551.017C868.746 549.845 869.289 549.178 870.296 549.02C870.664 548.859 871.687 548.779 873.334 548.779C874.932 548.726 875.891 549.898 876.211 552.296C876.483 554.694 876.723 559.142 876.93 565.644C877.042 568.256 877.042 570.706 876.93 572.997C878.689 569.055 880.128 565.191 881.247 561.407C882.413 557.411 882.685 554.773 882.046 553.495C881.406 552.163 880.959 551.177 880.687 550.539C880.367 549.845 880.447 549.285 880.927 548.859C881.934 548.007 882.957 547.5 883.964 547.342C885.035 547.128 886.01 547.1 886.921 547.26C887.561 547.42 887.96 547.66 888.12 547.98C888.328 548.299 888.648 549.285 889.079 550.939C889.559 552.59 889.607 554.374 889.239 556.292C888.968 558.21 888.488 560.475 887.801 563.086C887.049 565.698 884.811 570.921 881.087 578.752L881.007 578.832C881.534 578.779 882.126 578.752 882.765 578.752C883.213 578.752 883.628 578.779 884.044 578.832C885.371 576.634 886.634 574.341 887.801 571.958C890.678 566.098 892.516 562.074 893.316 559.889C894.003 558.932 894.802 558.637 895.714 559.01C896.145 559.169 897.04 559.678 898.431 560.53C899.758 561.382 899.902 562.901 898.831 565.084C898.543 565.65 898.175 566.342 897.712 567.162C898.223 567.348 898.639 567.642 898.991 568.041C899.47 568.523 900.589 570.067 902.348 572.677C902.3 571.985 902.268 571.398 902.268 570.921C902.268 568.895 902.827 567.324 903.946 566.203C904.953 565.244 906.072 564.764 907.303 564.764C907.143 564.605 907.063 564.417 907.063 564.205V561.647C907.063 559.517 907.463 558.05 908.262 557.251C908.95 556.398 910.228 555.972 912.099 555.972C913.537 555.972 914.816 557.198 915.935 559.649C916.623 561.14 917.134 562.633 917.454 564.127C918.781 562.953 919.884 562.367 920.731 562.367C920.843 562.367 920.971 562.419 921.131 562.528C920.859 560.183 921.338 558.37 922.569 557.091C923.8 556.025 925.367 555.493 927.285 555.493C927.717 555.493 928.164 555.573 928.644 555.733C928.164 552.11 927.924 549.818 927.924 548.859C927.924 547.741 928.484 546.861 929.603 546.221C930.402 545.849 931.17 545.662 931.921 545.662C934.367 545.662 936.045 547.048 936.956 549.818C937.164 550.564 937.468 551.416 937.835 552.376C938.107 551.791 938.507 551.311 939.034 550.939C940.313 549.658 941.64 549.02 943.031 549.02C944.581 549.02 945.716 550.272 946.468 552.775C946.787 553.736 947.075 554.853 947.347 556.132C948.418 554.588 949.905 553.814 951.823 553.814C954.269 553.814 955.771 555.413 956.299 558.61C956.347 559.249 956.411 560.688 956.459 562.926C956.619 562.819 956.826 562.766 957.098 562.766C958.169 562.766 959.064 563.538 959.816 565.084C960.567 562.528 961.174 560.902 961.654 560.209C962.773 558.023 964.563 556.933 967.009 556.933C968.768 556.933 969.887 557.491 970.366 558.61C970.478 559.036 970.526 560.103 970.526 561.807C970.526 562.819 970.494 563.725 970.446 564.527H970.526C972.332 564.527 973.643 565.936 974.443 568.761C974.714 567.482 975.29 566.178 976.201 564.844C977.911 562.287 979.718 561.008 981.636 561.008C984.034 561.008 985.632 561.702 986.432 563.086C986.703 561.915 987.263 560.82 988.11 559.811C989.501 558.21 991.355 557.411 993.705 557.411C994.824 557.411 995.911 558.023 996.982 559.249C997.781 560.368 998.181 561.22 998.181 561.807C998.181 562.339 998.069 563.006 997.861 563.805C997.654 564.659 997.494 565.511 997.382 566.363L997.302 568.041C997.67 567.829 998.133 567.724 998.661 567.724C1002.5 567.724 1004.42 569.24 1004.42 572.278C1004.42 572.971 1003.46 575.262 1001.54 579.151C1001.49 579.685 1001.41 580.137 1001.3 580.51H1001.86C1004.37 580.51 1005.61 581.764 1005.61 584.267C1005.61 585.707 1004.77 587.598 1003.06 589.942C1001.73 591.807 1000.9 593.326 1000.58 594.5C1000.46 594.779 1000.41 595.04 1000.43 595.284C1024.49 593.364 1054.23 589.828 1089.65 584.676C1089.32 583.979 1089.12 583.258 1089.06 582.51C1089.01 581.976 1089.17 581.496 1089.54 581.07C1089.81 580.645 1090.23 580.43 1090.82 580.43C1091.34 580.377 1091.82 580.51 1092.26 580.83C1092.62 581.202 1092.86 581.656 1092.98 582.189C1093.09 582.838 1093.39 583.46 1093.89 584.055C1094.97 583.896 1096.06 583.736 1097.15 583.574C1097.12 583.429 1097.08 583.287 1097.05 583.148H1096.97C1096.97 582.829 1096.92 582.563 1096.81 582.349C1096.01 579.951 1094.73 578.325 1092.98 577.473C1092.82 577.42 1092.7 577.367 1092.66 577.313C1092.22 577.262 1091.66 577.262 1090.98 577.313C1090.13 577.313 1089.35 577.5 1088.66 577.873H1088.58C1079.63 581.711 1073.27 583.52 1069.48 583.31C1068.04 583.255 1066.68 583.068 1065.4 582.748C1065.13 582.695 1064.89 582.588 1064.68 582.429C1063.4 582.695 1062.28 582.829 1061.32 582.829C1059.45 582.721 1057.28 582.216 1054.77 581.31V581.23L1054.61 581.15H1054.53C1052.77 581.896 1051.13 582.243 1049.57 582.189C1047.93 582.136 1046.14 581.629 1044.22 580.67C1042.19 579.551 1040.54 578.167 1039.26 576.516C1038.94 576.034 1038.82 575.555 1038.86 575.075C1038.91 574.49 1039.15 574.065 1039.58 573.798C1040.02 573.477 1040.49 573.317 1041.02 573.317C1041.55 573.477 1042.01 573.771 1042.38 574.196C1043.29 575.422 1044.49 576.406 1045.98 577.153H1045.9C1047.22 577.899 1048.46 578.272 1049.57 578.272C1048.82 577.578 1048.3 576.86 1047.98 576.116C1047.7 575.635 1047.66 575.128 1047.82 574.596C1047.93 574.065 1048.22 573.691 1048.7 573.477C1049.18 573.264 1049.69 573.237 1050.21 573.397C1050.74 573.557 1051.14 573.876 1051.41 574.356C1052 575.422 1053.2 576.354 1055.01 577.153C1055.33 577.313 1055.7 577.473 1056.13 577.633C1056.98 577.953 1057.78 578.219 1058.53 578.432C1058.32 578.114 1058.09 577.82 1057.89 577.553C1057.41 576.968 1057.25 576.326 1057.41 575.635C1057.46 574.942 1057.81 574.381 1058.45 573.956C1058.97 573.529 1059.6 573.397 1060.29 573.557C1061.04 573.663 1061.61 574.009 1062.04 574.596C1063.16 576.089 1064.68 577.1 1066.6 577.633H1066.68C1067.53 577.899 1068.47 578.059 1069.48 578.114C1070.07 578.114 1070.72 578.059 1071.47 577.953C1070.72 577.42 1069.99 576.834 1069.24 576.194C1069.13 576.141 1069.03 576.034 1068.92 575.874C1068.85 575.807 1068.77 575.727 1068.68 575.636C1068.63 575.586 1068.57 575.532 1068.52 575.475L1068.44 575.395C1065.61 572.784 1064.09 570.893 1063.88 569.722C1063.77 569.187 1063.85 568.681 1064.12 568.201C1064.39 567.724 1064.76 567.429 1065.24 567.324C1065.77 567.215 1066.28 567.324 1066.76 567.642C1067.24 567.908 1067.56 568.281 1067.72 568.761C1067.93 569.455 1068.95 570.652 1070.76 572.358C1070.87 572.198 1071.03 572.01 1071.24 571.798V571.72C1071.71 571.131 1071.79 570.412 1071.47 569.56C1071.27 569.027 1071.28 568.523 1071.55 568.041C1071.71 567.562 1072.07 567.215 1072.59 567.004C1073.07 566.843 1073.55 566.897 1074.03 567.162C1074.51 567.376 1074.88 567.749 1075.15 568.281C1076.06 570.574 1075.79 572.572 1074.35 574.276V574.196C1074.29 574.273 1074.23 574.347 1074.18 574.42C1074.04 574.599 1073.91 574.764 1073.79 574.917C1075.07 575.769 1076.24 576.301 1077.31 576.516H1077.39C1079.74 575.769 1082.43 574.728 1085.46 573.397C1084.55 572.757 1083.75 572.145 1083.06 571.558V571.638C1082.74 571.373 1081.51 570.067 1079.39 567.724V567.642C1078.43 566.897 1076.3 566.335 1072.99 565.963C1072.35 565.91 1071.75 565.858 1071.16 565.803C1069.72 565.644 1068.09 565.536 1066.28 565.484C1063.29 565.378 1060.57 564.791 1058.13 563.725C1057.7 563.992 1057.22 564.312 1056.69 564.685L1056.37 564.844C1054.08 566.07 1051.13 566.655 1047.5 566.603C1045.95 566.55 1044.54 566.335 1043.26 565.963C1041.55 566.71 1039.5 567.055 1037.11 567.004C1033.32 566.897 1031.06 566.178 1030.31 564.844C1029.94 564.472 1029.78 564.018 1029.83 563.486C1029.88 562.953 1030.12 562.501 1030.55 562.129C1030.92 561.807 1031.4 561.674 1031.99 561.729C1032.52 561.782 1032.95 562.019 1033.27 562.447C1033.8 562.819 1035.08 563.033 1037.11 563.086H1037.99C1036.66 561.915 1035.48 560.503 1034.47 558.85C1034.1 558.157 1033.99 557.491 1034.15 556.852C1034.31 556.159 1034.71 555.653 1035.35 555.335C1035.99 554.908 1036.66 554.8 1037.35 555.013C1037.99 555.226 1038.5 555.653 1038.86 556.292C1040.26 558.532 1042.11 560.076 1044.46 560.93H1044.3C1045.26 561.195 1046.33 561.329 1047.5 561.329C1049.69 561.382 1051.57 561.14 1053.17 560.608C1050.18 557.678 1047.53 555.52 1045.18 554.136C1044.54 553.761 1044.14 553.227 1043.98 552.535C1043.77 551.843 1043.82 551.177 1044.14 550.539C1044.51 549.898 1045.05 549.498 1045.74 549.338C1046.43 549.126 1047.1 549.231 1047.74 549.658C1050.41 551.204 1053.41 553.627 1056.77 556.933C1057.41 557.518 1058.13 558.023 1058.93 558.45C1060.48 559.196 1062.09 559.729 1063.8 560.049C1060.92 557.171 1059.36 555.093 1059.09 553.814C1058.97 553.227 1059.04 552.75 1059.25 552.376C1059.52 551.896 1059.92 551.576 1060.44 551.416C1060.97 551.311 1061.48 551.391 1061.96 551.656C1062.4 551.924 1062.68 552.323 1062.84 552.855C1063.21 553.761 1064.49 555.253 1066.68 557.333C1068.07 558.77 1069.27 559.811 1070.28 560.448C1070.71 560.503 1071.11 560.555 1071.47 560.608C1072.11 560.608 1072.72 560.663 1073.31 560.768C1076.88 561.195 1079.55 561.861 1081.31 562.766C1081.1 561.274 1081.03 559.649 1081.15 557.891V557.811C1081.15 557.333 1081.02 556.692 1080.75 555.892V555.972C1080.59 555.493 1080.39 555.013 1080.19 554.536V554.454C1079.87 553.654 1079.52 552.91 1079.15 552.216C1077.23 552.428 1075.28 552.428 1073.31 552.216H1073.23C1072.27 552.11 1071.35 551.976 1070.44 551.816C1068.63 551.443 1066.97 550.911 1065.48 550.218H1065.4C1064.6 550.325 1063.61 550.377 1062.44 550.377H1062.28C1059.09 550.325 1056.08 549.313 1053.25 547.342C1050.81 545.529 1049.53 544.01 1049.41 542.784C1049.3 542.252 1049.41 541.772 1049.73 541.346C1050.01 540.866 1050.41 540.601 1050.93 540.548C1051.46 540.439 1051.97 540.548 1052.45 540.866C1052.88 541.186 1053.14 541.613 1053.25 542.145C1053.52 542.572 1054.26 543.264 1055.49 544.223V544.145C1056.82 545.049 1058.21 545.716 1059.65 546.143C1057.84 544.277 1056.48 542.011 1055.57 539.349C1055.3 538.655 1055.33 537.989 1055.65 537.351C1055.97 536.657 1056.48 536.23 1057.17 536.07ZM770.066 572.976C768.643 572.719 767.231 572.273 765.831 571.638H765.751C765.431 571.531 765.164 571.373 764.951 571.159C762.554 572.172 760.074 572.652 757.517 572.597C755.598 572.492 753.947 572.305 752.563 572.038L752.323 572.198C751.987 572.482 751.652 572.756 751.317 573.019C754.965 572.921 758.464 572.872 761.815 572.872C764.555 572.872 767.306 572.907 770.066 572.976ZM416.559 606.913C416.528 606.85 416.497 606.788 416.466 606.727C416.432 606.786 416.397 606.847 416.361 606.908C416.427 606.909 416.493 606.911 416.559 606.913ZM390.228 605.437C390.099 605.133 389.946 604.818 389.77 604.491C389.45 603.849 388.704 602.572 387.53 600.652C386.945 599.64 386.44 598.708 386.013 597.855C385.374 598.975 384.467 600.332 383.296 601.931C382.384 603.052 381.692 603.932 381.219 604.57C384.221 604.889 387.223 605.178 390.228 605.437ZM878.776 585.087L878.689 584.906C878.401 585.878 878.161 586.839 877.969 587.784C878.417 587.205 878.849 586.618 879.248 586.027C879.075 585.706 878.924 585.393 878.776 585.087ZM892.037 576.594V576.674C890.886 578.499 889.735 580.203 888.6 581.789C889.239 582.56 890.023 583.517 890.918 584.666C891.557 583.654 892.468 583.015 893.635 582.748C893.475 581.789 893.156 580.59 892.676 579.151C892.421 578.339 892.197 577.487 892.037 576.594Z" fill="#1C192A"/>
<path d="M1291.3 630.267C1216.11 631.465 1171.01 632.279 1156.03 632.701C1141.05 633.054 1118.56 631.43 1088.57 627.827C1058.53 624.225 1013.29 617.233 952.849 606.851C892.462 596.257 849.115 591.665 822.792 593.078C796.408 594.348 769.006 597.738 740.584 603.25C712.101 608.686 677.264 614.268 636.069 619.987C599.133 627.545 581 633 544 641C504.666 647.925 458 658 435.228 655.838C409.384 653.719 374.935 647.117 331.883 636.029C278.337 622.183 238.343 615.262 211.898 615.262C171.125 615.262 131.611 620.17 93.3548 629.987C70.628 635.778 57.0179 639.134 52.5207 640.052C37.5308 643.091 22.7802 644.608 8.2688 644.608C2.57181 644.608 -3.18454 644.22 -9.00024 643.445C-6.78225 644.714 -4.53368 645.987 -2.25453 647.257C1.1633 649.236 -19.001 706 -15.1029 708.401C-2.15289 715.959 37.0708 724.768 55 736C74.246 747.3 150.511 752.917 167.18 757.719C188.048 763.652 212.872 766.619 241.654 766.619C248.369 766.619 281.229 763.37 340.232 756.873C399.232 750.447 434.371 747.23 445.645 747.23C466.452 747.23 489.596 749.842 515.081 755.07C530.25 758.249 553.096 764.005 583.615 772.342C613.896 780.745 636.802 786.538 652.334 789.717C678.055 794.945 701.502 797.555 722.667 797.555C743.714 797.555 763.172 795.544 781.04 791.516C792.495 788.903 806.674 784.453 823.585 778.169C841.573 771.458 854.854 767.045 863.428 764.926C879.319 760.827 896.108 758.778 913.798 758.778C926.516 758.778 951.574 762.665 988.99 770.433C1026.46 778.202 1049.97 782.087 1059.51 782.087C1088.65 782.087 1116.04 776.859 1141.71 766.408C1159.29 759.344 1187.04 749.209 1225 736L1291.3 630.267Z" fill="#2A2440"/>
<g opacity="0.4" filter="url(#filter2_f_1361_21375)">
<ellipse cx="803.479" cy="598.197" rx="15.3724" ry="29.5824" transform="rotate(64.4269 803.479 598.197)" fill="#030305"/>
</g>
<g opacity="0.4" filter="url(#filter3_f_1361_21375)">
<ellipse cx="859.059" cy="629.204" rx="16.1171" ry="34.0748" transform="rotate(58.089 859.059 629.204)" fill="#030305"/>
</g>
<path fill-rule="evenodd" clip-rule="evenodd" d="M833.439 336.09L848.392 330.101L848.917 427.309L833.432 418.515L833.439 336.09Z" fill="#484A4C"/>
<path fill-rule="evenodd" clip-rule="evenodd" d="M859.822 323.482L848.395 330.101L833.441 336.09L845.116 329.449L859.822 323.482Z" fill="#9B9D9D"/>
<path fill-rule="evenodd" clip-rule="evenodd" d="M859.822 323.486L848.395 330.101L848.919 427.309L860.346 420.689C860.117 385.011 859.96 345.215 859.822 323.486Z" fill="#2F3031"/>
<path fill-rule="evenodd" clip-rule="evenodd" d="M851.058 330.993L892.014 354.256L892.538 451.62L851.051 428.061L851.058 330.993Z" fill="#706C81"/>
<path fill-rule="evenodd" clip-rule="evenodd" d="M903.443 347.638L892.016 354.257L851.061 330.994L862.736 324.357L903.443 347.638Z" fill="#B0C3CB"/>
<path fill-rule="evenodd" clip-rule="evenodd" d="M903.443 347.637L892.016 354.256L892.54 451.62L903.967 445.004C903.738 409.327 903.581 369.37 903.443 347.637Z" fill="#37324D"/>
<path fill-rule="evenodd" clip-rule="evenodd" d="M894.542 355.59L909.496 379.778L910.021 461.449L894.535 452.655L894.542 355.59Z" fill="#706C81"/>
<path fill-rule="evenodd" clip-rule="evenodd" d="M920.926 373.159L909.498 379.778L894.545 355.59L906.22 348.949L920.926 373.159Z" fill="#B0C3CB"/>
<path fill-rule="evenodd" clip-rule="evenodd" d="M920.921 373.159L909.49 379.778L910.018 444.593L921.446 437.978C921.216 402.301 921.06 394.892 920.921 373.159Z" fill="#96A2A8"/>
<path d="M784.706 444.827C785.004 444.914 785.307 444.958 785.605 444.958C785.822 444.958 786.036 444.935 786.244 444.891L784.281 451.424C784.106 452.013 784.437 452.636 785.027 452.811C785.133 452.844 785.242 452.858 785.348 452.858C785.829 452.858 786.269 452.549 786.415 452.064L788.539 445.002C788.683 444.517 788.483 444.009 788.076 443.745C788.303 443.452 788.48 443.114 788.592 442.74L793.783 425.465C794.282 423.816 793.346 422.074 791.696 421.579C790.057 421.091 788.308 422.018 787.809 423.666L782.615 440.94C782.496 441.336 782.459 441.737 782.495 442.125C782.12 442.213 781.801 442.492 781.681 442.889L779.558 449.948C779.379 450.535 779.714 451.158 780.304 451.336C780.41 451.368 780.516 451.384 780.625 451.384C781.102 451.384 781.547 451.074 781.692 450.59L783.604 444.235C783.918 444.497 784.289 444.701 784.706 444.827Z" fill="#37324D"/>
<path d="M781.377 399.391C769.167 413.069 770.246 435.414 794.222 438.096C810.169 439.882 815.583 427.179 814.134 412.164C830.97 381.595 830.995 335.666 822.997 333.825C813.235 331.574 800.511 333.515 799.163 345.802C798.137 347.704 798.51 348.089 798.443 348.369C798.376 348.646 797.875 348.818 795.145 350.265C790.089 349.929 781.313 359.765 782.902 365.947C782.464 370.496 782.268 370.762 778.953 373.735C774.654 379.403 776.152 389.789 779.488 394.091C780.121 396.079 780.744 397.836 781.377 399.391Z" fill="#ECF1F6"/>
<path d="M782.225 369.828C782.815 378.596 795.845 389.564 808.664 388.045C835.22 384.905 827.41 388.643 810.762 390.5C797.342 391.997 779.741 381.556 780.28 372.614L782.225 369.828Z" fill="#B0C3CB"/>
<path d="M814.078 409.51C802.964 419.798 781.13 411.095 781.385 398.327C778.332 416.847 806.235 424.013 814.188 412.389C814.33 411.488 813.823 410.934 814.078 409.51Z" fill="#B0C3CB"/>
<path d="M798.599 348.252C796.482 355.519 801.983 369.442 811.356 375.948C837.478 394.07 828.455 387.444 812.474 378.174C799.287 370.528 793.39 357.84 796.799 349.512L798.599 348.252Z" fill="#B0C3CB"/>
<path fill-rule="evenodd" clip-rule="evenodd" d="M886.983 594.559C887.114 595.164 894.625 608.595 891.89 620.343C890.451 626.506 867.429 642.833 844.756 646.695C837.74 647.885 829.216 644.311 827.905 640.574C826.083 635.386 825.894 626.109 830.881 621.56C837.929 615.129 850.726 613.315 853.174 603.04C853.812 600.348 853.612 598.431 853.535 595.199L886.983 594.559Z" fill="#1C192A"/>
<path fill-rule="evenodd" clip-rule="evenodd" d="M833.902 622.727C839.522 616.691 851.999 613.708 854.09 607.836C857.915 610.484 861.623 613.828 872.642 611.442C870.322 622.979 851.755 630.01 843.132 630.01C834.488 630.01 829.64 627.306 833.902 622.727Z" fill="#3D3655"/>
<path fill-rule="evenodd" clip-rule="evenodd" d="M885.277 440.921C884.982 445.514 884.877 448.884 885.128 449.916C868.747 470.249 812.058 457.925 806.124 430.376C805.822 426.616 805.468 422.897 805.111 419.214C817.526 449.285 865.22 461.853 885.277 440.921Z" fill="#2F3031"/>
<path fill-rule="evenodd" clip-rule="evenodd" d="M894.493 373.349C897.222 383.73 893.987 431.978 883.602 439.268C867.621 461.9 825.365 458.28 809.249 424.872C794.518 402.903 805.104 366.023 821.074 346.848C828.13 338.375 836.574 335.723 848.686 335.559C881.981 337.449 892.541 365.921 894.493 373.349Z" fill="#1C192A"/>
<path fill-rule="evenodd" clip-rule="evenodd" d="M879.623 307.847C885.524 317.668 889.386 329.642 882.982 352.806C870.192 365.356 847.687 373.442 828.078 362.186C808.356 350.872 805.584 318.087 821.499 300.438C836.354 283.958 867.915 288.359 879.623 307.847Z" fill="#B0C3CB"/>
<path fill-rule="evenodd" clip-rule="evenodd" d="M885.081 343.744C874.266 352.53 852.865 355.39 839.558 347.544C826.251 339.697 817.395 325.02 813.545 314.351C815.253 309.218 817.894 304.439 821.504 300.439C836.36 283.959 867.731 288.265 879.628 307.848C885.027 316.729 887.904 326.386 885.081 343.744Z" fill="#ECF1F6"/>
<path fill-rule="evenodd" clip-rule="evenodd" d="M836.698 309.268C849.706 313.152 860.248 328.426 860.248 343.375C860.248 358.336 849.706 367.312 836.698 363.429C823.7 359.549 813.158 344.272 813.158 329.311C813.158 314.365 823.7 305.385 836.698 309.268Z" fill="#1C192A"/>
<path fill-rule="evenodd" clip-rule="evenodd" d="M836.699 316.747C846.112 319.556 853.743 330.615 853.743 341.434C853.743 352.261 846.112 358.759 836.699 355.951C827.29 353.138 819.658 342.083 819.658 331.256C819.658 320.437 827.29 313.939 836.699 316.747Z" fill="#F84638"/>
<path fill-rule="evenodd" clip-rule="evenodd" d="M836.7 316.748C846.113 319.56 853.744 330.616 853.744 341.435C853.744 346.301 852.2 350.29 849.65 352.957C846.87 354.388 843.475 354.709 839.811 353.612C830.405 350.804 822.773 339.748 822.773 328.918C822.773 324.059 824.314 320.07 826.864 317.403C829.644 315.972 833.035 315.655 836.7 316.748Z" fill="#F2C94C"/>
<path fill-rule="evenodd" clip-rule="evenodd" d="M838.963 567.091C839.094 567.696 846.602 581.127 843.866 592.875C842.431 599.039 819.409 615.365 796.736 619.224C789.721 620.418 781.197 616.845 779.885 613.106C778.064 607.92 777.874 598.642 782.861 594.092C789.906 587.663 802.707 585.848 805.151 575.572C805.792 572.88 805.592 570.965 805.512 567.733L838.963 567.091Z" fill="#1C192A"/>
<path d="M806.005 428.861C805.915 428.917 805.807 428.976 805.683 429.045C803.961 429.996 799.233 432.608 798.672 448.219C798.623 449.564 798.715 450.799 798.802 451.962C799.025 454.956 799.211 457.462 796.858 460.084C792.989 464.855 791.222 471.467 792.84 484.173C792.931 486.77 793.084 489.163 793.251 491.433C791.592 495.49 792.886 500.869 793.751 504.463C793.881 505.003 794.001 505.503 794.1 505.953C794.405 507.336 793.983 508.046 793.534 508.801C793.136 509.47 792.717 510.175 792.763 511.414C789.111 526.913 795.013 544.139 801.643 557.155C800.882 556.613 800.196 556.009 799.598 555.342C797.248 559.214 800.253 567.786 805.525 573.334C814.759 583.063 835.628 579.836 840.178 569.61C842.12 565.239 842.757 557.393 840.393 552.038C839.943 552.61 839.432 553.158 838.867 553.681C837.341 539.802 836.224 524.615 839.347 501.987C839.081 506.751 838.906 511.825 840.56 515.034C840.636 515.828 840.713 516.626 840.792 517.429L840.873 518.262C838.298 531.988 840.363 541.612 844.184 548.941C842.989 560.642 843.441 573.817 846.213 577.904C846.186 582.369 852.172 586.369 859.661 588.117C854.668 587.482 850.272 585.77 847.616 582.808C845.27 586.681 848.272 595.251 853.543 600.804C862.777 610.53 883.647 607.302 888.197 597.077C890.138 592.706 890.776 584.86 888.411 579.508C887.196 581.051 885.536 582.421 883.571 583.594C885.808 581.448 887.476 578.596 888.262 574.915C892.218 572.353 895.463 541.794 890.597 534.046C890.593 532.587 890.494 531.841 890.392 531.07C890.287 530.274 890.178 529.452 890.167 527.792C891.653 524.28 890.655 519.531 890.247 519.454C890.193 518.798 889.982 518.203 889.771 517.605C889.299 516.271 888.823 514.925 890.068 512.871C895.299 500.988 892.36 485.345 890.629 482.184C888.706 457.763 889.675 450.974 890.292 446.65C890.479 445.34 890.634 444.256 890.666 442.977C886.389 460.834 816.725 458.356 819.832 438.879L806.005 428.861Z" fill="#DCE4ED"/>
<path fill-rule="evenodd" clip-rule="evenodd" d="M863.598 454.543C847.118 465.979 842.527 477.641 839.86 495.155C836.487 478.974 841.255 462.154 850.953 455.372C853.855 455.06 860.692 454.853 863.598 454.543Z" fill="#B0C3CB"/>
<path fill-rule="evenodd" clip-rule="evenodd" d="M818.531 444.998C820.532 458.051 825.296 482.673 839.856 495.155C817.66 480.169 811.609 453.913 810.527 435.987C811.307 433.169 815.979 442.827 818.531 444.998Z" fill="#B0C3CB"/>
<path fill-rule="evenodd" clip-rule="evenodd" d="M804.781 415.823C816.977 444.993 865.273 458.738 885.352 437.705C885.73 445.052 885.705 449.496 885.129 449.915C868.263 467.338 811.528 454.731 806.125 430.376C805.444 428.281 805.029 422.875 804.781 415.823Z" fill="#3D3655"/>
<path d="M889.742 478.565C877.466 500.404 847.234 507.896 838.998 498.236C847.602 514.77 887.232 500.804 890.627 482.182C890.474 481.014 889.938 480.445 889.742 478.565Z" fill="#B0C3CB"/>
<path d="M889.787 516.395C877.511 533.458 848.165 528.136 840.73 516.818C841.962 532.977 886.851 536.755 890.246 519.452C890.09 518.219 889.988 518.352 889.787 516.395Z" fill="#B0C3CB"/>
<path d="M890.171 530.975C879.05 550.762 851.347 557.869 843.883 549.116C851.678 564.095 887.516 550.919 890.59 534.045C890.452 532.985 890.353 532.677 890.171 530.975Z" fill="#B0C3CB"/>
<path d="M888.069 577.216C878.372 590.694 852.206 588.088 846.334 579.145C847.303 591.91 885.749 593.298 888.43 579.63C888.309 578.657 888.226 578.759 888.069 577.216Z" fill="#B0C3CB"/>
<path fill-rule="evenodd" clip-rule="evenodd" d="M785.886 595.261C791.506 589.225 803.979 586.241 806.074 580.37C809.899 583.018 813.607 586.362 824.626 583.976C822.306 595.513 803.739 602.542 795.116 602.542C786.472 602.542 781.62 599.84 785.886 595.261Z" fill="#3D3655"/>
<path d="M840.049 549.746C830.352 563.227 804.187 560.619 798.314 551.68C799.283 564.443 837.729 565.832 840.41 552.16C840.29 551.191 840.206 551.289 840.049 549.746Z" fill="#B0C3CB"/>
<path d="M797.983 456.006C807.651 481.356 830.859 502.448 838.031 497.547C827.941 505.209 799.531 479.677 796.857 460.083C796.978 458.957 797.826 457.827 797.983 456.006Z" fill="#B0C3CB"/>
<path d="M793.004 487.906C796.239 507.136 829.584 519.147 838.174 512.097C834.127 523.234 792.88 510.393 793.237 491.819C793.263 490.565 793 489.031 793.004 487.906Z" fill="#B0C3CB"/>
<path d="M793.336 507.714C797.635 533.505 826.828 548.174 837.574 538.271C825.808 553.85 791.03 531.334 792.823 509.18C793.183 508.174 792.797 509.339 793.336 507.714Z" fill="#B0C3CB"/>
<path d="M893.282 361.958C873.647 364.002 865.411 385.862 875.327 401.734L877.56 406.014C855.812 397.792 867.976 358.705 889.191 359.121L893.282 361.958Z" fill="#B0C3CB"/>
<path d="M887.471 500.401C887.172 500.401 886.87 500.357 886.571 500.27C886.153 500.145 885.78 499.939 885.465 499.676L883.554 506.033C883.408 506.517 882.967 506.823 882.49 506.823C882.381 506.823 882.275 506.813 882.17 506.78C881.58 506.601 881.244 505.978 881.423 505.391L883.547 498.328C883.666 497.933 883.987 497.655 884.361 497.567C884.325 497.178 884.361 496.776 884.48 496.38L889.671 479.11C890.166 477.463 891.919 476.537 893.558 477.022C895.208 477.517 896.144 479.259 895.649 480.908L890.454 498.178C890.342 498.555 890.164 498.895 889.937 499.188C890.343 499.45 890.544 499.959 890.397 500.445L888.273 507.509C888.128 507.993 887.687 508.303 887.206 508.303C887.104 508.303 886.995 508.287 886.889 508.255C886.295 508.077 885.964 507.453 886.139 506.867L888.102 500.336C887.896 500.379 887.685 500.401 887.471 500.401Z" fill="#37324D"/>
<path d="M925.221 424.104C925.785 420.61 926.033 417.481 925.844 414.927C927.541 409.048 926.23 394.451 916.416 388.961C912.698 386.881 912.637 384.578 912.579 382.4C912.56 381.681 912.541 380.975 912.391 380.296C912.129 372.161 901.339 361.317 893.201 361.965C891.759 361.128 890.261 360.366 888.71 359.689C881.705 354.166 869.101 376.274 870.685 385.323C870.682 385.731 870.725 386.163 870.802 386.612C870.703 393.005 871.545 398.469 877.042 405.347C879.461 408.374 883.213 416.352 884.105 420.62C884.187 421.013 884.268 421.377 884.343 421.718C884.828 423.91 885.106 425.164 884.207 427.174C881.992 432.013 881.923 441.44 885.209 445.176C885.03 447.471 884.973 449.009 884.988 450.042L884.985 450.045C870.458 463.348 870.185 488.21 895.56 491.05C912.994 493.004 917.835 477.642 914.892 460.871C914.784 460.252 914.624 459.657 914.417 459.085C915.242 457.909 915.943 456.463 916.537 454.736C920.529 450.029 928.106 437.916 925.221 424.104Z" fill="#ECF1F6"/>
<path d="M916.416 388.96C903.4 380.153 880.513 393.759 883.198 417.506L884.105 420.62C868.015 403.828 894.647 374.55 913.615 384.066L916.416 388.96Z" fill="#B0C3CB"/>
<path d="M925.389 424.962C916.042 411.335 890.881 418.209 884.215 427.312C884.138 409.284 922.278 405.411 925.968 420.271C925.863 421.976 925.797 423.716 925.389 424.962Z" fill="#B0C3CB"/>
<path d="M914.467 459.045C903.356 469.333 882.415 457.382 885.435 445.036C877.906 463.32 907.081 473.487 915.03 461.868C914.917 460.965 914.728 460.4 914.467 459.045Z" fill="#B0C3CB"/>
<path fill-rule="evenodd" clip-rule="evenodd" d="M789.833 279.996C791.374 279.996 792.627 278.739 792.627 277.198C792.627 275.661 791.374 274.404 789.833 274.404C788.296 274.404 787.039 275.661 787.039 277.198C787.039 278.739 788.296 279.996 789.833 279.996Z" fill="url(#paint0_linear_1361_21375)"/>
<path fill-rule="evenodd" clip-rule="evenodd" d="M792.995 288.906C795.024 288.906 796.682 287.252 796.682 285.223C796.682 283.194 795.024 281.54 792.995 281.54C790.966 281.54 789.312 283.194 789.312 285.223C789.312 287.252 790.966 288.906 792.995 288.906Z" fill="url(#paint1_linear_1361_21375)"/>
<path fill-rule="evenodd" clip-rule="evenodd" d="M802.886 279.118C804.427 279.118 805.68 277.861 805.68 276.321C805.68 274.783 804.427 273.527 802.886 273.527C801.349 273.527 800.092 274.783 800.092 276.321C800.092 277.861 801.349 279.118 802.886 279.118Z" fill="url(#paint2_linear_1361_21375)"/>
<path fill-rule="evenodd" clip-rule="evenodd" d="M808.892 274.572C810.921 274.572 812.575 272.914 812.575 270.885C812.575 268.856 810.921 267.202 808.892 267.202C806.863 267.202 805.209 268.856 805.209 270.885C805.209 272.914 806.863 274.572 808.892 274.572Z" fill="url(#paint3_linear_1361_21375)"/>
<path fill-rule="evenodd" clip-rule="evenodd" d="M801.599 257.229C803.136 257.229 804.393 255.972 804.393 254.435C804.393 252.894 803.136 251.641 801.599 251.641C800.061 251.641 798.805 252.894 798.805 254.435C798.805 255.972 800.061 257.229 801.599 257.229Z" fill="url(#paint4_linear_1361_21375)"/>
<path fill-rule="evenodd" clip-rule="evenodd" d="M799.729 293.583C800.498 293.583 801.128 292.956 801.128 292.188C801.128 291.416 800.498 290.789 799.729 290.789C798.96 290.789 798.33 291.416 798.33 292.188C798.33 292.956 798.96 293.583 799.729 293.583Z" fill="url(#paint5_linear_1361_21375)"/>
<path fill-rule="evenodd" clip-rule="evenodd" d="M800.733 270.55C801.501 270.55 802.128 269.924 802.128 269.155C802.128 268.383 801.501 267.756 800.733 267.756C799.961 267.756 799.334 268.383 799.334 269.155C799.334 269.924 799.961 270.55 800.733 270.55Z" fill="url(#paint6_linear_1361_21375)"/>
<path fill-rule="evenodd" clip-rule="evenodd" d="M816.45 274.987C817.222 274.987 817.849 274.357 817.849 273.588C817.849 272.819 817.222 272.189 816.45 272.189C815.681 272.189 815.055 272.819 815.055 273.588C815.055 274.357 815.681 274.987 816.45 274.987Z" fill="url(#paint7_linear_1361_21375)"/>
<path fill-rule="evenodd" clip-rule="evenodd" d="M809.307 252.667C810.076 252.667 810.702 252.041 810.702 251.272C810.702 250.5 810.076 249.873 809.307 249.873C808.535 249.873 807.908 250.5 807.908 251.272C807.908 252.041 808.535 252.667 809.307 252.667Z" fill="url(#paint8_linear_1361_21375)"/>
<path fill-rule="evenodd" clip-rule="evenodd" d="M793.01 295.157C793.779 295.157 794.409 294.531 794.409 293.758C794.409 292.99 793.779 292.363 793.01 292.363C792.242 292.363 791.611 292.99 791.611 293.758C791.611 294.531 792.242 295.157 793.01 295.157Z" fill="url(#paint9_linear_1361_21375)"/>
<path fill-rule="evenodd" clip-rule="evenodd" d="M804.142 305.644C806.171 305.644 807.828 303.99 807.828 301.961C807.828 299.932 806.171 298.278 804.142 298.278C802.116 298.278 800.459 299.932 800.459 301.961C800.459 303.99 802.116 305.644 804.142 305.644Z" fill="url(#paint10_linear_1361_21375)"/>
<path fill-rule="evenodd" clip-rule="evenodd" d="M787.851 300.493C789.88 300.493 791.534 298.839 791.534 296.81C791.534 294.781 789.88 293.127 787.851 293.127C785.822 293.127 784.168 294.781 784.168 296.81C784.168 298.839 785.822 300.493 787.851 300.493Z" fill="url(#paint11_linear_1361_21375)"/>
<path fill-rule="evenodd" clip-rule="evenodd" d="M796.95 308.729C798.488 308.729 799.744 307.473 799.744 305.936C799.744 304.395 798.488 303.142 796.95 303.142C795.409 303.142 794.156 304.395 794.156 305.936C794.156 307.473 795.409 308.729 796.95 308.729Z" fill="url(#paint12_linear_1361_21375)"/>
<path fill-rule="evenodd" clip-rule="evenodd" d="M817.894 262.409C819.923 262.409 821.577 260.755 821.577 258.726C821.577 256.697 819.923 255.043 817.894 255.043C815.865 255.043 814.211 256.697 814.211 258.726C814.211 260.755 815.865 262.409 817.894 262.409Z" fill="url(#paint13_linear_1361_21375)"/>
<path fill-rule="evenodd" clip-rule="evenodd" d="M788.169 316.773C790.198 316.773 791.852 315.12 791.852 313.091C791.852 311.062 790.198 309.404 788.169 309.404C786.14 309.404 784.482 311.062 784.482 313.091C784.482 315.12 786.14 316.773 788.169 316.773Z" fill="url(#paint14_linear_1361_21375)"/>
<path fill-rule="evenodd" clip-rule="evenodd" d="M808.589 312.755C809.361 312.755 809.987 312.129 809.987 311.357C809.987 310.588 809.361 309.961 808.589 309.961C807.82 309.961 807.193 310.588 807.193 311.357C807.193 312.129 807.82 312.755 808.589 312.755Z" fill="url(#paint15_linear_1361_21375)"/>
<path fill-rule="evenodd" clip-rule="evenodd" d="M793.885 320.459C794.654 320.459 795.284 319.833 795.284 319.064C795.284 318.292 794.654 317.665 793.885 317.665C793.116 317.665 792.486 318.292 792.486 319.064C792.486 319.833 793.116 320.459 793.885 320.459Z" fill="url(#paint16_linear_1361_21375)"/>
<path fill-rule="evenodd" clip-rule="evenodd" d="M780.944 320.463C782.482 320.463 783.738 319.207 783.738 317.666C783.738 316.128 782.482 314.872 780.944 314.872C779.403 314.872 778.15 316.128 778.15 317.666C778.15 319.207 779.403 320.463 780.944 320.463Z" fill="url(#paint17_linear_1361_21375)"/>
<path fill-rule="evenodd" clip-rule="evenodd" d="M805.588 321.049C806.357 321.049 806.983 320.423 806.983 319.654C806.983 318.882 806.357 318.255 805.588 318.255C804.816 318.255 804.189 318.882 804.189 319.654C804.189 320.423 804.816 321.049 805.588 321.049Z" fill="url(#paint18_linear_1361_21375)"/>
<path fill-rule="evenodd" clip-rule="evenodd" d="M798.46 326.499C800.493 326.499 802.147 324.845 802.147 322.816C802.147 320.787 800.493 319.133 798.46 319.133C796.431 319.133 794.777 320.787 794.777 322.816C794.777 324.845 796.431 326.499 798.46 326.499Z" fill="url(#paint19_linear_1361_21375)"/>
<path fill-rule="evenodd" clip-rule="evenodd" d="M805.323 330.19C806.86 330.19 808.117 328.933 808.117 327.396C808.117 325.855 806.86 324.602 805.323 324.602C803.782 324.602 802.525 325.855 802.525 327.396C802.525 328.933 803.782 330.19 805.323 330.19Z" fill="url(#paint20_linear_1361_21375)"/>
<path fill-rule="evenodd" clip-rule="evenodd" d="M775.798 293.565C777.335 293.565 778.592 292.312 778.592 290.771C778.592 289.231 777.335 287.977 775.798 287.977C774.257 287.977 773 289.231 773 290.771C773 292.312 774.257 293.565 775.798 293.565Z" fill="url(#paint21_linear_1361_21375)"/>
<path fill-rule="evenodd" clip-rule="evenodd" d="M777.434 304.457C778.203 304.457 778.829 303.83 778.829 303.058C778.829 302.289 778.203 301.663 777.434 301.663C776.662 301.663 776.035 302.289 776.035 303.058C776.035 303.83 776.662 304.457 777.434 304.457Z" fill="url(#paint22_linear_1361_21375)"/>
<path fill-rule="evenodd" clip-rule="evenodd" d="M788.012 305.888C788.781 305.888 789.411 305.257 789.411 304.489C789.411 303.72 788.781 303.094 788.012 303.094C787.244 303.094 786.613 303.72 786.613 304.489C786.613 305.257 787.244 305.888 788.012 305.888Z" fill="url(#paint23_linear_1361_21375)"/>
</g>
<defs>
<filter id="filter0_f_1361_21375" x="-116.51" y="-445.976" width="1404.61" height="1396.58" filterUnits="userSpaceOnUse" color-interpolation-filters="sRGB">
<feFlood flood-opacity="0" result="BackgroundImageFix"/>
<feBlend mode="normal" in="SourceGraphic" in2="BackgroundImageFix" result="shape"/>
<feGaussianBlur stdDeviation="172" result="effect1_foregroundBlur_1361_21375"/>
</filter>
<filter id="filter1_f_1361_21375" x="-116.51" y="-445.976" width="1404.61" height="1396.58" filterUnits="userSpaceOnUse" color-interpolation-filters="sRGB">
<feFlood flood-opacity="0" result="BackgroundImageFix"/>
<feBlend mode="normal" in="SourceGraphic" in2="BackgroundImageFix" result="shape"/>
<feGaussianBlur stdDeviation="172" result="effect1_foregroundBlur_1361_21375"/>
</filter>
<filter id="filter2_f_1361_21375" x="751.975" y="555.346" width="103.008" height="85.7012" filterUnits="userSpaceOnUse" color-interpolation-filters="sRGB">
<feFlood flood-opacity="0" result="BackgroundImageFix"/>
<feBlend mode="normal" in="SourceGraphic" in2="BackgroundImageFix" result="shape"/>
<feGaussianBlur stdDeviation="12" result="effect1_foregroundBlur_1361_21375"/>
</filter>
<filter id="filter3_f_1361_21375" x="804.898" y="582.583" width="108.322" height="93.2402" filterUnits="userSpaceOnUse" color-interpolation-filters="sRGB">
<feFlood flood-opacity="0" result="BackgroundImageFix"/>
<feBlend mode="normal" in="SourceGraphic" in2="BackgroundImageFix" result="shape"/>
<feGaussianBlur stdDeviation="12" result="effect1_foregroundBlur_1361_21375"/>
</filter>
<linearGradient id="paint0_linear_1361_21375" x1="787.039" y1="277.198" x2="792.629" y2="277.198" gradientUnits="userSpaceOnUse">
<stop stop-color="#99DDF8"/>
<stop offset="1" stop-color="white"/>
</linearGradient>
<linearGradient id="paint1_linear_1361_21375" x1="789.312" y1="285.223" x2="796.682" y2="285.223" gradientUnits="userSpaceOnUse">
<stop stop-color="#99DDF8"/>
<stop offset="1" stop-color="white"/>
</linearGradient>
<linearGradient id="paint2_linear_1361_21375" x1="800.092" y1="276.324" x2="805.682" y2="276.324" gradientUnits="userSpaceOnUse">
<stop stop-color="#99DDF8"/>
<stop offset="1" stop-color="white"/>
</linearGradient>
<linearGradient id="paint3_linear_1361_21375" x1="805.205" y1="270.885" x2="812.575" y2="270.885" gradientUnits="userSpaceOnUse">
<stop stop-color="#99DDF8"/>
<stop offset="1" stop-color="white"/>
</linearGradient>
<linearGradient id="paint4_linear_1361_21375" x1="798.805" y1="254.435" x2="804.394" y2="254.435" gradientUnits="userSpaceOnUse">
<stop stop-color="#99DDF8"/>
<stop offset="1" stop-color="white"/>
</linearGradient>
<linearGradient id="paint5_linear_1361_21375" x1="798.33" y1="292.188" x2="801.127" y2="292.188" gradientUnits="userSpaceOnUse">
<stop stop-color="#99DDF8"/>
<stop offset="1" stop-color="white"/>
</linearGradient>
<linearGradient id="paint6_linear_1361_21375" x1="799.334" y1="269.155" x2="802.131" y2="269.155" gradientUnits="userSpaceOnUse">
<stop stop-color="#99DDF8"/>
<stop offset="1" stop-color="white"/>
</linearGradient>
<linearGradient id="paint7_linear_1361_21375" x1="815.051" y1="273.588" x2="817.847" y2="273.588" gradientUnits="userSpaceOnUse">
<stop stop-color="#99DDF8"/>
<stop offset="1" stop-color="white"/>
</linearGradient>
<linearGradient id="paint8_linear_1361_21375" x1="807.908" y1="251.272" x2="810.705" y2="251.272" gradientUnits="userSpaceOnUse">
<stop stop-color="#99DDF8"/>
<stop offset="1" stop-color="white"/>
</linearGradient>
<linearGradient id="paint9_linear_1361_21375" x1="791.611" y1="293.758" x2="794.408" y2="293.758" gradientUnits="userSpaceOnUse">
<stop stop-color="#99DDF8"/>
<stop offset="1" stop-color="white"/>
</linearGradient>
<linearGradient id="paint10_linear_1361_21375" x1="800.459" y1="301.961" x2="807.828" y2="301.961" gradientUnits="userSpaceOnUse">
<stop stop-color="#99DDF8"/>
<stop offset="1" stop-color="white"/>
</linearGradient>
<linearGradient id="paint11_linear_1361_21375" x1="784.164" y1="296.81" x2="791.534" y2="296.81" gradientUnits="userSpaceOnUse">
<stop stop-color="#99DDF8"/>
<stop offset="1" stop-color="white"/>
</linearGradient>
<linearGradient id="paint12_linear_1361_21375" x1="794.156" y1="305.936" x2="799.746" y2="305.936" gradientUnits="userSpaceOnUse">
<stop stop-color="#99DDF8"/>
<stop offset="1" stop-color="white"/>
</linearGradient>
<linearGradient id="paint13_linear_1361_21375" x1="814.211" y1="258.726" x2="821.58" y2="258.726" gradientUnits="userSpaceOnUse">
<stop stop-color="#99DDF8"/>
<stop offset="1" stop-color="white"/>
</linearGradient>
<linearGradient id="paint14_linear_1361_21375" x1="784.482" y1="313.091" x2="791.852" y2="313.091" gradientUnits="userSpaceOnUse">
<stop stop-color="#99DDF8"/>
<stop offset="1" stop-color="white"/>
</linearGradient>
<linearGradient id="paint15_linear_1361_21375" x1="807.193" y1="311.357" x2="809.99" y2="311.357" gradientUnits="userSpaceOnUse">
<stop stop-color="#99DDF8"/>
<stop offset="1" stop-color="white"/>
</linearGradient>
<linearGradient id="paint16_linear_1361_21375" x1="792.486" y1="319.064" x2="795.283" y2="319.064" gradientUnits="userSpaceOnUse">
<stop stop-color="#99DDF8"/>
<stop offset="1" stop-color="white"/>
</linearGradient>
<linearGradient id="paint17_linear_1361_21375" x1="778.15" y1="317.666" x2="783.74" y2="317.666" gradientUnits="userSpaceOnUse">
<stop stop-color="#99DDF8"/>
<stop offset="1" stop-color="white"/>
</linearGradient>
<linearGradient id="paint18_linear_1361_21375" x1="804.189" y1="319.654" x2="806.986" y2="319.654" gradientUnits="userSpaceOnUse">
<stop stop-color="#99DDF8"/>
<stop offset="1" stop-color="white"/>
</linearGradient>
<linearGradient id="paint19_linear_1361_21375" x1="794.777" y1="322.816" x2="802.147" y2="322.816" gradientUnits="userSpaceOnUse">
<stop stop-color="#99DDF8"/>
<stop offset="1" stop-color="white"/>
</linearGradient>
<linearGradient id="paint20_linear_1361_21375" x1="802.525" y1="327.396" x2="808.115" y2="327.396" gradientUnits="userSpaceOnUse">
<stop stop-color="#99DDF8"/>
<stop offset="1" stop-color="white"/>
</linearGradient>
<linearGradient id="paint21_linear_1361_21375" x1="773" y1="290.771" x2="778.59" y2="290.771" gradientUnits="userSpaceOnUse">
<stop stop-color="#99DDF8"/>
<stop offset="1" stop-color="white"/>
</linearGradient>
<linearGradient id="paint22_linear_1361_21375" x1="776.035" y1="303.058" x2="778.832" y2="303.058" gradientUnits="userSpaceOnUse">
<stop stop-color="#99DDF8"/>
<stop offset="1" stop-color="white"/>
</linearGradient>
<linearGradient id="paint23_linear_1361_21375" x1="786.613" y1="304.489" x2="789.41" y2="304.489" gradientUnits="userSpaceOnUse">
<stop stop-color="#99DDF8"/>
<stop offset="1" stop-color="white"/>
</linearGradient>
<clipPath id="clip0_1361_21375">
<rect width="1200" height="675" fill="white"/>
</clipPath>
</defs>
</svg>
