<svg width="32" height="32" viewBox="0 0 32 32" fill="none" xmlns="http://www.w3.org/2000/svg">
<g clip-path="url(#clip0_137_32)">
<mask id="mask0_137_32" style="mask-type:alpha" maskUnits="userSpaceOnUse" x="0" y="0" width="32" height="32">
<circle cx="16" cy="16" r="16" fill="#FFA101"/>
</mask>
<g mask="url(#mask0_137_32)">
<circle cx="16" cy="16" r="16" fill="url(#paint0_linear_137_32)"/>
<path fill-rule="evenodd" clip-rule="evenodd" d="M5.33222 13.0942C5.22551 13.1315 5.11343 13.151 5.00046 13.1519C4.7602 13.1516 4.52803 13.0651 4.3463 12.9078C4.16406 12.7502 4.04476 12.5321 4.01028 12.2936C3.97584 12.0551 4.02858 11.8122 4.15874 11.6094C4.28891 11.4066 4.4879 11.2576 4.71907 11.1896C4.95028 11.1217 5.19824 11.1394 5.41743 11.2395C5.63662 11.3396 5.81239 11.5154 5.91244 11.7346C6.01254 11.9538 6.03018 12.2017 5.96221 12.4329C5.89425 12.6641 5.74518 12.8631 5.54238 12.9932C6.36249 13.836 8.3633 15.8203 9.95821 16.8506C10.564 17.24 11.1121 17.4935 11.5139 17.4935H11.6108C12.2165 17.4255 12.8121 16.9701 13.3767 16.22C14.3637 14.9075 15.2538 12.6883 15.938 10.0095C15.6766 9.99476 15.4313 9.87867 15.2541 9.6859C15.0771 9.49313 14.9821 9.23889 14.9894 8.97722C14.9969 8.71553 15.106 8.46705 15.2937 8.28457C15.4814 8.10209 15.7328 8 15.9946 8C16.2564 8 16.5079 8.10209 16.6956 8.28457C16.8833 8.46705 16.9924 8.71553 16.9998 8.97722C17.0071 9.23889 16.9122 9.49313 16.7351 9.6859C16.558 9.87867 16.3126 9.99476 16.0513 10.0095C16.7333 12.6862 17.6256 14.9075 18.6126 16.22C19.1772 16.9701 19.7727 17.4255 20.3764 17.4935H20.4733C20.8751 17.4935 21.4231 17.24 22.029 16.8506C23.626 15.8203 25.6229 13.836 26.4469 12.9932C26.2419 12.8623 26.091 12.6618 26.0218 12.4285C25.9532 12.1952 25.9707 11.9449 26.0715 11.7236C26.1722 11.5022 26.3496 11.3247 26.5712 11.2237C26.7922 11.1227 27.0428 11.105 27.2759 11.1738C27.5095 11.2426 27.71 11.3934 27.8408 11.5983C27.9721 11.8033 28.0247 12.0486 27.9892 12.2893C27.9536 12.53 27.8328 12.7497 27.6478 12.9082C27.4634 13.0667 27.2278 13.1532 26.9847 13.1519C26.8719 13.1506 26.7596 13.1312 26.6529 13.0942L22.8922 22.715C18.3026 22.2486 13.6776 22.2424 9.08657 22.6964L5.33222 13.0942ZM11.5118 16.9907H11.553C12.0352 16.9351 12.5482 16.5168 13.0572 15.7997C12.35 14.7238 11.777 13.5654 11.351 12.3503C11.5337 12.3401 11.7052 12.2591 11.8291 12.1244C11.9529 11.9897 12.0194 11.8121 12.0143 11.6292C12.0092 11.4463 11.9329 11.2726 11.8017 11.145C11.6706 11.0175 11.4948 10.9461 11.3119 10.9461C11.129 10.9461 10.9532 11.0175 10.822 11.145C10.6908 11.2726 10.6146 11.4463 10.6095 11.6292C10.6044 11.8121 10.6709 11.9897 10.7947 12.1244C10.9186 12.2591 11.0901 12.3401 11.2728 12.3503C11.0358 13.9988 10.6669 15.4123 10.193 16.3993C10.7679 16.7826 11.2233 16.9907 11.5118 16.9907ZM20.4322 16.9887H20.4713C20.7619 16.9887 21.2152 16.7826 21.7901 16.4034C21.3184 15.4164 20.9495 13.9967 20.7124 12.3544C20.8935 12.3443 21.0633 12.2639 21.1861 12.1303C21.3089 11.9968 21.3746 11.8207 21.3696 11.6395C21.3646 11.4582 21.2889 11.2861 21.1586 11.1597C21.0287 11.0333 20.8546 10.9626 20.6733 10.9626C20.4919 10.9626 20.3177 11.0333 20.1878 11.1597C20.0578 11.2861 19.9822 11.4582 19.9771 11.6395C19.9719 11.8207 20.0378 11.9968 20.1605 12.1303C20.2832 12.2639 20.4531 12.3443 20.6341 12.3544C20.2071 13.5694 19.6335 14.7278 18.9259 15.8038C19.4349 16.5147 19.95 16.933 20.4322 16.9887Z" fill="#C1A467"/>
</g>
</g>
<defs>
<linearGradient id="paint0_linear_137_32" x1="16" y1="0" x2="16" y2="32" gradientUnits="userSpaceOnUse">
<stop stop-color="white"/>
<stop offset="1" stop-color="#ECECEC"/>
</linearGradient>
<clipPath id="clip0_137_32">
<rect width="32" height="32" fill="white"/>
</clipPath>
</defs>
</svg>
