<svg width="32" height="32" viewBox="0 0 32 32" fill="none" xmlns="http://www.w3.org/2000/svg">
<g clip-path="url(#clip0_292_35)">
<path d="M16 32C24.8366 32 32 24.8366 32 16C32 7.16344 24.8366 0 16 0C7.16344 0 0 7.16344 0 16C0 24.8366 7.16344 32 16 32Z" fill="#0B1524"/>
<path d="M31.2 16C31.2 24.3947 24.3947 31.2 16 31.2C7.60527 31.2 0.8 24.3947 0.8 16C0.8 7.60527 7.60527 0.8 16 0.8C24.3947 0.8 31.2 7.60527 31.2 16Z" stroke="url(#paint0_linear_292_35)" stroke-width="1.6"/>
<path d="M31.2 16C31.2 24.3947 24.3947 31.2 16 31.2C7.60527 31.2 0.8 24.3947 0.8 16C0.8 7.60527 7.60527 0.8 16 0.8C24.3947 0.8 31.2 7.60527 31.2 16Z" stroke="url(#paint1_linear_292_35)" stroke-width="1.6"/>
<path d="M31.2 16C31.2 24.3947 24.3947 31.2 16 31.2C7.60527 31.2 0.8 24.3947 0.8 16C0.8 7.60527 7.60527 0.8 16 0.8C24.3947 0.8 31.2 7.60527 31.2 16Z" stroke="url(#paint2_radial_292_35)" stroke-width="1.6"/>
<path d="M31.2 16C31.2 24.3947 24.3947 31.2 16 31.2C7.60527 31.2 0.8 24.3947 0.8 16C0.8 7.60527 7.60527 0.8 16 0.8C24.3947 0.8 31.2 7.60527 31.2 16Z" stroke="url(#paint3_radial_292_35)" stroke-width="1.6"/>
<path d="M31.2 16C31.2 24.3947 24.3947 31.2 16 31.2C7.60527 31.2 0.8 24.3947 0.8 16C0.8 7.60527 7.60527 0.8 16 0.8C24.3947 0.8 31.2 7.60527 31.2 16Z" stroke="url(#paint4_linear_292_35)" stroke-width="1.6"/>
<path d="M22.3112 21.3305C22.3112 21.9553 22.0784 22.5031 21.7047 22.9232C21.7003 22.9281 21.6973 22.9342 21.6959 22.9407C21.6903 22.9675 21.7143 22.9912 21.741 22.9846C22.8186 22.7191 23.6899 21.7986 23.6899 20.5898V14.3233C23.6899 12.4709 22.6552 10.7592 20.9756 9.83306L14.1938 6.09326L12.8503 6.85336L19.597 10.5738C21.2766 11.5 22.3112 13.2117 22.3112 15.0641V21.3305Z" fill="url(#paint5_linear_292_35)"/>
<path d="M22.3112 21.3305C22.3112 21.9553 22.0784 22.5031 21.7047 22.9232C21.7003 22.9281 21.6973 22.9342 21.6959 22.9407C21.6903 22.9675 21.7143 22.9912 21.741 22.9846C22.8186 22.7191 23.6899 21.7986 23.6899 20.5898V14.3233C23.6899 12.4709 22.6552 10.7592 20.9756 9.83306L14.1938 6.09326L12.8503 6.85336L19.597 10.5738C21.2766 11.5 22.3112 13.2117 22.3112 15.0641V21.3305Z" fill="url(#paint6_linear_292_35)"/>
<path d="M22.3112 21.3305C22.3112 21.9553 22.0784 22.5031 21.7047 22.9232C21.7003 22.9281 21.6973 22.9342 21.6959 22.9407C21.6903 22.9675 21.7143 22.9912 21.741 22.9846C22.8186 22.7191 23.6899 21.7986 23.6899 20.5898V14.3233C23.6899 12.4709 22.6552 10.7592 20.9756 9.83306L14.1938 6.09326L12.8503 6.85336L19.597 10.5738C21.2766 11.5 22.3112 13.2117 22.3112 15.0641V21.3305Z" fill="url(#paint7_radial_292_35)"/>
<path d="M22.3112 21.3305C22.3112 21.9553 22.0784 22.5031 21.7047 22.9232C21.7003 22.9281 21.6973 22.9342 21.6959 22.9407C21.6903 22.9675 21.7143 22.9912 21.741 22.9846C22.8186 22.7191 23.6899 21.7986 23.6899 20.5898V14.3233C23.6899 12.4709 22.6552 10.7592 20.9756 9.83306L14.1938 6.09326L12.8503 6.85336L19.597 10.5738C21.2766 11.5 22.3112 13.2117 22.3112 15.0641V21.3305Z" fill="url(#paint8_radial_292_35)"/>
<path d="M22.3112 21.3305C22.3112 21.9553 22.0784 22.5031 21.7047 22.9232C21.7003 22.9281 21.6973 22.9342 21.6959 22.9407C21.6903 22.9675 21.7143 22.9912 21.741 22.9846C22.8186 22.7191 23.6899 21.7986 23.6899 20.5898V14.3233C23.6899 12.4709 22.6552 10.7592 20.9756 9.83306L14.1938 6.09326L12.8503 6.85336L19.597 10.5738C21.2766 11.5 22.3112 13.2117 22.3112 15.0641V21.3305Z" fill="url(#paint9_linear_292_35)"/>
<path d="M20.4155 22.4004V16.134C20.4155 14.2816 19.3808 12.5699 17.7012 11.6437L10.9546 7.92329L12.298 7.16314L19.0799 10.903C20.7595 11.8292 21.7941 13.5409 21.7941 15.3933V21.6597C21.7941 22.8685 20.9228 23.789 19.8452 24.0545C19.8186 24.0611 19.7945 24.0374 19.8002 24.0106C19.8015 24.0041 19.8046 23.9981 19.809 23.9931C20.1827 23.573 20.4155 23.0252 20.4155 22.4004Z" fill="url(#paint10_linear_292_35)"/>
<path d="M20.4155 22.4004V16.134C20.4155 14.2816 19.3808 12.5699 17.7012 11.6437L10.9546 7.92329L12.298 7.16314L19.0799 10.903C20.7595 11.8292 21.7941 13.5409 21.7941 15.3933V21.6597C21.7941 22.8685 20.9228 23.789 19.8452 24.0545C19.8186 24.0611 19.7945 24.0374 19.8002 24.0106C19.8015 24.0041 19.8046 23.9981 19.809 23.9931C20.1827 23.573 20.4155 23.0252 20.4155 22.4004Z" fill="url(#paint11_linear_292_35)"/>
<path d="M20.4155 22.4004V16.134C20.4155 14.2816 19.3808 12.5699 17.7012 11.6437L10.9546 7.92329L12.298 7.16314L19.0799 10.903C20.7595 11.8292 21.7941 13.5409 21.7941 15.3933V21.6597C21.7941 22.8685 20.9228 23.789 19.8452 24.0545C19.8186 24.0611 19.7945 24.0374 19.8002 24.0106C19.8015 24.0041 19.8046 23.9981 19.809 23.9931C20.1827 23.573 20.4155 23.0252 20.4155 22.4004Z" fill="url(#paint12_radial_292_35)"/>
<path d="M20.4155 22.4004V16.134C20.4155 14.2816 19.3808 12.5699 17.7012 11.6437L10.9546 7.92329L12.298 7.16314L19.0799 10.903C20.7595 11.8292 21.7941 13.5409 21.7941 15.3933V21.6597C21.7941 22.8685 20.9228 23.789 19.8452 24.0545C19.8186 24.0611 19.7945 24.0374 19.8002 24.0106C19.8015 24.0041 19.8046 23.9981 19.809 23.9931C20.1827 23.573 20.4155 23.0252 20.4155 22.4004Z" fill="url(#paint13_radial_292_35)"/>
<path d="M20.4155 22.4004V16.134C20.4155 14.2816 19.3808 12.5699 17.7012 11.6437L10.9546 7.92329L12.298 7.16314L19.0799 10.903C20.7595 11.8292 21.7941 13.5409 21.7941 15.3933V21.6597C21.7941 22.8685 20.9228 23.789 19.8452 24.0545C19.8186 24.0611 19.7945 24.0374 19.8002 24.0106C19.8015 24.0041 19.8046 23.9981 19.809 23.9931C20.1827 23.573 20.4155 23.0252 20.4155 22.4004Z" fill="url(#paint14_linear_292_35)"/>
<path fill-rule="evenodd" clip-rule="evenodd" d="M8.97266 9.04428L10.3336 8.27424L17.1154 12.014C18.795 12.9402 19.8297 14.6519 19.8297 16.5043V22.8017C19.8066 24.6843 17.6662 25.8542 15.9521 24.909L9.8056 21.5195L8.97266 21.072V9.04428ZM18.451 17.2646V20.9025L13.8841 18.3841V11.7527L15.7368 12.7743C17.4163 13.7005 18.451 15.4122 18.451 17.2646ZM12.1608 10.8023L12.8501 11.1825V18.9539L12.9225 18.9927L18.451 22.0414V22.7452L12.1697 19.2814L12.1608 19.2864V10.8023ZM11.0407 10.1846V19.8842L11.073 19.9019L11.0407 19.9202L18.4426 24.002C18.3807 24.3275 17.9918 24.5133 17.6755 24.3388L10.3513 20.2999V9.80449L11.0407 10.1846Z" fill="url(#paint15_linear_292_35)"/>
<path fill-rule="evenodd" clip-rule="evenodd" d="M8.97266 9.04428L10.3336 8.27424L17.1154 12.014C18.795 12.9402 19.8297 14.6519 19.8297 16.5043V22.8017C19.8066 24.6843 17.6662 25.8542 15.9521 24.909L9.8056 21.5195L8.97266 21.072V9.04428ZM18.451 17.2646V20.9025L13.8841 18.3841V11.7527L15.7368 12.7743C17.4163 13.7005 18.451 15.4122 18.451 17.2646ZM12.1608 10.8023L12.8501 11.1825V18.9539L12.9225 18.9927L18.451 22.0414V22.7452L12.1697 19.2814L12.1608 19.2864V10.8023ZM11.0407 10.1846V19.8842L11.073 19.9019L11.0407 19.9202L18.4426 24.002C18.3807 24.3275 17.9918 24.5133 17.6755 24.3388L10.3513 20.2999V9.80449L11.0407 10.1846Z" fill="url(#paint16_linear_292_35)"/>
<path fill-rule="evenodd" clip-rule="evenodd" d="M8.97266 9.04428L10.3336 8.27424L17.1154 12.014C18.795 12.9402 19.8297 14.6519 19.8297 16.5043V22.8017C19.8066 24.6843 17.6662 25.8542 15.9521 24.909L9.8056 21.5195L8.97266 21.072V9.04428ZM18.451 17.2646V20.9025L13.8841 18.3841V11.7527L15.7368 12.7743C17.4163 13.7005 18.451 15.4122 18.451 17.2646ZM12.1608 10.8023L12.8501 11.1825V18.9539L12.9225 18.9927L18.451 22.0414V22.7452L12.1697 19.2814L12.1608 19.2864V10.8023ZM11.0407 10.1846V19.8842L11.073 19.9019L11.0407 19.9202L18.4426 24.002C18.3807 24.3275 17.9918 24.5133 17.6755 24.3388L10.3513 20.2999V9.80449L11.0407 10.1846Z" fill="url(#paint17_radial_292_35)"/>
<path fill-rule="evenodd" clip-rule="evenodd" d="M8.97266 9.04428L10.3336 8.27424L17.1154 12.014C18.795 12.9402 19.8297 14.6519 19.8297 16.5043V22.8017C19.8066 24.6843 17.6662 25.8542 15.9521 24.909L9.8056 21.5195L8.97266 21.072V9.04428ZM18.451 17.2646V20.9025L13.8841 18.3841V11.7527L15.7368 12.7743C17.4163 13.7005 18.451 15.4122 18.451 17.2646ZM12.1608 10.8023L12.8501 11.1825V18.9539L12.9225 18.9927L18.451 22.0414V22.7452L12.1697 19.2814L12.1608 19.2864V10.8023ZM11.0407 10.1846V19.8842L11.073 19.9019L11.0407 19.9202L18.4426 24.002C18.3807 24.3275 17.9918 24.5133 17.6755 24.3388L10.3513 20.2999V9.80449L11.0407 10.1846Z" fill="url(#paint18_radial_292_35)"/>
<path fill-rule="evenodd" clip-rule="evenodd" d="M8.97266 9.04428L10.3336 8.27424L17.1154 12.014C18.795 12.9402 19.8297 14.6519 19.8297 16.5043V22.8017C19.8066 24.6843 17.6662 25.8542 15.9521 24.909L9.8056 21.5195L8.97266 21.072V9.04428ZM18.451 17.2646V20.9025L13.8841 18.3841V11.7527L15.7368 12.7743C17.4163 13.7005 18.451 15.4122 18.451 17.2646ZM12.1608 10.8023L12.8501 11.1825V18.9539L12.9225 18.9927L18.451 22.0414V22.7452L12.1697 19.2814L12.1608 19.2864V10.8023ZM11.0407 10.1846V19.8842L11.073 19.9019L11.0407 19.9202L18.4426 24.002C18.3807 24.3275 17.9918 24.5133 17.6755 24.3388L10.3513 20.2999V9.80449L11.0407 10.1846Z" fill="url(#paint19_linear_292_35)"/>
</g>
<defs>
<linearGradient id="paint0_linear_292_35" x1="-1.13248" y1="16" x2="32.0281" y2="12.1425" gradientUnits="userSpaceOnUse">
<stop stop-color="#FF3873"/>
<stop offset="0.473958" stop-color="#711EFF"/>
<stop offset="1" stop-color="#3FE5FF"/>
</linearGradient>
<linearGradient id="paint1_linear_292_35" x1="1.47497" y1="0.945796" x2="19.5124" y2="20.8851" gradientUnits="userSpaceOnUse">
<stop stop-color="#F6F063"/>
<stop offset="1" stop-color="#E07774" stop-opacity="0"/>
</linearGradient>
<radialGradient id="paint2_radial_292_35" cx="0" cy="0" r="1" gradientUnits="userSpaceOnUse" gradientTransform="translate(0.293952 11.0765) rotate(59.4295) scale(7.85597 7.84332)">
<stop offset="0.925861" stop-color="white" stop-opacity="0.2"/>
<stop offset="1" stop-color="white" stop-opacity="0"/>
</radialGradient>
<radialGradient id="paint3_radial_292_35" cx="0" cy="0" r="1" gradientUnits="userSpaceOnUse" gradientTransform="translate(5.11005 8.00127) rotate(51.9823) scale(5.13004 7.70111)">
<stop offset="0.0864251" stop-color="white" stop-opacity="0.1"/>
<stop offset="0.94115" stop-color="white" stop-opacity="0"/>
</radialGradient>
<linearGradient id="paint4_linear_292_35" x1="3.21583" y1="8.63011" x2="19.2593" y2="16" gradientUnits="userSpaceOnUse">
<stop stop-color="white" stop-opacity="0.2"/>
<stop offset="1" stop-opacity="0"/>
</linearGradient>
<linearGradient id="paint5_linear_292_35" x1="8.72781" y1="15.6684" x2="23.5257" y2="14.3454" gradientUnits="userSpaceOnUse">
<stop stop-color="#FF3873"/>
<stop offset="0.473958" stop-color="#711EFF"/>
<stop offset="1" stop-color="#3FE5FF"/>
</linearGradient>
<linearGradient id="paint6_linear_292_35" x1="9.88501" y1="6.97456" x2="20.2163" y2="15.7514" gradientUnits="userSpaceOnUse">
<stop stop-color="#F6F063"/>
<stop offset="1" stop-color="#E07774" stop-opacity="0"/>
</linearGradient>
<radialGradient id="paint7_radial_292_35" cx="0" cy="0" r="1" gradientUnits="userSpaceOnUse" gradientTransform="translate(9.36085 12.825) rotate(65.584) scale(4.28988 3.68134)">
<stop offset="0.925861" stop-color="white" stop-opacity="0.2"/>
<stop offset="1" stop-color="white" stop-opacity="0"/>
</radialGradient>
<radialGradient id="paint8_radial_292_35" cx="0" cy="0" r="1" gradientUnits="userSpaceOnUse" gradientTransform="translate(11.4983 11.0491) rotate(59.0024) scale(2.72285 3.71878)">
<stop offset="0.0864251" stop-color="white" stop-opacity="0.1"/>
<stop offset="0.94115" stop-color="white" stop-opacity="0"/>
</radialGradient>
<linearGradient id="paint9_linear_292_35" x1="10.6576" y1="11.4123" x2="18.3248" y2="14.119" gradientUnits="userSpaceOnUse">
<stop stop-color="white" stop-opacity="0.2"/>
<stop offset="1" stop-opacity="0"/>
</linearGradient>
<linearGradient id="paint10_linear_292_35" x1="8.72774" y1="15.6684" x2="23.5257" y2="14.3455" gradientUnits="userSpaceOnUse">
<stop stop-color="#FF3873"/>
<stop offset="0.473958" stop-color="#711EFF"/>
<stop offset="1" stop-color="#3FE5FF"/>
</linearGradient>
<linearGradient id="paint11_linear_292_35" x1="9.88494" y1="6.97456" x2="20.2162" y2="15.7514" gradientUnits="userSpaceOnUse">
<stop stop-color="#F6F063"/>
<stop offset="1" stop-color="#E07774" stop-opacity="0"/>
</linearGradient>
<radialGradient id="paint12_radial_292_35" cx="0" cy="0" r="1" gradientUnits="userSpaceOnUse" gradientTransform="translate(9.36078 12.825) rotate(65.584) scale(4.28988 3.68134)">
<stop offset="0.925861" stop-color="white" stop-opacity="0.2"/>
<stop offset="1" stop-color="white" stop-opacity="0"/>
</radialGradient>
<radialGradient id="paint13_radial_292_35" cx="0" cy="0" r="1" gradientUnits="userSpaceOnUse" gradientTransform="translate(11.4982 11.0491) rotate(59.0024) scale(2.72285 3.71878)">
<stop offset="0.0864251" stop-color="white" stop-opacity="0.1"/>
<stop offset="0.94115" stop-color="white" stop-opacity="0"/>
</radialGradient>
<linearGradient id="paint14_linear_292_35" x1="10.6575" y1="11.4123" x2="18.3248" y2="14.119" gradientUnits="userSpaceOnUse">
<stop stop-color="white" stop-opacity="0.2"/>
<stop offset="1" stop-opacity="0"/>
</linearGradient>
<linearGradient id="paint15_linear_292_35" x1="8.7276" y1="15.6684" x2="23.5255" y2="14.3455" gradientUnits="userSpaceOnUse">
<stop stop-color="#FF3873"/>
<stop offset="0.473958" stop-color="#711EFF"/>
<stop offset="1" stop-color="#3FE5FF"/>
</linearGradient>
<linearGradient id="paint16_linear_292_35" x1="9.88479" y1="6.97456" x2="20.2161" y2="15.7514" gradientUnits="userSpaceOnUse">
<stop stop-color="#F6F063"/>
<stop offset="1" stop-color="#E07774" stop-opacity="0"/>
</linearGradient>
<radialGradient id="paint17_radial_292_35" cx="0" cy="0" r="1" gradientUnits="userSpaceOnUse" gradientTransform="translate(9.36064 12.825) rotate(65.584) scale(4.28988 3.68134)">
<stop offset="0.925861" stop-color="white" stop-opacity="0.2"/>
<stop offset="1" stop-color="white" stop-opacity="0"/>
</radialGradient>
<radialGradient id="paint18_radial_292_35" cx="0" cy="0" r="1" gradientUnits="userSpaceOnUse" gradientTransform="translate(11.4981 11.0491) rotate(59.0024) scale(2.72285 3.71878)">
<stop offset="0.0864251" stop-color="white" stop-opacity="0.1"/>
<stop offset="0.94115" stop-color="white" stop-opacity="0"/>
</radialGradient>
<linearGradient id="paint19_linear_292_35" x1="10.6574" y1="11.4123" x2="18.3246" y2="14.119" gradientUnits="userSpaceOnUse">
<stop stop-color="white" stop-opacity="0.2"/>
<stop offset="1" stop-opacity="0"/>
</linearGradient>
<clipPath id="clip0_292_35">
<rect width="32" height="32" fill="white"/>
</clipPath>
</defs>
</svg>
