<svg width="32" height="32" viewBox="0 0 32 32" fill="none" xmlns="http://www.w3.org/2000/svg">
<g clip-path="url(#clip0_1_196)">
<path d="M16 32C24.8366 32 32 24.8366 32 16C32 7.16344 24.8366 0 16 0C7.16344 0 0 7.16344 0 16C0 24.8366 7.16344 32 16 32Z" fill="#343434"/>
<path d="M21.8901 13.5778C21.832 13.5971 21.773 13.6151 21.7142 13.6315C21.773 13.6151 21.832 13.5979 21.8901 13.5778Z" fill="url(#paint0_linear_1_196)"/>
<path d="M22.8803 13.0563C22.6007 13.2665 22.295 13.4291 21.9758 13.5469C22.2957 13.4299 22.6007 13.2665 22.8803 13.0563Z" fill="url(#paint1_linear_1_196)"/>
<path d="M22.8973 13.0459C22.8973 13.0451 22.8973 13.0451 22.8973 13.0459C22.8916 13.0491 22.8859 13.0532 22.8802 13.0573C22.8859 13.0532 22.8916 13.05 22.8973 13.0459Z" fill="url(#paint2_linear_1_196)"/>
<path d="M5 15.972V16.0101C5 19.1918 6.35556 22.1515 8.69237 24.2247C8.09959 23.6191 7.74393 22.8071 7.70441 21.9474C7.70217 21.893 7.70068 21.8379 7.70068 21.7835C7.70068 21.6948 7.70739 21.6062 7.7141 21.5183C7.20409 20.374 6.93044 19.1188 6.93044 17.8181V17.7868C6.94684 12.8172 11.0068 8.7452 15.9809 8.71093C18.1246 8.69603 20.2124 9.4395 21.8595 10.805C22.4799 11.319 22.8572 12.0789 22.8945 12.8894C22.8967 12.9349 22.8974 12.9803 22.8974 13.025C22.8974 13.0317 22.8967 13.0377 22.8967 13.0443C23.0219 12.949 23.1442 12.8484 23.2576 12.7345C23.863 12.1303 24.2247 11.3265 24.288 10.4817C24.2873 10.4921 24.285 10.5018 24.2843 10.5115C24.2865 10.4862 24.288 10.4616 24.2903 10.4363C24.2947 10.3633 24.3015 10.2902 24.3015 10.2172V10.2165C24.3015 10.1621 24.3 10.107 24.2977 10.0526V10.0489C24.2925 9.93267 24.2806 9.8172 24.2634 9.70248C24.2559 9.65033 24.2433 9.60042 24.2336 9.54901C24.2217 9.48718 24.2112 9.42535 24.1956 9.36501C24.1784 9.29722 24.1568 9.23092 24.1352 9.16387C24.1225 9.12289 24.1106 9.08118 24.0964 9.04095C24.0688 8.96347 24.0367 8.88749 24.0032 8.8115C23.992 8.78543 23.9808 8.75861 23.9689 8.73254C23.9294 8.64835 23.8862 8.56641 23.8399 8.48596C23.8317 8.47105 23.8235 8.45541 23.8145 8.44051C23.7631 8.3541 23.7079 8.26917 23.649 8.18722C23.6438 8.18052 23.6393 8.17307 23.6341 8.16637C23.5715 8.07995 23.5044 7.99652 23.4335 7.91531C23.432 7.91308 23.4298 7.91159 23.4283 7.90935C23.3552 7.82666 23.2777 7.74695 23.1964 7.67022C23.1465 7.62403 23.0987 7.57561 23.0465 7.53166C21.0557 5.88083 18.5325 4.98166 15.9407 5.00028C9.92714 5.04349 5.02013 9.9647 5 15.972Z" fill="url(#paint3_linear_1_196)"/>
<path d="M21.5896 13.6642C21.5374 13.6768 21.4844 13.6888 21.4315 13.6992C21.4844 13.6895 21.5366 13.6768 21.5896 13.6642Z" fill="url(#paint4_linear_1_196)"/>
<path d="M21.4314 13.6999C21.3777 13.7103 21.3241 13.7186 21.2697 13.7268C21.3233 13.7186 21.3777 13.7103 21.4314 13.6999Z" fill="url(#paint5_linear_1_196)"/>
<path d="M8.03995 20.2765C7.89679 19.7244 7.81998 19.1501 7.81998 18.5653V18.5109C7.84907 14.8382 10.8629 11.8122 14.5381 11.7653C16.0398 11.7459 17.4692 12.2063 18.6712 13.0965C19.9261 14.0255 21.6642 13.98 22.8952 13.0451C22.8952 13.0384 22.8959 13.0317 22.8959 13.025C22.8959 12.9803 22.8952 12.9349 22.8929 12.8894C22.8549 12.0789 22.4776 11.319 21.858 10.805C20.2109 9.4395 18.1231 8.69603 15.9795 8.71093C11.0053 8.74595 6.94536 12.8172 6.92896 17.7868V17.8181C6.92896 19.1188 7.20335 20.374 7.71261 21.5183C7.74542 21.0862 7.85802 20.6661 8.03995 20.2765Z" fill="url(#paint6_linear_1_196)"/>
<path d="M24.2972 10.0534C24.2994 10.1077 24.3008 10.1629 24.3008 10.2172C24.3008 10.3163 24.2927 10.4147 24.2837 10.513C24.2845 10.5026 24.2867 10.4929 24.2874 10.4832C24.7974 11.6275 25.0711 12.8827 25.0711 14.1834V14.2147C25.0547 19.1844 20.9947 23.2563 16.0206 23.2905C13.8769 23.3055 11.7891 22.562 10.142 21.1965C9.52167 20.6824 9.14438 19.9226 9.10709 19.1121C9.10485 19.0667 9.10411 19.0212 9.10411 18.9765C9.10411 18.9698 9.10485 18.9631 9.10485 18.9564C9.70733 18.499 10.4313 18.2561 11.1598 18.2345C10.2777 18.2591 9.40386 18.607 8.74323 19.267C8.07514 19.9345 7.69934 20.8441 7.69934 21.785C7.69934 21.8394 7.70083 21.8945 7.70307 21.9489C7.74855 22.9285 8.20488 23.8471 8.95424 24.4683C10.9451 26.1192 13.4683 27.0184 16.0601 26.9997C22.0721 26.958 26.9799 22.0368 27 16.0294V15.9914C27 12.7568 25.6027 9.74941 23.1943 7.67246C23.8535 8.28706 24.2546 9.14227 24.2972 10.0534Z" fill="url(#paint7_linear_1_196)"/>
<path d="M23.9609 11.7243C24.104 12.2763 24.1808 12.8507 24.1808 13.4355V13.4898C24.1517 17.1625 21.1379 20.1885 17.4626 20.2355C15.9609 20.2549 14.5316 19.7944 13.3296 18.9042C12.0747 17.9752 10.3366 18.0207 9.1056 18.9556C9.1056 18.9624 9.10486 18.969 9.10486 18.9757C9.10486 19.0205 9.1056 19.0659 9.10784 19.1113C9.14587 19.9218 9.52316 20.6817 10.1428 21.1957C11.7899 22.5612 13.8776 23.3047 16.0214 23.2898C20.9954 23.2548 25.0555 19.1836 25.0719 14.214V14.1827C25.0719 12.8819 24.7975 11.6267 24.2882 10.4825C24.2554 10.9145 24.1428 11.3347 23.9609 11.7243Z" fill="url(#paint8_linear_1_196)"/>
</g>
<defs>
<linearGradient id="paint0_linear_1_196" x1="21.7244" y1="13.6496" x2="21.8798" y2="13.5599" gradientUnits="userSpaceOnUse">
<stop stop-color="#FF4E17"/>
<stop offset="0.7525" stop-color="#F4BA4D"/>
</linearGradient>
<linearGradient id="paint1_linear_1_196" x1="21.9891" y1="13.5698" x2="22.88" y2="13.0554" gradientUnits="userSpaceOnUse">
<stop stop-color="#FF4E17"/>
<stop offset="0.7525" stop-color="#F4BA4D"/>
</linearGradient>
<linearGradient id="paint2_linear_1_196" x1="22.8799" y1="13.0562" x2="22.8978" y2="13.0458" gradientUnits="userSpaceOnUse">
<stop stop-color="#FF4E17"/>
<stop offset="0.7525" stop-color="#F4BA4D"/>
</linearGradient>
<linearGradient id="paint3_linear_1_196" x1="4.58644" y1="18.2478" x2="23.2481" y2="7.46389" gradientUnits="userSpaceOnUse">
<stop stop-color="#33B38F"/>
<stop offset="0.7673" stop-color="#9EF8CB"/>
</linearGradient>
<linearGradient id="paint4_linear_1_196" x1="21.4434" y1="13.7206" x2="21.5771" y2="13.6434" gradientUnits="userSpaceOnUse">
<stop stop-color="#FF4E17"/>
<stop offset="0.7525" stop-color="#F4BA4D"/>
</linearGradient>
<linearGradient id="paint5_linear_1_196" x1="21.2839" y1="13.7515" x2="21.4169" y2="13.6748" gradientUnits="userSpaceOnUse">
<stop stop-color="#FF4E17"/>
<stop offset="0.7525" stop-color="#F4BA4D"/>
</linearGradient>
<linearGradient id="paint6_linear_1_196" x1="6.92936" y1="15.1144" x2="22.8969" y2="15.1144" gradientUnits="userSpaceOnUse">
<stop stop-color="#33B38F"/>
<stop offset="1" stop-color="#9EF8CB"/>
</linearGradient>
<linearGradient id="paint7_linear_1_196" x1="25.4671" y1="21.577" x2="11.8241" y2="13.6932" gradientUnits="userSpaceOnUse">
<stop stop-color="#FF4E17"/>
<stop offset="0.7673" stop-color="#F4BA4D"/>
</linearGradient>
<linearGradient id="paint8_linear_1_196" x1="23.4083" y1="19.4859" x2="12.4557" y2="13.1568" gradientUnits="userSpaceOnUse">
<stop stop-color="#FF4E17"/>
<stop offset="1" stop-color="#F4BA4D"/>
</linearGradient>
<clipPath id="clip0_1_196">
<rect width="32" height="32" fill="white"/>
</clipPath>
</defs>
</svg>
