<svg width="32" height="32" viewBox="0 0 32 32" fill="none" xmlns="http://www.w3.org/2000/svg">
<path d="M22.4255 13.3576C22.3621 13.3787 22.2978 13.3983 22.2336 13.4161C22.2978 13.3983 22.3621 13.3795 22.4255 13.3576Z" fill="url(#paint0_linear_8_332)"/>
<path d="M23.5057 12.7887C23.2007 13.018 22.8672 13.1954 22.519 13.3239C22.868 13.1962 23.2007 13.018 23.5057 12.7887Z" fill="url(#paint1_linear_8_332)"/>
<path d="M23.5228 12.7773C23.5228 12.7765 23.5228 12.7765 23.5228 12.7773C23.5171 12.7805 23.5114 12.7846 23.5057 12.7887C23.5114 12.7846 23.5171 12.7814 23.5228 12.7773Z" fill="url(#paint2_linear_8_332)"/>
<path d="M4 15.9695V16.011C4 19.482 5.47879 22.7107 8.02804 24.9724C7.38137 24.3117 6.99338 23.4259 6.95027 22.488C6.94782 22.4287 6.9462 22.3686 6.9462 22.3092C6.9462 22.2125 6.95352 22.1158 6.96084 22.02C6.40446 20.7717 6.10593 19.4023 6.10593 17.9834V17.9492C6.12383 12.5278 10.5529 8.08567 15.9792 8.04829C18.3178 8.03204 20.5953 8.8431 22.3922 10.3328C23.0689 10.8935 23.4805 11.7224 23.5212 12.6067C23.5236 12.6562 23.5245 12.7058 23.5245 12.7545C23.5245 12.7619 23.5236 12.7684 23.5236 12.7757C23.6603 12.6717 23.7937 12.5619 23.9174 12.4376C24.5779 11.7785 24.9724 10.9016 25.0415 9.98004C25.0407 9.99141 25.0382 10.002 25.0374 10.0125C25.0398 9.98492 25.0415 9.9581 25.0439 9.93047C25.0488 9.85082 25.0561 9.77118 25.0561 9.69154V9.69073C25.0561 9.6314 25.0545 9.57126 25.0521 9.51193V9.50787C25.0463 9.38109 25.0333 9.25512 25.0146 9.12998C25.0065 9.07308 24.9927 9.01864 24.9821 8.96256C24.9691 8.8951 24.9577 8.82765 24.9406 8.76183C24.9219 8.68787 24.8983 8.61554 24.8747 8.5424C24.8609 8.4977 24.8479 8.4522 24.8324 8.40831C24.8023 8.32379 24.7673 8.2409 24.7307 8.158C24.7185 8.12956 24.7064 8.1003 24.6934 8.07186C24.6502 7.98002 24.6031 7.89063 24.5526 7.80286C24.5437 7.78661 24.5347 7.76954 24.5249 7.75329C24.4688 7.65902 24.4087 7.56637 24.3444 7.47697C24.3387 7.46966 24.3338 7.46153 24.3281 7.45422C24.2598 7.35995 24.1866 7.26893 24.1093 7.18034C24.1077 7.17791 24.1052 7.17628 24.1036 7.17384C24.0239 7.08363 23.9393 6.99668 23.8507 6.91297C23.7961 6.86258 23.7441 6.80976 23.6871 6.76181C21.5153 4.9609 18.7627 3.97999 15.9353 4.00031C9.37506 4.04745 4.02196 9.41604 4 15.9695Z" fill="url(#paint3_linear_8_332)"/>
<path d="M22.0977 13.4519C22.0408 13.4656 21.983 13.4787 21.9253 13.4901C21.983 13.4795 22.04 13.4656 22.0977 13.4519Z" fill="url(#paint4_linear_8_332)"/>
<path d="M21.9251 13.4908C21.8666 13.5022 21.808 13.5112 21.7487 13.5201C21.8072 13.5112 21.8666 13.5022 21.9251 13.4908Z" fill="url(#paint5_linear_8_332)"/>
<path d="M7.31637 20.6652C7.16019 20.063 7.0764 19.4364 7.0764 18.7985V18.7392C7.10813 14.7326 10.396 11.4315 14.4053 11.3803C16.0435 11.3591 17.6029 11.8614 18.9141 12.8325C20.2831 13.846 22.1791 13.7964 23.5221 12.7765C23.5221 12.7692 23.5229 12.7619 23.5229 12.7545C23.5229 12.7058 23.5221 12.6562 23.5196 12.6067C23.4782 11.7224 23.0666 10.8935 22.3906 10.3328C20.5938 8.84309 18.3162 8.03204 15.9776 8.04829C10.5513 8.08649 6.12227 12.5278 6.10437 17.9492V17.9834C6.10437 19.4023 6.40371 20.7717 6.95927 22.02C6.99506 21.5486 7.11789 21.0902 7.31637 20.6652Z" fill="url(#paint6_linear_8_332)"/>
<path d="M25.0514 9.51275C25.0538 9.57208 25.0554 9.63222 25.0554 9.69154C25.0554 9.79963 25.0465 9.90691 25.0367 10.0142C25.0376 10.0028 25.04 9.99226 25.0408 9.98167C25.5972 11.23 25.8957 12.5993 25.8957 14.0183V14.0524C25.8778 19.4738 21.4487 23.916 16.0225 23.9533C13.6839 23.9696 11.4063 23.1585 9.60945 21.6689C8.93269 21.1081 8.52111 20.2792 8.48043 19.395C8.47799 19.3454 8.47718 19.2958 8.47718 19.2471C8.47718 19.2398 8.47799 19.2324 8.47799 19.2252C9.13524 18.7261 9.92506 18.4612 10.7198 18.4376C9.7575 18.4645 8.80417 18.844 8.08349 19.564C7.35466 20.2922 6.9447 21.2845 6.9447 22.3109C6.9447 22.3702 6.94633 22.4304 6.94876 22.4897C6.99839 23.5584 7.4962 24.5604 8.31368 25.2382C10.4855 27.0391 13.2381 28.02 16.0656 27.9997C22.6241 27.9542 27.978 22.5856 28 16.0321V15.9907C28 12.462 26.4757 9.18118 23.8483 6.91541C24.5674 7.58588 25.005 8.51884 25.0514 9.51275Z" fill="url(#paint7_linear_8_332)"/>
<path d="M24.6846 11.3356C24.8407 11.9378 24.9245 12.5644 24.9245 13.2023V13.2616C24.8928 17.2682 21.6049 20.5693 17.5956 20.6205C15.9574 20.6417 14.3981 20.1394 13.0869 19.1683C11.7179 18.1548 9.82179 18.2044 8.47884 19.2243C8.47884 19.2317 8.47803 19.2389 8.47803 19.2463C8.47803 19.295 8.47884 19.3446 8.48128 19.3942C8.52277 20.2784 8.93436 21.1073 9.6103 21.6681C11.4072 23.1577 13.6847 23.9688 16.0233 23.9525C21.4496 23.9144 25.8787 19.473 25.8966 14.0516V14.0175C25.8966 12.5985 25.5972 11.2291 25.0416 9.98086C25.0059 10.4522 24.883 10.9106 24.6846 11.3356Z" fill="url(#paint8_linear_8_332)"/>
<defs>
<linearGradient id="paint0_linear_8_332" x1="22.2448" y1="13.4359" x2="22.4142" y2="13.3381" gradientUnits="userSpaceOnUse">
<stop stop-color="#FF4E17"/>
<stop offset="0.7525" stop-color="#F4BA4D"/>
</linearGradient>
<linearGradient id="paint1_linear_8_332" x1="22.5335" y1="13.3489" x2="23.5054" y2="12.7877" gradientUnits="userSpaceOnUse">
<stop stop-color="#FF4E17"/>
<stop offset="0.7525" stop-color="#F4BA4D"/>
</linearGradient>
<linearGradient id="paint2_linear_8_332" x1="23.5054" y1="12.7876" x2="23.5233" y2="12.7772" gradientUnits="userSpaceOnUse">
<stop stop-color="#FF4E17"/>
<stop offset="0.7525" stop-color="#F4BA4D"/>
</linearGradient>
<linearGradient id="paint3_linear_8_332" x1="3.54885" y1="18.4522" x2="23.907" y2="6.68788" gradientUnits="userSpaceOnUse">
<stop stop-color="#33B38F"/>
<stop offset="0.7673" stop-color="#9EF8CB"/>
</linearGradient>
<linearGradient id="paint4_linear_8_332" x1="21.9382" y1="13.5134" x2="22.0841" y2="13.4292" gradientUnits="userSpaceOnUse">
<stop stop-color="#FF4E17"/>
<stop offset="0.7525" stop-color="#F4BA4D"/>
</linearGradient>
<linearGradient id="paint5_linear_8_332" x1="21.7642" y1="13.5471" x2="21.9093" y2="13.4634" gradientUnits="userSpaceOnUse">
<stop stop-color="#FF4E17"/>
<stop offset="0.7525" stop-color="#F4BA4D"/>
</linearGradient>
<linearGradient id="paint6_linear_8_332" x1="6.10481" y1="15.0339" x2="23.5239" y2="15.0339" gradientUnits="userSpaceOnUse">
<stop stop-color="#33B38F"/>
<stop offset="1" stop-color="#9EF8CB"/>
</linearGradient>
<linearGradient id="paint7_linear_8_332" x1="26.3277" y1="22.084" x2="11.4445" y2="13.4835" gradientUnits="userSpaceOnUse">
<stop stop-color="#FF4E17"/>
<stop offset="0.7673" stop-color="#F4BA4D"/>
</linearGradient>
<linearGradient id="paint8_linear_8_332" x1="24.0818" y1="19.8029" x2="12.1334" y2="12.8983" gradientUnits="userSpaceOnUse">
<stop stop-color="#FF4E17"/>
<stop offset="1" stop-color="#F4BA4D"/>
</linearGradient>
</defs>
</svg>
