<svg width="32" height="32" viewBox="0 0 32 32" fill="none" xmlns="http://www.w3.org/2000/svg">
<g clip-path="url(#clip0_324_12)">
<mask id="mask0_324_12" style="mask-type:luminance" maskUnits="userSpaceOnUse" x="0" y="0" width="32" height="32">
<path d="M32 0H0V32H32V0Z" fill="white"/>
</mask>
<g mask="url(#mask0_324_12)">
<path d="M31 16C31 24.2843 24.2843 31 16 31C7.71573 31 1 24.2843 1 16C1 7.71573 7.71573 1 16 1C24.2843 1 31 7.71573 31 16Z" fill="url(#paint0_radial_324_12)" stroke="url(#paint1_linear_324_12)" stroke-width="2"/>
<path d="M6.15479 12.2139H6.18078C6.17324 12.2168 6.16359 12.2168 6.15479 12.2139Z" fill="#308D8A"/>
<path d="M9.24672 7.97222C9.37245 7.85152 9.53842 7.78111 9.70941 7.78111H25.6722C25.9639 7.78111 26.1097 8.13316 25.9035 8.33936L22.7502 11.4927C22.6295 11.6134 22.4635 11.6838 22.2875 11.6838H6.32474C6.03304 11.6838 5.8872 11.3317 6.09339 11.1255L9.24672 7.97222Z" fill="url(#paint2_linear_324_12)"/>
<path d="M9.24672 19.7457C9.36742 19.625 9.53339 19.5546 9.70941 19.5546H25.6722C25.9639 19.5546 26.1097 19.9066 25.9035 20.1128L22.7502 23.2662C22.6295 23.3869 22.4635 23.4573 22.2875 23.4573H6.32474C6.03304 23.4573 5.8872 23.1052 6.09339 22.899L9.24672 19.7457Z" fill="url(#paint3_linear_324_12)"/>
<path d="M22.2875 13.6303C22.4635 13.6303 22.6295 13.7007 22.7502 13.8215L25.9035 16.9748C26.1097 17.181 25.9639 17.533 25.6722 17.533H9.70941C9.53339 17.533 9.36742 17.4626 9.24672 17.3419L6.09339 14.1886C5.8872 13.9824 6.03304 13.6303 6.32474 13.6303H22.2875Z" fill="url(#paint4_linear_324_12)"/>
</g>
</g>
<defs>
<radialGradient id="paint0_radial_324_12" cx="0" cy="0" r="1" gradientUnits="userSpaceOnUse" gradientTransform="translate(16 16) rotate(90) scale(16)">
<stop stop-color="#FC7028"/>
<stop offset="1" stop-color="#160521"/>
</radialGradient>
<linearGradient id="paint1_linear_324_12" x1="0" y1="0" x2="33" y2="33" gradientUnits="userSpaceOnUse">
<stop stop-color="#FC7028"/>
<stop offset="1" stop-color="#53C8A1"/>
</linearGradient>
<linearGradient id="paint2_linear_324_12" x1="11.4739" y1="7.86276" x2="25.3618" y2="23.8266" gradientUnits="userSpaceOnUse">
<stop stop-color="#FC7028"/>
<stop offset="0.505" stop-color="#FFCB1B"/>
<stop offset="1" stop-color="#53C8A1"/>
</linearGradient>
<linearGradient id="paint3_linear_324_12" x1="11.4739" y1="7.86276" x2="25.3618" y2="23.8266" gradientUnits="userSpaceOnUse">
<stop stop-color="#FC7028"/>
<stop offset="0.505" stop-color="#FFCB1B"/>
<stop offset="1" stop-color="#53C8A1"/>
</linearGradient>
<linearGradient id="paint4_linear_324_12" x1="11.4739" y1="7.86276" x2="25.3618" y2="23.8266" gradientUnits="userSpaceOnUse">
<stop stop-color="#FC7028"/>
<stop offset="0.505" stop-color="#FFCB1B"/>
<stop offset="1" stop-color="#53C8A1"/>
</linearGradient>
<clipPath id="clip0_324_12">
<rect width="32" height="32" fill="white"/>
</clipPath>
</defs>
</svg>
