<svg width="32" height="32" viewBox="0 0 32 32" fill="none" xmlns="http://www.w3.org/2000/svg">
<g clip-path="url(#clip0_211_4)">
<path d="M16 32C24.8366 32 32 24.8366 32 16C32 7.16344 24.8366 0 16 0C7.16344 0 0 7.16344 0 16C0 24.8366 7.16344 32 16 32Z" fill="white"/>
<mask id="mask0_211_4" style="mask-type:alpha" maskUnits="userSpaceOnUse" x="0" y="0" width="32" height="32">
<path d="M16 32C24.8366 32 32 24.8366 32 16C32 7.16344 24.8366 0 16 0C7.16344 0 0 7.16344 0 16C0 24.8366 7.16344 32 16 32Z" fill="white"/>
</mask>
<g mask="url(#mask0_211_4)">
<path fill-rule="evenodd" clip-rule="evenodd" d="M19.8075 5.96319C19.5389 5.89587 19.2795 5.83436 19.0849 5.79561C18.1168 5.60278 16.9308 5.66292 16.1458 5.74038C15.5749 5.79671 15.0121 5.90663 14.456 6.04757C14.0202 6.15806 13.4953 6.30248 13.0912 6.44879C8.65735 8.05415 6 11.6097 6 16.1703C6 21.7832 10.5052 26.3334 16.0626 26.3334C20.6787 26.3334 24.6397 23.5256 25.7876 18.9044C25.8056 18.8323 25.8229 18.7543 25.8397 18.6735C25.999 17.9051 26.0915 17.0931 25.8634 16.3423C25.7944 16.1153 25.5865 15.9602 25.351 15.9602H16.7183C16.6991 15.9602 16.68 15.963 16.6616 15.9685C16.5551 16 16.4942 16.1126 16.5255 16.2199L16.9136 17.624C17.173 18.5625 18.0271 19.2124 19.0007 19.2124H20.8354C21.0016 19.2124 21.1045 19.3913 21.0122 19.5296C19.9207 21.1639 17.9817 22.1255 16.0675 22.1255C12.7331 22.1255 10.0163 19.5275 10.0163 16.1598C10.0163 12.792 12.7523 10.1409 16.0675 10.1409C16.1161 10.1409 16.1651 10.1413 16.214 10.142C16.936 10.1528 17.6302 10.3766 18.2921 10.665C18.4554 10.7361 18.6641 10.7995 18.8552 10.8498C19.2051 10.942 19.565 10.9898 19.9267 11.0011C20.0685 11.0055 20.2193 11.007 20.3538 11.0016C20.4993 10.9957 20.5719 10.8427 20.4999 10.7161L20.4368 10.605C20.2991 10.3629 20.3415 10.0667 20.4937 9.83349C20.5753 9.70858 20.6364 9.58281 20.6447 9.47757C20.6493 9.4184 20.6477 9.36285 20.6399 9.31093C20.6145 9.14336 20.4233 9.09904 20.2395 9.05641C20.1791 9.04241 20.1195 9.02859 20.0668 9.01064C20.039 9.00118 20.0096 8.98929 19.9785 8.97457C19.2627 8.63524 19.5845 7.35377 20.3681 7.47027C20.4226 7.47838 20.4765 7.49278 20.5292 7.51463L20.6499 7.56465C20.9693 7.69657 21.3031 7.82216 21.6433 7.7617C21.75 7.74273 21.8705 7.68605 22.0049 7.59168C22.0913 7.53103 22.0737 7.35938 22.0115 7.27414C21.4805 6.54661 20.6811 6.18216 19.8075 5.96319ZM23.854 9.62666L25.832 11.3206C26.0799 11.5329 25.8922 11.9367 25.5688 11.887L21.9993 11.3391C21.2373 11.2222 20.8001 10.413 21.1207 9.71324L21.1574 9.63325C21.2323 9.46976 21.2325 9.28215 21.1578 9.11899C21.066 8.91827 20.8691 8.78575 20.6477 8.77555L20.5269 8.76998C20.2535 8.7574 20.0613 8.4954 20.1268 8.23054C20.1923 7.96577 20.4991 7.83675 20.7313 7.98021L20.9005 8.08479C21.2173 8.2806 21.5995 8.3431 21.9633 8.25862C22.0731 8.23314 22.176 8.18428 22.2651 8.11539L22.2785 8.105C22.4761 7.95213 22.7533 7.95561 22.9461 8.11336L22.9977 8.1556C23.2769 8.38416 23.4738 8.69715 23.5586 9.04742L23.5977 9.20895C23.6371 9.37159 23.7267 9.51767 23.854 9.62666Z" fill="url(#paint0_linear_211_4)"/>
</g>
</g>
<defs>
<linearGradient id="paint0_linear_211_4" x1="26.0001" y1="26.3334" x2="1.62873" y2="15.5051" gradientUnits="userSpaceOnUse">
<stop stop-color="#5855FF"/>
<stop offset="1" stop-color="#E036FF"/>
</linearGradient>
<clipPath id="clip0_211_4">
<rect width="32" height="32" fill="white"/>
</clipPath>
</defs>
</svg>
