<svg width="32" height="32" viewBox="0 0 32 32" fill="none" xmlns="http://www.w3.org/2000/svg">
<g clip-path="url(#clip0_319_39)">
<path d="M16 32C24.8366 32 32 24.8366 32 16C32 7.16344 24.8366 0 16 0C7.16344 0 0 7.16344 0 16C0 24.8366 7.16344 32 16 32Z" fill="#9B3678"/>
<path fill-rule="evenodd" clip-rule="evenodd" d="M16.0001 6.325C13.1452 6.325 10.5789 7.56019 8.80607 9.53052C8.43666 9.94107 7.8147 10.0431 7.36844 9.71776L6.23722 8.89294C5.79096 8.56756 5.69019 7.93914 6.04862 7.51897C8.4447 4.71019 12.014 2.925 16.0001 2.925C19.9862 2.925 23.5556 4.71019 25.9516 7.51897C26.3101 7.93914 26.2093 8.56756 25.763 8.89294L24.6318 9.71776C24.1856 10.0431 23.5636 9.94107 23.1942 9.53052C21.4213 7.56019 18.855 6.325 16.0001 6.325Z" fill="white"/>
<path fill-rule="evenodd" clip-rule="evenodd" d="M24.5016 20.9808C25.9351 18.5119 26.1555 15.6724 25.3417 13.1498C25.1722 12.6242 25.3962 12.0351 25.9016 11.8126L27.183 11.2484C27.6884 11.0259 28.2825 11.2543 28.4659 11.7752C29.6918 15.2577 29.4434 19.2408 27.4419 22.688C25.4404 26.1352 22.1044 28.3256 18.4723 28.9874C17.9289 29.0864 17.4361 28.6837 17.3787 28.1344L17.2334 26.7419C17.1761 26.1926 17.5767 25.706 18.1172 25.5927C20.7113 25.0488 23.0681 23.4497 24.5016 20.9808Z" fill="white"/>
<path fill-rule="evenodd" clip-rule="evenodd" d="M7.46714 21.0121C6.03365 18.5431 5.81328 15.7036 6.62703 13.1811C6.79658 12.6555 6.57257 12.0663 6.0671 11.8438L4.78579 11.2797C4.28033 11.0571 3.68628 11.2855 3.50289 11.8065C2.27696 15.2889 2.52533 19.2721 4.52682 22.7193C6.52831 26.1664 9.86436 28.3568 13.4965 29.0186C14.0398 29.1176 14.5327 28.7149 14.59 28.1656L14.7353 26.7732C14.7926 26.2239 14.3921 25.7373 13.8515 25.6239C11.2574 25.0801 8.90064 23.481 7.46714 21.0121Z" fill="white"/>
<path fill-rule="evenodd" clip-rule="evenodd" d="M16.0001 9.4C12.355 9.4 9.4001 12.3549 9.4001 16C9.4001 19.6451 12.355 22.6 16.0001 22.6C19.6452 22.6 22.6001 19.6451 22.6001 16C22.6001 12.3549 19.6452 9.4 16.0001 9.4ZM7.6001 16C7.6001 11.3608 11.3609 7.6 16.0001 7.6C20.6393 7.6 24.4001 11.3608 24.4001 16C24.4001 20.6392 20.6393 24.4 16.0001 24.4C11.3609 24.4 7.6001 20.6392 7.6001 16Z" fill="#C386AE"/>
<path d="M13.0388 17.8098C13.0917 17.7568 13.1645 17.7259 13.2417 17.7259H20.2423C20.3702 17.7259 20.4342 17.8803 20.3437 17.9708L18.9608 19.3537C18.9079 19.4066 18.8351 19.4375 18.7579 19.4375H11.7573C11.6294 19.4375 11.5654 19.2831 11.6559 19.1927L13.0388 17.8098Z" fill="white"/>
<path d="M13.0388 12.6463C13.0939 12.5934 13.1667 12.5625 13.2417 12.5625H20.2423C20.3702 12.5625 20.4342 12.7169 20.3437 12.8073L18.9608 14.1902C18.9079 14.2432 18.8351 14.274 18.7579 14.274H11.7573C11.6294 14.274 11.5654 14.1197 11.6559 14.0292L13.0388 12.6463Z" fill="white"/>
<path d="M18.9608 15.2115C18.9079 15.1585 18.8351 15.1276 18.7579 15.1276H11.7573C11.6294 15.1276 11.5654 15.282 11.6559 15.3725L13.0388 16.7554C13.0917 16.8083 13.1645 16.8392 13.2417 16.8392H20.2423C20.3702 16.8392 20.4342 16.6848 20.3437 16.5944L18.9608 15.2115Z" fill="white"/>
</g>
<defs>
<clipPath id="clip0_319_39">
<rect width="32" height="32" fill="white"/>
</clipPath>
</defs>
</svg>
