<svg width="32" height="32" viewBox="0 0 32 32" fill="none" xmlns="http://www.w3.org/2000/svg">
<g clip-path="url(#clip0_1_45)">
<path d="M16 32C24.8366 32 32 24.8366 32 16C32 7.16345 24.8366 0 16 0C7.16345 0 0 7.16345 0 16C0 24.8366 7.16345 32 16 32Z" fill="url(#paint0_linear_1_45)"/>
<path fill-rule="evenodd" clip-rule="evenodd" d="M1.5 16C1.5 7.99188 7.99188 1.5 16 1.5C24.0081 1.5 30.5 7.99188 30.5 16C30.5 24.0081 24.0081 30.5 16 30.5C7.99188 30.5 1.5 24.0081 1.5 16ZM16 2.5C8.54416 2.5 2.5 8.54416 2.5 16C2.5 23.4558 8.54416 29.5 16 29.5C23.4558 29.5 29.5 23.4558 29.5 16C29.5 8.54416 23.4558 2.5 16 2.5Z" fill="white"/>
<path d="M6.15479 12.2139H6.18078C6.17324 12.2168 6.16359 12.2168 6.15479 12.2139Z" fill="#308D8A"/>
<path d="M10.2962 19.1044C10.3981 19.0025 10.5383 18.943 10.6869 18.943H24.1676C24.414 18.943 24.5371 19.2403 24.363 19.4145L21.7 22.0775C21.5981 22.1794 21.4579 22.2389 21.3092 22.2389H7.82853C7.58219 22.2389 7.45902 21.9416 7.63316 21.7675L10.2962 19.1044Z" fill="white"/>
<path d="M10.2962 9.16139C10.4024 9.05946 10.5425 9 10.6869 9H24.1676C24.414 9 24.5371 9.29731 24.363 9.47144L21.7 12.1345C21.5981 12.2364 21.4579 12.2958 21.3092 12.2958H7.82853C7.58219 12.2958 7.45902 11.9985 7.63316 11.8244L10.2962 9.16139Z" fill="white"/>
<path d="M21.7 14.101C21.5981 13.9991 21.4579 13.9396 21.3092 13.9396H7.82853C7.58219 13.9396 7.45902 14.2369 7.63316 14.411L10.2962 17.0741C10.3981 17.176 10.5383 17.2354 10.6869 17.2354H24.1676C24.414 17.2354 24.5371 16.9381 24.363 16.764L21.7 14.101Z" fill="white"/>
</g>
<defs>
<linearGradient id="paint0_linear_1_45" x1="32" y1="32" x2="0" y2="0" gradientUnits="userSpaceOnUse">
<stop stop-color="#3D9B7F"/>
<stop offset="1" stop-color="#87D58F"/>
</linearGradient>
<clipPath id="clip0_1_45">
<rect width="32" height="32" fill="white"/>
</clipPath>
</defs>
</svg>
