<svg width="32" height="32" viewBox="0 0 32 32" fill="none" xmlns="http://www.w3.org/2000/svg">
<g clip-path="url(#clip0_159_25)">
<path d="M16 32C24.8366 32 32 24.8366 32 16C32 7.16344 24.8366 0 16 0C7.16344 0 0 7.16344 0 16C0 24.8366 7.16344 32 16 32Z" fill="black"/>
<mask id="mask0_159_25" style="mask-type:alpha" maskUnits="userSpaceOnUse" x="0" y="0" width="32" height="32">
<path d="M16 32C24.8366 32 32 24.8366 32 16C32 7.16344 24.8366 0 16 0C7.16344 0 0 7.16344 0 16C0 24.8366 7.16344 32 16 32Z" fill="black"/>
</mask>
<g mask="url(#mask0_159_25)">
<g filter="url(#filter0_d_159_25)">
<path d="M13.2125 32.8988C10.0045 31.0184 6.53232 30.5392 4.04785 31.3858C4.2877 32.1855 4.60401 32.9599 4.99234 33.698C7.15091 33.6475 9.50771 34.239 11.7007 35.5241C13.8937 36.8091 15.571 38.5827 16.5974 40.5C17.4257 40.4744 18.2496 40.3679 19.0575 40.1822C18.5552 37.5858 16.4198 34.7796 13.2125 32.8988Z" fill="url(#paint0_linear_159_25)"/>
<path d="M28.4998 25.2663C28.092 23.5925 27.3539 22.0188 26.3299 20.6391C25.3058 19.2594 24.0166 18.1021 22.5394 17.2362C21.0622 16.3703 19.4272 15.8137 17.732 15.5995C16.0368 15.3852 14.3162 15.5179 12.673 15.9894C15.4182 16.3284 18.4654 17.3681 21.4538 19.1197C24.4422 20.8713 26.849 23.0266 28.4998 25.2663Z" fill="url(#paint1_linear_159_25)"/>
<path d="M24.5063 31.4049C23.1011 29.0505 20.6939 26.7959 17.7286 25.058C14.7633 23.3199 11.6304 22.3272 8.90951 22.2615C6.51576 22.2043 4.71919 22.9064 3.98174 24.1873C3.97755 24.1948 3.97167 24.202 3.96705 24.2097C3.90069 24.4499 3.84358 24.6905 3.7915 24.9321C4.82124 24.522 6.01433 24.2936 7.34098 24.2681C10.2912 24.2123 13.5928 25.1643 16.6397 26.9502C19.6864 28.7361 22.1436 31.1592 23.5563 33.7717C24.1896 34.9488 24.5848 36.1076 24.7414 37.2147C24.9237 37.0503 25.1026 36.8804 25.2761 36.7038C25.2807 36.6957 25.2836 36.6872 25.2882 36.6788C26.0257 35.3966 25.7405 33.4747 24.5063 31.4049Z" fill="url(#paint2_linear_159_25)"/>
<path d="M15.4721 28.9754C10.9311 26.3138 5.91307 25.8968 3.5 27.7543C3.50474 28.3357 3.5488 28.9161 3.63187 29.4915C4.34171 29.2744 5.0733 29.1377 5.81312 29.0839C8.50966 28.8792 11.4825 29.6373 14.1804 31.2193C16.8781 32.8014 19.0048 35.0327 20.1647 37.4955C20.4853 38.1703 20.7299 38.8792 20.8937 39.609C21.4304 39.3967 21.9523 39.148 22.4556 38.8645C22.8596 35.8291 20.0144 31.6375 15.4721 28.9754Z" fill="url(#paint3_linear_159_25)"/>
<path d="M26.8418 27.4641C25.4207 25.1122 22.9925 22.8513 20.0061 21.1019C17.0199 19.3524 13.8748 18.344 11.1451 18.2631C9.06421 18.2025 7.45242 18.7114 6.6167 19.6727C10.0868 19.0796 14.6639 20.0765 19.1003 22.6768C23.5368 25.277 26.6638 28.7954 27.8707 32.1303C28.2844 30.9223 27.9245 29.2577 26.8418 27.4641Z" fill="url(#paint4_linear_159_25)"/>
</g>
<path d="M16.9938 13.375V4.64773H20.437C21.0989 4.64773 21.6628 4.77415 22.1287 5.02699C22.5946 5.27699 22.9497 5.625 23.1941 6.07102C23.4412 6.5142 23.5648 7.02557 23.5648 7.60511C23.5648 8.18466 23.4398 8.69602 23.1898 9.1392C22.9398 9.58239 22.5776 9.92756 22.1031 10.1747C21.6316 10.4219 21.0605 10.5455 20.3901 10.5455H18.1955V9.06676H20.0918C20.4469 9.06676 20.7395 9.00568 20.9696 8.88352C21.2026 8.75852 21.3759 8.58665 21.4895 8.3679C21.606 8.14631 21.6642 7.89205 21.6642 7.60511C21.6642 7.31534 21.606 7.0625 21.4895 6.84659C21.3759 6.62784 21.2026 6.45881 20.9696 6.33949C20.7367 6.21733 20.4412 6.15625 20.0833 6.15625H18.8389V13.375H16.9938Z" fill="url(#paint5_linear_159_25)"/>
<path d="M9.93518 13.375V4.64773H11.7804V11.8537H15.5218V13.375H9.93518Z" fill="url(#paint6_linear_159_25)"/>
</g>
</g>
<defs>
<filter id="filter0_d_159_25" x="-19.2448" y="-4.97031" width="70.4894" height="70.4896" filterUnits="userSpaceOnUse" color-interpolation-filters="sRGB">
<feFlood flood-opacity="0" result="BackgroundImageFix"/>
<feColorMatrix in="SourceAlpha" type="matrix" values="0 0 0 0 0 0 0 0 0 0 0 0 0 0 0 0 0 0 127 0" result="hardAlpha"/>
<feOffset dy="2.27449"/>
<feGaussianBlur stdDeviation="11.3724"/>
<feComposite in2="hardAlpha" operator="out"/>
<feColorMatrix type="matrix" values="0 0 0 0 0 0 0 0 0 0 0 0 0 0 0 0 0 0 0.1 0"/>
<feBlend mode="normal" in2="BackgroundImageFix" result="effect1_dropShadow_159_25"/>
<feBlend mode="normal" in="SourceGraphic" in2="effect1_dropShadow_159_25" result="shape"/>
</filter>
<linearGradient id="paint0_linear_159_25" x1="20.1484" y1="20.5781" x2="8.50923" y2="40.4102" gradientUnits="userSpaceOnUse">
<stop offset="0.0001" stop-color="#C7F284"/>
<stop offset="1" stop-color="#00BEF0"/>
</linearGradient>
<linearGradient id="paint1_linear_159_25" x1="20.1483" y1="20.5781" x2="8.50917" y2="40.4102" gradientUnits="userSpaceOnUse">
<stop offset="0.0001" stop-color="#C7F284"/>
<stop offset="1" stop-color="#00BEF0"/>
</linearGradient>
<linearGradient id="paint2_linear_159_25" x1="20.1489" y1="20.5781" x2="8.50981" y2="40.4102" gradientUnits="userSpaceOnUse">
<stop offset="0.0001" stop-color="#C7F284"/>
<stop offset="1" stop-color="#00BEF0"/>
</linearGradient>
<linearGradient id="paint3_linear_159_25" x1="20.1485" y1="20.5781" x2="8.50936" y2="40.4102" gradientUnits="userSpaceOnUse">
<stop offset="0.0001" stop-color="#C7F284"/>
<stop offset="1" stop-color="#00BEF0"/>
</linearGradient>
<linearGradient id="paint4_linear_159_25" x1="20.1488" y1="20.5781" x2="8.50965" y2="40.4102" gradientUnits="userSpaceOnUse">
<stop offset="0.0001" stop-color="#C7F284"/>
<stop offset="1" stop-color="#00BEF0"/>
</linearGradient>
<linearGradient id="paint5_linear_159_25" x1="22.9191" y1="5.25" x2="14.9789" y2="7.98372" gradientUnits="userSpaceOnUse">
<stop stop-color="#C7F384"/>
<stop offset="1" stop-color="#19C5E3"/>
</linearGradient>
<linearGradient id="paint6_linear_159_25" x1="14.9728" y1="5.25" x2="8.01789" y2="7.28582" gradientUnits="userSpaceOnUse">
<stop stop-color="#C7F384"/>
<stop offset="1" stop-color="#19C5E3"/>
</linearGradient>
<clipPath id="clip0_159_25">
<rect width="32" height="32" fill="white"/>
</clipPath>
</defs>
</svg>
