<svg width="32" height="32" viewBox="0 0 32 32" fill="none" xmlns="http://www.w3.org/2000/svg">
<g clip-path="url(#clip0_159_25)">
<path d="M16 32C24.8366 32 32 24.8366 32 16C32 7.16344 24.8366 0 16 0C7.16344 0 0 7.16344 0 16C0 24.8366 7.16344 32 16 32Z" fill="black"/>
<g filter="url(#filter0_d_159_25)">
<path d="M7.91492 21.7291C8.75241 22.9044 9.82668 23.8878 11.0673 24.6149C12.3079 25.3419 13.6868 25.7961 15.1137 25.9478C14.3796 24.8333 13.3125 23.808 11.9804 23.0274C10.6483 22.2467 9.23762 21.8203 7.91492 21.7291Z" fill="url(#paint0_linear_159_25)"/>
<path d="M13.77 19.9191C11.2036 18.4148 8.4258 18.0314 6.43823 18.7086C6.63011 19.3484 6.88316 19.9679 7.19382 20.5584C8.92068 20.518 10.8061 20.9912 12.5605 22.0193C14.3149 23.0473 15.6568 24.4662 16.4779 26C17.1405 25.9795 17.7996 25.8943 18.446 25.7458C18.0441 23.6686 16.3358 21.4237 13.77 19.9191Z" fill="url(#paint1_linear_159_25)"/>
<path d="M25.9998 13.8131C25.6736 12.474 25.0831 11.215 24.2639 10.1113C23.4446 9.00753 22.4133 8.08167 21.2315 7.38897C20.0498 6.69627 18.7417 6.25094 17.3856 6.07957C16.0295 5.9082 14.653 6.0143 13.3384 6.39154C15.5346 6.66271 17.9723 7.49451 20.363 8.89578C22.7538 10.297 24.6792 12.0213 25.9998 13.8131Z" fill="url(#paint2_linear_159_25)"/>
<path d="M22.805 18.7239C21.6808 16.8404 19.7551 15.0368 17.3828 13.6464C15.0106 12.2559 12.5043 11.4618 10.3276 11.4092C8.41256 11.3635 6.9753 11.9251 6.38535 12.9498C6.38199 12.9559 6.37728 12.9616 6.37359 12.9678C6.32051 13.1599 6.27481 13.3524 6.23315 13.5457C7.05694 13.2176 8.01142 13.0349 9.07273 13.0145C11.4329 12.9698 14.0742 13.7314 16.5117 15.1601C18.9491 16.5889 20.9148 18.5274 22.045 20.6174C22.5517 21.559 22.8678 22.4861 22.9931 23.3718C23.1389 23.2403 23.282 23.1043 23.4208 22.963C23.4245 22.9566 23.4269 22.9498 23.4305 22.943C24.0205 21.9173 23.7924 20.3797 22.805 18.7239Z" fill="url(#paint3_linear_159_25)"/>
<path d="M15.5777 16.7803C11.9449 14.651 7.93046 14.3174 6 15.8034C6.00379 16.2686 6.03904 16.7329 6.10549 17.1932C6.67337 17.0195 7.25864 16.9101 7.85049 16.8671C10.0077 16.7034 12.386 17.3098 14.5443 18.5754C16.7025 19.8411 18.4038 21.6261 19.3317 23.5964C19.5883 24.1363 19.7839 24.7034 19.915 25.2872C20.3443 25.1174 20.7618 24.9184 21.1645 24.6916C21.4877 22.2633 19.2115 18.91 15.5777 16.7803Z" fill="url(#paint4_linear_159_25)"/>
<path d="M24.6735 15.5713C23.5366 13.6898 21.594 11.8811 19.205 10.4815C16.8159 9.08194 14.2999 8.27521 12.1161 8.21047C10.4514 8.162 9.16198 8.56909 8.49341 9.33819C11.2695 8.86364 14.9312 9.66122 18.4803 11.7414C22.0295 13.8216 24.5311 16.6363 25.4966 19.3043C25.8276 18.3379 25.5396 17.0061 24.6735 15.5713Z" fill="url(#paint5_linear_159_25)"/>
</g>
</g>
<defs>
<filter id="filter0_d_159_25" x="-16.7448" y="-14.4703" width="65.4895" height="65.4896" filterUnits="userSpaceOnUse" color-interpolation-filters="sRGB">
<feFlood flood-opacity="0" result="BackgroundImageFix"/>
<feColorMatrix in="SourceAlpha" type="matrix" values="0 0 0 0 0 0 0 0 0 0 0 0 0 0 0 0 0 0 127 0" result="hardAlpha"/>
<feOffset dy="2.27449"/>
<feGaussianBlur stdDeviation="11.3724"/>
<feComposite in2="hardAlpha" operator="out"/>
<feColorMatrix type="matrix" values="0 0 0 0 0 0 0 0 0 0 0 0 0 0 0 0 0 0 0.1 0"/>
<feBlend mode="normal" in2="BackgroundImageFix" result="effect1_dropShadow_159_25"/>
<feBlend mode="normal" in="SourceGraphic" in2="effect1_dropShadow_159_25" result="shape"/>
</filter>
<linearGradient id="paint0_linear_159_25" x1="19.3191" y1="10.0625" x2="10.0078" y2="25.9282" gradientUnits="userSpaceOnUse">
<stop offset="0.0001" stop-color="#C7F284"/>
<stop offset="1" stop-color="#00BEF0"/>
</linearGradient>
<linearGradient id="paint1_linear_159_25" x1="19.3186" y1="10.0625" x2="10.0073" y2="25.9282" gradientUnits="userSpaceOnUse">
<stop offset="0.0001" stop-color="#C7F284"/>
<stop offset="1" stop-color="#00BEF0"/>
</linearGradient>
<linearGradient id="paint2_linear_159_25" x1="19.3186" y1="10.0625" x2="10.0073" y2="25.9282" gradientUnits="userSpaceOnUse">
<stop offset="0.0001" stop-color="#C7F284"/>
<stop offset="1" stop-color="#00BEF0"/>
</linearGradient>
<linearGradient id="paint3_linear_159_25" x1="19.3191" y1="10.0625" x2="10.0078" y2="25.9282" gradientUnits="userSpaceOnUse">
<stop offset="0.0001" stop-color="#C7F284"/>
<stop offset="1" stop-color="#00BEF0"/>
</linearGradient>
<linearGradient id="paint4_linear_159_25" x1="19.3188" y1="10.0625" x2="10.0075" y2="25.9282" gradientUnits="userSpaceOnUse">
<stop offset="0.0001" stop-color="#C7F284"/>
<stop offset="1" stop-color="#00BEF0"/>
</linearGradient>
<linearGradient id="paint5_linear_159_25" x1="19.3191" y1="10.0625" x2="10.0078" y2="25.9282" gradientUnits="userSpaceOnUse">
<stop offset="0.0001" stop-color="#C7F284"/>
<stop offset="1" stop-color="#00BEF0"/>
</linearGradient>
<clipPath id="clip0_159_25">
<rect width="32" height="32" fill="white"/>
</clipPath>
</defs>
</svg>
