<svg width="32" height="32" viewBox="0 0 32 32" fill="none" xmlns="http://www.w3.org/2000/svg">
<g clip-path="url(#clip0_161_9)">
<path d="M32 16C32 7.16344 24.8366 0 16 0C7.16344 0 0 7.16344 0 16C0 24.8366 7.16344 32 16 32C24.8366 32 32 24.8366 32 16Z" fill="black"/>
<path fill-rule="evenodd" clip-rule="evenodd" d="M15.9973 3.61826C9.24926 3.61826 3.77886 9.08866 3.77886 15.8367C3.77886 22.5848 9.24926 28.0552 15.9973 28.0552C22.7454 28.0552 28.2158 22.5848 28.2158 15.8367C28.2158 9.08866 22.7454 3.61826 15.9973 3.61826ZM2.66809 15.8367C2.66809 8.4752 8.6358 2.50749 15.9973 2.50749C23.3589 2.50749 29.3266 8.4752 29.3266 15.8367C29.3266 23.1983 23.3589 29.166 15.9973 29.166C8.6358 29.166 2.66809 23.1983 2.66809 15.8367Z" fill="white"/>
<path d="M14.3191 13.3703C15.3714 13.5705 16.3565 13.3538 17.2726 12.7215L20.9714 10.1687C20.4564 9.42234 19.4331 9.23632 18.6882 9.7536L16.3449 11.3811C15.8049 11.7538 15.2256 11.8847 14.6106 11.7714C13.9938 11.6593 13.5021 11.3357 13.1337 10.802L12.2077 9.46029L10.8794 10.3771L11.8054 11.7187C12.4277 12.6204 13.265 13.1713 14.3191 13.3703Z" fill="white"/>
<path d="M18.4124 14.2229C18.2142 15.2755 18.4325 16.2617 19.066 17.1796L21.6237 20.8854C22.3686 20.3712 22.5543 19.3499 22.038 18.6065L20.4039 16.2535C20.0305 15.7125 19.8986 15.1326 20.0108 14.5174C20.1217 13.9004 20.4442 13.409 20.977 13.0412L22.3161 12.117L21.3976 10.7862L20.0585 11.7104C19.1585 12.3316 18.6094 13.1684 18.4124 14.2229Z" fill="white"/>
<path d="M14.5912 18.9816C15.5074 18.3493 16.4925 18.1326 17.5448 18.3329C18.5989 18.5318 19.4362 19.0828 20.0585 19.9844L20.9845 21.326L19.6562 22.2428L18.7302 20.9012C18.3618 20.3674 17.8701 20.0439 17.2533 19.9318C16.6383 19.8184 16.059 19.9493 15.519 20.322L13.1757 21.9495C12.4309 22.4668 11.4076 22.2808 10.8925 21.5345L14.5912 18.9816Z" fill="white"/>
<path d="M13.5316 17.5971C13.7298 16.5445 13.5116 15.5583 12.8781 14.6404L10.3204 10.9346C9.57547 11.4488 9.38981 12.4701 9.9061 13.2135L11.5402 15.5665C11.9136 16.1075 12.0454 16.6874 11.9333 17.3026C11.8223 17.9196 11.4999 18.411 10.9671 18.7788L9.62798 19.703L10.5465 21.0338L11.8856 20.1096C12.7856 19.4884 13.3346 18.6516 13.5316 17.5971Z" fill="white"/>
</g>
<defs>
<clipPath id="clip0_161_9">
<rect width="32" height="32" fill="white"/>
</clipPath>
</defs>
</svg>
