<svg width="32" height="32" viewBox="0 0 32 32" fill="none" xmlns="http://www.w3.org/2000/svg">
<g clip-path="url(#clip0_284_6)">
<path d="M32 16C32 7.16344 24.8366 0 16 0C7.16344 0 0 7.16344 0 16C0 24.8366 7.16344 32 16 32C24.8366 32 32 24.8366 32 16Z" fill="#091326"/>
<path opacity="0.7" d="M26.88 23.7764C24.4545 27.1418 20.4966 29.3333 16.026 29.3333C8.6484 29.3333 2.66663 23.3634 2.66663 15.9996C2.66663 8.63555 8.6484 2.66667 16.026 2.66667C20.4876 2.66667 24.4384 4.84909 26.8638 8.20249" stroke="url(#paint0_radial_284_6)" stroke-linecap="round" stroke-linejoin="round"/>
<path d="M15.6148 14.2865C15.467 14.0537 15.5439 13.7697 15.763 13.6316L15.6148 14.2865ZM15.6148 14.2865L15.6195 14.2932L15.7158 14.4296C15.8619 14.6365 16.1688 14.7048 16.3902 14.5654L21.2378 11.503C21.4543 11.3666 21.5384 11.0639 21.3814 10.8414L21.2851 10.7049C21.139 10.4979 20.832 10.4297 20.6107 10.569L15.763 13.6316L15.6148 14.2865ZM21.2382 20.4688L13.0014 15.2874V11.0587C13.0014 10.7456 12.7251 10.4979 12.4174 10.4979C12.1097 10.4979 11.8334 10.7456 11.8334 11.0587V20.913C11.8334 21.2262 12.1097 21.4738 12.4174 21.4738C12.7251 21.4738 13.0014 21.2262 13.0014 20.913V16.6213L20.5951 21.4028C20.8582 21.5684 21.2152 21.5104 21.3979 21.2517L21.4283 21.2085V21.1914C21.5762 20.9448 21.4883 20.6264 21.2382 20.4688Z" fill="white"/>
<path d="M15.6148 14.2865C15.467 14.0537 15.5439 13.7697 15.763 13.6316M15.6148 14.2865L15.763 13.6316M15.6148 14.2865L15.6195 14.2932L15.7158 14.4296C15.8619 14.6365 16.1688 14.7048 16.3902 14.5654L21.2378 11.503M15.763 13.6316L20.6107 10.569C20.832 10.4297 21.139 10.4979 21.2851 10.7049L21.3814 10.8414C21.5384 11.0639 21.4543 11.3666 21.2378 11.503M21.2378 11.503L21.149 11.362M21.2382 20.4688L13.0014 15.2874V11.0587C13.0014 10.7456 12.7251 10.4979 12.4174 10.4979C12.1097 10.4979 11.8334 10.7456 11.8334 11.0587V20.913C11.8334 21.2262 12.1097 21.4738 12.4174 21.4738C12.7251 21.4738 13.0014 21.2262 13.0014 20.913V16.6213L20.5951 21.4028C20.8582 21.5684 21.2152 21.5104 21.3979 21.2517L21.4283 21.2085V21.1914C21.5762 20.9448 21.4883 20.6264 21.2382 20.4688Z" stroke="white" stroke-width="0.25"/>
</g>
<defs>
<radialGradient id="paint0_radial_284_6" cx="0" cy="0" r="1" gradientUnits="userSpaceOnUse" gradientTransform="translate(28.7869 9.39291) rotate(108.872) scale(15.1081 36.6381)">
<stop offset="0.139194" stop-color="white" stop-opacity="0.5"/>
<stop offset="0.620501" stop-color="white" stop-opacity="0.8"/>
<stop offset="1" stop-color="white"/>
</radialGradient>
<clipPath id="clip0_284_6">
<rect width="32" height="32" fill="white"/>
</clipPath>
</defs>
</svg>
