<svg width="32" height="32" viewBox="0 0 32 32" fill="none" xmlns="http://www.w3.org/2000/svg">
<g clip-path="url(#clip0_313_147)">
<path d="M32 16C32 24.8366 24.8366 32 16 32C7.16345 32 0 24.8366 0 16C0 7.16345 7.16345 0 16 0C18.4572 0 20.7851 0.553916 22.8655 1.54369C23.3233 6.60037 27.8441 7.73356 29.8481 7.98032C31.2165 10.3382 32 13.0776 32 16Z" fill="url(#paint0_linear_313_147)"/>
<path d="M6.15479 12.2139H6.18078C6.17324 12.2168 6.16359 12.2168 6.15479 12.2139Z" fill="#308D8A"/>
<path d="M24.333 8.23351H25.5478L26.0277 9.17086L26.0197 9.17146C26.0534 9.27572 26.0342 9.39743 25.9425 9.48911L22.9158 12.5158C22.8 12.6317 22.6407 12.6993 22.4717 12.6993H7.1499C7.03792 12.6993 6.94833 12.6452 6.8938 12.5677L6.89078 12.5678L6.88108 12.5481C6.87187 12.5327 6.86395 12.5166 6.85741 12.5L6.43335 11.638L7.54286 11.5484L9.95455 9.13671C10.0752 9.02086 10.2345 8.95328 10.3987 8.95328H24.333V8.23351Z" fill="#E64133"/>
<path d="M10.3987 20.254C10.2297 20.254 10.0704 20.3216 9.95455 20.4375L7.53476 22.8573L6.43335 22.9462L6.89078 23.876L6.899 23.8756C6.95394 23.9493 7.04141 24 7.1499 24H22.4717C22.6407 24 22.8 23.9324 22.9158 23.8166L25.9425 20.7898C26.0321 20.7003 26.0525 20.5821 26.022 20.4795L26.0277 20.4791L26.0048 20.4343C26.0016 20.4274 25.9981 20.4207 25.9944 20.414L25.5478 19.5417L24.333 19.4217V20.254H10.3987Z" fill="#E64133"/>
<path d="M22.8643 14.5676C23.0333 14.5676 23.1926 14.6352 23.3085 14.7511L26.3352 17.7778C26.5331 17.9757 26.3931 18.3136 26.1131 18.3136H10.8669C10.698 18.3136 10.5387 18.246 10.4228 18.1302L7.39611 15.1035C7.19819 14.9056 7.33818 14.5676 7.61816 14.5676H22.8643Z" fill="#E64133"/>
<path d="M9.53469 8.29682C9.65537 8.18097 9.81467 8.11339 9.9788 8.11339H25.3006C25.5806 8.11339 25.7206 8.4513 25.5227 8.64922L22.496 11.6759C22.3801 11.7918 22.2208 11.8594 22.0518 11.8594H6.73003C6.45005 11.8594 6.31006 11.5215 6.50797 11.3235L9.53469 8.29682Z" fill="white"/>
<path d="M9.53469 19.5976C9.65054 19.4817 9.80984 19.4141 9.9788 19.4141H25.3006C25.5806 19.4141 25.7206 19.752 25.5227 19.95L22.496 22.9767C22.3801 23.0925 22.2208 23.1601 22.0518 23.1601H6.73003C6.45005 23.1601 6.31006 22.8222 6.50797 22.6243L9.53469 19.5976Z" fill="white"/>
<path d="M22.0518 13.7278C22.2208 13.7278 22.3801 13.7953 22.496 13.9112L25.5227 16.9379C25.7206 17.1358 25.5806 17.4737 25.3006 17.4737H9.9788C9.80984 17.4737 9.65054 17.4061 9.53469 17.2903L6.50797 14.2636C6.31006 14.0657 6.45005 13.7278 6.73003 13.7278H22.0518Z" fill="white"/>
<path d="M28.3054 3.14464C29.745 5.09245 30.9556 6.13284 31.944 6.7099L31.9832 6.70936C32.2215 -1.71505 24.4618 0.185992 24.4618 0.185992L24.4611 0.202384C25.5936 0.658725 27.1104 1.52838 28.3054 3.14464Z" fill="url(#paint1_linear_313_147)"/>
<path d="M28.3556 3.11674C27.1609 1.50202 25.6559 0.59454 24.46 0.201755C24.2003 6.66531 31.3506 6.71674 31.9429 6.70927C30.9538 6.13177 29.7952 5.06455 28.3556 3.11674Z" fill="url(#paint2_linear_313_147)"/>
</g>
<defs>
<linearGradient id="paint0_linear_313_147" x1="25.75" y1="3.125" x2="16" y2="32" gradientUnits="userSpaceOnUse">
<stop stop-color="#FFCB1B"/>
<stop offset="1" stop-color="#E64133"/>
</linearGradient>
<linearGradient id="paint1_linear_313_147" x1="25.9172" y1="-1.11781" x2="32.5854" y2="7.48923" gradientUnits="userSpaceOnUse">
<stop offset="0.15" stop-color="#6CBF00"/>
<stop offset="1" stop-color="#AFD803"/>
</linearGradient>
<linearGradient id="paint2_linear_313_147" x1="5809.42" y1="4639.77" x2="5315.13" y2="2351.89" gradientUnits="userSpaceOnUse">
<stop offset="0.15" stop-color="#6CBF00"/>
<stop offset="1" stop-color="#AFD803"/>
</linearGradient>
<clipPath id="clip0_313_147">
<rect width="32" height="32" fill="white"/>
</clipPath>
</defs>
</svg>
