<svg width="32" height="32" viewBox="0 0 32 32" fill="none" xmlns="http://www.w3.org/2000/svg">
<g clip-path="url(#clip0_286_19)">
<path d="M16 32C24.8366 32 32 24.8366 32 16C32 7.16344 24.8366 0 16 0C7.16344 0 0 7.16344 0 16C0 24.8366 7.16344 32 16 32Z" fill="#EC1C24"/>
<path d="M15.9996 30.6758C24.0573 30.6758 30.5894 24.1437 30.5894 16.0861C30.5894 8.02838 24.0573 1.49633 15.9996 1.49633C7.94195 1.49633 1.40991 8.02838 1.40991 16.0861C1.40991 24.1437 7.94195 30.6758 15.9996 30.6758Z" fill="#EC1C24"/>
<path d="M27.9187 16.1659L27.9601 16.1972C27.9601 16.1972 27.0882 6.5322 23.8677 1.71628C23.5592 1.25492 22.9005 1.18863 22.5092 1.5822C21.5872 2.50908 20.0766 4.99029 18.5712 9.13355C17.7637 8.99985 16.9276 8.92904 16.0708 8.92904C15.214 8.92904 14.3775 8.99985 13.57 9.13355C12.065 4.99029 10.5543 2.50908 9.63236 1.5822C9.24105 1.18863 8.58233 1.25492 8.27387 1.71628C5.05335 6.5322 4.18146 16.1972 4.18146 16.1972L4.22289 16.1659C3.94004 16.9941 3.78638 17.8645 3.78638 18.7646C3.78638 22.5105 6.40242 25.7668 10.2512 27.4278C11.9836 28.1754 13.9651 28.6002 16.0712 28.6002C18.1772 28.6002 20.1549 28.1761 21.8859 27.4296C25.7372 25.7695 28.3556 22.512 28.3556 18.7646C28.3556 17.8649 28.2015 16.9941 27.919 16.1659H27.9187Z" fill="white"/>
<path d="M0.358073 23.9613C0.243955 23.9613 0.131721 23.9067 0.0624218 23.805C-0.0490594 23.6419 -0.00725393 23.419 0.156202 23.3079C3.49574 21.027 5.81011 21.6515 5.90728 21.679C6.09747 21.7332 6.20745 21.9313 6.15321 22.1215C6.09898 22.3109 5.90238 22.4213 5.71256 22.3678C5.6877 22.3614 3.59479 21.8258 0.559568 23.8988C0.497801 23.941 0.427749 23.9613 0.358073 23.9613Z" fill="#231F20"/>
<path d="M2.25362 26.7261C2.18695 26.7261 2.11992 26.7077 2.05966 26.6689C1.89356 26.5615 1.84573 26.3401 1.95307 26.174C3.59892 23.6235 6.34151 23.1131 6.45751 23.0928C6.65148 23.0589 6.83791 23.1885 6.87218 23.3832C6.90645 23.5779 6.77652 23.7632 6.58218 23.7978C6.54715 23.8042 4.023 24.286 2.55454 26.5623C2.486 26.6685 2.37075 26.7261 2.25362 26.7261Z" fill="#231F20"/>
<path d="M31.6418 23.9613C31.5721 23.9613 31.5021 23.941 31.4403 23.8988C28.4017 21.824 26.3076 22.3625 26.2873 22.3678C26.0971 22.4198 25.9001 22.3087 25.847 22.1192C25.7943 21.9298 25.9031 21.7332 26.0926 21.6789C26.1897 21.6515 28.5037 21.0266 31.8437 23.3079C32.0071 23.4193 32.0489 23.6419 31.9374 23.805C31.8681 23.9067 31.7559 23.9613 31.6418 23.9613Z" fill="#231F20"/>
<path d="M29.7461 26.7261C29.6286 26.7261 29.5137 26.6685 29.4452 26.5623C27.9673 24.2713 25.4432 23.8024 25.4179 23.7978C25.2232 23.7632 25.0933 23.5775 25.1276 23.3832C25.1622 23.1885 25.3498 23.0589 25.5422 23.0928C25.6582 23.1131 28.4008 23.6235 30.0467 26.174C30.154 26.3401 30.1062 26.5619 29.9401 26.6689C29.8798 26.7077 29.8128 26.7261 29.7461 26.7261Z" fill="#231F20"/>
<path d="M13.0064 17.7858C12.9698 19.6301 11.466 21.1148 9.61298 21.1148C7.75999 21.1148 6.21582 19.594 6.21582 17.7176C6.21582 17.1768 6.34538 16.6676 6.57023 16.2137L13.0064 17.7854V17.7858Z" fill="#A7DFF8"/>
<path d="M11.9014 17.5169C11.9089 17.5903 11.9236 17.741 11.9236 17.8167C11.9236 19.0384 10.9331 20.0286 9.71168 20.0286C8.49028 20.0286 7.49976 19.0381 7.49976 17.8167C7.49976 17.3688 7.69033 16.8943 7.91894 16.5459L11.9014 17.5169Z" fill="#231F20"/>
<path d="M18.7554 17.7858C18.7919 19.6301 20.2958 21.1148 22.1488 21.1148C24.0247 21.1148 25.5459 19.594 25.5459 17.7176C25.5459 17.1768 25.4164 16.6676 25.1915 16.2137L18.7554 17.7854V17.7858Z" fill="#A7DFF8"/>
<path d="M19.8823 17.4841C19.8748 17.5575 19.8379 17.7413 19.8379 17.8167C19.8379 19.0384 20.8284 20.0286 22.0498 20.0286C23.2716 20.0286 24.2617 19.0381 24.2617 17.8167C24.2617 17.3688 24.0934 16.8943 23.8644 16.5459L19.882 17.4841H19.8823Z" fill="#231F20"/>
<path d="M16.7887 24.2272C16.4478 24.2272 16.084 24.1244 15.7311 23.8494C14.7767 24.5929 13.7414 24.0784 13.3015 23.6713C13.1565 23.5372 13.1478 23.3105 13.2819 23.1655C13.4164 23.0205 13.6427 23.0115 13.7877 23.1459C13.8758 23.2258 14.6796 23.9131 15.437 23.1553C15.504 23.0883 15.5951 23.0506 15.69 23.0506H15.7725C15.8674 23.0506 15.9586 23.0883 16.0256 23.1553C16.7826 23.9123 17.5867 23.2254 17.676 23.1448C17.8217 23.0122 18.0477 23.0216 18.181 23.1674C18.3144 23.3124 18.3057 23.5376 18.1611 23.6713C17.8839 23.9282 17.3698 24.2272 16.7887 24.2272Z" fill="#231F20"/>
<path d="M15.7048 22.9508C16.2816 22.9508 16.7492 22.7282 16.7492 22.4537C16.7492 22.1791 16.2816 21.9565 15.7048 21.9565C15.128 21.9565 14.6604 22.1791 14.6604 22.4537C14.6604 22.7282 15.128 22.9508 15.7048 22.9508Z" fill="#F7BAD5"/>
<path d="M6.05347 12.9092C6.05347 12.9092 6.61878 6.64481 8.70604 3.52333C8.90603 3.22429 9.33275 3.18136 9.58659 3.43633C10.1858 4.03856 11.304 6.62673 12.2821 9.32487C12.2821 9.32487 11.147 9.58136 6.05347 12.9088V12.9092Z" fill="#F7BAD5"/>
<path d="M26.2052 12.9092C26.2052 12.9092 25.6399 6.64481 23.5527 3.52333C23.3527 3.22429 22.926 3.18136 22.6721 3.43633C22.0729 4.03856 20.896 6.62673 19.9175 9.32487C19.9175 9.32487 21.6974 9.58136 26.2049 12.9088L26.2052 12.9092Z" fill="#F7BAD5"/>
<path d="M19.6545 11.8264C20.8149 7.48807 14.329 8.22061 14.474 3.89092C14.4883 5.73149 14.1475 7.68655 15.399 9.17385C13.3705 9.41263 12.7449 6.69678 12.192 5.4268C12.0188 7.79352 11.5789 11.4705 14.2571 12.4844" fill="#D5E9F8"/>
<path d="M20.1809 11.8264C21.4976 6.42862 14.3726 7.63835 14.5172 3.30866C14.5315 5.14923 14.2784 6.89639 15.53 8.38406C13.5015 8.62285 12.732 6.12958 12.1791 4.8596C12.0059 7.22632 13.3346 11.5632 17.021 12.4848" fill="white"/>
</g>
<defs>
<clipPath id="clip0_286_19">
<rect width="32" height="32" fill="white"/>
</clipPath>
</defs>
</svg>
