<svg width="32" height="32" viewBox="0 0 32 32" fill="none" xmlns="http://www.w3.org/2000/svg">
<g clip-path="url(#clip0_1_6)">
<path d="M16 32C24.8366 32 32 24.8366 32 16C32 7.16344 24.8366 0 16 0C7.16344 0 0 7.16344 0 16C0 24.8366 7.16344 32 16 32Z" fill="url(#paint0_linear_1_6)"/>
<path fill-rule="evenodd" clip-rule="evenodd" d="M14.9837 9.299C14.9838 9.29885 14.9839 9.29867 14.984 9.29852C15.8974 9.76714 16.8968 9.9277 17.8531 9.92494C18.4088 10.4353 18.8711 11.0348 19.3055 11.6504C19.4856 11.9075 19.6481 12.1766 19.7917 12.4558C20.1239 13.0954 20.3682 13.7722 20.6154 14.457C20.6879 14.6578 20.7607 14.8594 20.8359 15.0608C20.8595 15.147 20.8842 15.2333 20.9099 15.3196L20.9112 15.3193C21.293 16.6287 21.8504 18.0275 22.5974 19.1825L22.5967 19.1828C22.8437 19.5622 23.1205 19.9214 23.4244 20.2571C23.4842 20.3218 23.5453 20.3859 23.6066 20.45L23.6066 20.45L23.6066 20.4501L23.6067 20.4501C23.8928 20.7499 24.1809 21.0517 24.3443 21.4294C24.5476 21.9 24.532 22.4414 24.4097 22.9394C23.8326 25.287 21.5718 25.9039 19.4112 25.9608L19.4122 25.9581C18.6021 25.9742 17.7976 25.9138 17.0842 25.8407C17.0842 25.8407 13.6436 25.4846 10.7272 23.3524L10.6331 23.2825C10.6331 23.2825 10.6331 23.2825 10.6331 23.2824C10.2927 23.0288 9.96797 22.7547 9.66065 22.4618C8.84322 21.6816 8.11589 20.7967 7.55969 19.8252C7.56341 19.8215 7.56711 19.8178 7.57084 19.814C7.505 19.6956 7.44188 19.5759 7.3815 19.455C6.84343 18.3781 6.5155 17.2058 6.50065 15.9598C6.47533 13.869 7.19061 11.7278 8.55022 10.1754C8.54972 10.1741 8.54924 10.1729 8.54876 10.1716C9.28491 9.36522 10.205 8.73175 11.2943 8.37111C11.9771 8.14294 12.694 8.03339 13.4139 8.0472C13.8519 8.56155 14.3849 8.98655 14.9837 9.299ZM13.3077 22.979C13.7999 22.7993 14.2663 22.5577 14.7011 22.2599C14.2635 22.5556 13.7965 22.7974 13.3077 22.979Z" fill="url(#paint1_linear_1_6)"/>
<path fill-rule="evenodd" clip-rule="evenodd" d="M22.1251 7.59601C22.1254 7.59601 22.1258 7.59601 22.1261 7.59599L22.1558 7.57686C18.3198 1.03335 13.304 6.1851 13.304 6.1851L13.3112 6.19771C13.3109 6.19779 13.3106 6.19786 13.3103 6.19794C16.1946 11.2549 21.6762 7.8844 22.1251 7.59601Z" fill="url(#paint2_linear_1_6)"/>
<path d="M17.3698 18.8665C16.3128 21.3933 14.2833 23.0664 11.8245 23.3199C11.7716 23.3269 11.0987 23.38 10.7272 23.3526C13.6436 25.4848 17.0842 25.8409 17.0842 25.8409C17.8208 25.9164 18.6546 25.9783 19.4914 25.9564C19.7862 25.187 19.952 24.3062 19.9044 23.3068C19.794 20.9856 21.1399 19.7939 22.5973 19.1826C21.8504 18.0277 21.2929 16.6289 20.9111 15.3194C19.7731 15.6222 18.3277 16.5743 17.3698 18.8665Z" fill="url(#paint3_linear_1_6)"/>
<path d="M19.8586 23.2902C19.9065 24.2896 19.7061 25.1913 19.4114 25.9607C21.572 25.9038 23.8328 25.287 24.4099 22.9394C24.5322 22.4413 24.5478 21.9 24.3444 21.4293C24.1461 20.9708 23.7638 20.624 23.4246 20.257C23.1072 19.9064 22.8194 19.5302 22.5641 19.1321C21.1079 19.7436 19.7482 20.9693 19.8586 23.2902Z" fill="url(#paint4_linear_1_6)"/>
<path d="M20.8361 15.0608C20.5042 14.1724 20.2215 13.283 19.7919 12.4557C19.6483 12.1766 19.4858 11.9075 19.3057 11.6504C18.8713 11.0348 18.409 10.4353 17.8533 9.92493C16.8969 9.9277 15.8976 9.76713 14.9842 9.29851C14.0591 10.6107 13.0005 12.8368 13.9695 15.3777C15.4002 19.1301 12.4967 21.6947 10.6333 23.2825L10.7274 23.3524C11.0768 23.3797 11.428 23.3747 11.7764 23.3373C14.235 23.0836 16.382 21.3703 17.439 18.8437C18.3972 16.5515 19.7909 15.6807 20.9275 15.3777C20.8954 15.272 20.865 15.1663 20.8361 15.0608Z" fill="url(#paint5_linear_1_6)"/>
<path d="M8.65019 10.0638C7.22572 11.6242 6.47473 13.8185 6.50065 15.96C6.5155 17.2061 6.84343 18.3784 7.38151 19.4553C7.46222 19.6168 7.54779 19.7762 7.63821 19.9335C10.6329 16.9275 9.55093 12.4484 8.65019 10.0638Z" fill="url(#paint6_linear_1_6)"/>
<path d="M14.02 15.3777C13.0511 12.8358 14.086 10.6243 15.0099 9.31236C14.4006 8.9987 13.8585 8.56892 13.4142 8.0472C12.6944 8.03339 11.9775 8.14294 11.2947 8.37111C10.2054 8.73175 9.2853 9.36522 8.54916 10.1716C9.43001 12.5038 10.4885 16.8852 7.56008 19.8252C8.11628 20.7967 8.84361 21.6816 9.66105 22.4618C9.98347 22.7691 10.3251 23.0557 10.6838 23.3197C12.5472 21.7327 15.4508 19.1301 14.02 15.3777Z" fill="url(#paint7_linear_1_6)"/>
<path d="M17.6328 6.60206C19.6605 7.40213 21.0807 7.61882 22.1103 7.58787L22.14 7.56874C18.304 1.02524 13.2881 6.17699 13.2881 6.17699L13.2954 6.18982C14.3774 5.99805 15.9498 5.9384 17.6328 6.60206Z" fill="url(#paint8_linear_1_6)"/>
<path d="M17.6578 6.55678C15.9759 5.89413 14.3944 5.91929 13.2943 6.18984C16.1787 11.247 21.6607 7.87605 22.1092 7.58789C21.0788 7.61884 19.6856 7.35685 17.6578 6.55678Z" fill="url(#paint9_linear_1_6)"/>
</g>
<defs>
<linearGradient id="paint0_linear_1_6" x1="9.5" y1="29.5" x2="22" y2="1.5" gradientUnits="userSpaceOnUse">
<stop stop-color="#4B4B78"/>
<stop offset="1" stop-color="#3E3E67"/>
</linearGradient>
<linearGradient id="paint1_linear_1_6" x1="4.25623" y1="11.1164" x2="27.7121" y2="25.1723" gradientUnits="userSpaceOnUse">
<stop stop-color="#E54033"/>
<stop offset="0.489583" stop-color="#FECA1A"/>
<stop offset="1" stop-color="#AFD803"/>
</linearGradient>
<linearGradient id="paint2_linear_1_6" x1="6641.39" y1="788.309" x2="5172.97" y2="-722.159" gradientUnits="userSpaceOnUse">
<stop offset="0.15" stop-color="#6CBF00"/>
<stop offset="1" stop-color="#AFD803"/>
</linearGradient>
<linearGradient id="paint3_linear_1_6" x1="8.30634" y1="23.5298" x2="23.004" y2="19.956" gradientUnits="userSpaceOnUse">
<stop offset="0.21" stop-color="#E54033"/>
<stop offset="0.84" stop-color="#FECA1A"/>
</linearGradient>
<linearGradient id="paint4_linear_1_6" x1="19.8863" y1="22.5382" x2="24.4214" y2="22.5722" gradientUnits="userSpaceOnUse">
<stop stop-color="#FECA1A"/>
<stop offset="0.4" stop-color="#FECA1A"/>
<stop offset="1" stop-color="#AFD803"/>
</linearGradient>
<linearGradient id="paint5_linear_1_6" x1="9.62083" y1="23.6212" x2="18.9189" y2="11.0333" gradientUnits="userSpaceOnUse">
<stop offset="0.16" stop-color="#E54033"/>
<stop offset="0.84" stop-color="#FECA1A"/>
</linearGradient>
<linearGradient id="paint6_linear_1_6" x1="8.26664" y1="11.1138" x2="7.8549" y2="19.2444" gradientUnits="userSpaceOnUse">
<stop stop-color="#FECA1A"/>
<stop offset="0.76" stop-color="#E54033"/>
</linearGradient>
<linearGradient id="paint7_linear_1_6" x1="12.8155" y1="9.0023" x2="10.3323" y2="18.4317" gradientUnits="userSpaceOnUse">
<stop offset="0.16" stop-color="#FECA1A"/>
<stop offset="1" stop-color="#E54033"/>
</linearGradient>
<linearGradient id="paint8_linear_1_6" x1="13.7771" y1="4.48776" x2="22.9715" y2="7.87679" gradientUnits="userSpaceOnUse">
<stop offset="0.15" stop-color="#6CBF00"/>
<stop offset="1" stop-color="#AFD803"/>
</linearGradient>
<linearGradient id="paint9_linear_1_6" x1="6641.36" y1="788.301" x2="5172.95" y2="-722.167" gradientUnits="userSpaceOnUse">
<stop offset="0.15" stop-color="#6CBF00"/>
<stop offset="1" stop-color="#AFD803"/>
</linearGradient>
<clipPath id="clip0_1_6">
<rect width="32" height="32" fill="white"/>
</clipPath>
</defs>
</svg>
