<svg width="32" height="32" viewBox="0 0 32 32" fill="none" xmlns="http://www.w3.org/2000/svg">
<path fill-rule="evenodd" clip-rule="evenodd" d="M14.8013 8.92342C14.8015 8.92325 14.8016 8.92306 14.8017 8.92289C15.8165 9.44357 16.9269 9.62198 17.9896 9.6189C18.607 10.186 19.1207 10.8521 19.6033 11.5361C19.8035 11.8218 19.984 12.1208 20.1436 12.4309C20.5127 13.1417 20.7841 13.8937 21.0588 14.6545C21.1393 14.8777 21.2202 15.1016 21.3038 15.3254C21.33 15.4212 21.3574 15.5171 21.3859 15.613L21.3874 15.6126C21.8116 17.0676 22.431 18.6218 23.261 19.9051L23.2602 19.9054C23.5347 20.3269 23.8422 20.7261 24.1799 21.0991C24.2463 21.171 24.3143 21.2422 24.3823 21.3134L24.3823 21.3135L24.3824 21.3135L24.3825 21.3136C24.7003 21.6466 25.0205 21.982 25.202 22.4016C25.4279 22.9246 25.4106 23.5261 25.2747 24.0795C24.6335 26.6879 22.1215 27.3733 19.7208 27.4365L19.7219 27.4335C18.8218 27.4514 17.9279 27.3843 17.1353 27.3031C17.1353 27.3031 13.3124 26.9074 10.0719 24.5383L9.96735 24.4606C9.96735 24.4606 9.96735 24.4606 9.96738 24.4606C9.58915 24.1787 9.2283 23.8742 8.88684 23.5487C7.97858 22.6818 7.17043 21.6986 6.55243 20.6192C6.55657 20.6151 6.56068 20.6109 6.56482 20.6068C6.49167 20.4752 6.42153 20.3422 6.35445 20.2079C5.75659 19.0113 5.39222 17.7088 5.37572 16.3243C5.34759 14.0012 6.14235 11.6221 7.65303 9.89723C7.65247 9.8958 7.65194 9.89437 7.6514 9.89295C8.46934 8.99699 9.49169 8.29315 10.702 7.89243C11.4607 7.63891 12.2572 7.51718 13.0571 7.53254C13.5438 8.10403 14.136 8.57625 14.8013 8.92342ZM12.9391 24.1234C13.486 23.9237 14.0042 23.6553 14.4873 23.3244C14.0011 23.653 13.4822 23.9217 12.9391 24.1234Z" fill="url(#paint0_linear_6_313)"/>
<path fill-rule="evenodd" clip-rule="evenodd" d="M22.7362 7.03121C22.7366 7.03121 22.737 7.03121 22.7374 7.03118L22.7704 7.00993C18.5081 -0.26064 12.935 5.46353 12.935 5.46353L12.9429 5.47754C12.9426 5.47763 12.9423 5.47771 12.942 5.4778C16.1468 11.0966 22.2375 7.35164 22.7362 7.03121Z" fill="url(#paint1_linear_6_313)"/>
<path d="M17.4526 19.554C16.2781 22.3615 14.0231 24.2206 11.2911 24.5021C11.2324 24.51 10.4846 24.569 10.0719 24.5385C13.3123 26.9076 17.1352 27.3033 17.1352 27.3033C17.9537 27.3872 18.8801 27.456 19.8099 27.4316C20.1374 26.5768 20.3217 25.598 20.2688 24.4876C20.1461 21.9085 21.6416 20.5844 23.2609 19.9052C22.431 18.6219 21.8116 17.0677 21.3874 15.6128C20.1229 15.9492 18.5169 17.007 17.4526 19.554Z" fill="url(#paint2_linear_6_313)"/>
<path d="M20.2179 24.4692C20.2711 25.5796 20.0485 26.5816 19.721 27.4364C22.1217 27.3732 24.6337 26.6878 25.2749 24.0794C25.4108 23.526 25.4281 22.9245 25.2021 22.4016C24.9818 21.8921 24.557 21.5067 24.1801 21.099C23.8274 20.7095 23.5077 20.2914 23.224 19.8491C21.606 20.5286 20.0952 21.8904 20.2179 24.4692Z" fill="url(#paint3_linear_6_313)"/>
<path d="M21.304 15.3254C20.9352 14.3383 20.6212 13.3501 20.1438 12.4309C19.9842 12.1207 19.8037 11.8218 19.6036 11.5361C19.1209 10.8521 18.6072 10.186 17.9898 9.61889C16.9272 9.62197 15.8167 9.44356 14.8019 8.92288C13.774 10.3809 12.5978 12.8543 13.6744 15.6775C15.2642 19.8469 12.038 22.6964 9.96757 24.4606L10.0722 24.5383C10.4603 24.5686 10.8505 24.563 11.2377 24.5216C13.9694 24.2397 16.355 22.3359 17.5295 19.5287C18.5941 16.9817 20.1427 16.0142 21.4055 15.6775C21.3699 15.5601 21.3361 15.4427 21.304 15.3254Z" fill="url(#paint4_linear_6_313)"/>
<path d="M7.7641 9.77323C6.18136 11.507 5.34692 13.9451 5.37572 16.3246C5.39222 17.7091 5.75659 19.0116 6.35445 20.2082C6.44413 20.3877 6.53921 20.5648 6.63968 20.7395C9.96708 17.3995 8.76492 12.4228 7.7641 9.77323Z" fill="url(#paint5_linear_6_313)"/>
<path d="M13.7306 15.6775C12.654 12.8532 13.8038 10.396 14.8304 8.93827C14.1534 8.58976 13.5512 8.11222 13.0575 7.53254C12.2577 7.51718 11.4611 7.63891 10.7024 7.89243C9.49213 8.29315 8.46978 8.99699 7.65184 9.89295C8.63057 12.4843 9.80672 17.3525 6.55287 20.6192C7.17087 21.6986 7.97902 22.6818 8.88728 23.5487C9.24552 23.8902 9.6251 24.2086 10.0237 24.502C12.0941 22.7386 15.3203 19.8469 13.7306 15.6775Z" fill="url(#paint6_linear_6_313)"/>
<path d="M17.7448 5.92682C19.9978 6.81579 21.5758 7.05655 22.7198 7.02216L22.7528 7.00091C18.4905 -0.269646 12.9174 5.45452 12.9174 5.45452L12.9255 5.46878C14.1277 5.25569 15.8748 5.18942 17.7448 5.92682Z" fill="url(#paint7_linear_6_313)"/>
<path d="M17.7726 5.87651C15.9038 5.14023 14.1465 5.16819 12.9243 5.4688C16.1292 11.0878 22.2202 7.34237 22.7185 7.02218C21.5737 7.05658 20.0256 6.76548 17.7726 5.87651Z" fill="url(#paint8_linear_6_313)"/>
<defs>
<linearGradient id="paint0_linear_6_313" x1="2.88192" y1="10.9427" x2="28.944" y2="26.5604" gradientUnits="userSpaceOnUse">
<stop stop-color="#E54033"/>
<stop offset="0.489583" stop-color="#FECA1A"/>
<stop offset="1" stop-color="#AFD803"/>
</linearGradient>
<linearGradient id="paint1_linear_6_313" x1="7377.47" y1="874.49" x2="5745.9" y2="-803.807" gradientUnits="userSpaceOnUse">
<stop offset="0.15" stop-color="#6CBF00"/>
<stop offset="1" stop-color="#AFD803"/>
</linearGradient>
<linearGradient id="paint2_linear_6_313" x1="7.38205" y1="24.7354" x2="23.7128" y2="20.7645" gradientUnits="userSpaceOnUse">
<stop offset="0.21" stop-color="#E54033"/>
<stop offset="0.84" stop-color="#FECA1A"/>
</linearGradient>
<linearGradient id="paint3_linear_6_313" x1="20.2487" y1="23.6337" x2="25.2877" y2="23.6714" gradientUnits="userSpaceOnUse">
<stop stop-color="#FECA1A"/>
<stop offset="0.4" stop-color="#FECA1A"/>
<stop offset="1" stop-color="#AFD803"/>
</linearGradient>
<linearGradient id="paint4_linear_6_313" x1="8.84259" y1="24.837" x2="19.1738" y2="10.8504" gradientUnits="userSpaceOnUse">
<stop offset="0.16" stop-color="#E54033"/>
<stop offset="0.84" stop-color="#FECA1A"/>
</linearGradient>
<linearGradient id="paint5_linear_6_313" x1="7.33793" y1="10.9399" x2="6.88045" y2="19.9738" gradientUnits="userSpaceOnUse">
<stop stop-color="#FECA1A"/>
<stop offset="0.76" stop-color="#E54033"/>
</linearGradient>
<linearGradient id="paint6_linear_6_313" x1="12.3922" y1="8.59376" x2="9.63307" y2="19.0709" gradientUnits="userSpaceOnUse">
<stop offset="0.16" stop-color="#FECA1A"/>
<stop offset="1" stop-color="#E54033"/>
</linearGradient>
<linearGradient id="paint7_linear_6_313" x1="13.4607" y1="3.57759" x2="23.6767" y2="7.34318" gradientUnits="userSpaceOnUse">
<stop offset="0.15" stop-color="#6CBF00"/>
<stop offset="1" stop-color="#AFD803"/>
</linearGradient>
<linearGradient id="paint8_linear_6_313" x1="7377.44" y1="874.481" x2="5745.87" y2="-803.816" gradientUnits="userSpaceOnUse">
<stop offset="0.15" stop-color="#6CBF00"/>
<stop offset="1" stop-color="#AFD803"/>
</linearGradient>
</defs>
</svg>
