<svg width="32" height="32" viewBox="0 0 32 32" fill="none" xmlns="http://www.w3.org/2000/svg">
<g clip-path="url(#clip0_172_2)">
<path d="M16 32C24.8366 32 32 24.8366 32 16C32 7.16344 24.8366 0 16 0C7.16344 0 0 7.16344 0 16C0 24.8366 7.16344 32 16 32Z" fill="black"/>
<path d="M10.2238 7.45512C10.8296 7.73819 11.322 8.21754 11.6212 8.81549L19.6533 24.8239H13.0738L8.64531 16.0006H10.8385L14.2817 22.8636H16.4749L9.87011 9.69444C9.76601 9.49472 9.59827 9.33542 9.39346 9.24174C9.18863 9.14807 8.95844 9.12538 8.73928 9.17727C8.5201 9.22916 8.3245 9.35266 8.18343 9.52822C8.04234 9.70378 7.96385 9.92138 7.96035 10.1466V24.8239H6V10.1466C5.99934 9.47792 6.2245 8.82864 6.63901 8.30398C7.05352 7.77931 7.63308 7.41001 8.28374 7.25594C8.9344 7.10187 9.61802 7.17205 10.2238 7.45512Z" fill="#10E80C"/>
<path d="M24.038 21.8547V7.17736H26V21.8547C25.9998 22.5231 25.7741 23.1719 25.3594 23.6961C24.9447 24.2203 24.3652 24.5893 23.7148 24.7433C23.0643 24.8972 22.381 24.8272 21.7752 24.5446C21.1695 24.2619 20.6769 23.7832 20.377 23.1858L12.3484 7.17736H18.9279L23.3547 16.0006H21.1615L17.7183 9.13772H15.5251L22.1299 22.3068C22.2344 22.5057 22.4021 22.6641 22.6066 22.7572C22.8111 22.8502 23.0407 22.8726 23.2593 22.8208C23.4779 22.769 23.6731 22.646 23.814 22.4711C23.955 22.2962 24.0338 22.0793 24.038 21.8547Z" fill="#10E80C"/>
</g>
<defs>
<clipPath id="clip0_172_2">
<rect width="32" height="32" fill="white"/>
</clipPath>
</defs>
</svg>
