<svg width="32" height="32" viewBox="0 0 32 32" fill="none" xmlns="http://www.w3.org/2000/svg">
<g clip-path="url(#clip0_15_367)">
<path d="M32 16C32 24.8365 24.8365 32 16 32C7.16344 32 0 24.8365 0 16C0 7.16344 7.16344 0 16 0C24.8365 0 32 7.16344 32 16Z" fill="#FFD15C"/>
<path d="M8.25031 22.5564C8.38837 22.4627 8.51724 22.3221 8.58139 22.1228C8.65268 21.9012 8.61063 21.7063 8.57724 21.5983C8.57615 21.5947 8.57497 21.5911 8.57381 21.5875L8.60041 21.4321C8.67389 21.4735 8.75845 21.5291 8.85488 21.5968C8.87813 21.6132 8.91065 21.6364 8.94447 21.6604C8.98887 21.6921 9.03567 21.7256 9.06685 21.7473C9.12044 21.7845 9.19653 21.8365 9.27716 21.8793C11.4108 23.2055 13.1753 23.7521 14.5768 23.6844C16.0259 23.6144 17.042 22.8855 17.5661 21.8217C18.0727 20.7935 18.0904 19.5193 17.7353 18.3391C17.378 17.1512 16.6265 15.9967 15.5064 15.1977C13.6189 13.8515 11.8893 11.8045 11.0148 10.064C10.5706 9.18003 10.3939 8.46713 10.4406 8.00164C10.4623 7.785 10.5287 7.65395 10.608 7.5696C10.6875 7.4852 10.8323 7.39211 11.1111 7.34619C11.7019 7.24887 12.3851 7.03612 13.0785 6.82023C13.3476 6.7364 13.6183 6.65211 13.8857 6.57391C14.8851 6.28168 15.9431 6.03617 17.0552 6.03827C19.212 6.04232 21.7433 6.97876 24.4085 10.8743C27.8323 15.8787 25.9525 21.4707 22.0084 24.4084C20.0415 25.8735 17.5872 26.6512 15.0653 26.3555C12.7946 26.0893 10.4163 24.9465 8.25031 22.5564Z" fill="white"/>
<path d="M8.64744 21.2612C8.64744 21.2613 8.64671 21.2628 8.64496 21.2653M8.43305 21.3589C8.43299 21.3588 8.43517 21.3591 8.43991 21.3603M8.25031 22.5564C8.38837 22.4627 8.51724 22.3221 8.58139 22.1228C8.65268 21.9012 8.61063 21.7063 8.57724 21.5983C8.57615 21.5947 8.57497 21.5911 8.57381 21.5875L8.60041 21.4321C8.67389 21.4735 8.75845 21.5291 8.85488 21.5968C8.87813 21.6132 8.91065 21.6364 8.94447 21.6604C8.98887 21.6921 9.03567 21.7256 9.06685 21.7473C9.12044 21.7845 9.19653 21.8365 9.27716 21.8793C11.4108 23.2055 13.1753 23.7521 14.5768 23.6844C16.0259 23.6144 17.042 22.8855 17.5661 21.8217C18.0727 20.7935 18.0904 19.5193 17.7353 18.3391C17.378 17.1512 16.6265 15.9967 15.5064 15.1977C13.6189 13.8515 11.8893 11.8045 11.0148 10.064C10.5706 9.18003 10.3939 8.46713 10.4406 8.00164C10.4623 7.785 10.5287 7.65395 10.608 7.5696C10.6875 7.4852 10.8323 7.39211 11.1111 7.34619C11.7019 7.24887 12.3851 7.03612 13.0785 6.82023C13.3476 6.7364 13.6183 6.65211 13.8857 6.57391C14.8851 6.28168 15.9431 6.03617 17.0552 6.03827C19.212 6.04232 21.7433 6.97876 24.4085 10.8743C27.8323 15.8787 25.9525 21.4707 22.0084 24.4084C20.0415 25.8735 17.5872 26.6512 15.0653 26.3555C12.7946 26.0893 10.4163 24.9465 8.25031 22.5564Z" stroke="black" stroke-width="1.65708"/>
<path d="M10.2103 7.6018C10.2103 7.6018 16.3265 5.97315 17.6657 5.97315C19.0048 5.97315 24.3557 8.57157 25.9173 13.32C28.1312 20.0516 22.1096 24.4655 21.4296 24.0328C27.9079 18.6764 17.3037 8.77553 12.0922 9.51991C11.4408 9.613 11.8027 10.1714 11.8027 10.1714L11.6579 11.619L10.5722 9.80944L10.2103 7.6018Z" fill="black"/>
<path d="M25.0263 11.2951C26.9576 14.6952 26.5563 12.7485 26.1275 16.6353C26.921 15.3517 28.1616 16.3128 28.674 16.8036C28.7659 16.8916 28.9174 16.8371 28.9131 16.71C28.8936 16.1335 28.7284 14.8876 27.774 13.5511C26.4654 11.7184 25.0263 11.2951 25.0263 11.2951Z" fill="black"/>
<path d="M26.1275 16.6353C26.2014 16.4528 26.3167 16.168 26.3167 16.168M26.1275 16.6353C26.5563 12.7485 26.9576 14.6952 25.0263 11.2951C25.0263 11.2951 26.4654 11.7184 27.774 13.5511C28.7284 14.8876 28.8936 16.1335 28.9131 16.71C28.9174 16.8371 28.7659 16.8916 28.674 16.8036C28.1616 16.3128 26.921 15.3517 26.1275 16.6353Z" stroke="black" stroke-width="0.0930942"/>
<path d="M9.48682 16.1168C8.67187 17.4965 6.99987 17.3931 7.03189 19.0387C8.52529 22.3567 8.53411 22.1187 8.53411 22.1187C11.3005 20.5647 10.1636 17.1332 9.75317 16.124C9.70674 16.0099 9.54943 16.0108 9.48682 16.1168Z" fill="black"/>
<path d="M3.21598 19.1673C4.80489 19.3747 5.75273 17.9933 7.02974 19.0316C8.72495 22.2512 8.53194 22.1117 8.53194 22.1117C5.60426 23.3348 3.60018 20.3264 3.05762 19.3816C2.99629 19.2748 3.09386 19.1515 3.21598 19.1673Z" fill="black"/>
<path d="M16.5438 17.1203C16.5438 17.1203 18.1363 18.7491 17.3039 19.0023C16.2659 18.3635 14.4059 18.8599 13.4942 19.1673C13.2697 19.2431 13.0497 19.0439 13.1306 18.8212C13.4406 17.9681 14.2062 16.3891 15.6752 16.1793C16.5438 15.962 16.5438 17.1203 16.5438 17.1203Z" fill="black"/>
<path d="M17.5209 9.15793C17.34 8.90463 16.9781 8.21696 18.1 8.21696C19.222 8.21696 20.9362 9.48733 21.2848 9.95728C21.1762 10.2437 20.4525 10.3077 20.0905 10.2799C19.7286 10.2521 19.1133 10.1925 18.6429 9.95728C18.1724 9.72205 17.7018 9.41131 17.5209 9.15793Z" fill="white"/>
</g>
<defs>
<clipPath id="clip0_15_367">
<rect width="32" height="32" fill="white"/>
</clipPath>
</defs>
</svg>
