<svg width="32" height="32" viewBox="0 0 32 32" fill="none" xmlns="http://www.w3.org/2000/svg">
<g clip-path="url(#clip0_149_2)">
<rect x="7.125" y="7.25" width="18.875" height="19" fill="white"/>
<path d="M16 32C24.8366 32 32 24.8366 32 16C32 7.16343 24.8366 0 16 0C7.16343 0 0 7.16343 0 16C0 24.8366 7.16343 32 16 32Z" fill="#100E21"/>
<path d="M12.2584 8.01747C13.3734 7.37038 14.6675 7 16.0481 7C20.2346 7 23.6275 10.403 23.6275 14.6001C23.6275 18.7971 20.2346 22.2001 16.0481 22.2001V20.3001C19.1873 20.3001 21.7327 17.7479 21.7327 14.6001C21.7327 11.4523 19.1873 8.90003 16.0481 8.90003C15.384 8.90003 14.7455 9.01431 14.1533 9.22572C13.4471 9.47492 12.8052 9.86163 12.2584 10.3515C11.0955 11.3956 10.3636 12.9123 10.3636 14.6001V22.2001L8.46875 20.3001V14.6001C8.46875 12.6734 9.18435 10.9135 10.3636 9.57375C10.9052 8.95759 11.5445 8.43081 12.2584 8.01747Z" fill="#E6DAFE"/>
<path d="M16.048 16.4999C17.0944 16.4999 17.9428 15.6491 17.9428 14.5999C17.9428 13.5506 17.0944 12.6999 16.048 12.6999C15.0016 12.6999 14.1531 13.5506 14.1531 14.5999V26L12.2583 24.1V14.5999C12.2583 13.1931 13.0202 11.9651 14.1531 11.3086C14.7102 10.9846 15.3581 10.7998 16.048 10.7998C18.1408 10.7998 19.8377 12.5013 19.8377 14.5999C19.8377 16.6984 18.1408 18.3999 16.048 18.3999V16.4999Z" fill="#E6DAFE"/>
</g>
<defs>
<clipPath id="clip0_149_2">
<rect width="32" height="32" fill="white"/>
</clipPath>
</defs>
</svg>
