<svg width="32" height="32" viewBox="0 0 32 32" fill="none" xmlns="http://www.w3.org/2000/svg">
<g clip-path="url(#clip0_1_175)">
<path d="M16 32C24.8366 32 32 24.8366 32 16C32 7.16344 24.8366 0 16 0C7.16344 0 0 7.16344 0 16C0 24.8366 7.16344 32 16 32Z" fill="#8C2DFD"/>
<path d="M25.8516 12.7577V21.8238L16 27.6446L6.14286 21.8238V10.1763L16 4.34978L23.5714 8.82652L24.7142 8.15163L16 3L5 9.50141V22.4986L16 29L27 22.4986V12.0829L25.8516 12.7577Z" fill="white"/>
<path d="M13.242 21.8294H11.5936V16.1717H17.0881C17.6079 16.1658 18.1045 15.9507 18.4707 15.5728C18.8367 15.195 19.0426 14.6848 19.0441 14.1526C19.0472 13.8895 18.9975 13.6286 18.8982 13.3858C18.7991 13.143 18.6523 12.9236 18.4672 12.741C18.2881 12.5526 18.0736 12.4031 17.8365 12.3017C17.5995 12.2002 17.345 12.1488 17.0881 12.1505H11.5936V10.4295H17.0936C18.0564 10.4354 18.9783 10.8296 19.6592 11.5265C20.3401 12.2235 20.7252 13.1671 20.7309 14.1526C20.7368 14.9071 20.512 15.6445 20.0881 16.2617C19.6978 16.8522 19.148 17.3134 18.5056 17.589C17.8697 17.7954 17.2058 17.8979 16.5387 17.8926H13.242V21.8294Z" fill="white"/>
<path d="M20.692 21.6887H18.7689L17.2854 19.0397C17.8723 19.003 18.4513 18.8819 19.0052 18.6799L20.692 21.6887Z" fill="white"/>
<path d="M24.7032 10.8738L25.8406 11.5206L26.9779 10.8738V9.5072L25.8406 8.8323L24.7032 9.5072V10.8738Z" fill="white"/>
</g>
<defs>
<clipPath id="clip0_1_175">
<rect width="32" height="32" fill="white"/>
</clipPath>
</defs>
</svg>
