<svg width="32" height="32" viewBox="0 0 32 32" fill="none" xmlns="http://www.w3.org/2000/svg">
<g clip-path="url(#clip0_1_84)">
<path fill-rule="evenodd" clip-rule="evenodd" d="M16 0C24.832 0 32 7.168 32 16C32 24.832 24.832 32 16 32C7.168 32 0 24.832 0 16C0 7.168 7.168 0 16 0Z" fill="#CF1011"/>
<path fill-rule="evenodd" clip-rule="evenodd" d="M16 12.2112C18.0864 12.2112 19.7888 13.9008 19.7888 16C19.7888 18.0864 18.0992 19.7888 16 19.7888C13.9136 19.7888 12.2112 18.0992 12.2112 16C12.2112 13.9136 13.9008 12.2112 16 12.2112Z" fill="white"/>
<path fill-rule="evenodd" clip-rule="evenodd" d="M16.0896 6.0928C17.28 6.1056 18.4576 6.336 19.5584 6.7584C20.6592 7.1808 21.6832 7.7952 22.5792 8.5888L22.6048 8.6144C24.64 10.432 25.7536 12.8896 25.8944 15.4112C26.048 17.9456 25.2288 20.5312 23.424 22.5792L23.3984 22.6048C21.5808 24.64 19.1232 25.7536 16.6016 25.8944C14.0672 26.048 11.4816 25.2288 9.4336 23.424C7.3856 21.6064 6.2592 19.136 6.1184 16.6016C5.9648 14.0672 6.784 11.4816 8.5888 9.4336L9.4464 10.1888C7.8464 11.9936 7.1296 14.2848 7.2576 16.5248C7.3984 18.7648 8.384 20.9536 10.1888 22.5536C11.9936 24.1536 14.2848 24.8704 16.5248 24.7424C18.7648 24.6016 20.9536 23.616 22.5536 21.8112L22.5792 21.7856C24.1664 19.9808 24.8832 17.7024 24.7424 15.4752C24.6016 13.2352 23.616 11.0464 21.8112 9.4464L21.7856 9.4208C21.0048 8.7296 20.1088 8.192 19.1488 7.8208C18.176 7.4496 17.1392 7.2448 16.0896 7.232L16.1024 6.08L16.0896 6.0928Z" fill="white"/>
<path d="M10.368 6.1568C11.0592 6.1568 11.6736 6.4384 12.1216 6.8864C12.5696 7.3344 12.8512 7.9616 12.8512 8.64C12.8512 9.3312 12.5696 9.9456 12.1216 10.3936C11.6736 10.8416 11.0464 11.1232 10.368 11.1232C9.6768 11.1232 9.0624 10.8416 8.6144 10.3936C8.1664 9.9456 7.8848 9.3184 7.8848 8.64C7.8848 7.9488 8.1664 7.3344 8.6144 6.8864C9.0624 6.4384 9.6896 6.1568 10.368 6.1568ZM11.3152 7.7056C11.072 7.4624 10.7392 7.3088 10.368 7.3088C9.9968 7.3088 9.664 7.4624 9.4208 7.7056C9.1776 7.9488 9.024 8.2816 9.024 8.6528C9.024 9.024 9.1776 9.3568 9.4208 9.6C9.664 9.8432 9.9968 9.9968 10.368 9.9968C10.7392 9.9968 11.072 9.8432 11.3152 9.6C11.5584 9.3568 11.712 9.024 11.712 8.6528C11.712 8.2816 11.5584 7.9488 11.3152 7.7056Z" fill="white"/>
</g>
<defs>
<clipPath id="clip0_1_84">
<rect width="32" height="32" fill="white"/>
</clipPath>
</defs>
</svg>
