<svg width="32" height="32" viewBox="0 0 32 32" fill="none" xmlns="http://www.w3.org/2000/svg">
<g clip-path="url(#clip0_159_9)">
<path d="M16 32C24.8366 32 32 24.8366 32 16C32 7.16344 24.8366 0 16 0C7.16344 0 0 7.16344 0 16C0 24.8366 7.16344 32 16 32Z" fill="#0B0C10"/>
<path fill-rule="evenodd" clip-rule="evenodd" d="M14.2233 19.1268H14.2142V19.1305C10.8043 17.3513 9.94516 13.7758 11.4893 10.7076C13.0334 7.63925 16.3853 6.25685 19.7941 8.04053H19.8031L18.7695 10.0958L18.7603 10.0911C16.8119 9.07456 14.6812 9.81867 13.6657 11.8379C12.6502 13.8571 13.3013 16.0548 15.2486 17.0714H15.2578L14.2233 19.1268ZM17.9819 12.8702H17.9908L17.988 12.8663C21.3988 14.6455 22.2545 18.2257 20.7132 21.2902C19.1716 24.3548 15.8199 25.7363 12.4119 23.9565H12.4028L13.4366 21.901H13.4455C15.3933 22.9186 17.5249 22.1737 18.5404 20.1545C19.5558 18.135 18.9047 15.9375 16.9572 14.9207H16.948L17.9819 12.8702Z" fill="white"/>
</g>
<defs>
<clipPath id="clip0_159_9">
<rect width="32" height="32" fill="white"/>
</clipPath>
</defs>
</svg>
