<svg width="32" height="32" viewBox="0 0 32 32" fill="none" xmlns="http://www.w3.org/2000/svg">
<g clip-path="url(#clip0_2582_2263)">
<path d="M16 32C24.8366 32 32 24.8366 32 16C32 7.16345 24.8366 0 16 0C7.16345 0 0 7.16345 0 16C0 24.8366 7.16345 32 16 32Z" fill="black"/>
<path d="M6.15479 12.2139H6.18078C6.17324 12.2168 6.16359 12.2168 6.15479 12.2139Z" fill="#308D8A"/>
<path d="M9.24648 19.7458C9.36718 19.6251 9.53314 19.5547 9.70917 19.5547H25.6719C25.9636 19.5547 26.1095 19.9067 25.9033 20.1129L22.75 23.2663C22.6293 23.387 22.4633 23.4574 22.2873 23.4574H6.3245C6.0328 23.4574 5.88695 23.1053 6.09315 22.8991L9.24648 19.7458Z" fill="url(#paint0_linear_2582_2263)"/>
<path d="M9.24648 7.97236C9.37221 7.85166 9.53817 7.78125 9.70917 7.78125H25.6719C25.9636 7.78125 26.1095 8.1333 25.9033 8.33949L22.75 11.4928C22.6293 11.6135 22.4633 11.6839 22.2873 11.6839H6.3245C6.0328 11.6839 5.88695 11.3319 6.09315 11.1257L9.24648 7.97236Z" fill="url(#paint1_linear_2582_2263)"/>
<path d="M22.75 13.8215C22.6293 13.7008 22.4633 13.6304 22.2873 13.6304H6.3245C6.0328 13.6304 5.88695 13.9824 6.09315 14.1886L9.24648 17.3419C9.36718 17.4626 9.53314 17.533 9.70917 17.533H25.6719C25.9636 17.533 26.1095 17.181 25.9033 16.9748L22.75 13.8215Z" fill="url(#paint2_linear_2582_2263)"/>
</g>
<defs>
<linearGradient id="paint0_linear_2582_2263" x1="24.147" y1="5.8975" x2="13.0995" y2="27.058" gradientUnits="userSpaceOnUse">
<stop stop-color="#00FFA3"/>
<stop offset="1" stop-color="#DC1FFF"/>
</linearGradient>
<linearGradient id="paint1_linear_2582_2263" x1="19.3165" y1="3.37558" x2="8.26896" y2="24.536" gradientUnits="userSpaceOnUse">
<stop stop-color="#00FFA3"/>
<stop offset="1" stop-color="#DC1FFF"/>
</linearGradient>
<linearGradient id="paint2_linear_2582_2263" x1="21.7164" y1="4.62866" x2="10.6689" y2="25.7891" gradientUnits="userSpaceOnUse">
<stop stop-color="#00FFA3"/>
<stop offset="1" stop-color="#DC1FFF"/>
</linearGradient>
<clipPath id="clip0_2582_2263">
<rect width="32" height="32" fill="white"/>
</clipPath>
</defs>
</svg>
