<svg width="32" height="32" viewBox="0 0 32 32" fill="none" xmlns="http://www.w3.org/2000/svg">
<path d="M5.97554 22.3175C6.16033 22.1327 6.41442 22.0249 6.68391 22.0249H31.1227C31.5693 22.0249 31.7926 22.5639 31.4769 22.8796L26.6492 27.7073C26.4644 27.8921 26.2103 27.9999 25.9408 27.9999H1.50203C1.05545 27.9999 0.832159 27.4609 1.14785 27.1452L5.97554 22.3175Z" fill="url(#paint0_linear_1184_2703)"/>
<path d="M5.97554 4.29259C6.16803 4.1078 6.42212 4 6.68391 4H31.1227C31.5693 4 31.7926 4.53898 31.4769 4.85466L26.6492 9.68235C26.4644 9.86715 26.2103 9.97494 25.9408 9.97494H1.50203C1.05545 9.97494 0.832159 9.43596 1.14785 9.12028L5.97554 4.29259Z" fill="url(#paint1_linear_1184_2703)"/>
<path d="M26.6492 13.2472C26.4644 13.0624 26.2103 12.9546 25.9408 12.9546H1.50203C1.05545 12.9546 0.832159 13.4936 1.14785 13.8093L5.97554 18.6369C6.16033 18.8217 6.41442 18.9295 6.68391 18.9295H31.1227C31.5693 18.9295 31.7926 18.3906 31.4769 18.0749L26.6492 13.2472Z" fill="url(#paint2_linear_1184_2703)"/>
<defs>
<linearGradient id="paint0_linear_1184_2703" x1="28.7881" y1="1.11595" x2="11.8744" y2="33.5123" gradientUnits="userSpaceOnUse">
<stop stop-color="#00FFA3"/>
<stop offset="1" stop-color="#DC1FFF"/>
</linearGradient>
<linearGradient id="paint1_linear_1184_2703" x1="21.3925" y1="-2.74502" x2="4.47898" y2="29.6513" gradientUnits="userSpaceOnUse">
<stop stop-color="#00FFA3"/>
<stop offset="1" stop-color="#DC1FFF"/>
</linearGradient>
<linearGradient id="paint2_linear_1184_2703" x1="25.0668" y1="-0.826886" x2="8.15321" y2="31.5694" gradientUnits="userSpaceOnUse">
<stop stop-color="#00FFA3"/>
<stop offset="1" stop-color="#DC1FFF"/>
</linearGradient>
</defs>
</svg>
