<svg width="32" height="32" viewBox="0 0 32 32" fill="none" xmlns="http://www.w3.org/2000/svg">
<g clip-path="url(#clip0_211_4)">
<path d="M16 32C24.8366 32 32 24.8366 32 16C32 7.16344 24.8366 0 16 0C7.16344 0 0 7.16344 0 16C0 24.8366 7.16344 32 16 32Z" fill="black"/>
<path d="M5.61142 10.0119L16.0036 4.01143L16.0031 16.0115L5.61096 22.012L5.61142 10.0119Z" fill="#118AB2"/>
<path d="M16.0058 4L26.3985 9.99965L22.9343 11.9995L12.5416 5.99988L16.0058 4Z" fill="#00F8B7"/>
<path d="M22.9265 11.9959L22.9266 15.996L12.5345 9.99551L12.5343 5.99548L22.9265 11.9959Z" fill="#09BD8E"/>
<path d="M12.5278 10.0014L22.9204 16.0011L19.4562 18.001L9.0636 12.0013L12.5278 10.0014Z" fill="#FFE3A3"/>
<path d="M19.4967 18.0217L19.4969 22.0218L9.10476 16.0213L9.10461 12.0213L19.4967 18.0217Z" fill="#FFBB1D"/>
<path d="M9.07272 16.0027L19.4653 22.0024L16.0011 24.0023L5.60852 18.0026L9.07272 16.0027Z" fill="#FF965E"/>
<path d="M15.9938 23.9987L15.994 27.9987L5.60184 21.9983L5.60168 17.9982L15.9938 23.9987Z" fill="#D94C00"/>
<path d="M22.9308 11.9971L26.3948 9.99691L26.3943 21.997L22.9303 23.9971L22.9308 11.9971Z" fill="#06D6A0"/>
<path d="M19.4594 17.9986L22.9235 15.9985L22.9232 23.9986L19.4591 25.9987L19.4594 17.9986Z" fill="#FFD166"/>
<path d="M15.988 23.9999L19.4521 21.9998L19.4519 25.9998L15.9879 28L15.988 23.9999Z" fill="#F3722C"/>
</g>
<defs>
<clipPath id="clip0_211_4">
<rect width="32" height="32" fill="white"/>
</clipPath>
</defs>
</svg>
