<svg width="32" height="32" viewBox="0 0 32 32" fill="none" xmlns="http://www.w3.org/2000/svg">
<g clip-path="url(#clip0_139_43)">
<path d="M16 32C24.8366 32 32 24.8366 32 16C32 7.16343 24.8366 0 16 0C7.16343 0 0 7.16343 0 16C0 24.8366 7.16343 32 16 32Z" fill="#1D2229"/>
<path d="M13.2636 14.4996H10.5845V17.1787H13.2636V14.4996Z" fill="white"/>
<path d="M10.5845 11.8204H7.90527V14.4996L10.5845 14.4996L10.5845 11.8204Z" fill="white"/>
<path d="M7.90487 14.4996H5.22571V17.1787H7.90487V14.4996Z" fill="white"/>
<path d="M10.5845 17.1787L7.90527 17.1786V19.8578H10.5845L10.5845 17.1787Z" fill="white"/>
<path d="M25.8142 12.3974C25.6253 10.4271 23.9247 9.76563 21.7767 9.57675V8.31459H20.1135V9.50474C19.6765 9.50474 19.2297 9.51311 18.7853 9.5215V8.31361H17.1231V9.57526C16.7631 9.58216 14.551 9.5802 14.551 9.5802L14.5461 11.0465L15.934 11.0544V20.6648H14.5466L14.5342 22.1104C14.9372 22.1104 16.7305 22.1183 17.1192 22.1208V23.3667H18.7813V22.1503C19.2371 22.1602 19.679 22.1642 20.1101 22.1637V23.3671H21.7737V22.1267C24.5707 21.9674 26.5292 21.2635 26.7724 18.6377C26.9697 16.5227 25.9754 15.5797 24.3877 15.196C25.3526 14.7028 25.9558 13.8391 25.8151 12.397L25.8142 12.3974ZM23.4838 18.3077C23.4838 20.3738 19.9468 20.1375 18.8183 20.138V16.4754C19.9463 16.4754 23.4818 16.1533 23.4822 18.3077H23.4838ZM22.7117 13.1398C22.7117 15.0194 19.7604 14.7989 18.8208 14.7989V11.4766C19.7619 11.4771 22.7128 11.1792 22.7117 13.1398Z" fill="white"/>
</g>
<defs>
<clipPath id="clip0_139_43">
<rect width="32" height="32" fill="white"/>
</clipPath>
</defs>
</svg>
