<svg width="32" height="32" viewBox="0 0 32 32" fill="none" xmlns="http://www.w3.org/2000/svg">
<path d="M26.7472 12.463V22.3532L16 28.7031L5.24676 22.3532V9.64688L16 3.29069L24.2597 8.1744L25.5065 7.43815L16 1.81821L4 8.91064V23.0894L16 30.1818L28 23.0894V11.7267L26.7472 12.463Z" fill="url(#paint0_linear_6_301)"/>
<path d="M12.9911 22.3595H11.1929V16.1874H17.1869C17.754 16.1809 18.2958 15.9463 18.6952 15.5341C19.0945 15.1219 19.3192 14.5653 19.3207 13.9848C19.3241 13.6978 19.2699 13.4131 19.1616 13.1483C19.0535 12.8834 18.8933 12.6441 18.6914 12.4449C18.496 12.2393 18.262 12.0762 18.0034 11.9655C17.7449 11.8548 17.4672 11.7988 17.1869 11.8007H11.1929V9.92326H17.1929C18.2433 9.92969 19.2489 10.3597 19.9918 11.12C20.7345 11.8803 21.1547 12.9096 21.1609 13.9848C21.1673 14.8079 20.9221 15.6124 20.4596 16.2856C20.0339 16.9297 19.434 17.4329 18.7333 17.7336C18.0396 17.9587 17.3153 18.0706 16.5875 18.0648H12.9911V22.3595Z" fill="url(#paint1_linear_6_301)"/>
<path d="M21.1187 22.2058H19.0209L17.4025 19.3161C18.0427 19.276 18.6743 19.1438 19.2786 18.9235L21.1187 22.2058Z" fill="url(#paint2_linear_6_301)"/>
<path d="M25.4943 10.4079L26.735 11.1134L27.9758 10.4079V8.91699L26.735 8.18075L25.4943 8.91699V10.4079Z" fill="url(#paint3_linear_6_301)"/>
<defs>
<linearGradient id="paint0_linear_6_301" x1="27.9787" y1="8.91844" x2="2.37141" y2="18.9229" gradientUnits="userSpaceOnUse">
<stop stop-color="#C200FB"/>
<stop offset="0.489658" stop-color="#3772FF"/>
<stop offset="1" stop-color="#5AC4BE"/>
</linearGradient>
<linearGradient id="paint1_linear_6_301" x1="27.9788" y1="8.91874" x2="2.37151" y2="18.9232" gradientUnits="userSpaceOnUse">
<stop stop-color="#C200FB"/>
<stop offset="0.489658" stop-color="#3772FF"/>
<stop offset="1" stop-color="#5AC4BE"/>
</linearGradient>
<linearGradient id="paint2_linear_6_301" x1="27.9786" y1="8.9184" x2="2.37128" y2="18.9228" gradientUnits="userSpaceOnUse">
<stop stop-color="#C200FB"/>
<stop offset="0.489658" stop-color="#3772FF"/>
<stop offset="1" stop-color="#5AC4BE"/>
</linearGradient>
<linearGradient id="paint3_linear_6_301" x1="27.9785" y1="8.91865" x2="2.37122" y2="18.9231" gradientUnits="userSpaceOnUse">
<stop stop-color="#C200FB"/>
<stop offset="0.489658" stop-color="#3772FF"/>
<stop offset="1" stop-color="#5AC4BE"/>
</linearGradient>
</defs>
</svg>
