<svg width="32" height="32" viewBox="0 0 32 32" fill="none" xmlns="http://www.w3.org/2000/svg">
<g clip-path="url(#clip0_1_35)">
<path d="M16 32C24.8366 32 32 24.8366 32 16C32 7.16344 24.8366 0 16 0C7.16344 0 0 7.16344 0 16C0 24.8366 7.16344 32 16 32Z" fill="#50AF95"/>
<path d="M16.0159 16.4154C16.9123 16.4154 17.3141 16.3915 17.3919 16.3856L17.3893 16.385C20.1395 16.2631 22.1909 15.7835 22.1909 15.2105C22.1909 14.6375 20.1388 14.1579 17.3893 14.0354V15.9086C17.3122 15.9157 16.8837 15.9514 16.0282 15.9514C15.3152 15.9514 14.7992 15.9209 14.6191 15.9079V14.0341C11.8637 14.1572 9.80707 14.6362 9.80707 15.2105C9.80707 15.7848 11.8637 16.2644 14.6191 16.3856C14.7967 16.3941 15.3029 16.4154 16.0159 16.4154Z" fill="white"/>
<path fill-rule="evenodd" clip-rule="evenodd" d="M5.01649 15.5202L9.028 7.094C9.04113 7.06562 9.06219 7.04164 9.08864 7.02497C9.11509 7.00829 9.14581 6.99962 9.17707 7.00001H22.8242C22.8553 6.99993 22.8858 7.00881 22.912 7.02559C22.9382 7.04237 22.9591 7.06635 22.972 7.09464L26.9835 15.5208C26.9988 15.5522 27.0036 15.5876 26.9973 15.6218C26.991 15.6561 26.9739 15.6875 26.9485 15.7114L16.1144 26.0924C16.0836 26.1219 16.0426 26.1384 16 26.1384C15.9574 26.1384 15.9164 26.1219 15.8856 26.0924L5.05149 15.7107C5.02609 15.6869 5.00899 15.6555 5.00269 15.6212C4.99639 15.5869 5.00123 15.5515 5.01649 15.5202ZM17.3919 12.1648V13.8416C20.5047 13.9855 22.8436 14.6019 22.8436 15.3414C22.8436 16.081 20.5025 16.698 17.3913 16.8413V22.2165H14.6184V16.8432C11.5001 16.6993 9.15501 16.0823 9.15501 15.3421C9.15501 14.6019 11.5001 13.9842 14.6184 13.8409V12.1648H10.7819V9.60775H21.2291V12.1648H17.3919Z" fill="white"/>
</g>
<defs>
<clipPath id="clip0_1_35">
<rect width="32" height="32" fill="white"/>
</clipPath>
</defs>
</svg>
