<svg width="142" height="37" viewBox="0 0 142 37" fill="none" xmlns="http://www.w3.org/2000/svg">
<path fill-rule="evenodd" clip-rule="evenodd" d="M15.8764 10.5433C15.8766 10.5431 15.8767 10.5429 15.8769 10.5427C17.1286 11.1848 18.4982 11.4048 19.8088 11.401C20.5703 12.1004 21.2039 12.9219 21.7992 13.7654C22.0461 14.1178 22.2687 14.4864 22.4656 14.869C22.9208 15.7455 23.2556 16.6729 23.5944 17.6112C23.6937 17.8864 23.7934 18.1626 23.8966 18.4386C23.9289 18.5568 23.9627 18.675 23.9979 18.7933L23.9997 18.7928C24.5229 20.5871 25.2869 22.5039 26.3106 24.0865L26.3096 24.0869C26.6482 24.6068 27.0275 25.099 27.4439 25.559C27.5259 25.6477 27.6097 25.7355 27.6936 25.8234L27.6936 25.8234L27.6937 25.8234L27.6938 25.8235C28.0859 26.2343 28.4807 26.6479 28.7045 27.1654C28.9832 27.8103 28.9618 28.5521 28.7942 29.2346C28.0034 32.4515 24.9051 33.2967 21.9441 33.3747L21.9455 33.371C20.8353 33.3931 19.7328 33.3103 18.7551 33.2102C18.7551 33.2102 14.0399 32.7222 10.0432 29.8005L9.91421 29.7046C9.91421 29.7046 9.91421 29.7046 9.91424 29.7046C9.44772 29.357 9.00266 28.9815 8.5815 28.58C7.46125 27.511 6.46448 26.2984 5.70224 24.9672C5.70735 24.9621 5.71242 24.957 5.71752 24.9519C5.6273 24.7896 5.54079 24.6256 5.45805 24.46C4.72065 22.9843 4.27124 21.3779 4.25089 19.6705C4.21619 16.8055 5.19644 13.8715 7.05972 11.7443C7.05903 11.7425 7.05837 11.7408 7.05771 11.739C8.06656 10.6341 9.32752 9.76603 10.8203 9.27185C11.7561 8.95919 12.7386 8.80907 13.725 8.82801C14.3253 9.5328 15.0558 10.1152 15.8764 10.5433ZM13.5796 29.2887C14.2542 29.0425 14.8932 28.7114 15.4892 28.3034C14.8895 28.7086 14.2495 29.04 13.5796 29.2887Z" fill="url(#paint0_linear_1363_21577)"/>
<path fill-rule="evenodd" clip-rule="evenodd" d="M25.663 8.21009C25.6635 8.21009 25.664 8.21009 25.6645 8.21006L25.7052 8.18385C20.4481 -0.78261 13.5742 6.27675 13.5742 6.27675L13.584 6.29403C13.5836 6.29413 13.5833 6.29424 13.5828 6.29434C17.5356 13.2238 25.0479 8.60527 25.663 8.21009Z" fill="url(#paint1_linear_1363_21577)"/>
<path d="M19.1464 23.654C17.6978 27.1164 14.9165 29.4091 11.5467 29.7563C11.4743 29.766 10.552 29.8388 10.043 29.8012C14.0397 32.7228 18.7549 33.2108 18.7549 33.2108C19.7644 33.3143 20.9071 33.3991 22.0539 33.3691C22.4578 32.3149 22.6851 31.1079 22.6199 29.7384C22.4685 26.5577 24.313 24.9248 26.3103 24.0871C25.2867 22.5045 24.5227 20.5878 23.9995 18.7935C22.4398 19.2083 20.4591 20.5129 19.1464 23.654Z" fill="url(#paint2_linear_1363_21577)"/>
<path d="M22.5582 29.7154C22.6237 31.0849 22.3492 32.3205 21.9453 33.3747C24.9063 33.2968 28.0046 32.4515 28.7954 29.2347C28.963 28.5522 28.9844 27.8104 28.7057 27.1655C28.434 26.5371 27.91 26.0619 27.4451 25.5591C27.0102 25.0787 26.6158 24.5631 26.2659 24.0176C24.2703 24.8556 22.4068 26.5351 22.5582 29.7154Z" fill="url(#paint3_linear_1363_21577)"/>
<path d="M23.8964 18.4387C23.4415 17.2213 23.0542 16.0026 22.4654 14.869C22.2686 14.4865 22.0459 14.1178 21.7991 13.7655C21.2038 12.9219 20.5702 12.1005 19.8087 11.4011C18.498 11.4049 17.1284 11.1849 15.8768 10.5427C14.6089 12.3408 13.1582 15.3912 14.4861 18.8729C16.4469 24.0148 12.4677 27.5289 9.91406 29.7047L10.0431 29.8006C10.5219 29.8379 11.0031 29.831 11.4806 29.7799C14.85 29.4322 17.7923 27.0844 19.2409 23.6223C20.554 20.4813 22.4641 19.2881 24.0216 18.8729C23.9777 18.728 23.936 18.5833 23.8964 18.4387Z" fill="url(#paint4_linear_1363_21577)"/>
<path d="M7.19672 11.5918C5.24456 13.73 4.21536 16.7368 4.25089 19.6713C4.27124 21.3787 4.72065 22.9851 5.45805 24.4607C5.56866 24.6821 5.68593 24.9005 5.80986 25.116C9.91387 20.9969 8.43113 14.8594 7.19672 11.5918Z" fill="url(#paint5_linear_1363_21577)"/>
<path d="M14.5561 18.8728C13.2282 15.3897 14.6465 12.3594 15.9126 10.5616C15.0776 10.1318 14.3348 9.54291 13.7259 8.82801C12.7394 8.80907 11.757 8.95919 10.8211 9.27185C9.32841 9.76603 8.06744 10.6341 7.0586 11.739C8.26576 14.9348 9.71642 20.9386 5.70312 24.9672C6.46536 26.2984 7.46213 27.511 8.58238 28.58C9.02423 29.0012 9.49241 29.3939 9.98407 29.7557C12.5377 27.581 16.5169 24.0147 14.5561 18.8728Z" fill="url(#paint6_linear_1363_21577)"/>
<path d="M19.5068 6.84799C22.2857 7.94431 24.232 8.24124 25.643 8.19882L25.6837 8.17261C20.4267 -0.793831 13.5527 6.26552 13.5527 6.26552L13.5627 6.2831C15.0455 6.02032 17.2004 5.93859 19.5068 6.84799Z" fill="url(#paint7_linear_1363_21577)"/>
<path d="M19.5405 6.78609C17.2355 5.87807 15.0681 5.91255 13.5605 6.28328C17.5135 13.213 25.0262 8.59387 25.6408 8.199C24.2288 8.24141 22.3194 7.88241 19.5405 6.78609Z" fill="url(#paint8_linear_1363_21577)"/>
<path d="M54.748 24.464L62.98 9.4H65.78V29H62.42V16.624L55.476 29H53.796L46.964 16.764V29H43.604V9.4H46.46L54.748 24.464ZM76.7431 14.44C78.8711 14.44 80.5231 15 81.6991 16.12C82.8938 17.2213 83.4911 18.696 83.4911 20.544V29H80.9991L80.4391 27.404H80.2991C79.8324 27.9267 79.1698 28.3933 78.3111 28.804C77.4711 29.196 76.4258 29.392 75.1751 29.392C73.9804 29.392 72.9444 29.196 72.0671 28.804C71.2084 28.412 70.5551 27.8893 70.1071 27.236C69.6591 26.564 69.4351 25.8173 69.4351 24.996C69.4351 23.6333 69.9951 22.532 71.1151 21.692C72.2351 20.8333 73.8404 20.404 75.9311 20.404H80.1871V20.236C80.1871 19.3587 79.8884 18.6587 79.2911 18.136C78.7124 17.6133 77.8724 17.352 76.7711 17.352C75.1471 17.352 74.0551 17.9213 73.4951 19.06H70.1911C70.4898 17.6787 71.2084 16.568 72.3471 15.728C73.4858 14.8693 74.9511 14.44 76.7431 14.44ZM75.7071 26.648C77.1444 26.648 78.2458 26.3493 79.0111 25.752C79.7951 25.136 80.1871 24.3707 80.1871 23.456V22.784H76.0431C74.8858 22.784 74.0364 22.9613 73.4951 23.316C72.9724 23.6707 72.7111 24.1467 72.7111 24.744C72.7111 25.3227 72.9538 25.7893 73.4391 26.144C73.9244 26.48 74.6804 26.648 75.7071 26.648ZM87.4131 29V14.832H89.8771L90.4651 16.4H90.6051C91.0157 15.896 91.6317 15.448 92.4531 15.056C93.2931 14.6453 94.3104 14.44 95.5051 14.44C96.8304 14.44 97.9971 14.72 99.0051 15.28C100.032 15.84 100.825 16.6333 101.385 17.66C101.964 18.668 102.253 19.844 102.253 21.188V29H98.9771V21.692C98.9771 20.4413 98.5944 19.4333 97.8291 18.668C97.0824 17.884 96.0931 17.492 94.8611 17.492C93.6104 17.492 92.6024 17.884 91.8371 18.668C91.0717 19.4333 90.6891 20.4413 90.6891 21.692V29H87.4131ZM113.192 34.32C111.717 34.32 110.457 34.0867 109.412 33.62C108.385 33.172 107.592 32.6027 107.032 31.912C106.49 31.24 106.136 30.5587 105.968 29.868H109.356C109.636 30.3533 110.093 30.7267 110.728 30.988C111.381 31.268 112.202 31.408 113.192 31.408C114.554 31.408 115.628 31.0813 116.412 30.428C117.196 29.7933 117.588 28.8973 117.588 27.74V26.648H117.448C117.298 26.872 117 27.1333 116.552 27.432C116.122 27.7307 115.572 27.992 114.9 28.216C114.228 28.4213 113.49 28.524 112.688 28.524C111.269 28.524 109.99 28.216 108.852 27.6C107.732 26.9653 106.854 26.116 106.22 25.052C105.585 23.9693 105.268 22.7653 105.268 21.44C105.268 20.1333 105.585 18.948 106.22 17.884C106.854 16.82 107.732 15.98 108.852 15.364C109.972 14.748 111.241 14.44 112.66 14.44C113.892 14.44 114.918 14.6453 115.74 15.056C116.561 15.4667 117.205 15.9147 117.672 16.4H117.812L118.4 14.832H120.892V27.656C120.892 29 120.584 30.1667 119.968 31.156C119.352 32.164 118.465 32.9387 117.308 33.48C116.15 34.04 114.778 34.32 113.192 34.32ZM113.08 25.612C113.938 25.612 114.713 25.4347 115.404 25.08C116.094 24.7253 116.626 24.2307 117 23.596C117.392 22.9613 117.588 22.252 117.588 21.468C117.588 20.684 117.392 19.984 117 19.368C116.608 18.7333 116.066 18.2387 115.376 17.884C114.704 17.5293 113.938 17.352 113.08 17.352C111.773 17.352 110.69 17.744 109.832 18.528C108.992 19.2933 108.572 20.2733 108.572 21.468C108.572 22.252 108.758 22.9613 109.132 23.596C109.524 24.2307 110.065 24.7253 110.756 25.08C111.446 25.4347 112.221 25.612 113.08 25.612ZM132.111 29.392C130.599 29.392 129.227 29.0653 127.995 28.412C126.763 27.74 125.792 26.8347 125.083 25.696C124.374 24.5573 124.019 23.2973 124.019 21.916C124.019 20.5347 124.374 19.2747 125.083 18.136C125.792 16.9973 126.763 16.1013 127.995 15.448C129.227 14.776 130.599 14.44 132.111 14.44C133.623 14.44 134.995 14.776 136.227 15.448C137.459 16.1013 138.43 16.9973 139.139 18.136C139.848 19.2747 140.203 20.5347 140.203 21.916C140.203 23.2973 139.848 24.5573 139.139 25.696C138.43 26.8347 137.459 27.74 136.227 28.412C134.995 29.0653 133.623 29.392 132.111 29.392ZM132.111 26.396C133.026 26.396 133.847 26.2093 134.575 25.836C135.322 25.444 135.9 24.912 136.311 24.24C136.722 23.5493 136.927 22.7747 136.927 21.916C136.927 21.0573 136.722 20.292 136.311 19.62C135.9 18.9293 135.322 18.3973 134.575 18.024C133.847 17.632 133.026 17.436 132.111 17.436C131.196 17.436 130.375 17.632 129.647 18.024C128.919 18.3973 128.35 18.9293 127.939 19.62C127.528 20.292 127.323 21.0573 127.323 21.916C127.323 22.7747 127.528 23.5493 127.939 24.24C128.35 24.912 128.919 25.444 129.647 25.836C130.375 26.2093 131.196 26.396 132.111 26.396Z" fill="#E5E3EC"/>
<defs>
<linearGradient id="paint0_linear_1363_21577" x1="1.17504" y1="13.0336" x2="33.318" y2="32.2975" gradientUnits="userSpaceOnUse">
<stop stop-color="#E54033"/>
<stop offset="0.489583" stop-color="#FECA1A"/>
<stop offset="1" stop-color="#AFD803"/>
</linearGradient>
<linearGradient id="paint1_linear_1363_21577" x1="9096.98" y1="1078.01" x2="7084.85" y2="-991.996" gradientUnits="userSpaceOnUse">
<stop offset="0.15" stop-color="#6CBF00"/>
<stop offset="1" stop-color="#AFD803"/>
</linearGradient>
<linearGradient id="paint2_linear_1363_21577" x1="6.72534" y1="30.0439" x2="26.8674" y2="25.1458" gradientUnits="userSpaceOnUse">
<stop offset="0.21" stop-color="#E54033"/>
<stop offset="0.84" stop-color="#FECA1A"/>
</linearGradient>
<linearGradient id="paint3_linear_1363_21577" x1="22.5961" y1="28.685" x2="28.8113" y2="28.7315" gradientUnits="userSpaceOnUse">
<stop stop-color="#FECA1A"/>
<stop offset="0.4" stop-color="#FECA1A"/>
<stop offset="1" stop-color="#AFD803"/>
</linearGradient>
<linearGradient id="paint4_linear_1363_21577" x1="8.52652" y1="30.1689" x2="21.267" y2="12.9184" gradientUnits="userSpaceOnUse">
<stop offset="0.16" stop-color="#E54033"/>
<stop offset="0.84" stop-color="#FECA1A"/>
</linearGradient>
<linearGradient id="paint5_linear_1363_21577" x1="6.67108" y1="13.0306" x2="6.10695" y2="24.1717" gradientUnits="userSpaceOnUse">
<stop stop-color="#FECA1A"/>
<stop offset="0.76" stop-color="#E54033"/>
</linearGradient>
<linearGradient id="paint6_linear_1363_21577" x1="12.9054" y1="10.1368" x2="9.50298" y2="23.0579" gradientUnits="userSpaceOnUse">
<stop offset="0.16" stop-color="#FECA1A"/>
<stop offset="1" stop-color="#E54033"/>
</linearGradient>
<linearGradient id="paint7_linear_1363_21577" x1="14.2229" y1="3.95079" x2="26.8229" y2="8.59568" gradientUnits="userSpaceOnUse">
<stop offset="0.15" stop-color="#6CBF00"/>
<stop offset="1" stop-color="#AFD803"/>
</linearGradient>
<linearGradient id="paint8_linear_1363_21577" x1="9096.95" y1="1078" x2="7084.82" y2="-992.007" gradientUnits="userSpaceOnUse">
<stop offset="0.15" stop-color="#6CBF00"/>
<stop offset="1" stop-color="#AFD803"/>
</linearGradient>
</defs>
</svg>
