<svg width="985" height="1006" viewBox="0 0 985 1006" fill="none" xmlns="http://www.w3.org/2000/svg">
<g clip-path="url(#clip0_1501_16732)">
<path d="M577.996 164.494C511.332 138.229 448.649 139.227 405.047 149.95C519.372 350.391 736.652 216.784 754.428 205.362C713.589 206.589 658.367 196.205 577.996 164.494Z" fill="url(#paint0_linear_1501_16732)"/>
<path d="M577 166.289C657.369 198 713.659 206.589 754.467 205.362L755.643 204.604C603.604 -54.75 404.799 149.441 404.799 149.441L405.088 149.95C447.971 142.349 510.295 139.985 577 166.289Z" fill="url(#paint1_linear_1501_16732)"/>
<path d="M566.586 652.388C524.691 752.539 444.25 818.854 346.794 828.9C344.698 829.179 318.025 831.283 303.302 830.196C418.894 914.705 555.265 928.82 555.265 928.82C584.461 931.812 617.509 934.266 650.677 933.398C662.356 902.905 668.931 867.992 667.045 828.38C662.666 736.38 716.013 689.147 773.78 664.917C744.173 619.141 722.079 563.7 706.946 511.798C661.839 523.799 604.55 561.535 566.586 652.388Z" fill="url(#paint2_linear_1501_16732)"/>
<path d="M665.218 827.73C667.114 867.342 659.173 903.083 647.493 933.578C733.13 931.323 822.737 906.874 845.61 813.825C850.458 794.084 851.076 772.628 843.017 753.975C835.155 735.8 820.004 722.054 806.557 707.511C793.977 693.614 782.571 678.701 772.451 662.922C714.736 687.161 660.84 735.74 665.218 827.73Z" fill="url(#paint3_linear_1501_16732)"/>
<path d="M703.962 501.554C690.805 466.342 679.604 431.09 662.577 398.303C656.882 387.237 650.443 376.573 643.305 366.382C626.088 341.981 607.763 318.222 585.737 297.991C547.831 298.101 508.221 291.738 472.021 273.164C435.351 325.175 393.396 413.403 431.8 514.114C488.509 662.843 373.427 764.49 299.57 827.423L303.301 830.196C317.149 831.276 331.066 831.076 344.878 829.597C442.325 819.542 527.423 751.632 569.318 651.491C607.294 560.638 662.536 526.124 707.585 514.114C706.313 509.924 705.108 505.737 703.962 501.554Z" fill="url(#paint4_linear_1501_16732)"/>
<path d="M220.976 303.487C164.517 365.333 134.751 452.307 135.779 537.185C136.367 586.573 149.365 633.036 170.692 675.72C173.89 682.124 177.282 688.441 180.866 694.672C299.561 575.529 256.677 398.002 220.976 303.487Z" fill="url(#paint5_linear_1501_16732)"/>
<path d="M433.795 514.112C395.391 413.364 436.41 325.713 473.029 273.712C448.88 261.279 427.397 244.245 409.786 223.566C381.255 223.019 352.841 227.362 325.775 236.405C282.603 250.699 246.134 275.807 216.956 307.767C251.869 400.207 293.825 573.864 177.754 690.393C199.799 728.898 228.627 763.97 261.026 794.893C273.805 807.076 287.346 818.435 301.565 828.899C375.421 765.996 490.504 662.842 433.795 514.112Z" fill="url(#paint6_linear_1501_16732)"/>
</g>
<defs>
<linearGradient id="paint0_linear_1501_16732" x1="433.489" y1="200.923" x2="716.471" y2="237.75" gradientUnits="userSpaceOnUse">
<stop stop-color="#AFD803"/>
<stop offset="1" stop-color="#6CBF00"/>
</linearGradient>
<linearGradient id="paint1_linear_1501_16732" x1="424.179" y1="82.488" x2="788.603" y2="216.813" gradientUnits="userSpaceOnUse">
<stop offset="0.15" stop-color="#6CBF00"/>
<stop offset="1" stop-color="#AFD803"/>
</linearGradient>
<linearGradient id="paint2_linear_1501_16732" x1="207.351" y1="837.218" x2="789.9" y2="695.572" gradientUnits="userSpaceOnUse">
<stop offset="0.21" stop-color="#E54033"/>
<stop offset="0.84" stop-color="#FECA1A"/>
</linearGradient>
<linearGradient id="paint3_linear_1501_16732" x1="666.315" y1="797.926" x2="846.068" y2="799.273" gradientUnits="userSpaceOnUse">
<stop stop-color="#FECA1A"/>
<stop offset="0.4" stop-color="#FECA1A"/>
<stop offset="1" stop-color="#AFD803"/>
</linearGradient>
<linearGradient id="paint4_linear_1501_16732" x1="259.44" y1="840.849" x2="627.971" y2="341.923" gradientUnits="userSpaceOnUse">
<stop offset="0.16" stop-color="#E54033"/>
<stop offset="0.84" stop-color="#FECA1A"/>
</linearGradient>
<linearGradient id="paint5_linear_1501_16732" x1="205.774" y1="345.103" x2="189.455" y2="667.361" gradientUnits="userSpaceOnUse">
<stop stop-color="#FECA1A"/>
<stop offset="0.76" stop-color="#E54033"/>
</linearGradient>
<linearGradient id="paint6_linear_1501_16732" x1="386.054" y1="261.422" x2="287.63" y2="635.161" gradientUnits="userSpaceOnUse">
<stop offset="0.16" stop-color="#FECA1A"/>
<stop offset="1" stop-color="#E54033"/>
</linearGradient>
<clipPath id="clip0_1501_16732">
<rect width="715.21" height="860.578" fill="white" transform="translate(135 73)"/>
</clipPath>
</defs>
</svg>
